<svg width="27" height="19" viewBox="0 0 27 19" fill="none" xmlns="http://www.w3.org/2000/svg">
<g clip-path="url(#clip0_10411_28612)">
<path d="M0 0.0429688H27V18.043H0V0.0429688Z" fill="#10338C"/>
<path d="M11.6948 9.02728C11.7106 9.01149 11.7212 8.9957 11.7369 8.97991C11.7264 8.9957 11.7106 9.01149 11.6948 9.02728ZM9.89484 11.2325L10.4738 12.4378L11.7738 12.1378L11.1948 13.3378L12.2422 14.1694L10.9369 14.4641L10.9422 15.801L9.89484 14.9641L8.85273 15.801L8.858 14.4641L7.55273 14.1694L8.6001 13.3378L8.01589 12.1378L9.32116 12.4378L9.89484 11.2325ZM20.3106 12.7325L20.5843 13.3062L21.2054 13.1641L20.9264 13.7378L21.4264 14.1325L20.8054 14.2694V14.9115L20.3106 14.5115L19.8106 14.9115L19.8159 14.2694L19.1948 14.1325L19.6948 13.7378L19.4159 13.1641L20.0369 13.3062L20.3106 12.7325ZM17.7527 6.62728L18.0264 7.20096L18.6475 7.05886L18.3685 7.63254L18.8685 8.02728L18.2475 8.16938V8.80622L17.7527 8.40622L17.2527 8.80622L17.258 8.16938L16.6317 8.02728L17.1317 7.63254L16.8527 7.05886L17.4738 7.20096L17.7527 6.62728ZM20.3106 3.14307L20.5843 3.71675L21.2054 3.57465L20.9264 4.14833L21.4264 4.54307L20.8054 4.68517V5.32201L20.3106 4.92201L19.8106 5.32201L19.8159 4.68517L19.1948 4.54307L19.6948 4.14833L19.4159 3.57465L20.0369 3.71675L20.3106 3.14307ZM22.5475 5.75886L22.8212 6.33254L23.4422 6.19043L23.1633 6.76412L23.6633 7.15886L23.0422 7.2957V7.9378L22.5475 7.5378L22.0475 7.9378V7.2957L21.4264 7.15886L21.9264 6.76412L21.6475 6.19043L22.2685 6.33254L22.5475 5.75886ZM20.9475 8.80622L21.1633 9.47465H21.8633L21.2948 9.88517L21.5159 10.5536L20.9475 10.1378L20.3791 10.5536L20.5948 9.88517L20.0317 9.47465H20.7317L20.9475 8.80622Z" fill="white"/>
<path d="M13.4112 0.0429688V1.65349L11.0375 2.97455H13.4112V6.0956H10.3007L13.4112 7.82192V9.02718H12.0059L8.1375 6.87455V9.02718H5.21118V6.46928L0.611184 9.02718H-0.0625V7.41665L2.31645 6.0956H-0.0625V2.97455H3.04803L-0.0625 1.24297V0.0429688H1.34276L5.21118 2.19034V0.0429688H8.1375V2.60086L12.7428 0.0429688H13.4112Z" fill="white"/>
<path d="M7.51645 0.0429688H5.83224V3.69034H-0.0625V5.37455H5.83224V9.02718H7.51645V5.37455H13.4112V3.69034H7.51645V0.0429688Z" fill="#C9311A"/>
<path d="M8.13672 6.0957L13.4104 9.02728V8.1957L9.63146 6.0957H8.13672Z" fill="#0052B4"/>
<path d="M8.13672 6.0957L13.4104 9.02728V8.1957L9.63146 6.0957H8.13672Z" fill="white"/>
<path d="M8.1375 6.0957L13.4112 9.02728V8.1957L9.63224 6.0957H8.1375ZM3.72171 6.0957L-0.0625 8.1957V9.02728L5.21118 6.0957H3.72171Z" fill="#C9311A"/>
<path d="M5.21118 2.97455L-0.0625 0.0429688V0.869284L3.72171 2.97455H5.21118Z" fill="#0052B4"/>
<path d="M5.21118 2.97455L-0.0625 0.0429688V0.869284L3.72171 2.97455H5.21118Z" fill="white"/>
<path d="M5.21118 2.97455L-0.0625 0.0429688V0.869284L3.72171 2.97455H5.21118ZM9.63224 2.97455L13.4112 0.869284V0.0429688L8.1375 2.97455H9.63224Z" fill="#C9311A"/>
</g>
<defs>
<clipPath id="clip0_10411_28612">
<rect y="0.0429688" width="27" height="18" rx="2" fill="white"/>
</clipPath>
</defs>
</svg>
