<svg width="27" height="19" viewBox="0 0 27 19" fill="none" xmlns="http://www.w3.org/2000/svg">
<g clip-path="url(#clip0_10411_28620)">
<path d="M0 0.81543H26.9474V18.8154H0V0.81543Z" fill="white"/>
<path d="M0 0.81543H26.9474V5.61543H0V0.81543ZM0 14.0154H26.9474V18.8154H0V14.0154Z" fill="#D03433"/>
<path d="M0 5.60474H26.9474V14.0258H0V5.60474Z" fill="#FBCA46"/>
<path d="M9.3418 9.21533H10.5395V9.81533H9.3418V9.21533Z" fill="white"/>
<path d="M8.62289 11.0155C8.62289 11.3755 8.98219 11.6155 9.34149 11.6155C9.70079 11.6155 10.0601 11.3755 10.0601 11.0155L10.1799 9.21548H8.50313L8.62289 11.0155ZM7.9043 9.21548C7.9043 8.85548 8.14383 8.61548 8.38336 8.61548H10.1799C10.5392 8.61548 10.7787 8.85548 10.7787 9.09548V9.21548L10.6589 11.0155C10.5392 11.7355 10.0601 12.2155 9.34149 12.2155C8.62289 12.2155 8.14383 11.7355 8.02406 11.0155L7.9043 9.21548Z" fill="#A41517"/>
<path d="M8.14415 9.81543H10.5395V10.4154H9.94064L9.34181 11.6154L8.74298 10.4154H8.14415V9.81543ZM6.34766 8.01543H7.54532V12.2154H6.34766V8.01543ZM11.1383 8.01543H12.336V12.2154H11.1383V8.01543ZM8.14415 7.41543C8.14415 7.05543 8.38368 6.81543 8.74298 6.81543H9.94064C10.2999 6.81543 10.5395 7.05543 10.5395 7.41543V7.65543C10.5395 7.89543 10.4197 8.01543 10.1802 8.01543H8.38368C8.26392 8.01543 8.14415 7.89543 8.14415 7.77543V7.41543Z" fill="#A41517"/>
</g>
<defs>
<clipPath id="clip0_10411_28620">
<rect y="0.802734" width="27" height="18" rx="2" fill="white"/>
</clipPath>
</defs>
</svg>
