<svg width="27" height="19" viewBox="0 0 27 19" fill="none" xmlns="http://www.w3.org/2000/svg">
<g clip-path="url(#clip0_10411_28621)">
<path d="M0 0.0429688H27V18.043H0V0.0429688Z" fill="#055E1C"/>
<path d="M9.67929 10.8036C9.67929 11.452 10.1924 11.9775 10.8255 11.9775H14.2642C14.2642 12.5177 14.6919 12.9558 15.2195 12.9558H16.3657C16.8933 12.9558 17.3209 12.5178 17.3209 11.9775V10.8036H9.67929ZM17.4163 5.12964V7.86877C17.4163 8.3003 17.0735 8.65135 16.6521 8.65135V9.82527C17.7055 9.82527 18.5625 8.94761 18.5625 7.86877V5.12964H17.4163ZM9.20167 7.86882C9.20167 8.30035 8.8589 8.6514 8.4375 8.6514V9.82532C9.49092 9.82532 10.3479 8.94766 10.3479 7.86882V5.12969H9.20162V7.86882H9.20167Z" fill="white"/>
<path d="M15.6979 5.12939H16.8442V7.86853H15.6979V5.12939ZM13.9786 6.69482C13.9786 6.80271 13.8929 6.89046 13.7875 6.89046C13.6822 6.89046 13.5965 6.80271 13.5965 6.69482V5.12955H12.4502V6.69482C12.4502 6.80271 12.3645 6.89046 12.2592 6.89046C12.1538 6.89046 12.0681 6.80271 12.0681 6.69482V5.12955H10.9219V6.69482C10.9219 7.44997 11.5218 8.06438 12.2591 8.06438C12.5431 8.06438 12.8065 7.97299 13.0233 7.81774C13.24 7.97299 13.5035 8.06438 13.7875 8.06438C13.8446 8.06438 13.9008 8.06027 13.9562 8.05304C13.875 8.39576 13.5736 8.65132 13.2143 8.65132V9.82524C14.2678 9.82524 15.1247 8.94758 15.1247 7.86874V5.12955H13.9785L13.9786 6.69482Z" fill="white"/>
<path d="M10.9219 8.65112H12.6411V9.82504H10.9219V8.65112Z" fill="white"/>
</g>
<defs>
<clipPath id="clip0_10411_28621">
<rect y="0.0429688" width="27" height="18" rx="2" fill="white"/>
</clipPath>
</defs>
</svg>
