<svg width="28" height="18" viewBox="0 0 28 18" fill="none" xmlns="http://www.w3.org/2000/svg">
<g clip-path="url(#clip0_8336_25014)">
<path d="M0 0H27.3913V18.0002H0V0Z" fill="white"/>
<path d="M15.4076 -0.000244141H11.9837V7.31223H0V10.6872H11.9837V17.9997H15.4076V10.6872H27.3913V7.31223H15.4076V-0.000244141Z" fill="#C9311A"/>
<path d="M21.0678 12.1301L27.3922 15.5935V12.1301H21.0678ZM16.6738 12.1301L27.3922 17.9997V16.3399L19.7048 12.1301H16.6738ZM24.5372 17.9997L16.6738 13.6932V17.9997H24.5372Z" fill="#0052B4"/>
<path d="M16.6738 12.1301L27.3922 17.9997V16.3399L19.7048 12.1301H16.6738Z" fill="white"/>
<path d="M16.6738 12.1301L27.3922 17.9997V16.3399L19.7048 12.1301H16.6738Z" fill="#C9311A"/>
<path d="M4.83312 12.1301L0 14.7769V12.1301H4.83312ZM10.7183 12.8765V17.9997H1.36373L10.7183 12.8765Z" fill="#0052B4"/>
<path d="M7.68738 12.1301L0 16.3399V17.9997L10.7183 12.1301H7.68738Z" fill="#C9311A"/>
<path d="M6.32434 5.86931L0 2.40592V5.86931H6.32434ZM10.7183 5.86931L0 -0.000244141V1.65952L7.68738 5.86931H10.7183ZM2.85501 -0.000244141L10.7183 4.30626V-0.000244141H2.85501Z" fill="#0052B4"/>
<path d="M10.7183 5.86931L0 -0.000244141V1.65952L7.68738 5.86931H10.7183Z" fill="white"/>
<path d="M10.7183 5.86931L0 -0.000244141V1.65952L7.68738 5.86931H10.7183Z" fill="#C9311A"/>
<path d="M22.5591 5.86961L27.3922 3.22286V5.86961H22.5591ZM16.6738 5.1232V0H26.0284L16.6738 5.1232Z" fill="#0052B4"/>
<path d="M19.7048 5.86931L27.3922 1.65952V-0.000244141L16.6738 5.86931H19.7048Z" fill="#C9311A"/>
</g>
<defs>
<clipPath id="clip0_8336_25014">
<rect width="27.3913" height="18" rx="2" fill="white"/>
</clipPath>
</defs>
</svg>
