<svg width="27" height="18" viewBox="0 0 27 18" fill="none" xmlns="http://www.w3.org/2000/svg">
<g clip-path="url(#clip0_10411_28618)">
<path d="M0 0H27V18H0V0Z" fill="white"/>
<path d="M0 0H27V1.38421H0V0ZM0 2.76842H27V4.15263H0V2.76842ZM0 5.53684H27V6.92105H0V5.53684ZM0 8.30526H27V9.68947H0V8.30526ZM0 11.0789H27V12.4632H0V11.0789ZM0 13.8474H27V15.2316H0V13.8474ZM0 16.6158H27V18H0V16.6158Z" fill="#C9311A"/>
<path d="M0 0H13.5V9.68947H0V0Z" fill="#2E52B2"/>
<path d="M2.51575 7.31058L2.30522 6.63689L2.07364 7.31058H1.37891L1.94206 7.71584L1.73154 8.38952L2.30522 7.97373L2.86312 8.38952L2.64733 7.71584L3.22101 7.31058H2.51575ZM5.47891 7.31058L5.26312 6.63689L5.04206 7.31058H4.34733L4.91049 7.71584L4.69996 8.38952L5.26312 7.97373L5.83154 8.38952L5.62101 7.71584L6.18417 7.31058H5.47891ZM8.45259 7.31058L8.22627 6.63689L8.01575 7.31058H7.30522L7.88417 7.71584L7.66312 8.38952L8.22627 7.97373L8.80522 8.38952L8.58417 7.71584L9.14733 7.31058H8.45259ZM11.4105 7.31058L11.2 6.63689L10.9789 7.31058H10.2789L10.8473 7.71584L10.6368 8.38952L11.2 7.97373L11.7684 8.38952L11.5421 7.71584L12.121 7.31058H11.4105ZM5.26312 3.96321L5.04206 4.63689H4.34733L4.91049 5.05268L4.69996 5.71584L5.26312 5.30531L5.83154 5.71584L5.62101 5.05268L6.18417 4.63689H5.47891L5.26312 3.96321ZM2.30522 3.96321L2.07364 4.63689H1.37891L1.94206 5.05268L1.73154 5.71584L2.30522 5.30531L2.86312 5.71584L2.64733 5.05268L3.22101 4.63689H2.51575L2.30522 3.96321ZM8.22627 3.96321L8.01575 4.63689H7.30522L7.88417 5.05268L7.66312 5.71584L8.22627 5.30531L8.80522 5.71584L8.58417 5.05268L9.14733 4.63689H8.45259L8.22627 3.96321ZM11.2 3.96321L10.9789 4.63689H10.2789L10.8473 5.05268L10.6368 5.71584L11.2 5.30531L11.7684 5.71584L11.5421 5.05268L12.121 4.63689H11.4105L11.2 3.96321ZM2.30522 1.30005L2.07364 1.96321H1.37891L1.94206 2.379L1.73154 3.04742L2.30522 2.63163L2.86312 3.04742L2.64733 2.379L3.22101 1.96321H2.51575L2.30522 1.30005ZM5.26312 1.30005L5.04206 1.96321H4.34733L4.91049 2.379L4.69996 3.04742L5.26312 2.63163L5.83154 3.04742L5.62101 2.379L6.18417 1.96321H5.47891L5.26312 1.30005ZM8.22627 1.30005L8.01575 1.96321H7.30522L7.88417 2.379L7.66312 3.04742L8.22627 2.63163L8.80522 3.04742L8.58417 2.379L9.14733 1.96321H8.45259L8.22627 1.30005ZM11.2 1.30005L10.9789 1.96321H10.2789L10.8473 2.379L10.6368 3.04742L11.2 2.63163L11.7684 3.04742L11.5421 2.379L12.121 1.96321H11.4105L11.2 1.30005Z" fill="white"/>
</g>
<defs>
<clipPath id="clip0_10411_28618">
<rect width="27" height="18" rx="2" fill="white"/>
</clipPath>
</defs>
</svg>
