<svg width="460" height="90" viewBox="0 0 460 90" fill="none" xmlns="http://www.w3.org/2000/svg">
<path d="M60.4928 38.2165L60.4003 44.6056L55.0391 41.7003V35.4294L55.1051 35.4689L60.4928 38.2165Z" fill="white"/>
<path d="M83.7069 64.2988L66.712 74.0666L58.5908 78.7335V69.5968L66.712 64.9298L81.4621 56.4504V65.5477L83.7069 64.2988Z" fill="white"/>
<path d="M89.5837 21.3364V61.0121L84.0639 64.1015L83.7074 64.2987L81.4625 65.5476V32.2085L60.4004 44.6055L60.4928 38.2164L81.3965 26.0954L81.5682 25.9902L82.7963 25.2803L89.5837 21.3364Z" fill="white"/>
<path d="M86.2822 23.2822L81.3964 26.0955L76.286 23.3479L50.404 9.4128L42.2168 4.99562L43.4713 4.24628L50.6945 0L89.5835 21.3365" fill="white"/>
<path d="M81.396 26.0955L60.4923 38.2164L55.0518 35.4951L55.1046 35.4688L76.2856 23.3479L81.396 26.0955Z" fill="white"/>
<path d="M50.4037 9.41286L35.9573 17.7214L27.44 22.6118L19.332 18.2472L27.8229 13.2516L43.471 4.24634L42.2165 4.99568L50.4037 9.41286Z" fill="white"/>
<path d="M39.2588 50.5871L0 29.4478L8.49089 24.4521L47.3799 45.7887L39.2588 50.5871Z" fill="white"/>
<path d="M39.2588 90L47.3799 85.4645V45.7888L39.2588 50.5872V90Z" fill="white"/>
<path d="M141.698 52.0359C141.698 57.6815 137.095 61.3224 131.383 61.3224H117.987V29.5356H130.479C136.027 29.5356 140.547 33.1357 140.547 38.6176C140.547 41.2358 139.479 43.3222 137.753 44.8358C140.136 46.3495 141.657 48.8041 141.657 51.995L141.698 52.0359ZM125.261 36.3675V42.0131H130.438C132.082 42.0131 133.233 40.8267 133.233 39.1903C133.233 37.5539 132.123 36.3675 130.438 36.3675H125.261ZM134.383 51.5041C134.383 49.745 133.192 48.4768 131.383 48.4768H125.261V54.5723H131.383C133.192 54.5723 134.383 53.3041 134.383 51.545V51.5041Z" fill="white"/>
<path d="M164.504 54.3269V61.3224H145.807V29.5356H153.08V54.3269H164.463H164.504Z" fill="white"/>
<path d="M164.956 45.4496C164.956 36.0813 172.394 28.9221 181.557 28.9221C190.721 28.9221 198.159 36.0813 198.159 45.4496C198.159 54.8179 190.721 61.9771 181.557 61.9771C172.394 61.9771 164.956 54.8179 164.956 45.4496ZM190.844 45.4496C190.844 39.7632 186.735 35.9995 181.557 35.9995C176.38 35.9995 172.271 39.7632 172.271 45.4496C172.271 51.136 176.38 54.8997 181.557 54.8997C186.735 54.8997 190.844 51.136 190.844 45.4496Z" fill="white"/>
<path d="M201.322 45.4496C201.322 36.0813 208.308 28.9221 217.924 28.9221C223.718 28.9221 228.813 31.7858 231.607 36.2859L225.32 39.9268C223.923 37.4722 221.17 36.0404 217.924 36.0404C212.253 36.0404 208.637 39.8041 208.637 45.4905C208.637 51.177 212.294 54.9406 217.924 54.9406C221.17 54.9406 223.923 53.5088 225.32 51.0542L231.607 54.6952C228.854 59.1953 223.759 62.0589 217.924 62.0589C208.308 62.0589 201.322 54.8997 201.322 45.5314V45.4496Z" fill="white"/>
<path d="M252.976 61.3224L242.744 46.6359V61.3224H235.471V29.5356H242.744V43.3222L252.483 29.5356H260.784L250.017 44.9995L261.236 61.2815H252.935L252.976 61.3224Z" fill="white"/>
<path d="M296.369 61.3224H289.055V42.8313L280.795 56.2905H279.973L271.714 42.8313V61.3224H264.44V29.5356H271.714L280.384 43.6495L289.055 29.5356H296.369V61.3224Z" fill="white"/>
<path d="M322.34 54.3269V61.3224H302.287V29.5356H322.135V36.5312H309.602V41.8085H320.984V48.7223H309.602V54.3678H322.381L322.34 54.3269Z" fill="white"/>
<path d="M355.173 45.4495C355.173 54.4496 348.475 61.3224 339.681 61.3224H326.901V29.5356H339.681C348.475 29.5356 355.173 36.4494 355.173 45.4086V45.4495ZM348.146 45.4495C348.146 40.0085 344.694 36.5721 339.681 36.5721H334.216V54.3678H339.681C344.694 54.3678 348.146 50.9314 348.146 45.4904V45.4495Z" fill="white"/>
<path d="M394.129 39.3948C394.129 44.9586 389.937 49.2132 384.184 49.2132H375.76V61.3224H373.336V29.5356H384.184C389.937 29.5356 394.129 33.7493 394.129 39.3948ZM391.704 39.3948C391.704 34.9766 388.54 31.8266 384.184 31.8266H375.76V46.9222H384.184C388.54 46.9222 391.704 43.7313 391.704 39.3948Z" fill="white"/>
<path d="M413.031 48.3131H402.964V61.3224H400.539V29.5356H413.113C418.291 29.5356 422.565 33.7493 422.565 38.9449C422.565 43.2404 419.606 46.8813 415.538 47.9859L423.469 61.3224H420.674L413.031 48.3131ZM402.964 46.0222H413.113C416.976 46.0222 420.14 42.8313 420.14 38.9449C420.14 35.0585 416.976 31.8266 413.113 31.8266H402.964V46.0222Z" fill="white"/>
<path d="M427.126 45.4495C427.126 36.3676 434.358 29.0857 443.563 29.0857C452.768 29.0857 460 36.4085 460 45.4495C460 54.4906 452.768 61.8134 443.563 61.8134C434.358 61.8134 427.126 54.4906 427.126 45.4495ZM457.617 45.4495C457.617 37.6358 451.453 31.3766 443.563 31.3766C435.673 31.3766 429.509 37.6358 429.509 45.4495C429.509 53.2633 435.673 59.5225 443.563 59.5225C451.453 59.5225 457.617 53.2633 457.617 45.4495Z" fill="white"/>
</svg>
