<svg width="18" height="18" viewBox="0 0 18 18" fill="none" xmlns="http://www.w3.org/2000/svg">
<path d="M15.6994 6.63188C15.7984 7.07737 15.8558 7.53525 15.8558 8.0055C15.8558 11.637 12.7732 14.6644 8.71425 15.3146C9.57263 15.6611 10.5345 15.8636 11.5594 15.8636C12.5257 15.8636 13.4381 15.6859 14.2616 15.3765C15.3045 15.732 16.443 15.8243 17.3846 15.8243C16.9594 15.3143 16.5993 14.7535 16.3125 14.1547C17.3565 13.2232 18 11.9891 18 10.6301C18 9.02363 17.1034 7.5915 15.6994 6.63188ZM14.1683 8.0055C14.1683 4.82738 10.9969 2.25 7.08413 2.25C3.17138 2.25 0 4.82738 0 8.0055C0 9.66375 0.867375 11.1532 2.24887 12.204C1.90242 13.0914 1.41419 13.9166 0.80325 14.6475C2.2185 14.6475 4.041 14.4619 5.44388 13.6001C5.9715 13.7025 6.51937 13.7621 7.08413 13.7621C10.9969 13.761 14.1683 11.1848 14.1683 8.0055Z" fill="white"/>
</svg>
