<svg width="16" height="16" viewBox="0 0 16 16" fill="none" xmlns="http://www.w3.org/2000/svg">
<path d="M13.955 5.84446C14.043 6.24046 14.094 6.64746 14.094 7.06546C14.094 10.2935 11.354 12.9845 7.746 13.5625C8.509 13.8705 9.364 14.0505 10.275 14.0505C11.134 14.0505 11.945 13.8925 12.677 13.6175C13.604 13.9335 14.616 14.0155 15.453 14.0155C15.075 13.5622 14.7549 13.0637 14.5 12.5315C15.428 11.7035 16 10.6065 16 9.39846C16 7.97046 15.203 6.69746 13.955 5.84446ZM12.594 7.06546C12.594 4.24046 9.775 1.94946 6.297 1.94946C2.819 1.94946 0 4.24046 0 7.06546C0 8.53946 0.771 9.86346 1.999 10.7975C1.69104 11.5862 1.25706 12.3198 0.714 12.9695C1.972 12.9695 3.592 12.8045 4.839 12.0385C5.308 12.1295 5.795 12.1825 6.297 12.1825C9.775 12.1815 12.594 9.89146 12.594 7.06546Z" fill="white"/>
</svg>
