<svg width="16" height="16" viewBox="0 0 16 16" fill="none" xmlns="http://www.w3.org/2000/svg">
<path fill-rule="evenodd" clip-rule="evenodd" d="M13.6151 6.875V13.625C13.6151 13.9344 13.3622 14.1875 13.053 14.1875H11.9288V9.125C11.9288 8.81562 11.6758 8.5625 11.3667 8.5625H9.11828C8.80913 8.5625 8.55617 8.81562 8.55617 9.125V14.1875H2.93515C2.626 14.1875 2.37305 13.9344 2.37305 13.625V6.875C2.37305 6.56562 2.626 6.3125 2.93515 6.3125H13.053C13.3622 6.3125 13.6151 6.56562 13.6151 6.875ZM4.62147 8.5625H6.30779C6.61846 8.5625 6.86989 8.81439 6.86989 9.125V10.8125C6.86989 11.1231 6.61846 11.375 6.30779 11.375H4.62147C4.31074 11.375 4.05936 11.1231 4.05936 10.8125V9.125C4.05936 8.81439 4.3108 8.5625 4.62147 8.5625Z" fill="white"/>
<path fill-rule="evenodd" clip-rule="evenodd" d="M13.5564 2.12339L15.7598 6.53306C15.8323 6.62778 15.8751 6.74647 15.8751 6.875C15.8751 7.18561 15.6237 7.4375 15.313 7.4375C15.3102 7.43778 15.3058 7.43806 15.302 7.4375H0.687333C0.492427 7.4375 0.311864 7.33642 0.209152 7.17076C0.106495 7.00488 0.0971581 6.79782 0.184458 6.62339L2.43288 2.12339C2.52845 1.93282 2.72274 1.8125 2.9357 1.8125H13.0536C13.2666 1.8125 13.4609 1.93282 13.5564 2.12339ZM8.55672 4.0625H9.11882C9.42949 4.0625 9.68093 4.31439 9.68093 4.625C9.68093 4.93561 9.42949 5.1875 9.11882 5.1875H8.55672V5.75C8.55672 6.06061 8.30534 6.3125 7.99461 6.3125C7.68389 6.3125 7.43251 6.06061 7.43251 5.75V5.1875H6.8704C6.55968 5.1875 6.30829 4.93561 6.30829 4.625C6.30829 4.31439 6.55973 4.0625 6.8704 4.0625H7.43251V3.5C7.43251 3.18939 7.68389 2.9375 7.99461 2.9375C8.30534 2.9375 8.55672 3.18939 8.55672 3.5V4.0625Z" fill="white"/>
</svg>
