<svg width="32" height="32" viewBox="0 0 32 32" fill="none" xmlns="http://www.w3.org/2000/svg">
<path d="M24.24 10.7208L24.8573 10.1021C25.3489 9.61042 26.0156 9.33411 26.7109 9.33398C27.4061 9.33386 28.073 9.60993 28.5647 10.1015C29.0564 10.593 29.3327 11.2597 29.3328 11.955C29.3329 12.6503 29.0569 13.3171 28.5653 13.8088L27.948 14.4275M24.24 10.7208C24.24 10.7208 24.3173 12.0328 25.476 13.1915C26.6347 14.3501 27.948 14.4275 27.948 14.4275M24.24 10.7208L18.56 16.4008C18.1733 16.7848 17.9813 16.9781 17.816 17.1901C17.6205 17.4408 17.4542 17.7101 17.3173 17.9981C17.2013 18.2408 17.116 18.4981 16.944 19.0141L16.3933 20.6675L16.2147 21.2021M27.948 14.4275L22.268 20.1075C21.8813 20.4941 21.6893 20.6861 21.4773 20.8515C21.2267 21.047 20.9573 21.2132 20.6693 21.3501C20.4267 21.4661 20.1693 21.5515 19.6533 21.7235L18 22.2741L17.4653 22.4528M16.2147 21.2021L16.0373 21.7381C15.996 21.8625 15.9901 21.996 16.0203 22.1236C16.0505 22.2511 16.1156 22.3678 16.2083 22.4605C16.301 22.5532 16.4177 22.6183 16.5452 22.6485C16.6728 22.6787 16.8063 22.6728 16.9307 22.6315L17.4653 22.4528M16.2147 21.2021L17.4653 22.4528" stroke="#9EA1B0" stroke-width="2"/>
<path d="M10.6667 17.3337H14M10.6667 12.0003H19.3333M10.6667 22.667H12.6667M26.4373 4.22966C24.876 2.66699 22.3613 2.66699 17.3333 2.66699H14.6667C9.63867 2.66699 7.124 2.66699 5.56267 4.22966C4.00133 5.79233 4 8.30566 4 13.3337V18.667C4 23.695 4 26.2097 5.56267 27.771C7.12533 29.3323 9.63867 29.3337 14.6667 29.3337H17.3333C22.3613 29.3337 24.876 29.3337 26.4373 27.771C27.696 26.5137 27.94 24.6403 27.988 21.3337" stroke="#9EA1B0" stroke-width="2" stroke-linecap="round"/>
</svg>
