<svg width="150" height="150" viewBox="0 0 150 150" fill="none" xmlns="http://www.w3.org/2000/svg">
<g clip-path="url(#clip0_282_1973)">
<path d="M7 0.5H143C146.59 0.5 149.5 3.41015 149.5 7V143C149.5 146.59 146.59 149.5 143 149.5H7C3.41015 149.5 0.5 146.59 0.5 143V7C0.500001 3.41015 3.41015 0.5 7 0.5Z" fill="white" stroke="#EBEDF5"/>
<g clip-path="url(#clip1_282_1973)">
<path d="M87.6975 47.3646C87.6975 45.6544 87.3584 43.9608 86.6996 42.3808C86.0408 40.8007 85.0752 39.365 83.8579 38.1556C82.6406 36.9463 81.1954 35.987 79.6049 35.3325C78.0144 34.678 76.3098 34.3412 74.5882 34.3412C72.8667 34.3412 71.162 34.678 69.5715 35.3325C67.9811 35.987 66.5359 36.9463 65.3186 38.1556C64.1013 39.365 63.1357 40.8007 62.4769 42.3808C61.8181 43.9608 61.479 45.6544 61.479 47.3646C61.479 49.0749 61.8181 50.7684 62.4769 52.3485C63.1357 53.9286 64.1013 55.3643 65.3186 56.5736C66.5359 57.7829 67.9811 58.7422 69.5715 59.3967C71.162 60.0512 72.8667 60.3881 74.5882 60.3881C76.3098 60.3881 78.0144 60.0512 79.6049 59.3967C81.1954 58.7422 82.6406 57.7829 83.8579 56.5736C85.0752 55.3643 86.0408 53.9286 86.6996 52.3485C87.3584 50.7684 87.6975 49.0749 87.6975 47.3646ZM57.1092 47.3646C57.1092 42.7592 58.9508 38.3425 62.2287 35.086C65.5067 31.8295 69.9525 30 74.5882 30C79.224 30 83.6698 31.8295 86.9478 35.086C90.2257 38.3425 92.0672 42.7592 92.0672 47.3646C92.0672 51.97 90.2257 56.3868 86.9478 59.6433C83.6698 62.8998 79.224 64.7292 74.5882 64.7292C69.9525 64.7292 65.5067 62.8998 62.2287 59.6433C58.9508 56.3868 57.1092 51.97 57.1092 47.3646ZM48.3697 95.1173H100.807C100.643 84.3051 91.7668 75.5821 80.8288 75.5821H68.3477C57.4233 75.5821 48.5473 84.3051 48.3697 95.1173ZM44 95.4293C44 82.0667 54.8971 71.241 68.3477 71.241H80.8288C94.2794 71.241 105.176 82.0667 105.176 95.4293C105.176 97.6542 103.36 99.4585 101.121 99.4585H48.0557C45.8162 99.4585 44 97.6542 44 95.4293Z" fill="#D4CFCC"/>
</g>
<path d="M117 113.5H149.5V143.143C149.5 146.732 146.59 149.643 143 149.643H110.5V120L110.509 119.665C110.683 116.231 113.522 113.5 117 113.5Z" fill="#F5F5F5" stroke="#EBEDF5"/>
<path d="M131.01 124.905C130.237 124.905 129.495 125.212 128.948 125.759C128.401 126.306 128.094 127.048 128.094 127.821C128.094 128.595 128.401 129.337 128.948 129.884C129.495 130.431 130.237 130.738 131.01 130.738C131.784 130.738 132.526 130.431 133.073 129.884C133.62 129.337 133.927 128.595 133.927 127.821C133.927 127.048 133.62 126.306 133.073 125.759C132.526 125.212 131.784 124.905 131.01 124.905ZM126.427 127.821C126.427 126.606 126.91 125.44 127.77 124.58C128.629 123.721 129.795 123.238 131.01 123.238C132.226 123.238 133.392 123.721 134.251 124.58C135.111 125.44 135.594 126.606 135.594 127.821C135.594 129.037 135.111 130.203 134.251 131.062C133.392 131.922 132.226 132.405 131.01 132.405C129.795 132.405 128.629 131.922 127.77 131.062C126.91 130.203 126.427 129.037 126.427 127.821ZM137.26 132.405V135.738H140.594V137.405H137.26V140.738H135.594V137.405H132.26V135.738H135.594V132.405H137.26ZM128.094 134.905C127.21 134.905 126.362 135.256 125.737 135.881C125.112 136.506 124.76 137.354 124.76 138.238H131.469V139.905H123.094V138.238C123.094 136.912 123.621 135.64 124.558 134.703C125.496 133.765 126.768 133.238 128.094 133.238H131.427V134.905H128.094Z" fill="#2CA8E0"/>
</g>
<defs>
<clipPath id="clip0_282_1973">
<rect width="150" height="150" rx="7" fill="white"/>
</clipPath>
<clipPath id="clip1_282_1973">
<rect width="61.1765" height="69.4585" fill="white" transform="translate(44 30)"/>
</clipPath>
</defs>
</svg>
