<svg width="195" height="172" viewBox="0 0 195 172" fill="none" xmlns="http://www.w3.org/2000/svg">
<rect x="14.1394" width="135.259" height="171.586" fill="#64BAA9"/>
<rect x="35.0002" y="26" width="93.5219" height="36.3267" rx="5" fill="white"/>
<path d="M69.0844 43.03C69.0844 44.402 68.9444 45.886 67.9224 46.936C67.2644 47.622 66.2704 48 65.1364 48H61.2724V38.074H65.1364C66.2704 38.074 67.2644 38.452 67.9224 39.138C68.9444 40.188 69.0844 41.658 69.0844 43.03ZM67.2504 43.03C67.2504 42.12 67.2364 40.958 66.5364 40.258C66.2004 39.922 65.7104 39.698 65.1364 39.698H63.0784V46.376H65.1364C65.7104 46.376 66.2004 46.152 66.5364 45.816C67.2364 45.116 67.2504 43.94 67.2504 43.03ZM76.9327 44.416C76.9327 44.416 76.9187 44.752 76.9187 44.906H72.0467C72.0327 45.466 72.2287 45.998 72.5787 46.334C72.8307 46.572 73.1807 46.782 73.6567 46.782C74.1607 46.782 74.4687 46.684 74.7207 46.432C74.8747 46.278 75.0007 46.082 75.0707 45.816H76.7507C76.7087 46.25 76.4147 46.824 76.1347 47.16C75.5187 47.888 74.6087 48.182 73.6847 48.182C72.6907 48.182 71.9627 47.832 71.3887 47.286C70.6607 46.586 70.2687 45.564 70.2687 44.374C70.2687 43.212 70.6187 42.176 71.3187 41.462C71.8647 40.902 72.6487 40.538 73.6427 40.538C74.7207 40.538 75.7007 40.972 76.3027 41.882C76.8347 42.68 76.9607 43.506 76.9327 44.416ZM75.1827 43.632C75.1687 43.086 75.0147 42.666 74.7347 42.358C74.4967 42.106 74.1327 41.938 73.6287 41.938C73.0967 41.938 72.6627 42.162 72.4107 42.498C72.1587 42.82 72.0467 43.156 72.0327 43.632H75.1827ZM81.2816 47.986C80.9316 48.056 80.8616 48.084 80.5116 48.084C79.3216 48.084 78.5236 47.51 78.5236 46.124V37.878H80.2876V45.83C80.2876 46.25 80.3856 46.53 80.9876 46.53C81.1416 46.53 81.1836 46.516 81.2816 46.516V47.986ZM88.9502 44.416C88.9502 44.416 88.9362 44.752 88.9362 44.906H84.0642C84.0502 45.466 84.2462 45.998 84.5962 46.334C84.8482 46.572 85.1982 46.782 85.6742 46.782C86.1782 46.782 86.4862 46.684 86.7382 46.432C86.8922 46.278 87.0182 46.082 87.0882 45.816H88.7682C88.7262 46.25 88.4322 46.824 88.1522 47.16C87.5362 47.888 86.6262 48.182 85.7022 48.182C84.7082 48.182 83.9802 47.832 83.4062 47.286C82.6782 46.586 82.2862 45.564 82.2862 44.374C82.2862 43.212 82.6362 42.176 83.3362 41.462C83.8822 40.902 84.6662 40.538 85.6602 40.538C86.7382 40.538 87.7182 40.972 88.3202 41.882C88.8522 42.68 88.9782 43.506 88.9502 44.416ZM87.2002 43.632C87.1862 43.086 87.0322 42.666 86.7522 42.358C86.5142 42.106 86.1502 41.938 85.6462 41.938C85.1142 41.938 84.6802 42.162 84.4282 42.498C84.1762 42.82 84.0642 43.156 84.0502 43.632H87.2002ZM94.6992 47.902C94.2092 48.028 93.7192 48.098 93.2012 48.098C91.7312 48.098 91.0032 47.258 91.0032 45.858V42.162H89.6732V40.72H91.0032V38.872L92.7532 38.438V40.72H94.5872V42.162H92.7532V45.704C92.7532 46.264 93.0052 46.502 93.5652 46.502C93.9292 46.502 94.2232 46.488 94.6992 46.432V47.902ZM102.349 44.416C102.349 44.416 102.335 44.752 102.335 44.906H97.4627C97.4487 45.466 97.6447 45.998 97.9947 46.334C98.2467 46.572 98.5967 46.782 99.0727 46.782C99.5767 46.782 99.8847 46.684 100.137 46.432C100.291 46.278 100.417 46.082 100.487 45.816H102.167C102.125 46.25 101.831 46.824 101.551 47.16C100.935 47.888 100.025 48.182 99.1007 48.182C98.1067 48.182 97.3787 47.832 96.8047 47.286C96.0767 46.586 95.6847 45.564 95.6847 44.374C95.6847 43.212 96.0347 42.176 96.7347 41.462C97.2807 40.902 98.0647 40.538 99.0587 40.538C100.137 40.538 101.117 40.972 101.719 41.882C102.251 42.68 102.377 43.506 102.349 44.416ZM100.599 43.632C100.585 43.086 100.431 42.666 100.151 42.358C99.9127 42.106 99.5487 41.938 99.0447 41.938C98.5127 41.938 98.0787 42.162 97.8267 42.498C97.5747 42.82 97.4627 43.156 97.4487 43.632H100.599Z" fill="#374EA2"/>
<rect x="35.008" y="77.2909" width="76.5179" height="4.63745" rx="2.31873" fill="white"/>
<rect x="35.008" y="137.578" width="76.5179" height="4.63745" rx="2.31873" fill="white"/>
<rect x="35.008" y="97.3865" width="62.6056" height="4.63745" rx="2.31873" fill="white"/>
<rect x="35.008" y="117.482" width="62.6056" height="4.63745" rx="2.31873" fill="white"/>
<ellipse cx="14.5262" cy="43.2828" rx="7.34263" ry="7.72908" fill="#374EA2"/>
<path d="M1 42.6694C0.447715 42.6694 -4.82823e-08 43.1171 0 43.6694C4.82823e-08 44.2217 0.447715 44.6694 1 44.6694L1 43.6694L1 42.6694ZM1 43.6694L1 44.6694L7.18327 44.6694L7.18327 43.6694L7.18327 42.6694L1 42.6694L1 43.6694Z" fill="#374EA2"/>
<ellipse cx="14.5262" cy="85.02" rx="7.34263" ry="7.72908" fill="#374EA2"/>
<path d="M1 84.4065C0.447715 84.4065 -4.82823e-08 84.8542 0 85.4065C4.82823e-08 85.9588 0.447715 86.4065 1 86.4065L1 85.4065L1 84.4065ZM1 85.4065L1 86.4065L7.18327 86.4065L7.18327 85.4065L7.18327 84.4065L1 84.4065L1 85.4065Z" fill="#374EA2"/>
<ellipse cx="16.8446" cy="126.757" rx="7.34263" ry="7.72908" fill="#374EA2"/>
<path d="M3.31836 126.143C2.76607 126.143 2.31836 126.591 2.31836 127.143C2.31836 127.696 2.76607 128.143 3.31836 128.143L3.31836 127.143L3.31836 126.143ZM3.31836 127.143L3.31836 128.143L9.50163 128.143L9.50163 127.143L9.50163 126.143L3.31836 126.143L3.31836 127.143Z" fill="#374EA2"/>
<circle cx="155.195" cy="119.414" r="39.8048" fill="#374EA2"/>
<path d="M153.263 108.207H157.901C157.901 107.592 157.657 107.002 157.222 106.567C156.787 106.133 156.197 105.888 155.582 105.888C154.967 105.888 154.377 106.133 153.943 106.567C153.508 107.002 153.263 107.592 153.263 108.207ZM150.945 108.207C150.945 106.977 151.433 105.798 152.303 104.928C153.173 104.058 154.352 103.57 155.582 103.57C156.812 103.57 157.992 104.058 158.861 104.928C159.731 105.798 160.22 106.977 160.22 108.207H169.494C169.802 108.207 170.097 108.329 170.314 108.547C170.532 108.764 170.654 109.059 170.654 109.366C170.654 109.674 170.532 109.969 170.314 110.186C170.097 110.404 169.802 110.526 169.494 110.526H168.187L165.393 131.019C165.203 132.407 164.517 133.68 163.461 134.602C162.405 135.524 161.051 136.032 159.649 136.032H151.515C150.113 136.032 148.759 135.524 147.703 134.602C146.647 133.68 145.961 132.407 145.772 131.019L142.978 110.526H141.67C141.362 110.526 141.067 110.404 140.85 110.186C140.633 109.969 140.51 109.674 140.51 109.366C140.51 109.059 140.633 108.764 140.85 108.547C141.067 108.329 141.362 108.207 141.67 108.207H150.945ZM153.263 116.323C153.263 116.015 153.141 115.72 152.924 115.503C152.706 115.285 152.412 115.163 152.104 115.163C151.797 115.163 151.502 115.285 151.284 115.503C151.067 115.72 150.945 116.015 150.945 116.323V127.916C150.945 128.224 151.067 128.519 151.284 128.736C151.502 128.953 151.797 129.076 152.104 129.076C152.412 129.076 152.706 128.953 152.924 128.736C153.141 128.519 153.263 128.224 153.263 127.916V116.323ZM159.06 115.163C158.753 115.163 158.458 115.285 158.24 115.503C158.023 115.72 157.901 116.015 157.901 116.323V127.916C157.901 128.224 158.023 128.519 158.24 128.736C158.458 128.953 158.753 129.076 159.06 129.076C159.368 129.076 159.663 128.953 159.88 128.736C160.097 128.519 160.22 128.224 160.22 127.916V116.323C160.22 116.015 160.097 115.72 159.88 115.503C159.663 115.285 159.368 115.163 159.06 115.163Z" fill="white"/>
</svg>
