<svg width="20" height="20" viewBox="0 0 20 20" fill="none" xmlns="http://www.w3.org/2000/svg">
<mask id="mask0_1193_4152" style="mask-type:alpha" maskUnits="userSpaceOnUse" x="0" y="0" width="20" height="20">
<rect width="20" height="20" fill="#D9D9D9"/>
</mask>
<g mask="url(#mask0_1193_4152)">
<path d="M10.0001 12.4792C9.88897 12.4792 9.78147 12.4583 9.67758 12.4167C9.57314 12.375 9.48619 12.3194 9.41675 12.25L5.58341 8.41666C5.43064 8.26388 5.35425 8.06944 5.35425 7.83333C5.35425 7.59722 5.43064 7.40277 5.58341 7.24999C5.73619 7.09722 5.93064 7.02083 6.16675 7.02083C6.40286 7.02083 6.5973 7.09722 6.75008 7.24999L10.0001 10.5L13.2501 7.24999C13.4029 7.09722 13.5973 7.02083 13.8334 7.02083C14.0695 7.02083 14.264 7.09722 14.4167 7.24999C14.5695 7.40277 14.6459 7.59722 14.6459 7.83333C14.6459 8.06944 14.5695 8.26388 14.4167 8.41666L10.5834 12.25C10.5001 12.3333 10.4098 12.3922 10.3126 12.4267C10.2154 12.4617 10.1112 12.4792 10.0001 12.4792Z" fill="#1A5F44"/>
</g>
</svg>
