<svg width="19" height="19" viewBox="0 0 19 19" fill="none" xmlns="http://www.w3.org/2000/svg">
<path d="M16.1196 12.0828C16.1196 10.2362 15.3595 8.56781 14.1424 7.36843V4.94001C14.1424 3.70499 13.6614 2.54123 12.7827 1.65061C11.898 0.777812 10.7342 0.296875 9.49924 0.296875C6.94017 0.296875 4.85611 2.38094 4.85611 4.94001V7.36843C3.63892 8.56781 2.87891 10.2362 2.87891 12.0828C2.87891 15.7344 5.84766 18.7031 9.49924 18.7031C13.1508 18.7031 16.1196 15.7344 16.1196 12.0828ZM9.49924 13.5316C8.69769 13.5316 8.05049 12.8844 8.05049 12.0828C8.05049 11.2812 8.69769 10.6281 9.49924 10.6281C10.3008 10.6281 10.948 11.2812 10.948 12.0828C10.948 12.8844 10.3008 13.5316 9.49924 13.5316ZM6.63736 4.94001C6.63736 3.36061 7.91988 2.07812 9.49924 2.07812C10.2593 2.07812 10.9777 2.375 11.518 2.91529C12.0642 3.46153 12.3611 4.17998 12.3611 4.94V6.11561C11.4942 5.69999 10.5264 5.45656 9.49924 5.45656C8.47206 5.45656 7.50424 5.69998 6.63736 6.11562V4.94001Z" fill="#312D2D"/>
</svg>
