<svg width="8" height="5" viewBox="0 0 8 5" fill="none" xmlns="http://www.w3.org/2000/svg">
<path d="M3.99974 4.98337C3.91073 4.98337 3.82462 4.9667 3.7414 4.93336C3.65773 4.90003 3.58809 4.85559 3.53246 4.80003L0.461772 1.73337C0.339389 1.61114 0.278198 1.45559 0.278198 1.2667C0.278198 1.07781 0.339389 0.922254 0.461772 0.800032C0.584154 0.67781 0.739914 0.616699 0.92905 0.616699C1.11819 0.616699 1.27395 0.67781 1.39633 0.800032L3.99974 3.40003L6.60314 0.800032C6.72553 0.67781 6.88129 0.616699 7.07042 0.616699C7.25956 0.616699 7.41532 0.67781 7.5377 0.800032C7.66008 0.922254 7.72127 1.07781 7.72127 1.2667C7.72127 1.45559 7.66008 1.61114 7.5377 1.73337L4.46701 4.80003C4.40026 4.8667 4.32794 4.91381 4.25006 4.94136C4.17218 4.96937 4.08874 4.98337 3.99974 4.98337Z" fill="white"/>
</svg>
