<svg width="20" height="20" viewBox="0 0 20 20" fill="none" xmlns="http://www.w3.org/2000/svg">
<mask id="mask0_8336_45381" style="mask-type:alpha" maskUnits="userSpaceOnUse" x="0" y="0" width="20" height="20">
<rect width="20" height="20" transform="matrix(-1 0 0 1 20 0)" fill="#D9D9D9"/>
</mask>
<g mask="url(#mask0_8336_45381)">
<path d="M7.22917 13.5625C7.38194 13.3819 7.45833 13.1769 7.45833 12.9475C7.45833 12.7186 7.38194 12.5278 7.22917 12.375L5.6875 10.8333H11.6667C11.9028 10.8333 12.1006 10.7533 12.26 10.5933C12.42 10.4339 12.5 10.2361 12.5 10C12.5 9.76389 12.42 9.56583 12.26 9.40583C12.1006 9.24639 11.9028 9.16667 11.6667 9.16667H5.6875L7.22917 7.625C7.39583 7.45833 7.47917 7.26056 7.47917 7.03167C7.47917 6.80222 7.39583 6.60417 7.22917 6.4375C7.07639 6.27083 6.88528 6.1875 6.65583 6.1875C6.42694 6.1875 6.23611 6.26389 6.08333 6.41667L3.08333 9.41667C3 9.5 2.94083 9.59028 2.90583 9.6875C2.87139 9.78472 2.85417 9.88889 2.85417 10C2.85417 10.1111 2.87139 10.2153 2.90583 10.3125C2.94083 10.4097 3 10.5 3.08333 10.5833L6.08333 13.5833C6.26389 13.7639 6.46167 13.8436 6.67667 13.8225C6.89222 13.8019 7.07639 13.7153 7.22917 13.5625ZM15.8333 17.5C16.2917 17.5 16.6842 17.3369 17.0108 17.0108C17.3369 16.6842 17.5 16.2917 17.5 15.8333V4.16667C17.5 3.70833 17.3369 3.31583 17.0108 2.98917C16.6842 2.66306 16.2917 2.5 15.8333 2.5H10.8333C10.5972 2.5 10.3992 2.57972 10.2392 2.73917C10.0797 2.89917 10 3.09722 10 3.33333C10 3.56944 10.0797 3.76722 10.2392 3.92667C10.3992 4.08667 10.5972 4.16667 10.8333 4.16667H15.8333V15.8333H10.8333C10.5972 15.8333 10.3992 15.9133 10.2392 16.0733C10.0797 16.2328 10 16.4306 10 16.6667C10 16.9028 10.0797 17.1006 10.2392 17.26C10.3992 17.42 10.5972 17.5 10.8333 17.5H15.8333Z" fill="#C9311A"/>
</g>
</svg>
