<svg width="12" height="12" viewBox="0 0 12 12" fill="none" xmlns="http://www.w3.org/2000/svg">
<g clip-path="url(#clip0_293_22343)">
<path d="M11.9976 6.45785C11.9833 6.12551 11.6581 5.86012 11.0293 5.66884C10.5415 5.523 9.92229 5.43453 9.25284 5.42019V2.86908C9.25045 2.82605 9.23849 2.7854 9.21698 2.74954C9.15003 2.46024 8.82726 2.22593 8.25583 2.05378C7.71787 1.8912 7.01494 1.80273 6.27615 1.80273C5.53975 1.80273 4.84399 1.8912 4.3156 2.05378C3.88284 2.18767 3.36402 2.43633 3.36402 2.8643C3.36402 2.8906 3.36641 2.9169 3.37119 2.9432L3.39749 4.03346C1.8434 3.73698 0.344292 4.7579 0.0502092 6.30961C0.0167364 6.48654 0 6.66346 0 6.84278C0 8.42079 1.28392 9.70471 2.86192 9.70471C3.51943 9.70471 4.15541 9.47996 4.66467 9.06394C5.11178 9.16914 5.63778 9.22652 6.19486 9.23131C6.3168 9.89359 7.75134 10.1972 9.08787 10.1972C9.82427 10.1972 10.52 10.1064 11.0484 9.94141C11.4812 9.80752 12 9.55647 12 9.1285V6.50327C12 6.48893 12 6.47219 11.9976 6.45785ZM8.75314 4.19126C8.75314 4.22234 8.63837 4.38731 8.11955 4.54511C7.63419 4.69096 6.96234 4.77703 6.27854 4.77703C5.68799 4.77703 5.10938 4.71487 4.65033 4.59771C4.64316 4.59532 4.63837 4.59532 4.6312 4.59293C4.40406 4.41361 4.15302 4.27016 3.88284 4.16974L3.86611 3.4955C4.03108 3.57918 4.20323 3.64613 4.38255 3.69395C4.90137 3.84458 5.57322 3.92587 6.27854 3.92587C7.01494 3.92587 7.72026 3.8374 8.25822 3.67482C8.43754 3.62222 8.61207 3.55288 8.77705 3.46681V4.09323C8.75075 4.1267 8.75314 4.15779 8.75314 4.19126ZM4.45906 2.51523C4.94202 2.36699 5.58757 2.28331 6.27615 2.28331C6.95995 2.28331 7.6318 2.36699 8.11715 2.51523C8.63598 2.67303 8.75075 2.83561 8.75075 2.86669C8.75075 2.90016 8.63359 3.06514 8.11476 3.22055C7.62941 3.36639 6.95995 3.45007 6.27615 3.45007C5.61626 3.45007 4.98984 3.37357 4.51405 3.23489C4 3.08666 3.85654 2.92407 3.84459 2.87147C3.84459 2.86669 3.8422 2.86669 3.8422 2.86669C3.84459 2.82126 3.95457 2.66825 4.45906 2.51523ZM4.46623 8.60728C3.49313 9.49192 1.98446 9.42258 1.09982 8.44948C0.215182 7.47637 0.284519 5.96771 1.25762 5.08307C1.69516 4.68379 2.26898 4.46382 2.86192 4.46382C3.10102 4.46382 3.33772 4.49969 3.56724 4.56902C4.39689 4.82724 5.02092 5.51582 5.19785 6.3646C5.22893 6.5224 5.24567 6.68498 5.24567 6.84517C5.24806 7.51702 4.96354 8.15539 4.46623 8.60728ZM5.07352 8.65988C5.26718 8.42318 5.42259 8.15778 5.53258 7.87327C5.7358 7.89 5.9462 7.90196 6.16617 7.90435V7.94738L6.18051 8.7579C5.80992 8.75312 5.43933 8.71965 5.07352 8.65988ZM5.71189 6.56065C5.85057 6.57022 5.99641 6.575 6.14465 6.57739L6.159 7.42377C5.99163 7.42138 5.82666 7.41421 5.66886 7.40226C5.70472 7.21816 5.72385 7.02927 5.72385 6.84278C5.72385 6.74954 5.71907 6.65629 5.71189 6.56065ZM6.30006 6.1016H6.27615C6.04662 6.1016 5.82427 6.09203 5.61865 6.07769C5.52779 5.75731 5.38434 5.45605 5.19068 5.18827C5.54931 5.2337 5.91034 5.25761 6.27376 5.25761C7.01255 5.25761 7.71787 5.16914 8.25583 5.00656C8.43515 4.95396 8.60729 4.88462 8.77226 4.80094V5.42736C7.74656 5.45605 6.69217 5.67123 6.30006 6.1016ZM6.61566 6.48175C6.61566 6.47936 6.61566 6.47697 6.61805 6.47219C6.63957 6.40764 6.80932 6.24984 7.30424 6.11116C7.76808 5.97966 8.37298 5.90793 9.00897 5.90793H9.04961C9.73341 5.90793 10.4029 5.98684 10.8906 6.13507C11.3999 6.28809 11.5194 6.44589 11.5218 6.48175V6.48415C11.5194 6.52001 11.3999 6.68498 10.8691 6.84278C10.379 6.98863 9.73341 7.06753 9.052 7.06753C8.39211 7.06753 7.76569 6.99102 7.2899 6.85474C6.77585 6.7065 6.63479 6.54153 6.62044 6.49132L6.61566 6.48175ZM10.9097 9.48713C10.4268 9.63776 9.77884 9.72144 9.09026 9.72144C8.39928 9.72144 7.75374 9.64015 7.27555 9.49431C6.77107 9.3389 6.66587 9.17871 6.66587 9.14284V9.13806L6.65391 8.44469C6.84519 8.53794 7.04363 8.60967 7.24925 8.66227C7.75134 8.79377 8.38972 8.86789 9.04483 8.86789C9.78362 8.86789 10.4842 8.77942 11.0197 8.61684C11.1943 8.56424 11.3616 8.4949 11.5218 8.41361V9.13089H11.5242C11.5242 9.16436 11.4142 9.32933 10.9097 9.48713ZM11.5266 7.72742H11.5242C11.5242 7.75133 11.5099 7.78002 11.5099 7.80632C11.5099 7.83979 11.3975 8.00238 10.8811 8.16018C10.3909 8.30841 9.73819 8.3897 9.04722 8.3897C7.72265 8.3897 6.83084 8.09084 6.64435 7.85892L6.64196 7.65808L6.6324 7.10817C6.79976 7.19186 6.9743 7.2588 7.15362 7.30901C7.67244 7.45964 8.34429 7.54093 9.04961 7.54093C9.77645 7.54093 10.4698 7.45486 11.003 7.29706C11.1847 7.24685 11.3592 7.17751 11.5266 7.09144V7.72742Z" fill="#9EA1B0"/>
<path d="M3.73221 7.18243C3.62223 6.79271 3.26598 6.52493 2.86192 6.52493C2.62761 6.52493 2.43633 6.33605 2.43633 6.10174C2.43872 5.86504 2.62761 5.67616 2.86192 5.67616C3.09622 5.67616 3.2875 5.86743 3.2875 6.10174C3.2875 6.23324 3.39509 6.34083 3.52659 6.34083C3.65809 6.34083 3.76568 6.23324 3.76568 6.10174C3.76568 5.69768 3.4979 5.34143 3.10818 5.23145V5.12386C3.10818 4.99236 3.00059 4.88477 2.86909 4.88477C2.73759 4.88477 2.63 4.99236 2.63 5.12386V5.22667C2.14942 5.35578 1.86251 5.85069 1.99162 6.33127C2.09682 6.72577 2.45307 7.00072 2.86192 7.00072C3.09622 7.00072 3.2875 7.18961 3.2875 7.42392C3.2875 7.65823 3.09862 7.8495 2.86431 7.8495C2.63 7.8495 2.43872 7.66062 2.43872 7.42631C2.43872 7.29481 2.33113 7.18722 2.19963 7.18722C2.06813 7.18722 1.96054 7.29481 1.96054 7.42631C1.96293 7.83515 2.2355 8.1914 2.63 8.29899V8.507C2.63 8.6385 2.73759 8.74609 2.86909 8.74609C3.00059 8.74609 3.10818 8.6385 3.10818 8.507V8.2966C3.58875 8.16032 3.86849 7.66301 3.73221 7.18243Z" fill="#9EA1B0"/>
</g>
<defs>
<clipPath id="clip0_293_22343">
<rect width="12" height="12" fill="white" transform="translate(12) rotate(90)"/>
</clipPath>
</defs>
</svg>
