<svg width="12" height="12" viewBox="0 0 12 12" fill="none" xmlns="http://www.w3.org/2000/svg">
<path d="M9.86249 7.76264C9.82662 7.72897 9.79803 7.68831 9.77848 7.64316C9.75893 7.59801 9.74885 7.54933 9.74885 7.50014C9.74885 7.45094 9.75893 7.40226 9.77848 7.35712C9.79803 7.31197 9.82662 7.2713 9.86249 7.23764L10.7175 6.37514L4.12499 6.37514C4.02553 6.37514 3.93015 6.33563 3.85983 6.2653C3.7895 6.19498 3.74999 6.09959 3.74999 6.00014C3.74999 5.90068 3.7895 5.8053 3.85983 5.73497C3.93015 5.66465 4.02553 5.62514 4.12499 5.62514L10.7175 5.62514L9.86249 4.76264C9.79287 4.69302 9.75376 4.59859 9.75376 4.50014C9.75376 4.40168 9.79287 4.30726 9.86249 4.23764C9.93211 4.16802 10.0265 4.12891 10.125 4.12891C10.2234 4.12891 10.3179 4.16802 10.3875 4.23764L11.8875 5.73764C11.9234 5.7713 11.952 5.81197 11.9715 5.85712C11.991 5.90226 12.0011 5.95094 12.0011 6.00014C12.0011 6.04933 11.991 6.09801 11.9715 6.14316C11.952 6.18831 11.9234 6.22897 11.8875 6.26264L10.3875 7.76264C10.3538 7.79851 10.3132 7.8271 10.268 7.84665C10.2229 7.86619 10.1742 7.87628 10.125 7.87628C10.0758 7.87628 10.0271 7.86619 9.98197 7.84665C9.93682 7.8271 9.89616 7.79851 9.86249 7.76264Z" fill="#9EA1B0"/>
<path d="M7.5 12L1.5 12C1.10217 12 0.720644 11.842 0.43934 11.5607C0.158035 11.2794 -4.76359e-07 10.8978 -4.5897e-07 10.5L-6.55671e-08 1.5C-4.81776e-08 1.10217 0.158035 0.720644 0.439341 0.43934C0.720645 0.158035 1.10218 -3.45225e-07 1.5 -3.27835e-07L7.5 -6.55671e-08C7.89782 -4.81776e-08 8.27936 0.158035 8.56066 0.43934C8.84196 0.720644 9 1.10218 9 1.5L9 4.125C9 4.22446 8.96049 4.31984 8.89016 4.39017C8.81984 4.46049 8.72446 4.5 8.625 4.5C8.52554 4.5 8.43016 4.46049 8.35983 4.39017C8.28951 4.31984 8.25 4.22446 8.25 4.125L8.25 1.5C8.25 1.30109 8.17098 1.11032 8.03033 0.96967C7.88968 0.829018 7.69891 0.75 7.5 0.75L1.5 0.75C1.30109 0.75 1.11032 0.829017 0.96967 0.96967C0.829018 1.11032 0.75 1.30109 0.75 1.5L0.75 10.5C0.75 10.6989 0.829017 10.8897 0.96967 11.0303C1.11032 11.171 1.30109 11.25 1.5 11.25L7.5 11.25C7.69891 11.25 7.88968 11.171 8.03033 11.0303C8.17098 10.8897 8.25 10.6989 8.25 10.5L8.25 7.875C8.25 7.77554 8.28951 7.68016 8.35983 7.60984C8.43016 7.53951 8.52554 7.5 8.625 7.5C8.72446 7.5 8.81984 7.53951 8.89016 7.60984C8.96049 7.68016 9 7.77554 9 7.875L9 10.5C9 10.8978 8.84196 11.2794 8.56066 11.5607C8.27936 11.842 7.89782 12 7.5 12Z" fill="#9EA1B0"/>
</svg>
