<svg width="32" height="32" viewBox="0 0 32 32" fill="none" xmlns="http://www.w3.org/2000/svg">
<g clip-path="url(#clip0_747_2352)">
<path d="M6.45606 18.2094V10.2547C6.45588 9.99347 6.50723 9.73477 6.60715 9.49341C6.70708 9.25205 6.85363 9.03276 7.03841 8.84811C7.22319 8.66345 7.44257 8.51705 7.684 8.41728C7.92543 8.31752 8.18416 8.26635 8.44539 8.2667H10.4334M6.45606 14.232H9.43872M13.6121 18.2094V10.2547C13.6052 9.98921 13.6515 9.72503 13.7484 9.47774C13.8452 9.23046 13.9906 9.00506 14.176 8.81486C14.3613 8.62465 14.5829 8.47348 14.8276 8.37026C15.0723 8.26704 15.3351 8.21387 15.6007 8.21387C15.8663 8.21387 16.1292 8.26704 16.3739 8.37026C16.6186 8.47348 16.8401 8.62465 17.0255 8.81486C17.2108 9.00506 17.3562 9.23046 17.4531 9.47774C17.5499 9.72503 17.5963 9.98921 17.5894 10.2547V18.2094M13.6121 14.232H17.5894M23.5547 18.2094L25.5441 20.1974M25.5441 16.22C25.5509 16.4855 25.5046 16.7497 25.4077 16.997C25.3109 17.2443 25.1655 17.4697 24.9802 17.6599C24.7948 17.8501 24.5733 18.0012 24.3286 18.1045C24.0839 18.2077 23.821 18.2609 23.5554 18.2609C23.2898 18.2609 23.0269 18.2077 22.7822 18.1045C22.5375 18.0012 22.316 17.8501 22.1306 17.6599C21.9453 17.4697 21.7999 17.2443 21.7031 16.997C21.6062 16.7497 21.5598 16.4855 21.5667 16.22V10.2547C21.5598 9.98921 21.6062 9.72503 21.7031 9.47774C21.7999 9.23046 21.9453 9.00506 22.1306 8.81486C22.316 8.62465 22.5375 8.47348 22.7822 8.37026C23.0269 8.26704 23.2898 8.21387 23.5554 8.21387C23.821 8.21387 24.0839 8.26704 24.3286 8.37026C24.5733 8.47348 24.7948 8.62465 24.9802 8.81486C25.1655 9.00506 25.3109 9.23046 25.4077 9.47774C25.5046 9.72503 25.5509 9.98921 25.5441 10.2547V16.22Z" stroke="#9EA1B0" stroke-width="2" stroke-linecap="round" stroke-linejoin="round"/>
<path d="M29.6 3.42773H2.4C2.02821 3.42915 1.67212 3.57783 1.40973 3.84123C1.14733 4.10463 0.999997 4.46127 1 4.83307V22.9504C0.999997 23.3222 1.14733 23.6788 1.40973 23.9422C1.67212 24.2056 2.02821 24.3543 2.4 24.3557H5.65733C5.36361 25.8805 4.73216 27.3202 3.80933 28.5691C7.876 28.6277 10.4493 27.0544 11.9933 24.3557H29.6C29.9727 24.3557 30.3302 24.2077 30.5937 23.9441C30.8573 23.6806 31.0053 23.3231 31.0053 22.9504V4.83307C31.0053 4.46035 30.8573 4.1029 30.5937 3.83935C30.3302 3.5758 29.9727 3.42773 29.6 3.42773Z" stroke="#9EA1B0" stroke-width="2" stroke-linecap="round" stroke-linejoin="round"/>
</g>
<defs>
<clipPath id="clip0_747_2352">
<rect width="32" height="32" fill="white"/>
</clipPath>
</defs>
</svg>
