<svg width="32" height="32" viewBox="0 0 32 32" fill="none" xmlns="http://www.w3.org/2000/svg">
<g clip-path="url(#clip0_747_2493)">
<path d="M24.0665 8.74707C23.7694 8.74707 23.4845 8.86507 23.2745 9.07511C23.0645 9.28515 22.9465 9.57003 22.9465 9.86707V16.2404C22.9465 16.5374 23.0645 16.8223 23.2745 17.0324C23.4845 17.2424 23.7694 17.3604 24.0665 17.3604C24.3635 17.3604 24.6484 17.2424 24.8584 17.0324C25.0685 16.8223 25.1865 16.5374 25.1865 16.2404V9.86707C25.183 9.5711 25.0639 9.28823 24.8546 9.07894C24.6453 8.86964 24.3624 8.75053 24.0665 8.74707ZM15.5731 8.74707C15.2772 8.75053 14.9943 8.86964 14.785 9.07894C14.5757 9.28823 14.4566 9.5711 14.4531 9.86707V13.1071H16.6931V9.86707C16.6897 9.5711 16.5706 9.28823 16.3613 9.07894C16.152 8.86964 15.8691 8.75053 15.5731 8.74707Z" fill="white"/>
<path d="M30.5067 2.58691H1.49339C1.09734 2.58691 0.717501 2.74425 0.437447 3.0243C0.157392 3.30436 5.95299e-05 3.68419 5.95299e-05 4.08025V23.4136C-0.00170149 23.6108 0.0356247 23.8064 0.109883 23.9891C0.184141 24.1719 0.29386 24.3381 0.432705 24.4782C0.571549 24.6182 0.736768 24.7294 0.918822 24.8053C1.10088 24.8812 1.29616 24.9203 1.49339 24.9202H4.96006C4.64685 26.5468 3.9725 28.0824 2.98673 29.4136C7.33339 29.4802 10.0801 27.8002 11.7201 24.9202H30.5067C30.704 24.9203 30.8992 24.8812 31.0813 24.8053C31.2633 24.7294 31.4286 24.6182 31.5674 24.4782C31.7063 24.3381 31.816 24.1719 31.8902 23.9891C31.9645 23.8064 32.0018 23.6108 32.0001 23.4136V4.08025C32.0001 3.68419 31.8427 3.30436 31.5627 3.0243C31.2826 2.74425 30.9028 2.58691 30.5067 2.58691ZM10.0534 8.74691H8.00006C7.70409 8.75038 7.42122 8.86949 7.21193 9.07878C7.00263 9.28808 6.88352 9.57095 6.88006 9.86691V13.1069H9.00006C9.26528 13.1069 9.51963 13.2123 9.70717 13.3998C9.8947 13.5873 10.0001 13.8417 10.0001 14.1069C10.0001 14.3721 9.8947 14.6265 9.70717 14.814C9.51963 15.0016 9.26528 15.1069 9.00006 15.1069H6.81339V18.3602C6.81339 18.6255 6.70804 18.8798 6.5205 19.0674C6.33296 19.2549 6.07861 19.3602 5.81339 19.3602C5.54818 19.3602 5.29382 19.2549 5.10629 19.0674C4.91875 18.8798 4.81339 18.6255 4.81339 18.3602V9.86691C4.8133 9.45152 4.89615 9.04029 5.0571 8.65734C5.21805 8.27439 5.45385 7.92744 5.75066 7.63683C6.04748 7.34622 6.39934 7.11781 6.7856 6.965C7.17187 6.81218 7.58476 6.73804 8.00006 6.74691H10.0534C10.3186 6.74691 10.573 6.85227 10.7605 7.03981C10.948 7.22734 11.0534 7.4817 11.0534 7.74691C11.0534 8.01213 10.948 8.26648 10.7605 8.45402C10.573 8.64156 10.3186 8.74691 10.0534 8.74691ZM18.6667 18.3602C18.6667 18.6255 18.5614 18.8798 18.3738 19.0674C18.1863 19.2549 17.9319 19.3602 17.6667 19.3602C17.4015 19.3602 17.1472 19.2549 16.9596 19.0674C16.7721 18.8798 16.6667 18.6255 16.6667 18.3602V15.1069H14.4534V18.3602C14.4534 18.6255 14.348 18.8798 14.1605 19.0674C13.973 19.2549 13.7186 19.3602 13.4534 19.3602C13.1882 19.3602 12.9338 19.2549 12.7463 19.0674C12.5587 18.8798 12.4534 18.6255 12.4534 18.3602V9.86691C12.4133 9.43475 12.4638 8.99898 12.6017 8.58745C12.7396 8.17593 12.9619 7.7977 13.2543 7.47694C13.5466 7.15619 13.9027 6.89996 14.2998 6.72465C14.6968 6.54933 15.126 6.45878 15.5601 6.45878C15.9941 6.45878 16.4233 6.54933 16.8204 6.72465C17.2174 6.89996 17.5735 7.15619 17.8659 7.47694C18.1582 7.7977 18.3805 8.17593 18.5184 8.58745C18.6563 8.99898 18.7068 9.43475 18.6667 9.86691V18.3602ZM27.1601 16.2402C27.1529 16.7377 27.0284 17.2264 26.7967 17.6666C26.565 18.1068 26.2327 18.4861 25.8267 18.7736L26.8267 19.7736C27.014 19.9611 27.1192 20.2152 27.1192 20.4802C27.1192 20.7452 27.014 20.9994 26.8267 21.1869C26.6392 21.3742 26.3851 21.4794 26.1201 21.4794C25.8551 21.4794 25.6009 21.3742 25.4134 21.1869L23.5467 19.3202C22.8069 19.2116 22.1307 18.8409 21.6413 18.2756C21.1518 17.7103 20.8817 16.988 20.8801 16.2402V9.86691C20.8801 9.03944 21.2088 8.24585 21.7939 7.66074C22.379 7.07563 23.1726 6.74691 24.0001 6.74691C24.8275 6.74691 25.6211 7.07563 26.2062 7.66074C26.7913 8.24585 27.1201 9.03944 27.1201 9.86691L27.1601 16.2402Z" fill="white"/>
</g>
<defs>
<clipPath id="clip0_747_2493">
<rect width="32" height="32" fill="white"/>
</clipPath>
</defs>
</svg>
