<svg width="90" height="90" viewBox="0 0 90 90" fill="none" xmlns="http://www.w3.org/2000/svg">
<path d="M60.4928 38.2165L60.4003 44.6056L55.0391 41.7003V35.4294L55.1051 35.4689L60.4928 38.2165Z" fill="#45ba8c"/>
<path d="M83.7074 64.2988L66.7124 74.0666L58.5913 78.7335V69.5968L66.7124 64.9298L81.4626 56.4504V65.5477L83.7074 64.2988Z" fill="#45ba8c"/>
<path d="M89.5837 21.3364V61.0121L84.0639 64.1015L83.7074 64.2987L81.4625 65.5476V32.2085L60.4004 44.6055L60.4928 38.2164L81.3965 26.0954L81.5682 25.9902L82.7963 25.2803L89.5837 21.3364Z" fill="#45ba8c"/>
<path d="M86.2822 23.2822L81.3964 26.0955L76.286 23.3479L50.404 9.4128L42.2168 4.99562L43.4713 4.24628L50.6945 0L89.5835 21.3365" fill="#45ba8c"/>
<path d="M81.3964 26.0955L60.4928 38.2164L55.0522 35.4951L55.1051 35.4688L76.2861 23.3479L81.3964 26.0955Z" fill="#45ba8c"/>
<path d="M50.4041 9.41286L35.9578 17.7214L27.4405 22.6118L19.3325 18.2472L27.8234 13.2516L43.4715 4.24634L42.217 4.99568L50.4041 9.41286Z" fill="#45ba8c"/>
<path d="M39.2588 50.5871L0 29.4478L8.49089 24.4521L47.3799 45.7887L39.2588 50.5871Z" fill="#45ba8c"/>
<path d="M39.2588 90L47.3799 85.4645V45.7888L39.2588 50.5872V90Z" fill="#45ba8c"/>
</svg>
