<svg width="20" height="18" viewBox="0 0 20 18" fill="none" xmlns="http://www.w3.org/2000/svg">
<g clip-path="url(#clip0_385_13798)">
<path d="M11.1111 16.875C11.1563 16.875 11.2014 16.8715 11.2465 16.868C11.5208 17.1703 11.8229 17.4621 12.1597 17.7363C11.8472 17.9051 11.4896 18.0035 11.1111 18.0035H2.22222C0.996528 18.0035 0 16.9945 0 15.7535V2.25C0 1.00898 0.996528 0 2.22222 0H7.64236C8.08333 0 8.50694 0.179297 8.81944 0.495703L12.8438 4.5668C13.1562 4.8832 13.3333 5.31211 13.3333 5.75859V7.27734L12.2222 7.72734V6.75H8.33333C7.41319 6.75 6.66667 5.99414 6.66667 5.0625V1.125H2.22222C1.60764 1.125 1.11111 1.62773 1.11111 2.25V15.75C1.11111 16.3723 1.60764 16.875 2.22222 16.875H11.1111ZM12.2049 5.625C12.1806 5.52656 12.1319 5.43516 12.059 5.36484L8.03472 1.29023C7.96181 1.21641 7.875 1.16719 7.77778 1.14258V5.0625C7.77778 5.37187 8.02778 5.625 8.33333 5.625H12.2049ZM11.1146 10.5961C11.1597 12.4594 11.8993 15.1488 14.4444 16.5727V9.24609L11.1146 10.5961ZM18.8889 10.5961L15.5556 9.24609V16.5727C18.1042 15.1488 18.8403 12.4559 18.8854 10.5961H18.8889ZM15.3125 7.93477L19.4792 9.62227C19.7917 9.75234 20 10.0617 20 10.4062C20 12.6316 19.1007 16.3406 15.3194 17.9367C15.1146 18.0246 14.8819 18.0246 14.6771 17.9367C10.8993 16.3406 10 12.6316 10 10.4062C10 10.0617 10.2083 9.75234 10.5243 9.62227L14.691 7.93477C14.8889 7.85391 15.1111 7.85391 15.309 7.93477H15.3125Z" fill="#001439"/>
</g>
<defs>
<clipPath id="clip0_385_13798">
<rect width="20" height="18" fill="white"/>
</clipPath>
</defs>
</svg>
