<svg width="40" height="40" viewBox="0 0 40 40" fill="none" xmlns="http://www.w3.org/2000/svg">
<path d="M26.4984 37.8542C22.728 39.2265 18.6199 39.3699 14.7629 38.264C10.9059 37.158 7.49808 34.8594 5.0278 31.6976C2.55751 28.5357 1.15161 24.6731 1.01157 20.6631C0.871543 16.6531 2.00458 12.7018 4.24829 9.37533L20 20L26.4984 37.8542Z" fill="#F2994A" stroke="white" stroke-width="2"/>
<path d="M3.54552 10.5C5.21312 7.61164 7.61163 5.21312 10.5 3.54552C13.3884 1.87792 16.6648 1 20 1V20L3.54552 10.5Z" fill="#EB4824" stroke="white" stroke-width="2"/>
<path d="M20 1C22.4951 1 24.9658 1.49145 27.271 2.44629C29.5762 3.40113 31.6707 4.80066 33.435 6.56497C35.1993 8.32929 36.5989 10.4238 37.5537 12.729C38.5086 15.0342 39 17.5049 39 20C39 22.4951 38.5085 24.9658 37.5537 27.271C36.5989 29.5762 35.1993 31.6707 33.435 33.435C31.6707 35.1993 29.5762 36.5989 27.271 37.5537C24.9658 38.5086 22.4951 39 20 39L20 20V1Z" fill="#27AE60" stroke="white" stroke-width="2"/>
</svg>
