<svg width="16" height="16" viewBox="0 0 16 16" fill="none" xmlns="http://www.w3.org/2000/svg">
<mask id="mask0_11997_49050" style="mask-type:alpha" maskUnits="userSpaceOnUse" x="0" y="0" width="16" height="16">
<rect width="16" height="16" fill="#D9D9D9"/>
</mask>
<g mask="url(#mask0_11997_49050)">
<path d="M8.00026 13.3333C7.81137 13.3333 7.65315 13.2693 7.52559 13.1413C7.39759 13.0138 7.33359 12.8556 7.33359 12.6667V5.21668L4.08359 8.46668C3.95026 8.60001 3.79182 8.66668 3.60826 8.66668C3.42515 8.66668 3.26693 8.60001 3.13359 8.46668C3.00026 8.33335 2.93359 8.17779 2.93359 8.00001C2.93359 7.82223 3.00026 7.66668 3.13359 7.53335L7.53359 3.13335C7.60026 3.06668 7.67248 3.01935 7.75026 2.99135C7.82804 2.96379 7.91137 2.95001 8.00026 2.95001C8.08915 2.95001 8.17537 2.96379 8.25893 2.99135C8.34204 3.01935 8.41137 3.06668 8.46693 3.13335L12.8669 7.53335C13.0003 7.66668 13.0669 7.82223 13.0669 8.00001C13.0669 8.17779 13.0003 8.33335 12.8669 8.46668C12.7336 8.60001 12.5751 8.66668 12.3916 8.66668C12.2085 8.66668 12.0503 8.60001 11.9169 8.46668L8.66693 5.21668V12.6667C8.66693 12.8556 8.60315 13.0138 8.47559 13.1413C8.34759 13.2693 8.18915 13.3333 8.00026 13.3333Z" fill="#45BA8C"/>
</g>
</svg>
