<svg width="21" height="22" viewBox="0 0 21 22" fill="none" xmlns="http://www.w3.org/2000/svg">
<path d="M20.14 18.4303C19.4971 17.8387 18.9343 17.1605 18.4667 16.414C17.9561 15.3835 17.6502 14.2581 17.5667 13.1039V9.7043C17.5711 7.89139 16.934 6.13921 15.7752 4.77697C14.6163 3.41473 13.0154 2.53621 11.2733 2.30645V1.41871C11.2733 1.17505 11.1796 0.941375 11.0127 0.769084C10.8458 0.596792 10.6194 0.5 10.3833 0.5C10.1473 0.5 9.92092 0.596792 9.75401 0.769084C9.5871 0.941375 9.49333 1.17505 9.49333 1.41871V2.32021C7.76684 2.56653 6.18531 3.45037 5.04169 4.80803C3.89806 6.16569 3.26982 7.90517 3.27333 9.7043V13.1039C3.18984 14.2581 2.88385 15.3835 2.37333 16.414C1.91392 17.1588 1.36013 17.8369 0.726667 18.4303C0.655554 18.4948 0.598561 18.5742 0.559478 18.6632C0.520396 18.7522 0.50012 18.8487 0.5 18.9465V19.8824C0.5 20.0649 0.570238 20.2399 0.695262 20.369C0.820286 20.498 0.989856 20.5705 1.16667 20.5705H19.7C19.8768 20.5705 20.0464 20.498 20.1714 20.369C20.2964 20.2399 20.3667 20.0649 20.3667 19.8824V18.9465C20.3665 18.8487 20.3463 18.7522 20.3072 18.6632C20.2681 18.5742 20.2111 18.4948 20.14 18.4303ZM1.88667 19.1942C2.50694 18.5757 3.05307 17.8825 3.51333 17.1297C4.15641 15.8851 4.53162 14.5119 4.61333 13.1039V9.7043C4.58689 8.89779 4.71795 8.09403 4.9987 7.34089C5.27944 6.58775 5.70414 5.90063 6.2475 5.32044C6.79086 4.74025 7.44176 4.27887 8.16145 3.96376C8.88115 3.64865 9.65491 3.48626 10.4367 3.48626C11.2184 3.48626 11.9922 3.64865 12.7119 3.96376C13.4316 4.27887 14.0825 4.74025 14.6258 5.32044C15.1692 5.90063 15.5939 6.58775 15.8746 7.34089C16.1554 8.09403 16.2864 8.89779 16.26 9.7043V13.1039C16.3417 14.5119 16.7169 15.8851 17.36 17.1297C17.8203 17.8825 18.3664 18.5757 18.9867 19.1942H1.88667Z" fill="#828282" stroke="#828282"/>
</svg>
