<svg width="32" height="32" viewBox="0 0 32 32" fill="none" xmlns="http://www.w3.org/2000/svg">
<path d="M26 4H6C5.46957 4 4.96086 4.21071 4.58579 4.58579C4.21071 4.96086 4 5.46957 4 6V26C4 26.5304 4.21071 27.0391 4.58579 27.4142C4.96086 27.7893 5.46957 28 6 28H26C26.5304 28 27.0391 27.7893 27.4142 27.4142C27.7893 27.0391 28 26.5304 28 26V6C28 5.46957 27.7893 4.96086 27.4142 4.58579C27.0391 4.21071 26.5304 4 26 4Z" stroke="#828282" stroke-width="2" stroke-linejoin="round"/>
<path d="M16 19.0837V16.417C16.7911 16.417 17.5645 16.1824 18.2223 15.7429C18.8801 15.3033 19.3928 14.6786 19.6955 13.9477C19.9983 13.2168 20.0775 12.4126 19.9231 11.6366C19.7688 10.8607 19.3878 10.148 18.8284 9.58857C18.269 9.02916 17.5563 8.64819 16.7804 8.49385C16.0044 8.33951 15.2002 8.41873 14.4693 8.72148C13.7384 9.02423 13.1136 9.53692 12.6741 10.1947C12.2346 10.8525 12 11.6259 12 12.417" stroke="#828282" stroke-width="2" stroke-linecap="round" stroke-linejoin="round"/>
<path fill-rule="evenodd" clip-rule="evenodd" d="M15.9997 25.0833C16.4417 25.0833 16.8656 24.9077 17.1782 24.5952C17.4907 24.2826 17.6663 23.8587 17.6663 23.4167C17.6663 22.9746 17.4907 22.5507 17.1782 22.2382C16.8656 21.9256 16.4417 21.75 15.9997 21.75C15.5576 21.75 15.1337 21.9256 14.8212 22.2382C14.5086 22.5507 14.333 22.9746 14.333 23.4167C14.333 23.8587 14.5086 24.2826 14.8212 24.5952C15.1337 24.9077 15.5576 25.0833 15.9997 25.0833Z" fill="#828282"/>
</svg>
