<svg width="16" height="16" viewBox="0 0 16 16" fill="none" xmlns="http://www.w3.org/2000/svg">
<path opacity="0.598982" d="M15.9046 3.65666L13.9046 0.323333C13.7841 0.122759 13.5673 0 13.3333 0H2.66667C2.43268 0 2.21584 0.122759 2.09534 0.323333L0.0953415 3.65666C0.0330016 3.76033 4.18075e-06 3.87902 4.18075e-06 3.99999C-0.00257219 5.46939 1.18594 6.66298 2.65534 6.66666H2.66067C3.31916 6.66833 3.95468 6.42473 4.44333 5.98332C5.45265 6.89554 6.98868 6.89554 7.99799 5.98332C9.00781 6.89755 10.5462 6.89755 11.556 5.98332C12.3378 6.68859 13.4618 6.86666 14.4233 6.43756C15.3848 6.00846 16.0029 5.05287 16 3.99999C16 3.87902 15.967 3.76033 15.9046 3.65666Z" fill="white"/>
<path d="M13.344 7.65605C12.7243 7.65658 12.1129 7.49389 11.558 7.18079L11.548 7.18608C10.6019 7.7216 9.50654 7.80605 8.50532 7.42069C8.33192 7.35451 8.16264 7.27511 7.99866 7.18306L7.99132 7.18684C7.0455 7.72272 5.95016 7.80693 4.94933 7.42069C4.77614 7.3545 4.60709 7.27511 4.44333 7.18306C3.88939 7.4953 3.27913 7.65722 2.66067 7.65605C2.43918 7.65365 2.21824 7.63087 2 7.58794V15.224C2 15.6419 2.29848 15.9808 2.66667 15.9808H6.66666V11.44H9.33332V15.9808H13.3333C13.7015 15.9808 14 15.6419 14 15.224V7.58491C13.7834 7.62895 13.564 7.65275 13.344 7.65605Z" fill="white"/>
</svg>
