<svg width="455" height="78" viewBox="0 0 455 78" fill="none" xmlns="http://www.w3.org/2000/svg">
<g clip-path="url(#clip0_11997_58224)">
<path d="M120.545 46.2611C120.519 47.6376 120.217 48.9946 119.657 50.2493C119.096 51.504 118.289 52.6303 117.285 53.5597C116.281 54.4892 115.101 55.2023 113.816 55.6558C112.531 56.1093 111.168 56.2937 109.811 56.1978H95.749V22.0437H108.898C110.24 21.9167 111.594 22.0705 112.875 22.4956C114.156 22.9206 115.336 23.6079 116.343 24.5145C117.35 25.4212 118.162 26.5278 118.728 27.7655C119.293 29.0032 119.602 30.3456 119.633 31.7089C119.661 32.9661 119.41 34.2137 118.9 35.3601C118.389 36.5065 117.631 37.5225 116.681 38.3334C117.963 39.1882 118.997 40.3733 119.676 41.7667C120.355 43.1601 120.655 44.7114 120.545 46.2611ZM103.317 29.5913V35.4013H108.684C109.073 35.4171 109.461 35.3503 109.824 35.205C110.186 35.0598 110.514 34.8395 110.787 34.5581C111.06 34.2768 111.272 33.9408 111.409 33.5716C111.546 33.2025 111.605 32.8084 111.582 32.4148C111.605 32.0212 111.546 31.6272 111.409 31.258C111.272 30.8889 111.06 30.5528 110.787 30.2715C110.514 29.9902 110.186 29.7698 109.824 29.6246C109.461 29.4794 109.073 29.4126 108.684 29.4284L103.317 29.5913ZM112.87 45.881C112.901 45.4497 112.841 45.0166 112.694 44.6107C112.546 44.2048 112.315 43.8353 112.015 43.527C111.716 43.2186 111.355 42.9785 110.956 42.8226C110.557 42.6667 110.13 42.5987 109.703 42.623H103.317V49.0846H109.703C110.166 49.1192 110.631 49.0448 111.061 48.8673C111.49 48.6898 111.874 48.4141 112.18 48.0617C112.487 47.7092 112.709 47.2897 112.829 46.836C112.948 46.3823 112.962 45.9067 112.87 45.4466V45.881Z" fill="#45BA8C"/>
<path d="M144.482 48.4873V55.9262H124.838V22.0437H132.513V48.4873H144.482Z" fill="#45BA8C"/>
<path d="M144.965 38.985C144.965 35.4924 145.989 32.0783 147.908 29.1751C149.827 26.2719 152.555 24.0101 155.745 22.676C158.935 21.3419 162.445 20.9956 165.83 21.681C169.216 22.3663 172.323 24.0524 174.761 26.5259C177.198 28.9993 178.855 32.1488 179.522 35.5756C180.189 39.0024 179.836 42.5523 178.507 45.776C177.179 48.9996 174.935 51.7519 172.059 53.6845C169.184 55.617 165.806 56.6429 162.354 56.6321C160.06 56.654 157.785 56.2121 155.662 55.3323C153.538 54.4525 151.61 53.1526 149.991 51.5088C148.371 49.865 147.092 47.9104 146.229 45.7598C145.366 43.6092 144.936 41.3059 144.965 38.985ZM172.122 38.985C172.08 37.0402 171.471 35.1514 170.373 33.555C169.274 31.9587 167.734 30.7259 165.946 30.0111C164.158 29.2964 162.201 29.1314 160.32 29.5369C158.44 29.9424 156.719 30.9003 155.375 32.2906C154.03 33.6809 153.121 35.4419 152.761 37.3527C152.401 39.2635 152.607 41.2393 153.352 43.0325C154.097 44.8256 155.349 46.3564 156.95 47.433C158.552 48.5096 160.431 49.0841 162.354 49.0846C163.666 49.1238 164.971 48.8877 166.188 48.3912C167.405 47.8946 168.507 47.1484 169.425 46.1995C170.343 45.2507 171.056 44.1197 171.52 42.878C171.984 41.6363 172.189 40.3108 172.122 38.985Z" fill="#45BA8C"/>
<path d="M183.125 38.985C183.066 36.6724 183.471 34.3717 184.314 32.2214C185.157 30.0711 186.422 28.1154 188.031 26.472C189.64 24.8287 191.561 23.5315 193.679 22.6585C195.797 21.7855 198.067 21.3548 200.353 21.3921C203.204 21.3441 206.019 22.0379 208.528 23.4071C211.037 24.7763 213.157 26.7749 214.683 29.2112L208.082 33.0664C207.272 31.7456 206.129 30.6671 204.771 29.9417C203.412 29.2164 201.887 28.8705 200.353 28.9397C197.839 29.1266 195.488 30.2689 193.772 32.1372C192.055 34.0056 191.102 36.4616 191.102 39.0121C191.102 41.5626 192.055 44.0186 193.772 45.887C195.488 47.7554 197.839 48.8977 200.353 49.0846C201.893 49.1482 203.421 48.794 204.78 48.0589C206.139 47.3238 207.279 46.2343 208.082 44.9035L214.683 48.7588C213.167 51.2088 211.051 53.221 208.541 54.6004C206.03 55.9799 203.21 56.6797 200.353 56.6321C198.062 56.6697 195.787 56.2374 193.666 55.361C191.545 54.4847 189.621 53.1827 188.011 51.5334C186.401 49.8842 185.138 47.922 184.298 45.7653C183.458 43.6086 183.059 41.3021 183.125 38.985Z" fill="#45BA8C"/>
<path d="M237.332 55.9262L226.598 40.2338V55.9262H218.977V22.0437H226.598V36.7587L236.849 22.0437H245.544L234.273 38.3334L246.027 55.709L237.332 55.9262Z" fill="#45BA8C"/>
<path d="M282.898 55.9262H275.492V36.2157L266.851 50.6049H265.992L257.297 36.2157V55.9262H249.676V22.0437H257.297L266.421 37.0845L275.492 22.0437H283.167L282.898 55.9262Z" fill="#45BA8C"/>
<path d="M310.163 48.4873V55.9262H289.124V22.0437H309.948V29.4826H296.96V34.9125H308.929V42.4601H296.96V48.4873H310.163Z" fill="#45BA8C"/>
<path d="M344.62 38.985C344.707 41.1784 344.354 43.3669 343.584 45.419C342.814 47.4712 341.642 49.3447 340.138 50.9271C338.634 52.5094 336.83 53.7679 334.833 54.627C332.836 55.486 330.688 55.928 328.519 55.9262H315.101V22.0437H328.519C330.688 22.0419 332.836 22.4839 334.833 23.343C336.83 24.202 338.634 25.4605 340.138 27.0429C341.642 28.6252 342.814 30.4987 343.584 32.5509C344.354 34.6031 344.707 36.7916 344.62 38.985ZM337.267 38.985C337.374 37.7514 337.221 36.509 336.818 35.3398C336.415 34.1706 335.771 33.1015 334.928 32.2031C334.086 31.3047 333.065 30.5976 331.932 30.1286C330.799 29.6596 329.581 29.4394 328.358 29.4827H322.615V48.4873H328.358C329.581 48.5305 330.799 48.3103 331.932 47.8413C333.065 47.3723 334.086 46.6652 334.928 45.7668C335.771 44.8685 336.415 43.7993 336.818 42.6301C337.221 41.461 337.374 40.2185 337.267 38.985Z" fill="#45BA8C"/>
<path d="M385.517 32.5777C385.547 33.969 385.296 35.3519 384.778 36.6414C384.261 37.9309 383.489 39.0997 382.508 40.0761C381.528 41.0525 380.361 41.8158 379.079 42.3191C377.796 42.8225 376.426 43.0553 375.051 43.0031H366.195V55.9262H363.673V22.0437H375.051C376.433 21.9988 377.809 22.2401 379.096 22.7529C380.382 23.2657 381.551 24.0391 382.531 25.0256C383.511 26.0121 384.282 27.1909 384.795 28.4896C385.308 29.7883 385.554 31.1795 385.517 32.5777ZM382.941 32.5777C382.986 31.5148 382.813 30.454 382.433 29.4619C382.053 28.4699 381.475 27.5681 380.734 26.8133C379.993 26.0585 379.105 25.467 378.127 25.076C377.149 24.685 376.102 24.503 375.051 24.5415H366.195V40.8311H375.051C376.112 40.8565 377.167 40.6574 378.147 40.2465C379.128 39.8356 380.013 39.222 380.746 38.445C381.478 37.668 382.042 36.7447 382.402 35.7344C382.761 34.724 382.908 33.6488 382.833 32.5777H382.941Z" fill="white"/>
<path d="M405.375 42.0257H394.641V55.9262H392.064V22.0437H405.267C407.675 22.025 410.006 22.8965 411.823 24.4944C413.639 26.0924 414.817 28.3067 415.133 30.7211C415.45 33.1356 414.883 35.5838 413.541 37.6055C412.199 39.6273 410.173 41.0833 407.844 41.6999L416.163 55.9262H413.211L405.375 42.0257ZM394.641 39.6366H405.375C407.251 39.4757 408.999 38.608 410.273 37.2052C411.547 35.8025 412.254 33.9669 412.254 32.0619C412.254 30.1568 411.547 28.3213 410.273 26.9185C408.999 25.5157 407.251 24.648 405.375 24.4872H394.641V39.6366Z" fill="white"/>
<path d="M420.402 38.985C420.402 35.5269 421.416 32.1465 423.315 29.2712C425.214 26.396 427.913 24.155 431.071 22.8316C434.229 21.5083 437.704 21.162 441.056 21.8367C444.408 22.5113 447.488 24.1765 449.905 26.6217C452.322 29.0669 453.967 32.1823 454.634 35.574C455.301 38.9656 454.959 42.4811 453.651 45.6759C452.343 48.8707 450.128 51.6014 447.286 53.5226C444.444 55.4438 441.102 56.4692 437.684 56.4692C435.413 56.4764 433.162 56.029 431.063 55.1529C428.963 54.2768 427.055 52.9892 425.448 51.3642C423.842 49.7392 422.569 47.8089 421.703 45.6844C420.838 43.5598 420.395 41.283 420.402 38.985ZM452.605 38.985C452.594 36.0317 451.718 33.1479 450.088 30.6983C448.457 28.2487 446.145 26.3433 443.444 25.2231C440.743 24.1028 437.774 23.8181 434.913 24.4048C432.052 24.9914 429.428 26.4233 427.371 28.5192C425.314 30.615 423.918 33.2808 423.359 36.1795C422.8 39.0781 423.103 42.0794 424.23 44.8037C425.357 47.5281 427.257 49.8532 429.69 51.4851C432.123 53.1169 434.98 53.9822 437.899 53.9715C441.738 53.8578 445.38 52.2237 448.04 49.4208C450.7 46.6179 452.166 42.8704 452.122 38.985H452.605Z" fill="white"/>
<path d="M52.1684 33.1207L52.061 38.6592L47.499 36.1071V30.7315L52.1684 33.1207Z" fill="#C1C1C1"/>
<path d="M76.7494 52.8855L57.4279 64.1254L50.5581 68.1978V60.2702L57.4279 56.252L73.3681 46.9669L76.7494 52.8855Z" fill="white"/>
<path d="M74.2807 25.3559L52.061 38.6592L52.1684 33.1207L71.1141 21.9894L74.2807 25.3559Z" fill="white"/>
<path d="M71.1141 21.9894L52.1684 33.1207L47.499 30.7858L66.5521 19.7089L71.1141 21.9894Z" fill="#D8D8D8"/>
<path d="M47.0161 6.18843L31.237 15.3649L23.9914 19.6003L17.1216 15.8536L24.3134 11.5097L43.6349 0.215546L47.0161 6.18843Z" fill="#D8D8D8"/>
<path d="M70.0408 22.6953L36.604 4.39656L43.7959 0.0526428L76.9107 18.5143L70.0408 22.6953Z" fill="#D8D8D8"/>
<path d="M70.0405 56.795L76.9104 52.8312V18.5143L70.0405 22.6953V56.795Z" fill="white"/>
<path d="M34.0813 43.8176L0.644531 25.5188L7.89007 21.2292L41.0049 39.6909L34.0813 43.8176Z" fill="#D8D8D8"/>
<path d="M34.0815 77.9173L41.0051 74.0078V39.6909L34.0815 43.8176V77.9173Z" fill="white"/>
</g>
<defs>
<clipPath id="clip0_11997_58224">
<rect width="454" height="77.8647" fill="white" transform="translate(0.644531 0.0526428)"/>
</clipPath>
</defs>
</svg>
