<svg width="307" height="50" viewBox="0 0 307 50" fill="none" xmlns="http://www.w3.org/2000/svg">
<path fill-rule="evenodd" clip-rule="evenodd" d="M101.64 22.2771C101.64 20.0015 102.319 17.777 103.592 15.8853C104.864 13.9937 106.673 12.5199 108.789 11.6507C110.904 10.7814 113.232 10.5558 115.477 11.0024C117.722 11.4489 119.783 12.5475 121.399 14.1592C123.015 15.7708 124.114 17.8229 124.556 20.0557C124.999 22.2885 124.765 24.6015 123.884 26.702C123.003 28.8024 121.514 30.5957 119.608 31.8549C117.701 33.1141 115.461 33.7825 113.171 33.7755C111.65 33.7898 110.141 33.5018 108.733 32.9286C107.325 32.3553 106.047 31.5083 104.973 30.4373C103.898 29.3662 103.05 28.0927 102.478 26.6914C101.906 25.2902 101.621 23.7894 101.64 22.2771ZM119.649 22.2771C119.621 21.01 119.217 19.7793 118.489 18.7391C117.76 17.699 116.739 16.8958 115.553 16.43C114.367 15.9643 113.07 15.8568 111.823 16.121C110.576 16.3852 109.435 17.0094 108.543 17.9153C107.651 18.8212 107.048 19.9685 106.81 21.2136C106.571 22.4586 106.707 23.746 107.202 24.9144C107.696 26.0827 108.526 27.0801 109.588 27.7816C110.65 28.4831 111.896 28.8574 113.171 28.8577C114.041 28.8833 114.907 28.7295 115.714 28.406C116.521 28.0824 117.252 27.5962 117.86 26.9779C118.469 26.3597 118.942 25.6228 119.25 24.8137C119.558 24.0047 119.694 23.141 119.649 22.2771ZM84.8543 29.6162C85.2259 28.7986 85.4264 27.9145 85.4435 27.0176C85.5166 26.0079 85.3177 24.9971 84.8673 24.0892C84.4169 23.1813 83.7312 22.4091 82.8809 21.8521C83.5108 21.3237 84.0137 20.6618 84.3524 19.9148C84.6912 19.1679 84.8572 18.355 84.8384 17.5358C84.8179 16.6475 84.6136 15.7729 84.2383 14.9664C83.863 14.1599 83.3248 13.4389 82.6571 12.8482C81.9893 12.2574 81.2064 11.8096 80.357 11.5326C79.5077 11.2557 78.6101 11.1555 77.7201 11.2383H69V33.492H78.3251C79.2254 33.5546 80.1291 33.4344 80.9812 33.1389C81.8333 32.8435 82.6161 32.3788 83.2819 31.7732C83.9478 31.1676 84.4828 30.4337 84.8543 29.6162ZM74.0185 19.9416V16.156L77.5777 16.0499C77.8359 16.0396 78.0934 16.0831 78.3337 16.1777C78.574 16.2723 78.7916 16.4159 78.9727 16.5992C79.1537 16.7825 79.2941 17.0015 79.3849 17.242C79.4757 17.4826 79.5148 17.7393 79.4996 17.9958C79.5148 18.2522 79.4757 18.509 79.3849 18.7495C79.2941 18.99 79.1537 19.209 78.9727 19.3923C78.7916 19.5756 78.574 19.7192 78.3337 19.8138C78.0934 19.9084 77.8359 19.952 77.5777 19.9416H74.0185ZM80.3545 26.4902C80.3609 26.5831 80.3607 26.6766 80.3538 26.7699V26.4869L80.3545 26.4902ZM80.3264 27.3922C80.4055 27.0977 80.415 26.789 80.3545 26.4902C80.3417 26.3034 80.3022 26.1189 80.2369 25.9422C80.1392 25.6777 79.9859 25.437 79.7872 25.2361C79.5884 25.0352 79.3489 24.8788 79.0845 24.7772C78.8201 24.6756 78.5369 24.6313 78.2539 24.6471H74.0185V28.8573H78.2539C78.5609 28.8798 78.8689 28.8314 79.1539 28.7157C79.4389 28.6001 79.693 28.4204 79.8964 28.1908C80.0998 27.9612 80.247 27.6878 80.3264 27.3922ZM101.316 33.3147V28.4677H93.3787V11.2378H88.2891V33.3147H101.316ZM127.735 17.8701C127.176 19.2712 126.907 20.7702 126.946 22.277C126.903 23.7868 127.167 25.2896 127.724 26.6949C128.281 28.1001 129.119 29.3787 130.187 30.4532C131.254 31.5278 132.53 32.3762 133.937 32.9472C135.343 33.5182 136.852 33.7999 138.371 33.7754C140.265 33.8064 142.136 33.3504 143.801 32.4516C145.466 31.5528 146.869 30.2417 147.874 28.6454L143.496 26.1334C142.964 27.0005 142.208 27.7103 141.307 28.1893C140.406 28.6683 139.392 28.8991 138.371 28.8576C136.704 28.7359 135.145 27.9916 134.007 26.7742C132.869 25.5568 132.236 23.9565 132.236 22.2947C132.236 20.6329 132.869 19.0326 134.007 17.8152C135.145 16.5979 136.704 15.8536 138.371 15.7318C139.389 15.6867 140.4 15.9121 141.301 16.3847C142.202 16.8573 142.959 17.5601 143.496 18.4206L147.874 15.9087C146.862 14.3213 145.456 13.0191 143.792 12.127C142.128 11.2348 140.261 10.7827 138.371 10.814C136.855 10.7897 135.349 11.0704 133.945 11.6392C132.541 12.208 131.267 13.0532 130.2 14.124C129.132 15.1947 128.294 16.469 127.735 17.8701ZM162.889 33.3147L155.771 23.09V33.3147H150.717V11.2378H155.771V20.8257L162.569 11.2378H168.335L160.861 21.8517L168.655 33.1732L162.889 33.3147ZM188.198 33.3147H193.11L193.287 11.2378H188.198L182.183 21.0379L176.132 11.2378H171.078V33.3147H176.132V20.4719L181.898 29.8475H182.468L188.198 20.4719V33.3147ZM211.189 28.4678V33.3149H197.236V11.238H211.046V16.085H202.433V19.6229H210.37V24.5407H202.433V28.4678H211.189ZM233.354 26.4687C233.865 25.1315 234.098 23.7056 234.041 22.2764C234.098 20.8473 233.865 19.4213 233.354 18.0842C232.843 16.747 232.066 15.5263 231.068 14.4953C230.071 13.4643 228.874 12.6443 227.55 12.0845C226.226 11.5248 224.802 11.2368 223.363 11.238H214.465V33.3149H223.363C224.802 33.316 226.226 33.0281 227.55 32.4683C228.874 31.9086 230.071 31.0885 231.068 30.0575C232.066 29.0265 232.843 27.8058 233.354 26.4687ZM228.867 19.9013C229.134 20.6631 229.236 21.4727 229.164 22.2764C229.236 23.0801 229.134 23.8897 228.867 24.6515C228.599 25.4133 228.172 26.1099 227.614 26.6953C227.055 27.2807 226.378 27.7414 225.626 28.047C224.875 28.3526 224.067 28.496 223.256 28.4679H219.448V16.085H223.256C224.067 16.0568 224.875 16.2003 225.626 16.5059C226.378 16.8114 227.055 17.2722 227.614 17.8575C228.172 18.4429 228.599 19.1395 228.867 19.9013Z" fill="url(#paint0_linear_11997_56359)"/>
<path d="M260.998 18.2207C261.017 19.1085 260.856 19.991 260.524 20.8139C260.193 21.6368 259.698 22.3827 259.07 23.0058C258.442 23.6289 257.694 24.116 256.872 24.4372C256.05 24.7585 255.172 24.907 254.291 24.8737H248.616V33.1207H247V11.4983H254.291C255.177 11.4696 256.059 11.6237 256.883 11.9509C257.707 12.2781 258.456 12.7717 259.084 13.4012C259.712 14.0308 260.206 14.783 260.535 15.6118C260.864 16.4406 261.022 17.3284 260.998 18.2207ZM259.347 18.2207C259.376 17.5424 259.265 16.8654 259.022 16.2323C258.778 15.5992 258.407 15.0237 257.933 14.5421C257.458 14.0604 256.889 13.6829 256.262 13.4334C255.636 13.1839 254.965 13.0677 254.291 13.0923H248.616V23.4877H254.291C254.971 23.5039 255.647 23.3768 256.275 23.1145C256.904 22.8523 257.471 22.4608 257.94 21.9649C258.41 21.4691 258.771 20.8799 259.002 20.2351C259.232 19.5904 259.326 18.9042 259.278 18.2207H259.347Z" fill="#312D2D"/>
<path d="M274.39 24.2487H266.817V33.1207H265V11.4951H274.314C276.012 11.4832 277.657 12.0394 278.938 13.0593C280.22 14.0792 281.051 15.4925 281.274 17.0335C281.497 18.5745 281.098 20.1371 280.151 21.4275C279.204 22.7179 277.774 23.6472 276.131 24.0407L282 33.1207H279.918L274.39 24.2487ZM266.817 22.7238H274.39C275.713 22.6211 276.947 22.0673 277.845 21.172C278.744 20.2767 279.243 19.1051 279.243 17.8892C279.243 16.6733 278.744 15.5018 277.845 14.6065C276.947 13.7111 275.713 13.1573 274.39 13.0547H266.817V22.7238Z" fill="#312D2D"/>
<path d="M285 22.7993C285 20.5635 285.651 18.3779 286.872 16.5189C288.092 14.6599 289.827 13.211 291.856 12.3554C293.885 11.4998 296.119 11.276 298.273 11.7122C300.427 12.1483 302.406 13.225 303.96 14.8059C305.513 16.3869 306.358 18.4011 306.787 20.5939C307.215 22.7868 306.995 25.0597 306.155 27.1253C305.314 29.1909 304.103 30.9564 302.277 32.1985C300.45 33.4407 298.303 34.1036 296.106 34.1036C294.646 34.1083 293.2 33.819 291.851 33.2526C290.501 32.6861 289.275 31.8536 288.243 30.803C287.211 29.7524 286.393 28.5044 285.836 27.1308C285.28 25.7572 284.995 24.2851 285 22.7993ZM305.384 22.7993C305.378 20.8899 305.125 19.0254 304.077 17.4416C303.029 15.8578 301.543 14.6259 299.808 13.9016C298.072 13.1773 296.164 12.9932 294.325 13.3725C292.487 13.7519 290.8 14.6776 289.478 16.0327C288.157 17.3878 287.26 19.1113 286.9 20.9854C286.541 22.8595 286.736 24.8 287.46 26.5614C288.184 28.3228 289.405 29.8261 290.969 30.8812C292.532 31.9362 294.368 32.4957 296.244 32.4887C298.711 32.4153 301.052 31.3587 302.761 29.5465C304.471 27.7343 305.413 25.3114 305.384 22.7993Z" fill="#312D2D"/>
<path d="M33.1013 20.8738L33.0324 24.3698L30.1016 22.7589V19.3657L33.1013 20.8738Z" fill="#B0B0B0"/>
<path d="M48.8966 33.3492L36.4838 40.444L32.0703 43.0146V38.0105L36.4838 35.4742L46.7244 29.6133L48.8966 33.3492Z" fill="#312D2D"/>
<path d="M47.3061 15.9722L33.0312 24.3695L33.1002 20.8735L45.2717 13.8472L47.3061 15.9722Z" fill="#312D2D"/>
<path d="M45.2728 13.8468L33.1013 20.873L30.1016 19.3992L42.342 12.4072L45.2728 13.8468Z" fill="#6D6D6D"/>
<path d="M29.7914 3.87372L19.6542 9.66612L14.9994 12.3395L10.5859 9.97459L15.2063 7.23263L27.6192 0.103516L29.7914 3.87372Z" fill="#6D6D6D"/>
<path d="M44.5827 14.2925L23.1016 2.74197L27.7219 0L48.9962 11.6534L44.5827 14.2925Z" fill="#6D6D6D"/>
<path d="M44.5859 35.8164L48.9994 33.3144V11.6528L44.5859 14.292V35.8164Z" fill="#312D2D"/>
<path d="M21.4812 27.6256L0 16.0751L4.65483 13.3674L25.9291 25.0207L21.4812 27.6256Z" fill="#6D6D6D"/>
<path d="M21.4805 49.1498L25.9284 46.682V25.0205L21.4805 27.6254V49.1498Z" fill="#312D2D"/>
<defs>
<linearGradient id="paint0_linear_11997_56359" x1="19.8291" y1="6.01663" x2="38.0987" y2="88.1654" gradientUnits="userSpaceOnUse">
<stop stop-color="#2C535B"/>
<stop offset="1" stop-color="#45BA8C"/>
</linearGradient>
</defs>
</svg>
