<svg width="18" height="18" viewBox="0 0 18 18" fill="none" xmlns="http://www.w3.org/2000/svg">
<g clip-path="url(#clip0_1784_25258)">
<path d="M6.75 0C6.12773 0 5.625 0.502734 5.625 1.125C5.00273 1.125 4.5 1.62773 4.5 2.25V10.125C4.5 10.7473 5.00273 11.25 5.625 11.25H9C9.62227 11.25 10.125 10.7473 10.125 10.125V5.625C13.2328 5.625 15.75 8.14219 15.75 11.25C15.75 14.3578 13.2328 16.875 10.125 16.875H7.3125H0.5625C0.253125 16.875 0 17.1281 0 17.4375C0 17.7469 0.253125 18 0.5625 18H7.3125H10.125H17.4375C17.7469 18 18 17.7469 18 17.4375C18 17.1281 17.7469 16.875 17.4375 16.875H13.8586C15.6762 15.6656 16.875 13.5984 16.875 11.25C16.875 7.52344 13.8516 4.5 10.125 4.5V2.25C10.125 1.62773 9.62227 1.125 9 1.125C9 0.502734 8.49727 0 7.875 0H6.75ZM6.75 1.125H7.875V1.6875C7.875 1.99688 8.12813 2.25 8.4375 2.25H9V10.125H5.625V2.25H6.1875C6.49687 2.25 6.75 1.99688 6.75 1.6875V1.125ZM5.625 12.9375C5.625 13.2469 5.87813 13.5 6.1875 13.5H8.4375C8.74687 13.5 9 13.2469 9 12.9375C9 12.6281 8.74687 12.375 8.4375 12.375H6.1875C5.87813 12.375 5.625 12.6281 5.625 12.9375ZM3.375 15.1875C3.375 15.4969 3.62812 15.75 3.9375 15.75H10.6875C10.9969 15.75 11.25 15.4969 11.25 15.1875C11.25 14.8781 10.9969 14.625 10.6875 14.625H3.9375C3.62812 14.625 3.375 14.8781 3.375 15.1875Z" fill="#374EA2"/>
</g>
<defs>
<clipPath id="clip0_1784_25258">
<rect width="18" height="18" fill="white"/>
</clipPath>
</defs>
</svg>
