<svg width="124" height="124" viewBox="0 0 124 124" fill="none" xmlns="http://www.w3.org/2000/svg">
<path d="M109.469 10.8984H99.418V6.53906C99.418 4.8048 98.729 3.14156 97.5027 1.91525C96.2764 0.688935 94.6132 0 92.8789 0C91.1446 0 89.4814 0.688935 88.2551 1.91525C87.0288 3.14156 86.3398 4.8048 86.3398 6.53906V10.8984H37.6602V6.53906C37.6602 4.8048 36.9712 3.14156 35.7449 1.91525C34.5186 0.688935 32.8554 1.378e-07 31.1211 1.378e-07C29.3868 1.378e-07 27.7236 0.688935 26.4973 1.91525C25.271 3.14156 24.582 4.8048 24.582 6.53906V10.8984H14.5312C12.1234 10.9011 9.81489 11.8588 8.11226 13.5615C6.40963 15.2641 5.45191 17.5726 5.44922 19.9805V114.918C5.45191 117.326 6.40963 119.634 8.11226 121.337C9.81489 123.04 12.1234 123.997 14.5312 124H109.469C111.877 123.997 114.185 123.04 115.888 121.337C117.59 119.634 118.548 117.326 118.551 114.918V19.9805C118.548 17.5726 117.59 15.2641 115.888 13.5615C114.185 11.8588 111.877 10.9011 109.469 10.8984ZM89.9727 6.53906C89.9727 5.76828 90.2788 5.02906 90.8239 4.48403C91.3689 3.93901 92.1081 3.63281 92.8789 3.63281C93.6497 3.63281 94.3889 3.93901 94.9339 4.48403C95.479 5.02906 95.7852 5.76828 95.7852 6.53906V19.3217C95.7852 20.0925 95.479 20.8317 94.9339 21.3767C94.3889 21.9218 93.6497 22.228 92.8789 22.228C92.1081 22.228 91.3689 21.9218 90.8239 21.3767C90.2788 20.8317 89.9727 20.0925 89.9727 19.3217V6.53906ZM28.2148 6.53906C28.2148 5.76828 28.521 5.02906 29.0661 4.48403C29.6111 3.93901 30.3503 3.63281 31.1211 3.63281C31.8919 3.63281 32.6311 3.93901 33.1761 4.48403C33.7211 5.02906 34.0273 5.76828 34.0273 6.53906V19.3217C34.0273 20.0925 33.7211 20.8317 33.1761 21.3767C32.6311 21.9218 31.8919 22.228 31.1211 22.228C30.3503 22.228 29.6111 21.9218 29.0661 21.3767C28.521 20.8317 28.2148 20.0925 28.2148 19.3217V6.53906ZM114.918 114.918C114.916 116.363 114.342 117.748 113.32 118.769C112.299 119.791 110.913 120.366 109.469 120.367H14.5312C13.0865 120.366 11.7015 119.791 10.6799 118.769C9.65835 117.748 9.0837 116.363 9.08203 114.918V37.7733H114.918V114.918ZM114.918 34.1404H9.08203V19.9805C9.0837 18.5358 9.65835 17.1507 10.6799 16.1291C11.7015 15.1076 13.0865 14.5329 14.5312 14.5312H24.582V19.3217C24.582 21.056 25.271 22.7192 26.4973 23.9455C27.7236 25.1718 29.3868 25.8608 31.1211 25.8608C32.8554 25.8608 34.5186 25.1718 35.7449 23.9455C36.9712 22.7192 37.6602 21.056 37.6602 19.3217V14.5312H86.3398V19.3217C86.3398 21.056 87.0288 22.7192 88.2551 23.9455C89.4814 25.1718 91.1446 25.8608 92.8789 25.8608C94.6132 25.8608 96.2764 25.1718 97.5027 23.9455C98.729 22.7192 99.418 21.056 99.418 19.3217V14.5312H109.469C110.913 14.5329 112.299 15.1076 113.32 16.1291C114.342 17.1507 114.916 18.5358 114.918 19.9805V34.1404ZM105.836 113.1C106.195 113.1 106.546 112.994 106.845 112.794C107.144 112.594 107.377 112.311 107.514 111.979C107.652 111.647 107.688 111.282 107.617 110.929C107.547 110.577 107.374 110.253 107.12 109.999C106.866 109.745 106.543 109.572 106.19 109.502C105.838 109.432 105.473 109.468 105.141 109.606C104.809 109.743 104.525 109.976 104.326 110.275C104.126 110.573 104.02 110.924 104.02 111.284C104.02 111.765 104.211 112.227 104.552 112.568C104.892 112.909 105.354 113.1 105.836 113.1ZM82.0124 71.6391C82.0124 71.2798 81.9059 70.9286 81.7063 70.6299C81.5067 70.3312 81.223 70.0984 80.8911 69.9609C80.5592 69.8234 80.194 69.7875 79.8417 69.8576C79.4893 69.9277 79.1657 70.1006 78.9116 70.3547C78.6576 70.6087 78.4846 70.9324 78.4145 71.2847C78.3444 71.637 78.3804 72.0023 78.5179 72.3342C78.6554 72.6661 78.8882 72.9498 79.1869 73.1493C79.4856 73.3489 79.8368 73.4555 80.196 73.4555C80.6778 73.4555 81.1398 73.2641 81.4804 72.9235C81.8211 72.5828 82.0124 72.1208 82.0124 71.6391ZM49.4062 85.3452V93.3272C49.4062 97.651 51.1239 101.798 54.1813 104.855C57.2387 107.913 61.3855 109.63 65.7093 109.63C70.0332 109.63 74.1799 107.913 77.2374 104.855C80.2948 101.798 82.0124 97.651 82.0124 93.3272V80.5382C84.2176 80.0881 86.1771 78.8352 87.5111 77.0224C88.845 75.2096 89.4583 72.9661 89.2321 70.7269C89.0059 68.4876 87.9562 66.4121 86.2867 64.9027C84.6172 63.3934 82.4467 62.5577 80.196 62.5577C77.9454 62.5577 75.7749 63.3934 74.1053 64.9027C72.4358 66.4121 71.3862 68.4876 71.16 70.7269C70.9338 72.9661 71.5471 75.2096 72.881 77.0224C74.2149 78.8352 76.1744 80.0881 78.3796 80.5382V93.3272C78.3796 96.6876 77.0447 99.9103 74.6686 102.286C72.2924 104.663 69.0697 105.997 65.7093 105.997C62.349 105.997 59.1262 104.663 56.7501 102.286C54.374 99.9103 53.0391 96.6876 53.0391 93.3272V85.3452C57.1946 84.8922 61.0369 82.922 63.8299 79.812C66.623 76.7019 68.1704 72.6707 68.1758 68.4906V54.807C68.1748 53.9402 67.83 53.1091 67.2171 52.4962C66.6041 51.8832 65.7731 51.5385 64.9062 51.5375H61.6636C61.2637 50.8449 60.6465 50.3037 59.9077 49.9976C59.1689 49.6916 58.3497 49.6379 57.5773 49.8449C56.8048 50.0519 56.1222 50.5079 55.6354 51.1424C55.1486 51.7768 54.8847 52.5542 54.8847 53.3539C54.8847 54.1536 55.1486 54.931 55.6354 55.5654C56.1222 56.1999 56.8048 56.656 57.5773 56.8629C58.3497 57.0699 59.1689 57.0162 59.9077 56.7102C60.6465 56.4042 61.2637 55.8629 61.6636 55.1703H64.543V68.4906C64.543 72.0234 63.1396 75.4115 60.6415 77.9095C58.1435 80.4076 54.7554 81.8109 51.2227 81.8109C47.6899 81.8109 44.3018 80.4076 41.8038 77.9095C39.3057 75.4115 37.9023 72.0234 37.9023 68.4906V55.1703H40.8469C41.2467 55.8629 41.8639 56.4042 42.6027 56.7102C43.3416 57.0162 44.1608 57.0699 44.9332 56.8629C45.7057 56.656 46.3882 56.1999 46.8751 55.5654C47.3619 54.931 47.6258 54.1536 47.6258 53.3539C47.6258 52.5542 47.3619 51.7768 46.8751 51.1424C46.3882 50.5079 45.7057 50.0519 44.9332 49.8449C44.1608 49.6379 43.3416 49.6916 42.6027 49.9976C41.8639 50.3037 41.2467 50.8449 40.8469 51.5375H37.5391C36.6722 51.5385 35.8412 51.8832 35.2282 52.4962C34.6153 53.1091 34.2705 53.9402 34.2695 54.807V68.4906C34.2749 72.6707 35.8223 76.7019 38.6154 79.812C41.4084 82.922 45.2507 84.8922 49.4062 85.3452ZM74.7468 71.6391C74.7468 70.5613 75.0664 69.5078 75.6652 68.6116C76.2639 67.7155 77.115 67.0171 78.1107 66.6046C79.1064 66.1922 80.2021 66.0843 81.2591 66.2945C82.3162 66.5048 83.2871 67.0238 84.0492 67.7859C84.8113 68.548 85.3303 69.5189 85.5406 70.576C85.7508 71.633 85.6429 72.7287 85.2305 73.7244C84.818 74.7201 84.1196 75.5712 83.2234 76.1699C82.3273 76.7687 81.2738 77.0883 80.196 77.0883C78.7513 77.0866 77.3663 76.512 76.3447 75.4904C75.3231 74.4688 74.7485 73.0838 74.7468 71.6391ZM91.3047 113.1C91.6639 113.1 92.0151 112.994 92.3138 112.794C92.6125 112.594 92.8454 112.311 92.9828 111.979C93.1203 111.647 93.1563 111.282 93.0862 110.929C93.0161 110.577 92.8431 110.253 92.5891 109.999C92.3351 109.745 92.0114 109.572 91.659 109.502C91.3067 109.432 90.9415 109.468 90.6096 109.606C90.2777 109.743 89.994 109.976 89.7944 110.275C89.5948 110.573 89.4883 110.924 89.4883 111.284C89.4883 111.765 89.6796 112.227 90.0203 112.568C90.3609 112.909 90.8229 113.1 91.3047 113.1ZM98.5703 113.1C98.9296 113.1 99.2807 112.994 99.5795 112.794C99.8782 112.594 100.111 112.311 100.248 111.979C100.386 111.647 100.422 111.282 100.352 110.929C100.282 110.577 100.109 110.253 99.8547 109.999C99.6007 109.745 99.277 109.572 98.9247 109.502C98.5723 109.432 98.2071 109.468 97.8752 109.606C97.5433 109.743 97.2596 109.976 97.06 110.275C96.8604 110.573 96.7539 110.924 96.7539 111.284C96.7539 111.765 96.9453 112.227 97.2859 112.568C97.6266 112.909 98.0886 113.1 98.5703 113.1Z" fill="#EDEDED"/>
</svg>
