<svg width="24" height="25" viewBox="0 0 24 25" fill="none" xmlns="http://www.w3.org/2000/svg">
<path d="M22.3448 1.85614C22.3448 2.02096 22.3448 2.18324 22.3448 2.34806C22.3448 2.79435 22.3448 3.24063 22.3448 3.68692C22.3448 4.3462 22.3448 5.00548 22.3448 5.66477C22.3448 6.46859 22.3448 7.2724 22.3448 8.07622C22.3448 8.95611 22.3448 9.836 22.3448 10.7159C22.3448 11.6034 22.3448 12.4909 22.3448 13.3784C22.3448 14.205 22.3448 15.0291 22.3448 15.8558C22.3448 16.5506 22.3448 17.2453 22.3448 17.9401C22.3448 18.4371 22.3448 18.9316 22.3448 19.4286C22.3448 19.6568 22.3448 19.885 22.3448 20.1132C22.3448 20.1665 22.3423 20.2223 22.3372 20.2755C22.3473 20.207 22.355 20.1411 22.3651 20.0726C22.3499 20.1741 22.3245 20.2704 22.284 20.3668C22.3093 20.3059 22.3347 20.2451 22.36 20.1842C22.3321 20.2451 22.2992 20.3009 22.2637 20.3592C22.2028 20.4581 22.3752 20.2375 22.3144 20.2983C22.2916 20.3211 22.2713 20.349 22.2485 20.3719C22.2282 20.3921 22.2079 20.4099 22.1876 20.4276C22.0963 20.5164 22.3473 20.3262 22.2358 20.3896C22.1775 20.4226 22.1217 20.4581 22.0608 20.486C22.1217 20.4606 22.1825 20.4353 22.2434 20.4099C22.1496 20.4505 22.0507 20.4758 21.9492 20.491C22.0177 20.4809 22.0836 20.4733 22.1521 20.4631C21.9619 20.4834 21.7667 20.4708 21.579 20.4708C21.1987 20.4708 20.8183 20.4708 20.438 20.4708C19.5555 20.4708 18.6731 20.4708 17.7881 20.4708C17.5828 20.4708 17.3774 20.4708 17.1745 20.4708C17.3926 20.8511 17.6132 21.234 17.8313 21.6144C18.8481 19.8647 19.0611 17.651 18.3181 15.7569C17.6842 14.1391 16.4747 12.7622 14.8898 12.0192C13.2645 11.2585 11.3652 11.1191 9.66628 11.7352C8.03836 12.3261 6.64119 13.5128 5.86019 15.0672C5.44433 15.8963 5.20091 16.7813 5.13244 17.7094C5.04876 18.82 5.26937 19.9256 5.70805 20.9424C5.80694 21.1731 5.92105 21.3963 6.0453 21.6118C6.26337 21.2315 6.48397 20.8486 6.70204 20.4682C6.14419 20.4682 5.58633 20.4682 5.03101 20.4682C4.1562 20.4682 3.28391 20.4682 2.40909 20.4682C2.18342 20.4682 1.9476 20.4834 1.72192 20.4606C1.79038 20.4708 1.85631 20.4784 1.92477 20.4885C1.82335 20.4733 1.72699 20.4479 1.63063 20.4074C1.69149 20.4327 1.75235 20.4581 1.8132 20.4834C1.75235 20.4555 1.69656 20.4226 1.63824 20.3871C1.53935 20.3262 1.75995 20.4986 1.6991 20.4378C1.67628 20.415 1.64838 20.3947 1.62556 20.3719C1.60528 20.3516 1.58753 20.3313 1.56978 20.311C1.48103 20.2197 1.6712 20.4708 1.60781 20.3592C1.57485 20.3009 1.53935 20.2451 1.51145 20.1842C1.53681 20.2451 1.56217 20.3059 1.58753 20.3668C1.54695 20.2704 1.5216 20.1741 1.50638 20.0726C1.51653 20.1411 1.52413 20.207 1.53428 20.2755C1.51145 20.0777 1.52667 19.8723 1.52667 19.6745C1.52667 19.2333 1.52667 18.7947 1.52667 18.3534C1.52667 17.6992 1.52667 17.045 1.52667 16.3908C1.52667 15.587 1.52667 14.7806 1.52667 13.9768C1.52667 13.0944 1.52667 12.2094 1.52667 11.327C1.52667 10.4344 1.52667 9.5444 1.52667 8.65183C1.52667 7.82012 1.52667 6.99094 1.52667 6.15923C1.52667 5.46191 1.52667 4.76713 1.52667 4.06981C1.52667 3.57027 1.52667 3.07074 1.52667 2.56867C1.52667 2.33792 1.52667 2.10971 1.52667 1.87896C1.52667 1.82571 1.5292 1.76992 1.53428 1.71667C1.52413 1.78514 1.51653 1.85107 1.50638 1.91953C1.5216 1.8181 1.54695 1.72174 1.58753 1.62539C1.56217 1.68624 1.53681 1.7471 1.51145 1.80796C1.53935 1.7471 1.57231 1.69132 1.60781 1.63299C1.66867 1.5341 1.49624 1.75471 1.5571 1.69385C1.57992 1.67103 1.6002 1.64314 1.62303 1.62032C1.64331 1.60003 1.6636 1.58228 1.68388 1.56453C1.77517 1.47578 1.52413 1.66596 1.6357 1.60257C1.69403 1.5696 1.74981 1.5341 1.81067 1.50621C1.74981 1.53157 1.68895 1.55692 1.6281 1.58228C1.72192 1.54171 1.82081 1.51635 1.92224 1.50114C1.85377 1.51128 1.78785 1.51889 1.71938 1.52903C1.93238 1.50621 2.15299 1.52142 2.36852 1.52142C2.85538 1.52142 3.34223 1.52142 3.82909 1.52142C4.55177 1.52142 5.27444 1.52142 5.99965 1.52142C6.88461 1.52142 7.76958 1.52142 8.65454 1.52142C9.63078 1.52142 10.6045 1.52142 11.5807 1.52142C12.5621 1.52142 13.5408 1.52142 14.5222 1.52142C15.435 1.52142 16.3479 1.52142 17.2607 1.52142C18.0316 1.52142 18.7999 1.52142 19.5708 1.52142C20.121 1.52142 20.6712 1.52142 21.2215 1.52142C21.4751 1.52142 21.7312 1.52142 21.9847 1.52142C22.0405 1.52142 22.0938 1.52396 22.1496 1.52903C22.0811 1.51889 22.0152 1.51128 21.9467 1.50114C22.0481 1.51635 22.1445 1.54171 22.2409 1.58228C22.18 1.55692 22.1191 1.53157 22.0583 1.50621C22.1191 1.5341 22.1749 1.56707 22.2332 1.60257C22.3321 1.66342 22.1115 1.491 22.1724 1.55185C22.1952 1.57467 22.2231 1.59496 22.2459 1.61778C22.2662 1.63807 22.284 1.65835 22.3017 1.67864C22.3905 1.76992 22.2003 1.51889 22.2637 1.63046C22.2966 1.68878 22.3321 1.74457 22.36 1.80542C22.3347 1.74457 22.3093 1.68371 22.284 1.62285C22.3245 1.71667 22.3499 1.81557 22.3651 1.91699C22.355 1.84853 22.3473 1.7826 22.3372 1.71414C22.3397 1.76485 22.3423 1.81049 22.3448 1.85614C22.3499 2.25424 22.6897 2.6346 23.1055 2.61685C23.5112 2.5991 23.8738 2.28214 23.8662 1.85614C23.851 0.836783 23.0295 0.0126785 22.0076 0C21.929 0 21.8504 0 21.7743 0C21.3026 0 20.8285 0 20.3568 0C19.5606 0 18.7644 0 17.9682 0C16.9539 0 15.9422 0 14.9279 0C13.8122 0 12.699 0 11.5833 0C10.4802 0 9.37721 0 8.27418 0C7.2954 0 6.31915 0 5.34037 0C4.60248 0 3.86459 0 3.12923 0C2.73874 0 2.35077 0 1.96027 0C1.60781 0 1.26803 0.0659283 0.956135 0.235821C0.352637 0.565462 0.00778064 1.21967 0.00524493 1.89417C0.00524493 2.24664 0.00524493 2.5991 0.00524493 2.95156C0.00524493 3.69452 0.00524493 4.44002 0.00524493 5.18298C0.00524493 6.17951 0.00524493 7.17858 0.00524493 8.17512C0.00524493 9.28575 0.00524493 10.3939 0.00524493 11.5045C0.00524493 12.5974 0.00524493 13.6903 0.00524493 14.7832C0.00524493 15.7188 0.00524493 16.652 0.00524493 17.5877C0.00524493 18.2267 0.00524493 18.8682 0.00524493 19.5072C0.00524493 19.9078 -0.0353264 20.3617 0.109209 20.7421C0.322208 21.3025 0.743135 21.7259 1.31874 21.911C1.51906 21.977 1.7346 21.9922 1.94506 21.9922C2.28484 21.9922 2.62716 21.9922 2.96695 21.9922C4.00405 21.9922 5.03862 21.9922 6.07572 21.9922C6.28365 21.9922 6.49158 21.9922 6.69951 21.9922C7.27765 21.9922 7.64533 21.3456 7.35626 20.8486C7.22693 20.6254 7.11029 20.3947 7.00886 20.1589C7.03422 20.2197 7.05958 20.2806 7.08494 20.3414C6.87447 19.8419 6.73247 19.3195 6.65894 18.7845C6.66908 18.853 6.67669 18.9189 6.68683 18.9874C6.61583 18.4498 6.61583 17.9046 6.68683 17.3671C6.67669 17.4355 6.66908 17.5014 6.65894 17.5699C6.73247 17.0399 6.87194 16.5201 7.07986 16.0257C7.05451 16.0865 7.02915 16.1474 7.00379 16.2082C7.12044 15.9318 7.25736 15.6631 7.41458 15.4044C7.49318 15.2776 7.57433 15.1508 7.66308 15.0291C7.6859 14.9987 7.70872 14.9657 7.73154 14.9353C7.74168 14.9226 7.75183 14.91 7.76197 14.8947C7.80508 14.8339 7.69097 14.9962 7.69351 14.9835C7.70618 14.9277 7.80254 14.8491 7.84058 14.8035C8.03329 14.5752 8.24122 14.3622 8.4669 14.1645C8.52015 14.1163 8.57593 14.0706 8.63172 14.025C8.66214 13.9996 8.69257 13.9768 8.723 13.9515C8.80922 13.8805 8.56579 14.0681 8.6875 13.9793C8.80668 13.8906 8.93093 13.8044 9.05518 13.7232C9.34679 13.5356 9.65361 13.3758 9.97057 13.2415C9.90971 13.2668 9.84886 13.2922 9.788 13.3175C10.2825 13.1096 10.7997 12.9701 11.3322 12.8966C11.2638 12.9067 11.1979 12.9143 11.1294 12.9245C11.667 12.8535 12.2096 12.8535 12.7472 12.9245C12.6787 12.9143 12.6128 12.9067 12.5443 12.8966C13.0743 12.9701 13.5941 13.1096 14.0886 13.3175C14.0277 13.2922 13.9668 13.2668 13.906 13.2415C14.1824 13.3581 14.4512 13.495 14.7098 13.6522C14.8366 13.7308 14.9634 13.812 15.0851 13.9007C15.1155 13.9236 15.1485 13.9464 15.1789 13.9692C15.1916 13.9793 15.2043 13.9895 15.2195 13.9996C15.2803 14.0427 15.1181 13.9286 15.1307 13.9312C15.1865 13.9438 15.2651 14.0402 15.3108 14.0782C15.539 14.271 15.752 14.4789 15.9498 14.7046C15.9979 14.7578 16.0436 14.8136 16.0892 14.8694C16.1146 14.8998 16.1374 14.9302 16.1628 14.9607C16.2338 15.0469 16.0461 14.8035 16.1349 14.9252C16.2236 15.0443 16.3098 15.1686 16.391 15.2928C16.5786 15.5844 16.7384 15.8913 16.8728 16.2082C16.8474 16.1474 16.822 16.0865 16.7967 16.0257C17.0046 16.5201 17.1441 17.0374 17.2176 17.5699C17.2075 17.5014 17.1999 17.4355 17.1897 17.3671C17.2607 17.9046 17.2582 18.4473 17.1897 18.9874C17.1999 18.9189 17.2075 18.853 17.2176 18.7845C17.1441 19.3221 17.0021 19.8419 16.7916 20.3414C16.817 20.2806 16.8423 20.2197 16.8677 20.1589C16.7663 20.3947 16.6496 20.6254 16.5203 20.8486C16.2312 21.3481 16.5989 21.9922 17.177 21.9922C17.9504 21.9922 18.7213 21.9922 19.4947 21.9922C20.3315 21.9922 21.1657 21.9998 22.0025 21.9922C23.0269 21.982 23.8586 21.163 23.8713 20.136C23.8713 20.0549 23.8713 19.9738 23.8713 19.8926C23.8713 19.3576 23.8713 18.8251 23.8713 18.29C23.8713 17.3899 23.8713 16.4897 23.8713 15.5921C23.8713 14.4814 23.8713 13.3708 23.8713 12.2601C23.8713 11.0912 23.8713 9.91968 23.8713 8.75072C23.8713 7.68065 23.8713 6.61059 23.8713 5.54052C23.8713 4.72909 23.8713 3.9202 23.8713 3.10878C23.8713 2.70813 23.8713 2.31003 23.8713 1.90939C23.8713 1.89164 23.8713 1.87389 23.8713 1.85614C23.8713 1.45803 23.5214 1.07767 23.1106 1.09542C22.6922 1.11571 22.3448 1.43014 22.3448 1.85614Z" fill="white"/>
<path d="M13.9927 0.76131C13.9927 1.54231 13.9927 2.3233 13.9927 3.1043C13.9927 4.33919 13.9927 5.57408 13.9927 6.80897C13.9927 7.09297 13.9927 7.3795 13.9927 7.6635C14.373 7.44543 14.7559 7.22482 15.1363 7.00675C14.3046 6.57061 13.4754 6.13701 12.6437 5.70086C12.5372 5.64508 12.4281 5.58422 12.3191 5.53097C12.0427 5.39658 11.7841 5.40926 11.5178 5.54619C11.462 5.57661 11.4037 5.60451 11.3479 5.63494C10.8687 5.88597 10.3869 6.13701 9.90766 6.39058C9.51716 6.59597 9.12413 6.80136 8.73363 7.00675C9.11398 7.22482 9.49687 7.44543 9.87723 7.6635C9.87723 6.8825 9.87723 6.10151 9.87723 5.32051C9.87723 4.08562 9.87723 2.85073 9.87723 1.61584C9.87723 1.33184 9.87723 1.04531 9.87723 0.76131C9.62366 1.01488 9.37009 1.26845 9.11652 1.52202C9.75298 1.52202 10.3894 1.52202 11.0259 1.52202C12.0351 1.52202 13.0443 1.52202 14.0535 1.52202C14.2868 1.52202 14.5201 1.52202 14.7509 1.52202C15.149 1.52202 15.5293 1.17209 15.5116 0.76131C15.4938 0.347989 15.1769 0.000597832 14.7509 0.000597832C14.1144 0.000597832 13.4779 0.000597832 12.8415 0.000597832C11.8323 0.000597832 10.823 0.000597832 9.81384 0.000597832C9.58055 0.000597832 9.34727 0.000597832 9.11652 0.000597832C8.70573 0.000597832 8.35581 0.347989 8.35581 0.76131C8.35581 1.54231 8.35581 2.3233 8.35581 3.1043C8.35581 4.33919 8.35581 5.57408 8.35581 6.80897C8.35581 7.09297 8.35581 7.3795 8.35581 7.6635C8.35581 8.25939 8.99734 8.58396 9.49941 8.32025C10.321 7.88918 11.14 7.46064 11.9616 7.02957C12.0808 6.96872 12.1974 6.90532 12.3166 6.84447C12.0605 6.84447 11.8044 6.84447 11.5483 6.84447C12.3698 7.27554 13.1889 7.70407 14.0104 8.13514C14.1296 8.196 14.2463 8.25939 14.3654 8.32025C14.87 8.58396 15.509 8.25939 15.509 7.6635C15.509 6.8825 15.509 6.10151 15.509 5.32051C15.509 4.08562 15.509 2.85073 15.509 1.61584C15.509 1.33184 15.509 1.04531 15.509 0.76131C15.509 0.363204 15.1591 -0.0171521 14.7483 0.000597832C14.3401 0.0208835 13.9927 0.335311 13.9927 0.76131ZM17.2384 18.174C17.2384 18.4453 17.2206 18.7166 17.1851 18.9854C17.1953 18.917 17.2029 18.851 17.213 18.7826C17.1395 19.3201 16.9975 19.84 16.787 20.3395C16.8124 20.2786 16.8377 20.2178 16.8631 20.1569C16.6983 20.5398 16.498 20.905 16.2596 21.2473C16.2114 21.3183 16.1582 21.3842 16.11 21.4552C16.2571 21.2473 16.1531 21.3994 16.1151 21.4451C16.0846 21.4831 16.0542 21.5211 16.0212 21.5566C15.9021 21.6961 15.7778 21.8305 15.6485 21.9573C15.5192 22.0841 15.3822 22.2083 15.2402 22.3224C15.2022 22.3528 15.1642 22.3833 15.1261 22.4137C15.3239 22.2514 15.1819 22.3706 15.1337 22.4061C15.0653 22.4568 14.9943 22.505 14.9233 22.5532C14.6063 22.7662 14.2716 22.9462 13.9217 23.0958C13.9825 23.0704 14.0434 23.0451 14.1043 23.0197C13.6073 23.2302 13.0849 23.3722 12.5499 23.4457C12.6183 23.4356 12.6843 23.428 12.7527 23.4178C12.2126 23.4888 11.6674 23.4888 11.1273 23.4178C11.1958 23.428 11.2617 23.4356 11.3302 23.4457C10.7952 23.3722 10.2728 23.2302 9.7758 23.0197C9.83666 23.0451 9.89752 23.0704 9.95837 23.0958C9.60844 22.9462 9.2712 22.7662 8.95677 22.5532C8.88577 22.505 8.81477 22.4568 8.74631 22.4061C8.70066 22.3706 8.55613 22.2514 8.75391 22.4137C8.71588 22.3833 8.67784 22.3528 8.63981 22.3224C8.49781 22.2058 8.36341 22.0841 8.23156 21.9573C8.10224 21.8305 7.97799 21.6961 7.85881 21.5566C7.82838 21.5186 7.79542 21.4831 7.76499 21.4451C7.72695 21.3994 7.62299 21.2473 7.77006 21.4552C7.72188 21.3867 7.66863 21.3183 7.62045 21.2473C7.38209 20.905 7.18177 20.5398 7.01695 20.1569C7.04231 20.2178 7.06767 20.2786 7.09302 20.3395C6.88256 19.84 6.74056 19.3176 6.66703 18.7826C6.67717 18.851 6.68478 18.917 6.69492 18.9854C6.62392 18.4479 6.62392 17.9027 6.69492 17.3651C6.68478 17.4336 6.67717 17.4995 6.66703 17.568C6.74056 17.038 6.88003 16.5182 7.08795 16.0237C7.0626 16.0846 7.03724 16.1454 7.01188 16.2063C7.12852 15.9299 7.26545 15.6611 7.42267 15.4025C7.50127 15.2757 7.58242 15.1489 7.67117 15.0272C7.69399 14.9968 7.71681 14.9638 7.73963 14.9334C7.74977 14.9207 7.75992 14.908 7.77006 14.8928C7.81317 14.8319 7.69906 14.9942 7.70159 14.9815C7.71427 14.9258 7.81063 14.8472 7.84866 14.8015C8.04138 14.5733 8.24931 14.3603 8.47498 14.1625C8.52823 14.1143 8.58402 14.0687 8.63981 14.0231C8.67023 13.9977 8.70066 13.9749 8.73109 13.9495C8.8173 13.8785 8.57388 14.0662 8.69559 13.9774C8.81477 13.8887 8.93902 13.8024 9.06327 13.7213C9.35487 13.5337 9.66169 13.3739 9.97866 13.2395C9.9178 13.2649 9.85694 13.2902 9.79609 13.3156C10.2905 13.1077 10.8078 12.9682 11.3403 12.8947C11.2719 12.9048 11.2059 12.9124 11.1375 12.9226C11.675 12.8516 12.2177 12.8516 12.7553 12.9226C12.6868 12.9124 12.6209 12.9048 12.5524 12.8947C13.0824 12.9682 13.6022 13.1077 14.0966 13.3156C14.0358 13.2902 13.9749 13.2649 13.9141 13.2395C14.1905 13.3562 14.4593 13.4931 14.7179 13.6503C14.8447 13.7289 14.9715 13.8101 15.0932 13.8988C15.1236 13.9216 15.1566 13.9444 15.187 13.9673C15.1997 13.9774 15.2124 13.9876 15.2276 13.9977C15.2884 14.0408 15.1261 13.9267 15.1388 13.9292C15.1946 13.9419 15.2732 14.0383 15.3189 14.0763C15.5471 14.269 15.7601 14.4769 15.9579 14.7026C16.006 14.7559 16.0517 14.8117 16.0973 14.8674C16.1227 14.8979 16.1455 14.9283 16.1709 14.9587C16.2419 15.0449 16.0542 14.8015 16.143 14.9232C16.2317 15.0424 16.3179 15.1667 16.3991 15.2909C16.5867 15.5825 16.7465 15.8893 16.8808 16.2063C16.8555 16.1454 16.8301 16.0846 16.8048 16.0237C17.0127 16.5182 17.1522 17.0355 17.2257 17.568C17.2156 17.4995 17.208 17.4336 17.1978 17.3651C17.2206 17.6339 17.2384 17.9027 17.2384 18.174C17.2384 18.5721 17.5883 18.9525 17.9991 18.9347C18.4099 18.917 18.7598 18.6 18.7598 18.174C18.7573 16.8757 18.3845 15.5698 17.6745 14.4795C16.9823 13.4196 15.9984 12.5295 14.8421 12.0021C14.2539 11.7333 13.6428 11.5305 12.9987 11.4392C12.2633 11.3352 11.5559 11.3352 10.823 11.4468C9.55266 11.637 8.36341 12.2354 7.40238 13.0772C6.44896 13.914 5.74403 15.0399 5.38649 16.257C4.96557 17.6846 5.02389 19.2872 5.58682 20.6666C5.88603 21.402 6.2816 22.0612 6.79888 22.6647C7.2477 23.1871 7.79288 23.6384 8.38116 24.0011C9.59323 24.7465 11.0639 25.1015 12.4814 24.9748C13.9597 24.8429 15.3341 24.2622 16.4549 23.286C17.5706 22.3148 18.3668 20.9303 18.633 19.4748C18.7116 19.0463 18.7573 18.6127 18.7598 18.1765C18.7623 17.7784 18.4099 17.3981 17.9991 17.4158C17.5858 17.431 17.2384 17.7455 17.2384 18.174Z" fill="white"/>
<path d="M8.29206 19.5199C8.85753 20.0854 9.42299 20.6508 9.98845 21.2163C10.0696 21.2974 10.1507 21.3786 10.2293 21.4572C10.521 21.7488 11.0129 21.7488 11.3045 21.4572C11.7584 21.0033 12.2097 20.5519 12.6636 20.098C13.3863 19.3754 14.1064 18.6552 14.8291 17.9326C14.9939 17.7677 15.1588 17.6029 15.3261 17.4356C15.6076 17.1541 15.6279 16.6368 15.3261 16.3604C15.0218 16.0815 14.5502 16.0587 14.251 16.3604C13.7971 16.8143 13.3457 17.2657 12.8918 17.7196C12.1692 18.4422 11.449 19.1624 10.7263 19.885C10.5615 20.0499 10.3967 20.2147 10.2293 20.382C10.5869 20.382 10.9469 20.382 11.3045 20.382C10.739 19.8166 10.1736 19.2511 9.6081 18.6857C9.52695 18.6045 9.44581 18.5234 9.3672 18.4448C9.08574 18.1633 8.56846 18.143 8.29206 18.4448C8.01314 18.7491 7.99285 19.2182 8.29206 19.5199Z" fill="white"/>
</svg>
