<svg width="32" height="32" viewBox="0 0 32 32" fill="none" xmlns="http://www.w3.org/2000/svg">
<path fill-rule="evenodd" clip-rule="evenodd" d="M15.9998 7.33332C15.9998 9.91132 13.9112 12 11.3332 12C8.75517 12 6.6665 9.91132 6.6665 7.33332C6.6665 4.75532 8.75517 2.66666 11.3332 2.66666C13.9112 2.66666 15.9998 4.75532 15.9998 7.33332ZM2.6665 16.9333C2.6665 14.096 8.4405 12.6667 11.3332 12.6667C13.1305 12.6667 16.0398 13.2187 17.9865 14.3167C16.7839 14.9452 15.7456 15.8472 14.955 16.9501C14.1644 18.0529 13.6436 19.3259 13.4345 20.6667H2.6665V16.9333ZM19.9998 15.3333C19.9998 15.1565 20.0701 14.9869 20.1951 14.8619C20.3201 14.7369 20.4897 14.6667 20.6665 14.6667H23.3332C23.51 14.6667 23.6796 14.7369 23.8046 14.8619C23.9296 14.9869 23.9998 15.1565 23.9998 15.3333C23.9998 15.5101 23.9296 15.6797 23.8046 15.8047C23.6796 15.9298 23.51 16 23.3332 16H22.6665V17.38C23.4385 17.4917 24.1701 17.7952 24.7945 18.2627L25.7238 17.3333L25.5285 17.138C25.4071 17.0123 25.3399 16.8439 25.3414 16.6691C25.3429 16.4943 25.413 16.327 25.5366 16.2034C25.6602 16.0798 25.8274 16.0097 26.0022 16.0082C26.177 16.0067 26.3454 16.0739 26.4712 16.1953L27.8045 17.5287C27.9259 17.6544 27.9931 17.8228 27.9916 17.9976C27.9901 18.1724 27.92 18.3396 27.7964 18.4632C27.6728 18.5868 27.5056 18.6569 27.3308 18.6584C27.156 18.66 26.9876 18.5928 26.8618 18.4713L26.6665 18.276L25.7372 19.2053C26.2046 19.8297 26.5081 20.5614 26.6198 21.3333H27.9998V20.6667C27.9998 20.4898 28.0701 20.3203 28.1951 20.1952C28.3201 20.0702 28.4897 20 28.6665 20C28.8433 20 29.0129 20.0702 29.1379 20.1952C29.2629 20.3203 29.3332 20.4898 29.3332 20.6667V23.3333C29.3332 23.5101 29.2629 23.6797 29.1379 23.8047C29.0129 23.9298 28.8433 24 28.6665 24C28.4897 24 28.3201 23.9298 28.1951 23.8047C28.0701 23.6797 27.9998 23.5101 27.9998 23.3333V22.6667H26.6198C26.5314 23.2781 26.3225 23.8659 26.0052 24.396L27.3332 25.724L27.5285 25.5287C27.6542 25.4072 27.8226 25.34 27.9974 25.3415C28.1722 25.3431 28.3394 25.4132 28.463 25.5368C28.5867 25.6604 28.6568 25.8276 28.6583 26.0024C28.6598 26.1772 28.5926 26.3456 28.4712 26.4713L27.1378 27.8047C27.0121 27.9261 26.8437 27.9933 26.6689 27.9918C26.4941 27.9903 26.3269 27.9201 26.2033 27.7965C26.0797 27.6729 26.0096 27.5057 26.0081 27.3309C26.0065 27.1561 26.0737 26.9877 26.1952 26.862L26.3905 26.6667L25.1585 25.4353C24.4662 26.0721 23.5975 26.4848 22.6665 26.6193V28H23.3332C23.51 28 23.6796 28.0702 23.8046 28.1952C23.9296 28.3203 23.9998 28.4898 23.9998 28.6667C23.9998 28.8435 23.9296 29.013 23.8046 29.1381C23.6796 29.2631 23.51 29.3333 23.3332 29.3333H20.6665C20.4897 29.3333 20.3201 29.2631 20.1951 29.1381C20.0701 29.013 19.9998 28.8435 19.9998 28.6667C19.9998 28.4898 20.0701 28.3203 20.1951 28.1952C20.3201 28.0702 20.4897 28 20.6665 28H21.3332V26.62C20.5612 26.5082 19.8296 26.2048 19.2052 25.7373L18.2758 26.6667L18.4712 26.862C18.5926 26.9877 18.6598 27.1561 18.6583 27.3309C18.6568 27.5057 18.5867 27.6729 18.463 27.7965C18.3394 27.9201 18.1722 27.9903 17.9974 27.9918C17.8226 27.9933 17.6542 27.9261 17.5285 27.8047L16.1952 26.4713C16.0737 26.3456 16.0065 26.1772 16.0081 26.0024C16.0096 25.8276 16.0797 25.6604 16.2033 25.5368C16.3269 25.4132 16.4941 25.3431 16.6689 25.3415C16.8437 25.34 17.0121 25.4072 17.1378 25.5287L17.3332 25.724L18.2625 24.7947C17.7951 24.1702 17.4916 23.4386 17.3798 22.6667H15.9998V23.3333C15.9998 23.5101 15.9296 23.6797 15.8046 23.8047C15.6796 23.9298 15.51 24 15.3332 24C15.1564 24 14.9868 23.9298 14.8618 23.8047C14.7367 23.6797 14.6665 23.5101 14.6665 23.3333V20.6667C14.6665 20.4898 14.7367 20.3203 14.8618 20.1952C14.9868 20.0702 15.1564 20 15.3332 20C15.51 20 15.6796 20.0702 15.8046 20.1952C15.9296 20.3203 15.9998 20.4898 15.9998 20.6667V21.3333H17.3798C17.4916 20.5614 17.7951 19.8297 18.2625 19.2053L17.3332 18.276L17.1378 18.4713C17.0121 18.5928 16.8437 18.66 16.6689 18.6584C16.4941 18.6569 16.3269 18.5868 16.2033 18.4632C16.0797 18.3396 16.0096 18.1724 16.0081 17.9976C16.0065 17.8228 16.0737 17.6544 16.1952 17.5287L17.5285 16.1953C17.6542 16.0739 17.8226 16.0067 17.9974 16.0082C18.1722 16.0097 18.3394 16.0798 18.463 16.2034C18.5867 16.327 18.6568 16.4943 18.6583 16.6691C18.6598 16.8439 18.5926 17.0123 18.4712 17.138L18.2758 17.3333L19.2052 18.2627C19.8296 17.7952 20.5612 17.4917 21.3332 17.38V16H20.6665C20.4897 16 20.3201 15.9298 20.1951 15.8047C20.0701 15.6797 19.9998 15.5101 19.9998 15.3333Z" fill="white"/>
</svg>
