<svg width="16" height="16" viewBox="0 0 16 16" fill="none" xmlns="http://www.w3.org/2000/svg">
<path d="M7.52713 13.6026C7.31545 13.4915 7.10378 13.3789 6.8921 13.2678C6.38317 12.9991 5.87575 12.7303 5.36682 12.4616C4.74981 12.1358 4.13129 11.8101 3.51427 11.4828C2.98283 11.202 2.44988 10.9213 1.91844 10.6406C1.66022 10.504 1.40351 10.3628 1.14229 10.2307C1.13929 10.2292 1.13478 10.2262 1.13178 10.2247C1.25638 10.4409 1.37949 10.6571 1.50409 10.8733C1.50409 10.6481 1.50409 10.4244 1.50409 10.1992C1.50409 9.66326 1.50409 9.12581 1.50409 8.58986C1.50409 7.94132 1.50409 7.29278 1.50409 6.64273C1.50409 6.07976 1.50409 5.51679 1.50409 4.95232C1.50409 4.67909 1.5086 4.40586 1.50409 4.13263C1.50409 4.12963 1.50409 4.12513 1.50409 4.12212C1.12728 4.3383 0.750461 4.55449 0.375147 4.77067C0.586824 4.88326 0.798501 4.99435 1.01018 5.10695C1.5191 5.37567 2.02653 5.6444 2.53545 5.91312C3.15247 6.23889 3.77099 6.56617 4.388 6.89194C4.91945 7.17268 5.45239 7.45491 5.98384 7.73565C6.24206 7.87226 6.49877 8.01338 6.75999 8.14549C6.76299 8.14699 6.7675 8.14999 6.7705 8.15149C6.64589 7.93531 6.52279 7.71913 6.39819 7.50295C6.39819 7.72664 6.39819 7.95183 6.39819 8.17552C6.39819 8.71146 6.39819 9.24741 6.39819 9.78336C6.39819 10.4319 6.39819 11.0804 6.39819 11.729C6.39819 12.292 6.39819 12.8549 6.39819 13.4179C6.39819 13.6911 6.39518 13.9644 6.39819 14.2376C6.39819 14.2406 6.39819 14.2451 6.39819 14.2481C6.39819 14.4403 6.48226 14.6429 6.61737 14.7795C6.74798 14.9101 6.96116 15.0077 7.14881 14.9987C7.34248 14.9897 7.54364 14.9267 7.68026 14.7795C7.81537 14.6324 7.89944 14.4523 7.89944 14.2481C7.89944 14.0244 7.89944 13.7992 7.89944 13.5755C7.89944 13.0396 7.89944 12.5036 7.89944 11.9677C7.89944 11.3191 7.89944 10.6706 7.89944 10.0221C7.89944 9.45909 7.89944 8.89612 7.89944 8.33315C7.89944 8.05992 7.90245 7.78669 7.89944 7.51346C7.89944 7.51046 7.89944 7.50596 7.89944 7.50295C7.89944 7.24774 7.75832 6.97751 7.52713 6.85441C7.31545 6.74182 7.10378 6.63072 6.8921 6.51813C6.38317 6.2494 5.87575 5.98068 5.36682 5.71195C4.74981 5.38618 4.13129 5.05891 3.51427 4.73313C2.98283 4.4524 2.44988 4.17016 1.91844 3.88943C1.66022 3.75281 1.40201 3.6132 1.14229 3.47959C1.13929 3.47808 1.13478 3.47508 1.13178 3.47358C0.891579 3.34597 0.613847 3.33396 0.373646 3.47358C0.145455 3.60719 0.00133445 3.8564 0.00133445 4.12212C0.00133445 4.34731 0.00133445 4.571 0.00133445 4.79619C0.00133445 5.33214 0.00133445 5.86959 0.00133445 6.40553C0.00133445 7.05408 0.00133445 7.70262 0.00133445 8.35266C0.00133445 8.91563 0.00133445 9.4786 0.00133445 10.0431C0.00133445 10.3163 -0.00166806 10.5895 0.00133445 10.8628C0.00133445 10.8658 0.00133445 10.8703 0.00133445 10.8733C0.00133445 11.1285 0.142453 11.4002 0.373646 11.5218C0.585323 11.6329 0.797 11.7455 1.00868 11.8566C1.5176 12.1253 2.02503 12.394 2.53395 12.6628C3.15097 12.9885 3.76949 13.3143 4.3865 13.6416C4.91795 13.9223 5.45089 14.2031 5.98234 14.4838C6.24055 14.6204 6.49877 14.76 6.75849 14.8936C6.76149 14.8951 6.76599 14.8981 6.769 14.8996C6.94615 14.9927 7.15182 15.0287 7.34698 14.9747C7.52113 14.9267 7.71028 14.7915 7.79586 14.6294C7.88743 14.4553 7.93397 14.2436 7.87092 14.0514C7.81387 13.8698 7.70128 13.6941 7.52713 13.6026Z" fill="white"/>
<path d="M13.167 10.2247C12.9553 10.3358 12.7436 10.4484 12.532 10.5595C12.023 10.8282 11.5156 11.097 11.0067 11.3657C10.3897 11.6915 9.77114 12.0172 9.15412 12.3445C8.62268 12.6252 8.08973 12.906 7.55829 13.1867C7.30007 13.3233 7.03886 13.4554 6.78214 13.5966C6.77914 13.5981 6.77463 13.6011 6.77163 13.6026C7.14845 13.8187 7.52526 14.0349 7.90058 14.2511C7.90058 14.0274 7.90058 13.8022 7.90058 13.5785C7.90058 13.0426 7.90058 12.5066 7.90058 11.9707C7.90058 11.3222 7.90058 10.6736 7.90058 10.0251C7.90058 9.4621 7.90058 8.89912 7.90058 8.33615C7.90058 8.06292 7.90508 7.7897 7.90058 7.51647C7.90058 7.51346 7.90058 7.50896 7.90058 7.50596C7.77597 7.72214 7.65287 7.93832 7.52826 8.1545C7.73994 8.04191 7.95162 7.93081 8.1633 7.81822C8.67222 7.5495 9.17965 7.28077 9.68857 7.01205C10.3056 6.68627 10.9241 6.359 11.5411 6.03323C12.0726 5.75249 12.6055 5.47025 13.137 5.18952C13.3952 5.05291 13.6564 4.91929 13.9131 4.77968C13.9161 4.77818 13.9206 4.77517 13.9236 4.77367C13.5468 4.55749 13.17 4.34131 12.7947 4.12513C12.7947 4.35032 12.7947 4.57401 12.7947 4.79919C12.7947 5.33514 12.7947 5.87259 12.7947 6.40854C12.7947 7.05708 12.7947 7.70563 12.7947 8.35567C12.7947 8.91864 12.7947 9.48161 12.7947 10.0461C12.7947 10.3193 12.7917 10.5925 12.7947 10.8658C12.7947 10.8688 12.7947 10.8733 12.7947 10.8763C12.7947 11.0684 12.8787 11.2711 13.0139 11.4077C13.1445 11.5383 13.3576 11.6359 13.5453 11.6269C13.739 11.6179 13.9401 11.5548 14.0767 11.4077C14.2119 11.2606 14.2959 11.0804 14.2959 10.8763C14.2959 10.6511 14.2959 10.4274 14.2959 10.2022C14.2959 9.66627 14.2959 9.12882 14.2959 8.59287C14.2959 7.94432 14.2959 7.29578 14.2959 6.64574C14.2959 6.08277 14.2959 5.5198 14.2959 4.95532C14.2959 4.6821 14.2989 4.40887 14.2959 4.13564C14.2959 4.13264 14.2959 4.12813 14.2959 4.12513C14.2959 3.86091 14.1518 3.6102 13.9236 3.47659C13.6849 3.33697 13.4057 3.34898 13.1655 3.47659C12.9538 3.58918 12.7421 3.70027 12.5304 3.81287C12.0215 4.08159 11.5141 4.35032 11.0052 4.61904C10.3882 4.94482 9.76964 5.27209 9.15262 5.59786C8.62118 5.8786 8.08823 6.16083 7.55679 6.44157C7.29857 6.57818 7.03585 6.71029 6.78064 6.85141C6.77764 6.85291 6.77313 6.85591 6.77013 6.85742C6.53894 6.97902 6.39782 7.24924 6.39782 7.50596C6.39782 7.72965 6.39782 7.95483 6.39782 8.17852C6.39782 8.71447 6.39782 9.25042 6.39782 9.78637C6.39782 10.4349 6.39782 11.0835 6.39782 11.732C6.39782 12.295 6.39782 12.8579 6.39782 13.4209C6.39782 13.6941 6.39482 13.9674 6.39782 14.2406C6.39782 14.2436 6.39782 14.2481 6.39782 14.2511C6.39782 14.5153 6.54194 14.766 6.77013 14.8996C7.00883 15.0393 7.28806 15.0258 7.52826 14.8996C7.73994 14.7886 7.95162 14.676 8.1633 14.5649C8.67222 14.2961 9.17965 14.0274 9.68857 13.7587C10.3056 13.4329 10.9241 13.1071 11.5411 12.7799C12.0726 12.4991 12.6055 12.2184 13.137 11.9377C13.3952 11.8011 13.6579 11.6689 13.9131 11.5278C13.9161 11.5263 13.9206 11.5233 13.9236 11.5218C14.0858 11.4362 14.2209 11.2471 14.2689 11.0729C14.3184 10.8928 14.2959 10.6541 14.1938 10.495C13.9657 10.1407 13.5393 10.0281 13.167 10.2247Z" fill="white"/>
<path d="M13.1673 3.47507C12.9557 3.58766 12.744 3.69876 12.5323 3.81135C12.0234 4.08007 11.5159 4.3488 11.007 4.61752C10.39 4.9433 9.77149 5.27057 9.15447 5.59634C8.62303 5.87708 8.09008 6.15931 7.55864 6.44005C7.30042 6.57666 7.0392 6.71027 6.78249 6.84989C6.77948 6.85139 6.77498 6.8544 6.77198 6.8559C7.02419 6.8559 7.2764 6.8559 7.53011 6.8559C7.31844 6.7433 7.10676 6.63221 6.89508 6.51962C6.38615 6.25089 5.87873 5.98217 5.3698 5.71344C4.75279 5.38767 4.13427 5.06039 3.51725 4.73462C2.98581 4.45389 2.45286 4.17165 1.92142 3.89092C1.6632 3.7543 1.40649 3.61318 1.14527 3.48107C1.14227 3.47957 1.13776 3.47657 1.13476 3.47507C1.13476 3.90743 1.13476 4.33979 1.13476 4.77065C1.34644 4.65956 1.55812 4.54697 1.76979 4.43587C2.27872 4.16715 2.78614 3.89842 3.29507 3.6297C3.91208 3.30393 4.5306 2.97665 5.14762 2.65088C5.67906 2.37014 6.21201 2.08941 6.74345 1.80717C7.00167 1.67056 7.26289 1.53695 7.5196 1.39733C7.52261 1.39583 7.52711 1.39283 7.53011 1.39133C7.2779 1.39133 7.02569 1.39133 6.77198 1.39133C6.98365 1.50242 7.19533 1.61501 7.40701 1.72611C7.91594 1.99483 8.42336 2.26356 8.93228 2.53228C9.5493 2.85805 10.1678 3.18533 10.7848 3.5111C11.3163 3.79183 11.8492 4.07257 12.3807 4.3548C12.6389 4.49142 12.8971 4.63104 13.1568 4.76465C13.1598 4.76615 13.1643 4.76915 13.1673 4.77065C13.3445 4.86373 13.5501 4.89976 13.7453 4.84572C13.9195 4.79767 14.1086 4.66256 14.1942 4.50043C14.2858 4.32628 14.3323 4.1146 14.2692 3.92244C14.2107 3.74079 14.0981 3.56514 13.924 3.47357C13.7093 3.36097 13.4946 3.24688 13.2799 3.13428C12.7695 2.86556 12.2606 2.59533 11.7501 2.32661C11.1301 1.99933 10.5101 1.67206 9.89009 1.34479C9.36014 1.06405 8.8302 0.784818 8.30026 0.504083C8.04504 0.36897 7.79133 0.229353 7.53462 0.100245C7.37849 0.0206785 7.22386 -0.0168529 7.04821 0.00716717C6.94462 0.0206785 6.85455 0.0522048 6.75997 0.101746C6.73144 0.116759 6.70442 0.131771 6.6759 0.145283C6.54379 0.21434 6.41168 0.2849 6.27957 0.353957C5.79766 0.609171 5.31426 0.864384 4.83236 1.1181C4.21834 1.44237 3.60283 1.76814 2.98881 2.09241C2.43335 2.38516 1.87938 2.6794 1.32392 2.97215C1.02067 3.13278 0.717412 3.29342 0.414158 3.45255C0.400647 3.46006 0.385634 3.46756 0.372123 3.47507C-0.117286 3.73328 -0.117286 4.51244 0.372123 4.77065C0.586803 4.88475 0.801482 4.99734 1.01616 5.11144C1.52659 5.38166 2.03551 5.65039 2.54594 5.92061C3.16596 6.24789 3.78598 6.57666 4.406 6.90394C4.93594 7.18467 5.46589 7.46391 5.99583 7.74464C6.25104 7.87975 6.50475 8.01937 6.76147 8.14998C6.9176 8.22955 7.07223 8.26708 7.24788 8.24306C7.35146 8.22955 7.44154 8.19802 7.53612 8.14848C7.56464 8.13347 7.59166 8.11845 7.62019 8.10494C7.7523 8.03588 7.88441 7.96532 8.01652 7.89627C8.49842 7.64105 8.98183 7.38584 9.46373 7.13063C10.0777 6.80636 10.6933 6.48058 11.3073 6.15631C11.8627 5.86357 12.4167 5.56932 12.9722 5.27658C13.2754 5.11594 13.5787 4.95531 13.8819 4.79467C13.8954 4.78717 13.9104 4.77966 13.924 4.77215C14.0861 4.68658 14.2212 4.49742 14.2692 4.32328C14.3188 4.14313 14.2963 3.90443 14.1942 3.74529C13.966 3.391 13.5396 3.2784 13.1673 3.47507Z" fill="white"/>
<path d="M4.32944 6.46406C4.54112 6.35147 4.75279 6.24038 4.96447 6.12778C5.4734 5.85906 5.98082 5.59033 6.48975 5.32161C7.10676 4.99584 7.72528 4.66856 8.3423 4.34279C8.87374 4.06205 9.40669 3.77982 9.93813 3.49908C10.1963 3.36247 10.4591 3.23036 10.7143 3.08924C10.7173 3.08774 10.7218 3.08474 10.7248 3.08324C10.8869 2.99766 11.022 2.80851 11.0701 2.63436C11.1196 2.45421 11.0971 2.21551 10.995 2.05638C10.7668 1.70208 10.3405 1.59099 9.96816 1.78765C9.75648 1.90025 9.5448 2.01134 9.33313 2.12393C8.8242 2.39266 8.31678 2.66138 7.80785 2.93011C7.19083 3.25588 6.57232 3.58315 5.9553 3.90893C5.42386 4.18966 4.89091 4.4719 4.35947 4.75263C4.10125 4.88925 3.83853 5.02136 3.58332 5.16248C3.58031 5.16398 3.57581 5.16698 3.57281 5.16848C3.41067 5.25405 3.27556 5.44321 3.22752 5.61736C3.17798 5.79751 3.2005 6.03621 3.30258 6.19534C3.52927 6.54813 3.95713 6.66073 4.32944 6.46406Z" fill="white"/>
</svg>
