<svg width="28" height="28" viewBox="0 0 28 28" fill="none" xmlns="http://www.w3.org/2000/svg">
<path d="M9.33368 0.416656C12.0496 0.416832 14.2497 2.61769 14.2497 5.33365C14.2495 8.04946 12.0495 10.2495 9.33368 10.2497C6.61772 10.2497 4.41686 8.04957 4.41669 5.33365C4.41669 2.61758 6.61761 0.416656 9.33368 0.416656ZM9.33368 2.24966C7.62975 2.24966 6.24969 3.62972 6.24969 5.33365C6.24987 7.03743 7.62986 8.41666 9.33368 8.41666C11.0373 8.41648 12.4165 7.03732 12.4167 5.33365C12.4167 3.62983 11.0375 2.24984 9.33368 2.24966Z" fill="#9EA1B0" stroke="#9EA1B0" stroke-width="0.5"/>
<path d="M9.33368 10.4167C10.7692 10.4167 12.8722 10.7308 14.6393 11.36C15.1757 11.5463 15.6954 11.7792 16.1921 12.0544L16.6032 12.2819L16.1852 12.4948C15.7317 12.7267 15.3034 12.9959 14.9011 13.3024L14.7849 13.3913L14.6511 13.3336C14.4544 13.2485 14.2461 13.1668 14.027 13.0885C12.463 12.5312 10.5674 12.2497 9.33368 12.2497C8.10008 12.2497 6.2045 12.5318 4.64032 13.0885H4.63934C3.85597 13.3669 3.21619 13.6942 2.78876 14.0446C2.36252 14.3941 2.24981 14.6767 2.24969 14.8883V17.0836H12.0954L11.989 17.4108C11.8537 17.8288 11.7514 18.26 11.6823 18.7047L11.6491 18.9167H0.416687V14.8883C0.416809 13.916 0.970632 13.1648 1.62665 12.6276C2.28255 12.0893 3.14215 11.6752 4.02509 11.361C5.79287 10.7311 7.8975 10.4167 9.33368 10.4167Z" fill="#9EA1B0" stroke="#9EA1B0" stroke-width="0.5"/>
<mask id="path-3-outside-1_747_690" maskUnits="userSpaceOnUse" x="11.6667" y="11.6667" width="17" height="17" fill="black">
<rect fill="white" x="11.6667" y="11.6667" width="17" height="17"/>
<path fill-rule="evenodd" clip-rule="evenodd" d="M18 13.3333C18 13.1565 18.0703 12.9869 18.1953 12.8619C18.3203 12.7369 18.4899 12.6667 18.6667 12.6667H21.3334C21.5102 12.6667 21.6797 12.7369 21.8048 12.8619C21.9298 12.9869 22 13.1565 22 13.3333C22 13.5101 21.9298 13.6797 21.8048 13.8047C21.6797 13.9298 21.5102 14 21.3334 14H20.6667V15.38C21.4386 15.4917 22.1703 15.7952 22.7947 16.2627L23.724 15.3333L23.5287 15.138C23.4072 15.0123 23.3401 14.8439 23.3416 14.6691C23.3431 14.4943 23.4132 14.327 23.5368 14.2034C23.6604 14.0798 23.8276 14.0097 24.0024 14.0082C24.1772 14.0067 24.3456 14.0739 24.4714 14.1953L25.8047 15.5287C25.9261 15.6544 25.9933 15.8228 25.9918 15.9976C25.9903 16.1724 25.9202 16.3396 25.7966 16.4632C25.673 16.5868 25.5058 16.6569 25.331 16.6584C25.1562 16.66 24.9878 16.5928 24.862 16.4713L24.6667 16.276L23.7374 17.2053C24.2048 17.8297 24.5083 18.5614 24.62 19.3333H26V18.6667C26 18.4898 26.0703 18.3203 26.1953 18.1953C26.3203 18.0702 26.4899 18 26.6667 18C26.8435 18 27.0131 18.0702 27.1381 18.1953C27.2631 18.3203 27.3334 18.4898 27.3334 18.6667V21.3333C27.3334 21.5101 27.2631 21.6797 27.1381 21.8047C27.0131 21.9298 26.8435 22 26.6667 22C26.4899 22 26.3203 21.9298 26.1953 21.8047C26.0703 21.6797 26 21.5101 26 21.3333V20.6667H24.62C24.5316 21.2781 24.3227 21.8659 24.0054 22.396L25.3334 23.724L25.5287 23.5287C25.6544 23.4072 25.8228 23.34 25.9976 23.3415C26.1724 23.3431 26.3396 23.4132 26.4632 23.5368C26.5868 23.6604 26.657 23.8276 26.6585 24.0024C26.66 24.1772 26.5928 24.3456 26.4714 24.4713L25.138 25.8047C25.0123 25.9261 24.8439 25.9933 24.6691 25.9918C24.4943 25.9903 24.3271 25.9201 24.2035 25.7965C24.0799 25.6729 24.0098 25.5057 24.0082 25.3309C24.0067 25.1561 24.0739 24.9877 24.1954 24.862L24.3907 24.6667L23.1587 23.4353C22.4663 24.0721 21.5977 24.4848 20.6667 24.6193V26H21.3334C21.5102 26 21.6797 26.0702 21.8048 26.1953C21.9298 26.3203 22 26.4898 22 26.6667C22 26.8435 21.9298 27.013 21.8048 27.1381C21.6797 27.2631 21.5102 27.3333 21.3334 27.3333H18.6667C18.4899 27.3333 18.3203 27.2631 18.1953 27.1381C18.0703 27.013 18 26.8435 18 26.6667C18 26.4898 18.0703 26.3203 18.1953 26.1953C18.3203 26.0702 18.4899 26 18.6667 26H19.3334V24.62C18.5614 24.5082 17.8298 24.2048 17.2054 23.7373L16.276 24.6667L16.4714 24.862C16.5928 24.9877 16.66 25.1561 16.6585 25.3309C16.657 25.5057 16.5868 25.6729 16.4632 25.7965C16.3396 25.9201 16.1724 25.9903 15.9976 25.9918C15.8228 25.9933 15.6544 25.9261 15.5287 25.8047L14.1954 24.4713C14.0739 24.3456 14.0067 24.1772 14.0082 24.0024C14.0098 23.8276 14.0799 23.6604 14.2035 23.5368C14.3271 23.4132 14.4943 23.3431 14.6691 23.3415C14.8439 23.34 15.0123 23.4072 15.138 23.5287L15.3334 23.724L16.2627 22.7947C15.7952 22.1702 15.4918 21.4386 15.38 20.6667H14V21.3333C14 21.5101 13.9298 21.6797 13.8048 21.8047C13.6797 21.9298 13.5102 22 13.3334 22C13.1565 22 12.987 21.9298 12.8619 21.8047C12.7369 21.6797 12.6667 21.5101 12.6667 21.3333V18.6667C12.6667 18.4898 12.7369 18.3203 12.8619 18.1953C12.987 18.0702 13.1565 18 13.3334 18C13.5102 18 13.6797 18.0702 13.8048 18.1953C13.9298 18.3203 14 18.4898 14 18.6667V19.3333H15.38C15.4918 18.5614 15.7952 17.8297 16.2627 17.2053L15.3334 16.276L15.138 16.4713C15.0123 16.5928 14.8439 16.66 14.6691 16.6584C14.4943 16.6569 14.3271 16.5868 14.2035 16.4632C14.0799 16.3396 14.0098 16.1724 14.0082 15.9976C14.0067 15.8228 14.0739 15.6544 14.1954 15.5287L15.5287 14.1953C15.6544 14.0739 15.8228 14.0067 15.9976 14.0082C16.1724 14.0097 16.3396 14.0798 16.4632 14.2034C16.5868 14.327 16.657 14.4943 16.6585 14.6691C16.66 14.8439 16.5928 15.0123 16.4714 15.138L16.276 15.3333L17.2054 16.2627C17.8298 15.7952 18.5614 15.4917 19.3334 15.38V14H18.6667C18.4899 14 18.3203 13.9298 18.1953 13.8047C18.0703 13.6797 18 13.5101 18 13.3333ZM16.6667 20C16.6667 20.884 17.0179 21.7319 17.643 22.357C18.2681 22.9821 19.116 23.3333 20 23.3333C20.8841 23.3333 21.7319 22.9821 22.357 22.357C22.9822 21.7319 23.3334 20.884 23.3334 20C23.3334 19.1159 22.9822 18.2681 22.357 17.643C21.7319 17.0178 20.8841 16.6667 20 16.6667C19.116 16.6667 18.2681 17.0178 17.643 17.643C17.0179 18.2681 16.6667 19.1159 16.6667 20Z"/>
</mask>
<path fill-rule="evenodd" clip-rule="evenodd" d="M18 13.3333C18 13.1565 18.0703 12.9869 18.1953 12.8619C18.3203 12.7369 18.4899 12.6667 18.6667 12.6667H21.3334C21.5102 12.6667 21.6797 12.7369 21.8048 12.8619C21.9298 12.9869 22 13.1565 22 13.3333C22 13.5101 21.9298 13.6797 21.8048 13.8047C21.6797 13.9298 21.5102 14 21.3334 14H20.6667V15.38C21.4386 15.4917 22.1703 15.7952 22.7947 16.2627L23.724 15.3333L23.5287 15.138C23.4072 15.0123 23.3401 14.8439 23.3416 14.6691C23.3431 14.4943 23.4132 14.327 23.5368 14.2034C23.6604 14.0798 23.8276 14.0097 24.0024 14.0082C24.1772 14.0067 24.3456 14.0739 24.4714 14.1953L25.8047 15.5287C25.9261 15.6544 25.9933 15.8228 25.9918 15.9976C25.9903 16.1724 25.9202 16.3396 25.7966 16.4632C25.673 16.5868 25.5058 16.6569 25.331 16.6584C25.1562 16.66 24.9878 16.5928 24.862 16.4713L24.6667 16.276L23.7374 17.2053C24.2048 17.8297 24.5083 18.5614 24.62 19.3333H26V18.6667C26 18.4898 26.0703 18.3203 26.1953 18.1953C26.3203 18.0702 26.4899 18 26.6667 18C26.8435 18 27.0131 18.0702 27.1381 18.1953C27.2631 18.3203 27.3334 18.4898 27.3334 18.6667V21.3333C27.3334 21.5101 27.2631 21.6797 27.1381 21.8047C27.0131 21.9298 26.8435 22 26.6667 22C26.4899 22 26.3203 21.9298 26.1953 21.8047C26.0703 21.6797 26 21.5101 26 21.3333V20.6667H24.62C24.5316 21.2781 24.3227 21.8659 24.0054 22.396L25.3334 23.724L25.5287 23.5287C25.6544 23.4072 25.8228 23.34 25.9976 23.3415C26.1724 23.3431 26.3396 23.4132 26.4632 23.5368C26.5868 23.6604 26.657 23.8276 26.6585 24.0024C26.66 24.1772 26.5928 24.3456 26.4714 24.4713L25.138 25.8047C25.0123 25.9261 24.8439 25.9933 24.6691 25.9918C24.4943 25.9903 24.3271 25.9201 24.2035 25.7965C24.0799 25.6729 24.0098 25.5057 24.0082 25.3309C24.0067 25.1561 24.0739 24.9877 24.1954 24.862L24.3907 24.6667L23.1587 23.4353C22.4663 24.0721 21.5977 24.4848 20.6667 24.6193V26H21.3334C21.5102 26 21.6797 26.0702 21.8048 26.1953C21.9298 26.3203 22 26.4898 22 26.6667C22 26.8435 21.9298 27.013 21.8048 27.1381C21.6797 27.2631 21.5102 27.3333 21.3334 27.3333H18.6667C18.4899 27.3333 18.3203 27.2631 18.1953 27.1381C18.0703 27.013 18 26.8435 18 26.6667C18 26.4898 18.0703 26.3203 18.1953 26.1953C18.3203 26.0702 18.4899 26 18.6667 26H19.3334V24.62C18.5614 24.5082 17.8298 24.2048 17.2054 23.7373L16.276 24.6667L16.4714 24.862C16.5928 24.9877 16.66 25.1561 16.6585 25.3309C16.657 25.5057 16.5868 25.6729 16.4632 25.7965C16.3396 25.9201 16.1724 25.9903 15.9976 25.9918C15.8228 25.9933 15.6544 25.9261 15.5287 25.8047L14.1954 24.4713C14.0739 24.3456 14.0067 24.1772 14.0082 24.0024C14.0098 23.8276 14.0799 23.6604 14.2035 23.5368C14.3271 23.4132 14.4943 23.3431 14.6691 23.3415C14.8439 23.34 15.0123 23.4072 15.138 23.5287L15.3334 23.724L16.2627 22.7947C15.7952 22.1702 15.4918 21.4386 15.38 20.6667H14V21.3333C14 21.5101 13.9298 21.6797 13.8048 21.8047C13.6797 21.9298 13.5102 22 13.3334 22C13.1565 22 12.987 21.9298 12.8619 21.8047C12.7369 21.6797 12.6667 21.5101 12.6667 21.3333V18.6667C12.6667 18.4898 12.7369 18.3203 12.8619 18.1953C12.987 18.0702 13.1565 18 13.3334 18C13.5102 18 13.6797 18.0702 13.8048 18.1953C13.9298 18.3203 14 18.4898 14 18.6667V19.3333H15.38C15.4918 18.5614 15.7952 17.8297 16.2627 17.2053L15.3334 16.276L15.138 16.4713C15.0123 16.5928 14.8439 16.66 14.6691 16.6584C14.4943 16.6569 14.3271 16.5868 14.2035 16.4632C14.0799 16.3396 14.0098 16.1724 14.0082 15.9976C14.0067 15.8228 14.0739 15.6544 14.1954 15.5287L15.5287 14.1953C15.6544 14.0739 15.8228 14.0067 15.9976 14.0082C16.1724 14.0097 16.3396 14.0798 16.4632 14.2034C16.5868 14.327 16.657 14.4943 16.6585 14.6691C16.66 14.8439 16.5928 15.0123 16.4714 15.138L16.276 15.3333L17.2054 16.2627C17.8298 15.7952 18.5614 15.4917 19.3334 15.38V14H18.6667C18.4899 14 18.3203 13.9298 18.1953 13.8047C18.0703 13.6797 18 13.5101 18 13.3333ZM16.6667 20C16.6667 20.884 17.0179 21.7319 17.643 22.357C18.2681 22.9821 19.116 23.3333 20 23.3333C20.8841 23.3333 21.7319 22.9821 22.357 22.357C22.9822 21.7319 23.3334 20.884 23.3334 20C23.3334 19.1159 22.9822 18.2681 22.357 17.643C21.7319 17.0178 20.8841 16.6667 20 16.6667C19.116 16.6667 18.2681 17.0178 17.643 17.643C17.0179 18.2681 16.6667 19.1159 16.6667 20Z" fill="#9EA1B0"/>
<path fill-rule="evenodd" clip-rule="evenodd" d="M18 13.3333C18 13.1565 18.0703 12.9869 18.1953 12.8619C18.3203 12.7369 18.4899 12.6667 18.6667 12.6667H21.3334C21.5102 12.6667 21.6797 12.7369 21.8048 12.8619C21.9298 12.9869 22 13.1565 22 13.3333C22 13.5101 21.9298 13.6797 21.8048 13.8047C21.6797 13.9298 21.5102 14 21.3334 14H20.6667V15.38C21.4386 15.4917 22.1703 15.7952 22.7947 16.2627L23.724 15.3333L23.5287 15.138C23.4072 15.0123 23.3401 14.8439 23.3416 14.6691C23.3431 14.4943 23.4132 14.327 23.5368 14.2034C23.6604 14.0798 23.8276 14.0097 24.0024 14.0082C24.1772 14.0067 24.3456 14.0739 24.4714 14.1953L25.8047 15.5287C25.9261 15.6544 25.9933 15.8228 25.9918 15.9976C25.9903 16.1724 25.9202 16.3396 25.7966 16.4632C25.673 16.5868 25.5058 16.6569 25.331 16.6584C25.1562 16.66 24.9878 16.5928 24.862 16.4713L24.6667 16.276L23.7374 17.2053C24.2048 17.8297 24.5083 18.5614 24.62 19.3333H26V18.6667C26 18.4898 26.0703 18.3203 26.1953 18.1953C26.3203 18.0702 26.4899 18 26.6667 18C26.8435 18 27.0131 18.0702 27.1381 18.1953C27.2631 18.3203 27.3334 18.4898 27.3334 18.6667V21.3333C27.3334 21.5101 27.2631 21.6797 27.1381 21.8047C27.0131 21.9298 26.8435 22 26.6667 22C26.4899 22 26.3203 21.9298 26.1953 21.8047C26.0703 21.6797 26 21.5101 26 21.3333V20.6667H24.62C24.5316 21.2781 24.3227 21.8659 24.0054 22.396L25.3334 23.724L25.5287 23.5287C25.6544 23.4072 25.8228 23.34 25.9976 23.3415C26.1724 23.3431 26.3396 23.4132 26.4632 23.5368C26.5868 23.6604 26.657 23.8276 26.6585 24.0024C26.66 24.1772 26.5928 24.3456 26.4714 24.4713L25.138 25.8047C25.0123 25.9261 24.8439 25.9933 24.6691 25.9918C24.4943 25.9903 24.3271 25.9201 24.2035 25.7965C24.0799 25.6729 24.0098 25.5057 24.0082 25.3309C24.0067 25.1561 24.0739 24.9877 24.1954 24.862L24.3907 24.6667L23.1587 23.4353C22.4663 24.0721 21.5977 24.4848 20.6667 24.6193V26H21.3334C21.5102 26 21.6797 26.0702 21.8048 26.1953C21.9298 26.3203 22 26.4898 22 26.6667C22 26.8435 21.9298 27.013 21.8048 27.1381C21.6797 27.2631 21.5102 27.3333 21.3334 27.3333H18.6667C18.4899 27.3333 18.3203 27.2631 18.1953 27.1381C18.0703 27.013 18 26.8435 18 26.6667C18 26.4898 18.0703 26.3203 18.1953 26.1953C18.3203 26.0702 18.4899 26 18.6667 26H19.3334V24.62C18.5614 24.5082 17.8298 24.2048 17.2054 23.7373L16.276 24.6667L16.4714 24.862C16.5928 24.9877 16.66 25.1561 16.6585 25.3309C16.657 25.5057 16.5868 25.6729 16.4632 25.7965C16.3396 25.9201 16.1724 25.9903 15.9976 25.9918C15.8228 25.9933 15.6544 25.9261 15.5287 25.8047L14.1954 24.4713C14.0739 24.3456 14.0067 24.1772 14.0082 24.0024C14.0098 23.8276 14.0799 23.6604 14.2035 23.5368C14.3271 23.4132 14.4943 23.3431 14.6691 23.3415C14.8439 23.34 15.0123 23.4072 15.138 23.5287L15.3334 23.724L16.2627 22.7947C15.7952 22.1702 15.4918 21.4386 15.38 20.6667H14V21.3333C14 21.5101 13.9298 21.6797 13.8048 21.8047C13.6797 21.9298 13.5102 22 13.3334 22C13.1565 22 12.987 21.9298 12.8619 21.8047C12.7369 21.6797 12.6667 21.5101 12.6667 21.3333V18.6667C12.6667 18.4898 12.7369 18.3203 12.8619 18.1953C12.987 18.0702 13.1565 18 13.3334 18C13.5102 18 13.6797 18.0702 13.8048 18.1953C13.9298 18.3203 14 18.4898 14 18.6667V19.3333H15.38C15.4918 18.5614 15.7952 17.8297 16.2627 17.2053L15.3334 16.276L15.138 16.4713C15.0123 16.5928 14.8439 16.66 14.6691 16.6584C14.4943 16.6569 14.3271 16.5868 14.2035 16.4632C14.0799 16.3396 14.0098 16.1724 14.0082 15.9976C14.0067 15.8228 14.0739 15.6544 14.1954 15.5287L15.5287 14.1953C15.6544 14.0739 15.8228 14.0067 15.9976 14.0082C16.1724 14.0097 16.3396 14.0798 16.4632 14.2034C16.5868 14.327 16.657 14.4943 16.6585 14.6691C16.66 14.8439 16.5928 15.0123 16.4714 15.138L16.276 15.3333L17.2054 16.2627C17.8298 15.7952 18.5614 15.4917 19.3334 15.38V14H18.6667C18.4899 14 18.3203 13.9298 18.1953 13.8047C18.0703 13.6797 18 13.5101 18 13.3333ZM16.6667 20C16.6667 20.884 17.0179 21.7319 17.643 22.357C18.2681 22.9821 19.116 23.3333 20 23.3333C20.8841 23.3333 21.7319 22.9821 22.357 22.357C22.9822 21.7319 23.3334 20.884 23.3334 20C23.3334 19.1159 22.9822 18.2681 22.357 17.643C21.7319 17.0178 20.8841 16.6667 20 16.6667C19.116 16.6667 18.2681 17.0178 17.643 17.643C17.0179 18.2681 16.6667 19.1159 16.6667 20Z" stroke="#9EA1B0" mask="url(#path-3-outside-1_747_690)"/>
</svg>
