<svg width="32" height="32" viewBox="0 0 32 32" fill="none" xmlns="http://www.w3.org/2000/svg">
<path d="M14.7896 21.5789L13.7257 23.0909V23.0914L13.6023 23.2674C13.4453 23.4914 13.2243 23.6316 12.9444 23.6034C12.8018 23.5891 12.6526 23.5291 12.5354 23.4466C12.4183 23.364 12.3118 23.2444 12.2501 23.1151C12.1354 22.8744 12.1816 22.6301 12.3214 22.4149V22.413L13.9537 20.0929L13.9545 20.0921C14.1114 19.8736 14.3304 19.7372 14.6064 19.7648C14.749 19.7791 14.8976 19.8389 15.0148 19.9215C15.1321 20.0041 15.2386 20.1239 15.3002 20.2534C15.4208 20.5069 15.3636 20.763 15.2064 20.9864L14.7896 21.5789ZM13.4402 19.5016C13.5971 19.2782 13.6543 19.0221 13.5338 18.7687C13.4723 18.6394 13.3657 18.5193 13.2485 18.4369C13.1312 18.3545 12.9825 18.2947 12.8399 18.2804C12.5601 18.2525 12.3391 18.3926 12.1818 18.6164L11.7608 19.2151H11.7024V19.2971L10.5755 20.8995L10.2351 21.3837C10.0775 21.6079 10.0235 21.8597 10.1413 22.1138C10.2638 22.3782 10.5479 22.5782 10.8382 22.6041C11.117 22.6289 11.3356 22.4932 11.4932 22.2692L11.7214 21.9449L13.3268 19.6629L13.4402 19.5016ZM9.32688 8.82987L7.11576 7.55312C7.02362 7.49984 6.91907 7.47178 6.81263 7.47174C6.75807 7.47174 6.70432 7.47899 6.65163 7.49305C6.49357 7.53518 6.36057 7.63574 6.2787 7.77743L2.39801 14.4987C2.22938 14.7908 2.3307 15.1671 2.62263 15.3357L4.83376 16.6124C4.90347 16.6526 4.98045 16.6786 5.06026 16.6889C5.14007 16.6992 5.22113 16.6936 5.29876 16.6724C5.45601 16.6301 5.58926 16.5292 5.67082 16.3881L9.55151 9.66687C9.72038 9.3743 9.61932 8.99874 9.32688 8.82987ZM11.1253 18.8452V18.7962C11.2649 18.5809 11.3106 18.3367 11.1957 18.0963C11.134 17.9672 11.0274 17.8474 10.9102 17.7651C10.7929 17.6827 10.6442 17.623 10.5017 17.6088C10.2221 17.5809 10.0011 17.7209 9.84382 17.9445L8.69563 19.5771C8.53857 19.8005 8.4812 20.0565 8.60188 20.31C8.66363 20.4396 8.76982 20.5587 8.88707 20.6416C9.00382 20.7241 9.1532 20.7839 9.29526 20.7982C9.57101 20.8259 9.78988 20.6902 9.94688 20.472L9.9477 20.4712L11.0807 18.8606L11.1253 18.8452ZM29.601 14.4987L25.7203 7.77743C25.6386 7.63587 25.5053 7.53537 25.3475 7.49305C25.295 7.47893 25.2408 7.47174 25.1864 7.47168C25.0795 7.47168 24.9758 7.49962 24.8833 7.55305L22.6718 8.8298C22.6022 8.87 22.5412 8.92357 22.4924 8.98742C22.4435 9.05127 22.4078 9.12415 22.3872 9.20187C22.3661 9.27951 22.3606 9.36056 22.3709 9.44035C22.3812 9.52014 22.4073 9.5971 22.4474 9.6668L26.3278 16.3881C26.4096 16.5296 26.5426 16.6302 26.7003 16.6724C26.7779 16.6935 26.8588 16.6991 26.9386 16.6888C27.0183 16.6785 27.0952 16.6525 27.1648 16.6124L29.3762 15.3359C29.6686 15.1673 29.7697 14.7909 29.601 14.4987ZM15.3946 22.0652L15.3669 22.0788L14.3701 23.4972L14.3666 23.5276C14.3287 23.8607 14.5599 24.1647 14.8516 24.2999C15.2112 24.4667 15.5487 24.3633 15.777 24.0387L16.3529 23.22C16.5813 22.8952 16.5639 22.5438 16.2857 22.2618C16.0591 22.0322 15.697 21.9171 15.3946 22.0652ZM21.9275 10.4671C20.9946 10.7302 20.0379 10.8425 19.0696 10.8126C18.3236 10.7895 17.5967 10.6821 16.8689 10.5219C16.3311 10.4036 15.7573 10.3172 15.2169 10.4682C14.8038 10.5836 14.4511 10.8232 14.1229 11.0924C13.9089 11.2679 13.7044 11.4568 13.5038 11.6474C13.2503 11.8883 13.0014 12.1344 12.7523 12.3798C12.5585 12.5709 12.3643 12.7614 12.1695 12.9514L12.1356 12.9844L12.0101 15.6212C12.0044 15.7409 12.0121 15.9473 12.1271 16.0199C12.2259 16.0822 12.3888 16.0677 12.4981 16.0476C12.7063 16.0092 12.9173 15.9187 13.1026 15.8186C13.5094 15.5989 13.8466 14.8259 14.0382 14.4166C14.1299 14.2207 14.2214 14.024 14.3228 13.8329C14.3619 13.7594 14.424 13.7008 14.4996 13.666C14.5907 13.6238 14.6814 13.5812 14.772 13.5381C15.2274 13.322 15.7067 13.0934 16.209 13.0145C16.6871 12.9394 17.125 13.0138 17.5456 13.2572L23.5506 16.7336L25.1721 15.9057L22.0172 10.4418L21.9275 10.4671ZM23.3476 17.494L17.1651 13.915C17.0287 13.8361 16.8836 13.7827 16.7273 13.7602C16.4721 13.7233 16.2156 13.7736 15.9731 13.8524C15.6752 13.9493 15.3809 14.0901 15.0981 14.2245C15.0568 14.2441 15.0155 14.2637 14.9741 14.2831L14.9362 14.3009L14.9176 14.3384C14.8523 14.4711 14.7885 14.6045 14.7263 14.7387C14.4414 15.3474 14.076 16.1571 13.4637 16.4877C12.9648 16.7571 12.2497 16.995 11.7226 16.6634C11.5918 16.5811 11.484 16.4663 11.4068 16.3326C11.2762 16.1068 11.2391 15.8426 11.2514 15.5852L11.3838 12.7986C11.3882 12.702 11.4292 12.6108 11.4985 12.5434C11.7398 12.3097 11.9794 12.0744 12.2186 11.8386C12.3183 11.7403 12.4182 11.6424 12.5179 11.5442L12.6542 11.4101L9.97482 10.453L6.75707 16.0273L8.62307 18.3586L9.22207 17.5074C9.58557 16.9907 10.1459 16.7407 10.7689 16.8842C10.8665 16.9067 10.9619 16.9384 11.0537 16.9784C11.1569 17.0234 11.2553 17.0787 11.3474 17.1435C11.5506 17.2862 11.7226 17.4752 11.8423 17.693L11.9041 17.8055L12.0122 17.7362C12.5337 17.4019 13.1923 17.4682 13.6859 17.8156C14.0427 18.0667 14.3019 18.4581 14.3521 18.896L14.3648 19.0067L14.4761 19.0022C14.8229 18.9884 15.1694 19.1013 15.4521 19.3003C16.0419 19.7156 16.3023 20.4446 15.9985 21.1254L15.9409 21.2544L16.0776 21.2904C16.3628 21.3654 16.6202 21.5189 16.8269 21.7287C17.304 22.2126 17.4076 22.8743 17.0855 23.4743L17.0307 23.5764L18.4565 24.4066C18.6927 24.5441 18.9519 24.5793 19.1944 24.4374C19.318 24.3651 19.4284 24.2486 19.5004 24.1248C19.5725 24.0009 19.6194 23.8476 19.6215 23.7044C19.6256 23.4236 19.4677 23.2152 19.2318 23.0774L19.2037 23.0611H19.203L17.5658 22.1081C17.3846 22.0027 17.3241 21.7695 17.4293 21.5886C17.4544 21.5455 17.4877 21.5077 17.5273 21.4775C17.5669 21.4473 17.6121 21.4251 17.6603 21.4124C17.7085 21.3996 17.7588 21.3965 17.8082 21.4031C17.8576 21.4098 17.9052 21.4261 17.9483 21.4512L19.6106 22.419C19.613 22.4205 19.6154 22.4219 19.6179 22.4232L20.1351 22.7242C20.3714 22.8617 20.6308 22.8969 20.8734 22.7549C20.9968 22.6827 21.1076 22.5661 21.1794 22.4422C21.2514 22.3181 21.2982 22.1653 21.3002 22.0219C21.3041 21.7464 21.1519 21.5409 20.9234 21.4031L20.9224 21.4022L18.8686 20.2061C18.6876 20.1008 18.6268 19.867 18.732 19.6863C18.8375 19.5052 19.07 19.4444 19.251 19.5498L21.3203 20.7541H21.3208L21.9465 21.1191C22.1828 21.2569 22.4396 21.2889 22.6822 21.1501C22.9353 21.0054 23.1097 20.7049 23.1108 20.4134C23.1119 20.1334 22.9579 19.9274 22.7211 19.7894L22.1924 19.4812L20.1717 18.3046C19.9906 18.1992 19.9288 17.9662 20.0343 17.7851C20.1398 17.604 20.3729 17.5421 20.5541 17.6476L22.5749 18.8245C22.8112 18.9621 23.0703 18.9969 23.3126 18.8544C23.4363 18.7817 23.5456 18.6656 23.6181 18.5418C23.6906 18.4181 23.7376 18.2637 23.7395 18.1205C23.7433 17.8392 23.5845 17.6311 23.3476 17.494Z" fill="white"/>
</svg>
