<svg width="32" height="32" viewBox="0 0 32 32" fill="none" xmlns="http://www.w3.org/2000/svg">
<path d="M30.3637 14.0577L26.4832 7.33655C26.2843 6.99211 25.9623 6.74555 25.5764 6.64217C25.1903 6.53861 24.7883 6.59136 24.444 6.79017L22.2329 8.06667C21.8885 8.26555 21.6419 8.58755 21.5385 8.97342C21.4775 9.19947 21.4706 9.43671 21.5184 9.66592C20.1265 10.0322 18.7274 10.0289 17.0594 9.66167C15.2803 9.2698 14.4178 9.64123 13.2483 10.6865L10.476 9.69611C10.6197 9.0733 10.3497 8.40248 9.76803 8.06673L7.55697 6.79017C7.21272 6.59136 6.8106 6.53873 6.42453 6.64217C6.0386 6.74555 5.7166 6.99217 5.51772 7.33655L1.63716 14.0578C1.22566 14.7707 1.47078 15.6855 2.1836 16.097L4.39466 17.3735C4.62005 17.5043 4.876 17.5733 5.1366 17.5733C5.26672 17.5733 5.39791 17.5562 5.52716 17.5215C5.8696 17.4298 6.16122 17.2249 6.3616 16.9394L8.01916 19.0093L7.97666 19.0698C7.3571 19.9506 7.71147 20.8888 8.38172 21.3604C8.62466 21.5312 8.91116 21.6424 9.20735 21.6727C9.17816 21.9464 9.22291 22.2227 9.34366 22.483C9.59928 23.0343 10.1555 23.4255 10.7608 23.4798C10.9882 23.5002 11.2093 23.4718 11.415 23.3988C11.5393 23.7076 11.7588 23.9747 12.0301 24.1655C12.4969 24.4937 13.1248 24.6014 13.6723 24.3392C13.8432 24.6595 14.123 24.931 14.4835 25.0977C14.7183 25.2063 14.9576 25.2591 15.1903 25.259C15.6957 25.259 16.1697 25.0102 16.4975 24.5441L16.6279 24.3587L18.0146 25.1661C18.3058 25.3357 18.5945 25.4097 18.8663 25.4097C19.463 25.4097 19.9786 25.0529 20.262 24.5665C20.4098 24.3126 20.4958 24.0212 20.5024 23.7267C21.1163 23.7429 21.6508 23.382 21.941 22.884C22.0782 22.6484 22.1621 22.3805 22.1788 22.108C22.5035 22.1454 22.8274 22.0804 23.1203 21.9127C23.6477 21.6108 23.9898 21.0231 23.992 20.4154C23.9932 20.1222 23.9152 19.8469 23.7685 19.6068C24.0214 19.4557 24.2325 19.2369 24.3803 18.9829C24.6742 18.4777 24.7225 17.8238 24.388 17.2935L25.5065 16.7224L25.567 16.8272C25.7659 17.1715 26.0879 17.4182 26.4738 17.5215C26.6031 17.5562 26.7342 17.5733 26.8643 17.5733C27.1227 17.5733 27.3773 17.5058 27.6063 17.3735L29.8174 16.097C30.5302 15.6855 30.7753 14.7707 30.3637 14.0577ZM5.26835 16.5555C5.20598 16.5727 5.14083 16.5773 5.07668 16.569C5.01253 16.5608 4.95065 16.5399 4.89466 16.5075L2.6836 15.2309C2.44822 15.095 2.36734 14.793 2.50316 14.5577L6.38366 7.83648C6.44897 7.72336 6.55535 7.6423 6.68328 7.60798C6.7257 7.59657 6.76942 7.59077 6.81334 7.59073C6.89841 7.59073 6.98197 7.61286 7.05691 7.65611L9.26797 8.93273C9.50335 9.06855 9.58428 9.37055 9.44841 9.60592L5.56785 16.3272C5.50266 16.4402 5.39628 16.5214 5.26835 16.5555ZM8.95722 20.5424C8.86853 20.48 8.44391 20.1435 8.79453 19.645L9.94285 18.0125C10.2934 17.5142 10.7535 17.7999 10.8422 17.8621C10.9308 17.9245 11.3554 18.2604 11.006 18.7587L11.0058 18.7589L11.0056 18.7592L11.0053 18.7595L9.85672 20.3924L9.85628 20.393C9.50559 20.8906 9.04578 20.6049 8.95722 20.5424ZM11.3963 22.1992C11.2498 22.4075 11.066 22.5025 10.85 22.4838C10.602 22.4615 10.3557 22.2882 10.2509 22.0623C10.1597 21.8655 10.1876 21.6602 10.334 21.452L10.6747 20.9677L11.8232 19.3349L11.8238 19.3342L11.824 19.3339L11.8241 19.3337L12.2808 18.6842C12.6315 18.1858 13.0918 18.4717 13.1805 18.5341C13.2692 18.5965 13.6939 18.933 13.3433 19.4315L13.2298 19.5929L11.6245 21.875L11.3963 22.1992ZM12.6053 23.3474C12.5167 23.2851 12.0922 22.9489 12.4421 22.4506L12.4423 22.4502L12.4424 22.4502L12.4425 22.4499L14.0469 20.169L14.0474 20.1684C14.3983 19.6702 14.8583 19.9564 14.9469 20.0186C15.0356 20.081 15.4601 20.4175 15.1095 20.9159L14.6926 21.5086L13.607 23.052L13.6067 23.0524L13.5049 23.197C13.1542 23.6957 12.694 23.4099 12.6053 23.3474ZM15.6795 23.9687C15.4115 24.3499 15.0782 24.271 14.9032 24.1901C14.6616 24.0783 14.4542 23.8254 14.4864 23.5399L15.4485 22.1721C15.7063 22.0453 16.0144 22.1552 16.2012 22.3447C16.3365 22.482 16.5233 22.7692 16.2554 23.1502L15.6795 23.9687ZM23.5157 18.4801C23.4613 18.5737 23.1627 19.0257 22.6361 18.7197L20.6152 17.543C20.5006 17.4763 20.3642 17.4579 20.236 17.4917C20.1078 17.5256 19.9983 17.609 19.9316 17.7235C19.8985 17.7803 19.877 17.843 19.8682 17.908C19.8594 17.9731 19.8634 18.0393 19.8802 18.1028C19.897 18.1662 19.9261 18.2258 19.9659 18.278C20.0056 18.3303 20.0553 18.3742 20.1121 18.4072L22.1327 19.5837L22.1332 19.584L22.6617 19.8917C22.8817 20.0199 22.9928 20.1948 22.992 20.4117C22.991 20.6607 22.8395 20.921 22.6234 21.0447C22.4352 21.1525 22.2283 21.1423 22.0082 21.0142L21.3543 20.6334C21.3542 20.6333 21.354 20.6332 21.3539 20.6331L21.3537 20.633L19.3127 19.4446C19.1981 19.3779 19.0617 19.3594 18.9335 19.3933C18.8053 19.4271 18.6958 19.5105 18.629 19.6251C18.596 19.6818 18.5744 19.7445 18.5656 19.8096C18.5568 19.8747 18.5609 19.9408 18.5776 20.0043C18.5944 20.0678 18.6235 20.1274 18.6633 20.1796C18.7031 20.2318 18.7528 20.2757 18.8095 20.3087L20.8498 21.4967L20.8504 21.4971C21.377 21.804 21.1315 22.2869 21.0768 22.3806C21.0223 22.4742 20.7235 22.9261 20.1967 22.6194L19.676 22.3161L19.6751 22.3156L19.6749 22.3155L18.0102 21.3462C17.9534 21.3131 17.8907 21.2916 17.8257 21.2828C17.7606 21.274 17.6944 21.278 17.631 21.2948C17.5675 21.3116 17.5079 21.3407 17.4557 21.3805C17.4034 21.4202 17.3596 21.4699 17.3265 21.5267C17.2935 21.5834 17.2719 21.6461 17.2631 21.7112C17.2543 21.7762 17.2584 21.8424 17.2751 21.9059C17.2919 21.9694 17.321 22.0289 17.3608 22.0812C17.4006 22.1334 17.4503 22.1773 17.507 22.2103L19.1718 23.1796L19.1725 23.1801C19.6978 23.487 19.4525 23.9694 19.398 24.063C19.3434 24.1567 19.0445 24.6085 18.5178 24.3018L17.1924 23.5301C17.5344 22.893 17.4355 22.1723 16.9137 21.6427C16.6828 21.4084 16.4028 21.2504 16.1093 21.1732C16.4575 20.3926 16.1124 19.6159 15.5226 19.2008C15.2187 18.9869 14.846 18.8662 14.4726 18.881C14.4178 18.4057 14.1383 17.9849 13.756 17.716C13.2417 17.3542 12.5314 17.2602 11.9489 17.634C11.8202 17.3999 11.6354 17.1971 11.4173 17.0438C10.747 16.5727 9.74441 16.5566 9.1251 17.437L8.61835 18.1575L6.90278 16.0151L10.0301 10.5984L12.4348 11.4575C12.3379 11.5525 12.2386 11.6503 12.1354 11.752C11.8967 11.9877 11.657 12.2224 11.4163 12.456C11.3249 12.5445 11.2707 12.6645 11.2647 12.7915L11.1323 15.5784C11.0981 16.2995 11.448 16.6305 11.6597 16.7637C12.1194 17.0529 12.7807 16.9919 13.5218 16.5919C14.1514 16.252 14.5153 15.4744 14.8365 14.7884C14.9017 14.649 14.9643 14.5153 15.0264 14.3906L15.1504 14.3319C16.0008 13.9282 16.5502 13.697 17.106 14.018L23.289 17.5969C23.8154 17.9035 23.5702 18.3864 23.5157 18.4801ZM23.5555 16.5958L17.6065 13.1523C16.5672 12.5522 15.5867 13.0179 14.7215 13.4285C14.6314 13.4716 14.5409 13.5141 14.4503 13.5561C14.351 13.6019 14.2694 13.6791 14.2181 13.7757C14.1193 13.9617 14.0235 14.1665 13.9307 14.3646C13.6752 14.9104 13.3856 15.5291 13.0466 15.7121C12.5837 15.9621 12.2768 15.9707 12.192 15.9175C12.1559 15.8947 12.123 15.7958 12.131 15.626L12.254 13.0365C12.4489 12.8464 12.6433 12.6558 12.837 12.4645C14.6527 10.6758 15.0841 10.251 16.8443 10.6382C18.0494 10.9035 19.8609 11.1742 21.961 10.5815L25.0057 15.8552L23.5555 16.5958ZM29.3173 15.231L27.1062 16.5075C26.9931 16.5728 26.8604 16.5899 26.7325 16.5556C26.6047 16.5214 26.4983 16.4402 26.433 16.3272L22.5525 9.60592C22.4872 9.49286 22.4702 9.36017 22.5044 9.23223C22.5208 9.16968 22.5494 9.11099 22.5886 9.05957C22.6278 9.00815 22.6769 8.96502 22.7328 8.93267L24.9439 7.65611C25.0179 7.61326 25.1019 7.59071 25.1875 7.59073C25.2314 7.5908 25.2751 7.5966 25.3175 7.60798C25.4455 7.6423 25.5518 7.72342 25.6172 7.83648L29.4976 14.5576C29.6335 14.793 29.5527 15.0951 29.3173 15.231Z" fill="#4F4F4F"/>
</svg>
