<svg width="16" height="16" viewBox="0 0 16 16" fill="none" xmlns="http://www.w3.org/2000/svg">
<path d="M5.9 7.27778C6.45379 7.27778 6.99514 7.10835 7.4556 6.79091C7.91605 6.47348 8.27494 6.0223 8.48686 5.49442C8.69879 4.96654 8.75424 4.38569 8.6462 3.8253C8.53816 3.26491 8.27149 2.75016 7.8799 2.34614C7.48831 1.94212 6.9894 1.66698 6.44625 1.55551C5.90311 1.44404 5.34012 1.50125 4.82849 1.7199C4.31685 1.93856 3.87955 2.30883 3.57188 2.78391C3.26422 3.25898 3.1 3.81752 3.1 4.38889C3.1 5.15507 3.395 5.88987 3.9201 6.43164C4.4452 6.97341 5.15739 7.27778 5.9 7.27778ZM11.5 8.72222C11.9153 8.72222 12.3214 8.59515 12.6667 8.35707C13.012 8.119 13.2812 7.78061 13.4401 7.3847C13.5991 6.9888 13.6407 6.55315 13.5596 6.13286C13.4786 5.71257 13.2786 5.32651 12.9849 5.02349C12.6912 4.72048 12.3171 4.51412 11.9097 4.43052C11.5023 4.34692 11.0801 4.38983 10.6964 4.55382C10.3126 4.71781 9.98466 4.99551 9.75391 5.35182C9.52316 5.70813 9.4 6.12703 9.4 6.55556C9.4 7.13019 9.62125 7.68129 10.0151 8.08762C10.4089 8.49395 10.943 8.72222 11.5 8.72222ZM14.3 13.7778C14.4857 13.7778 14.6637 13.7017 14.795 13.5662C14.9263 13.4308 15 13.2471 15 13.0556C14.9994 12.3806 14.8155 11.7192 14.4691 11.1466C14.1227 10.574 13.6277 10.113 13.0402 9.81601C12.4528 9.51896 11.7964 9.39775 11.1455 9.46611C10.4947 9.53448 9.8754 9.78968 9.358 10.2028C8.67236 9.49815 7.79984 9.01876 6.85048 8.82509C5.90111 8.63141 4.91742 8.73211 4.02346 9.11449C3.12949 9.49687 2.36529 10.1438 1.82722 10.9737C1.28915 11.8036 1.00131 12.7793 1 13.7778C1 13.9693 1.07375 14.153 1.20503 14.2885C1.3363 14.4239 1.51435 14.5 1.7 14.5H10.1C10.2857 14.5 10.4637 14.4239 10.595 14.2885C10.7262 14.153 10.8 13.9693 10.8 13.7778" fill="white"/>
</svg>
