<svg width="32" height="32" viewBox="0 0 32 32" fill="none" xmlns="http://www.w3.org/2000/svg">
<mask id="path-1-outside-1_747_1709" maskUnits="userSpaceOnUse" x="8.05469" y="2.38788" width="16" height="17" fill="black">
<rect fill="white" x="8.05469" y="2.38788" width="16" height="17"/>
<path fill-rule="evenodd" clip-rule="evenodd" d="M11.0996 6.21731L11.1362 6.05731C11.2062 5.75997 11.3209 5.32264 11.5576 4.89197C11.7989 4.45331 12.1729 4.00864 12.7596 3.71597C13.3442 3.42464 14.0769 3.31597 14.9829 3.43597C15.9829 3.56931 17.9916 3.89997 19.7662 4.80264C21.5509 5.71064 23.2229 7.27264 23.2229 9.87397C23.2229 11.218 22.7029 12.66 22.1989 13.6C21.9569 14.052 21.6696 14.484 21.3816 14.7166C21.3156 14.77 21.2216 14.8366 21.1049 14.8833C20.7849 15.935 20.1478 16.8622 19.2809 17.5381C18.4139 18.2141 17.3593 18.6057 16.2613 18.6596C15.1633 18.7134 14.0755 18.4268 13.1466 17.8389C12.2176 17.2511 11.4929 16.3907 11.0716 15.3753L11.0556 15.378L10.8189 15.0906L10.8182 15.0893L10.8169 15.088L10.8136 15.0833L10.8022 15.07C10.7452 14.9989 10.6903 14.9262 10.6376 14.852C10.4939 14.6521 10.3583 14.4466 10.2309 14.236C9.91757 13.7173 9.53957 12.9786 9.29757 12.1166C9.05623 11.2546 8.94557 10.244 9.1989 9.20131C9.44557 8.18664 10.0276 7.18797 11.0816 6.29597L11.0996 6.21731ZM12.2196 14.6426C12.5087 15.4741 13.0639 16.1871 13.7993 16.6711C14.5346 17.1551 15.409 17.3831 16.2871 17.3199C17.1651 17.2566 17.9978 16.9056 18.6562 16.3212C19.3146 15.7368 19.7619 14.9517 19.9289 14.0873L20.0042 14.1126C20.0013 14.0749 20 14.0371 20.0002 13.9993C20.0002 12.896 19.8469 12.126 19.7042 11.646C19.6762 11.5526 19.6453 11.4601 19.6116 11.3686L19.5842 11.37H19.5576C19.0591 11.3807 18.5607 11.3427 18.0696 11.2566C16.9249 11.0633 15.3749 10.5806 13.5496 9.46264C13.5096 9.55197 13.4696 9.65264 13.4296 9.76464C13.2989 10.1346 13.1916 10.574 13.0989 11.038C13.0169 11.4466 12.9496 11.858 12.8856 12.2433L12.8609 12.3953C12.7922 12.8086 12.7236 13.2146 12.6436 13.5086C12.5036 14.0193 12.3609 14.382 12.2196 14.642M11.2862 13.4C10.9854 12.883 10.749 12.3311 10.5822 11.7566C10.3829 11.046 10.3096 10.2766 10.4949 9.51597C10.6749 8.77597 11.1102 7.99797 12.0056 7.26064C12.1669 7.15131 12.2402 7.00464 12.2602 6.96531V6.96464C12.2949 6.89243 12.323 6.81723 12.3442 6.73997C12.3656 6.66397 12.3889 6.55997 12.4109 6.46664L12.4342 6.36197C12.4976 6.09331 12.5796 5.80064 12.7262 5.53331C12.8689 5.27464 13.0642 5.05331 13.3549 4.90864C13.6469 4.76264 14.0989 4.66264 14.8069 4.75731C15.7756 4.88597 17.5976 5.19464 19.1616 5.99064C20.7149 6.78064 21.8896 7.97664 21.8896 9.87331C21.8896 10.7466 21.5962 11.74 21.2429 12.5233C21.1762 12.0126 21.0802 11.5953 20.9816 11.2646C20.9121 11.0286 20.8263 10.7976 20.7249 10.5733C20.686 10.4905 20.6438 10.4093 20.5982 10.33L20.5869 10.312L20.5829 10.3053L20.5809 10.302L20.5796 10.3L20.3329 9.91731L19.8916 10.006L19.8822 10.008L19.8176 10.0166C19.7184 10.0278 19.6187 10.0345 19.5189 10.0366C19.1079 10.0445 18.697 10.0124 18.2922 9.94064C17.2169 9.75931 15.6369 9.26531 13.7176 7.98731L13.2509 7.67597L12.8649 8.08264C12.5469 8.41731 12.3309 8.87397 12.1729 9.31864C12.0116 9.77531 11.8896 10.2853 11.7916 10.7746C11.7103 11.1911 11.6365 11.6089 11.5702 12.028L11.5449 12.1773C11.4736 12.6113 11.4156 12.9426 11.3569 13.1573C11.3329 13.2458 11.3093 13.3266 11.2862 13.4Z"/>
</mask>
<path fill-rule="evenodd" clip-rule="evenodd" d="M11.0996 6.21731L11.1362 6.05731C11.2062 5.75997 11.3209 5.32264 11.5576 4.89197C11.7989 4.45331 12.1729 4.00864 12.7596 3.71597C13.3442 3.42464 14.0769 3.31597 14.9829 3.43597C15.9829 3.56931 17.9916 3.89997 19.7662 4.80264C21.5509 5.71064 23.2229 7.27264 23.2229 9.87397C23.2229 11.218 22.7029 12.66 22.1989 13.6C21.9569 14.052 21.6696 14.484 21.3816 14.7166C21.3156 14.77 21.2216 14.8366 21.1049 14.8833C20.7849 15.935 20.1478 16.8622 19.2809 17.5381C18.4139 18.2141 17.3593 18.6057 16.2613 18.6596C15.1633 18.7134 14.0755 18.4268 13.1466 17.8389C12.2176 17.2511 11.4929 16.3907 11.0716 15.3753L11.0556 15.378L10.8189 15.0906L10.8182 15.0893L10.8169 15.088L10.8136 15.0833L10.8022 15.07C10.7452 14.9989 10.6903 14.9262 10.6376 14.852C10.4939 14.6521 10.3583 14.4466 10.2309 14.236C9.91757 13.7173 9.53957 12.9786 9.29757 12.1166C9.05623 11.2546 8.94557 10.244 9.1989 9.20131C9.44557 8.18664 10.0276 7.18797 11.0816 6.29597L11.0996 6.21731ZM12.2196 14.6426C12.5087 15.4741 13.0639 16.1871 13.7993 16.6711C14.5346 17.1551 15.409 17.3831 16.2871 17.3199C17.1651 17.2566 17.9978 16.9056 18.6562 16.3212C19.3146 15.7368 19.7619 14.9517 19.9289 14.0873L20.0042 14.1126C20.0013 14.0749 20 14.0371 20.0002 13.9993C20.0002 12.896 19.8469 12.126 19.7042 11.646C19.6762 11.5526 19.6453 11.4601 19.6116 11.3686L19.5842 11.37H19.5576C19.0591 11.3807 18.5607 11.3427 18.0696 11.2566C16.9249 11.0633 15.3749 10.5806 13.5496 9.46264C13.5096 9.55197 13.4696 9.65264 13.4296 9.76464C13.2989 10.1346 13.1916 10.574 13.0989 11.038C13.0169 11.4466 12.9496 11.858 12.8856 12.2433L12.8609 12.3953C12.7922 12.8086 12.7236 13.2146 12.6436 13.5086C12.5036 14.0193 12.3609 14.382 12.2196 14.642M11.2862 13.4C10.9854 12.883 10.749 12.3311 10.5822 11.7566C10.3829 11.046 10.3096 10.2766 10.4949 9.51597C10.6749 8.77597 11.1102 7.99797 12.0056 7.26064C12.1669 7.15131 12.2402 7.00464 12.2602 6.96531V6.96464C12.2949 6.89243 12.323 6.81723 12.3442 6.73997C12.3656 6.66397 12.3889 6.55997 12.4109 6.46664L12.4342 6.36197C12.4976 6.09331 12.5796 5.80064 12.7262 5.53331C12.8689 5.27464 13.0642 5.05331 13.3549 4.90864C13.6469 4.76264 14.0989 4.66264 14.8069 4.75731C15.7756 4.88597 17.5976 5.19464 19.1616 5.99064C20.7149 6.78064 21.8896 7.97664 21.8896 9.87331C21.8896 10.7466 21.5962 11.74 21.2429 12.5233C21.1762 12.0126 21.0802 11.5953 20.9816 11.2646C20.9121 11.0286 20.8263 10.7976 20.7249 10.5733C20.686 10.4905 20.6438 10.4093 20.5982 10.33L20.5869 10.312L20.5829 10.3053L20.5809 10.302L20.5796 10.3L20.3329 9.91731L19.8916 10.006L19.8822 10.008L19.8176 10.0166C19.7184 10.0278 19.6187 10.0345 19.5189 10.0366C19.1079 10.0445 18.697 10.0124 18.2922 9.94064C17.2169 9.75931 15.6369 9.26531 13.7176 7.98731L13.2509 7.67597L12.8649 8.08264C12.5469 8.41731 12.3309 8.87397 12.1729 9.31864C12.0116 9.77531 11.8896 10.2853 11.7916 10.7746C11.7103 11.1911 11.6365 11.6089 11.5702 12.028L11.5449 12.1773C11.4736 12.6113 11.4156 12.9426 11.3569 13.1573C11.3329 13.2458 11.3093 13.3266 11.2862 13.4Z" fill="#9EA1B0"/>
<path d="M10.8189 15.0906L10.9143 15.2064L11.4289 14.7824L11.3336 14.6666L11.2382 14.5509L10.7235 14.9749L10.8189 15.0906ZM20.5796 10.3L20.4985 10.1738L19.9385 10.5338L20.0196 10.66L20.1007 10.7862L20.6607 10.4262L20.5796 10.3ZM20.5402 13.6813L20.6073 13.8155L20.61 13.8142L20.5429 13.68L20.4758 13.5458L20.4732 13.5471L20.5402 13.6813ZM11.0996 6.21731L10.8071 6.15029L10.8071 6.15039L11.0996 6.21731ZM11.1362 6.05731L10.8442 5.98856L10.8438 5.99029L11.1362 6.05731ZM11.5576 4.89197L11.2947 4.74737L11.2947 4.74749L11.5576 4.89197ZM12.7596 3.71597L12.6258 3.44746L12.6256 3.44752L12.7596 3.71597ZM14.9829 3.43597L15.0226 3.13861L15.0223 3.13857L14.9829 3.43597ZM19.7662 4.80264L19.9023 4.53526L19.9022 4.53524L19.7662 4.80264ZM22.1989 13.6L21.9345 13.4582L21.9344 13.4584L22.1989 13.6ZM21.3816 14.7166L21.193 14.4833L21.193 14.4833L21.3816 14.7166ZM21.1049 14.8833L20.9935 14.6048L20.8598 14.6582L20.8179 14.796L21.1049 14.8833ZM11.0716 15.3753L11.3487 15.2603L11.2573 15.0402L11.0223 15.0794L11.0716 15.3753ZM11.0556 15.378L10.824 15.5687L10.9341 15.7024L11.1049 15.6739L11.0556 15.378ZM10.8189 15.0906L10.5507 15.225L10.5658 15.2553L10.5873 15.2814L10.8189 15.0906ZM10.8182 15.0893L11.0865 14.9549L11.0647 14.9116L11.0305 14.8773L10.8182 15.0893ZM10.8169 15.088L10.5728 15.2624L10.5872 15.2825L10.6047 15.3L10.8169 15.088ZM10.8136 15.0833L11.0577 14.9089L11.0503 14.8986L11.0422 14.889L10.8136 15.0833ZM10.8022 15.07L10.5682 15.2578L10.5737 15.2643L10.8022 15.07ZM10.6376 14.852L10.8821 14.6782L10.8812 14.6769L10.6376 14.852ZM10.2309 14.236L9.97412 14.3911L9.9742 14.3912L10.2309 14.236ZM9.29757 12.1166L9.00868 12.1975L9.00873 12.1977L9.29757 12.1166ZM9.1989 9.20131L8.90739 9.13044L8.90738 9.13048L9.1989 9.20131ZM11.0816 6.29597L11.2754 6.52497L11.3517 6.46037L11.374 6.36289L11.0816 6.29597ZM19.9289 14.0873L20.0245 13.803L19.6994 13.6936L19.6343 14.0304L19.9289 14.0873ZM20.0042 14.1126L19.9086 14.397L20.3386 14.5416L20.3033 14.0893L20.0042 14.1126ZM20.0002 13.9993L20.3002 14.0015V13.9993H20.0002ZM19.7042 11.646L19.9918 11.5605L19.9916 11.5599L19.7042 11.646ZM19.6116 11.3686L19.893 11.2647L19.8167 11.0583L19.5969 11.069L19.6116 11.3686ZM19.5842 11.37V11.67H19.5915L19.5989 11.6696L19.5842 11.37ZM19.5576 11.37V11.0699L19.5511 11.07L19.5576 11.37ZM18.0696 11.2566L18.1214 10.9611L18.1195 10.9608L18.0696 11.2566ZM13.5496 9.46264L13.7063 9.20681L13.4152 9.02856L13.2758 9.34004L13.5496 9.46264ZM13.4296 9.76464L13.147 9.66374L13.1467 9.66474L13.4296 9.76464ZM13.0989 11.038L13.393 11.097L13.3931 11.0967L13.0989 11.038ZM12.8856 12.2433L12.5896 12.1942L12.5894 12.1953L12.8856 12.2433ZM12.8609 12.3953L13.1568 12.4445L13.157 12.4434L12.8609 12.3953ZM12.6436 13.5086L12.9329 13.588L12.933 13.5874L12.6436 13.5086ZM11.2862 13.4L11.0269 13.5508L11.3683 14.1376L11.5724 13.4901L11.2862 13.4ZM10.5822 11.7566L10.2934 11.8377L10.2941 11.8403L10.5822 11.7566ZM10.4949 9.51597L10.7864 9.58699L10.7864 9.58688L10.4949 9.51597ZM12.0056 7.26064L11.8373 7.0123L11.8257 7.02016L11.8149 7.02906L12.0056 7.26064ZM12.2602 6.96531L12.5276 7.10128L12.5602 7.0372V6.96531H12.2602ZM12.2602 6.96464L11.9898 6.83473L11.9602 6.89632V6.96464H12.2602ZM12.3442 6.73997L12.0554 6.6589L12.0549 6.66061L12.3442 6.73997ZM12.4109 6.46664L12.7029 6.53547L12.7037 6.53192L12.4109 6.46664ZM12.4342 6.36197L12.1422 6.29314L12.1414 6.2967L12.4342 6.36197ZM12.7262 5.53331L12.4635 5.38842L12.4632 5.38901L12.7262 5.53331ZM13.3549 4.90864L13.4886 5.17722L13.4891 5.17697L13.3549 4.90864ZM14.8069 4.75731L14.7671 5.05466L14.7674 5.0547L14.8069 4.75731ZM19.1616 5.99064L19.0255 6.25801L19.0256 6.25804L19.1616 5.99064ZM21.2429 12.5233L20.9454 12.5621L21.0821 13.6093L21.5164 12.6467L21.2429 12.5233ZM20.9816 11.2646L20.6938 11.3494L20.6941 11.3504L20.9816 11.2646ZM20.7249 10.5733L20.9983 10.4497L20.9965 10.4459L20.7249 10.5733ZM20.5982 10.33L20.8586 10.1805L20.8521 10.1701L20.5982 10.33ZM20.5869 10.312L20.3296 10.4663L20.333 10.4718L20.5869 10.312ZM20.5829 10.3053L20.8402 10.151L20.8401 10.151L20.5829 10.3053ZM20.5809 10.302L20.8381 10.1476L20.8345 10.1415L20.8305 10.1355L20.5809 10.302ZM20.5796 10.3L20.3274 10.4625L20.33 10.4664L20.5796 10.3ZM20.3329 9.91731L20.5851 9.75477L20.4743 9.58291L20.2738 9.62318L20.3329 9.91731ZM19.8916 10.006L19.8325 9.71183L19.8287 9.71263L19.8916 10.006ZM19.8822 10.008L19.9221 10.3053L19.9337 10.3038L19.9451 10.3013L19.8822 10.008ZM19.8176 10.0166L19.851 10.3148L19.8574 10.314L19.8176 10.0166ZM19.5189 10.0366L19.5247 10.3366L19.5255 10.3366L19.5189 10.0366ZM18.2922 9.94064L18.3446 9.64523L18.3421 9.64482L18.2922 9.94064ZM13.7176 7.98731L13.5511 8.23687L13.5513 8.23702L13.7176 7.98731ZM13.2509 7.67597L13.4174 7.42641L13.2072 7.28621L13.0333 7.46944L13.2509 7.67597ZM12.8649 8.08264L13.0824 8.28929L13.0825 8.28917L12.8649 8.08264ZM12.1729 9.31864L11.8902 9.2182L11.89 9.21871L12.1729 9.31864ZM11.7916 10.7746L11.4974 10.7157L11.4971 10.7172L11.7916 10.7746ZM11.5702 12.028L11.866 12.0782L11.8666 12.0748L11.5702 12.028ZM11.5449 12.1773L11.2491 12.1271L11.2489 12.1287L11.5449 12.1773ZM11.3569 13.1573L11.0675 13.0782L11.0674 13.0787L11.3569 13.1573ZM11.0996 6.21731L11.392 6.28432L11.4287 6.12432L11.1362 6.05731L10.8438 5.99029L10.8071 6.15029L11.0996 6.21731ZM11.1362 6.05731L11.4283 6.12606C11.4968 5.83504 11.6041 5.43023 11.8205 5.03646L11.5576 4.89197L11.2947 4.74749C11.0377 5.21505 10.9157 5.68491 10.8442 5.98856L11.1362 6.05731ZM11.5576 4.89197L11.8204 5.03658C12.0396 4.63814 12.3735 4.24385 12.8935 3.98442L12.7596 3.71597L12.6256 3.44752C11.9723 3.77344 11.5582 4.26847 11.2947 4.74737L11.5576 4.89197ZM12.7596 3.71597L12.8934 3.98449C13.4123 3.72592 14.0817 3.61923 14.9435 3.73338L14.9829 3.43597L15.0223 3.13857C14.0721 3.01272 13.2762 3.12336 12.6258 3.44746L12.7596 3.71597ZM14.9829 3.43597L14.9433 3.73334C15.9362 3.86574 17.9028 4.19142 19.6302 5.07004L19.7662 4.80264L19.9022 4.53524C18.0803 3.60853 16.0296 3.27288 15.0226 3.13861L14.9829 3.43597ZM19.7662 4.80264L19.6302 5.07002C21.3634 5.95182 22.9229 7.43167 22.9229 9.87397H23.2229H23.5229C23.5229 7.11361 21.7384 5.46947 19.9023 4.53526L19.7662 4.80264ZM23.2229 9.87397H22.9229C22.9229 11.1519 22.4245 12.5443 21.9345 13.4582L22.1989 13.6L22.4633 13.7417C22.9813 12.7756 23.5229 11.2841 23.5229 9.87397H23.2229ZM22.1989 13.6L21.9344 13.4584C21.6951 13.9054 21.4311 14.291 21.193 14.4833L21.3816 14.7166L21.5701 14.95C21.908 14.677 22.2187 14.1985 22.4634 13.7416L22.1989 13.6ZM21.3816 14.7166L21.193 14.4833C21.1393 14.5267 21.0717 14.5735 20.9935 14.6048L21.1049 14.8833L21.2163 15.1619C21.3715 15.0998 21.4919 15.0132 21.5701 14.95L21.3816 14.7166ZM21.1049 14.8833L20.8179 14.796C20.5159 15.7886 19.9146 16.6636 19.0964 17.3015L19.2809 17.5381L19.4653 17.7747C20.381 17.0608 21.0539 16.0815 21.3919 14.9706L21.1049 14.8833ZM19.2809 17.5381L19.0964 17.3015C18.2782 17.9395 17.2829 18.3091 16.2467 18.3599L16.2613 18.6596L16.276 18.9592C17.4358 18.9023 18.5496 18.4887 19.4653 17.7747L19.2809 17.5381ZM16.2613 18.6596L16.2467 18.3599C15.2104 18.4107 14.1837 18.1402 13.307 17.5854L13.1466 17.8389L12.9862 18.0924C13.9673 18.7134 15.1163 19.0161 16.276 18.9592L16.2613 18.6596ZM13.1466 17.8389L13.307 17.5854C12.4303 17.0306 11.7463 16.2186 11.3487 15.2603L11.0716 15.3753L10.7945 15.4903C11.2396 16.5627 12.005 17.4715 12.9862 18.0924L13.1466 17.8389ZM11.0716 15.3753L11.0223 15.0794L11.0063 15.0821L11.0556 15.378L11.1049 15.6739L11.1209 15.6712L11.0716 15.3753ZM11.0556 15.378L11.2871 15.1872L11.0505 14.8999L10.8189 15.0906L10.5873 15.2814L10.824 15.5687L11.0556 15.378ZM10.8189 15.0906L11.0871 14.9563L11.0865 14.9549L10.8182 15.0893L10.55 15.2237L10.5507 15.225L10.8189 15.0906ZM10.8182 15.0893L11.0305 14.8773L11.0291 14.8759L10.8169 15.088L10.6047 15.3L10.606 15.3013L10.8182 15.0893ZM10.8169 15.088L11.061 14.9136L11.0577 14.9089L10.8136 15.0833L10.5695 15.2577L10.5728 15.2624L10.8169 15.088ZM10.8136 15.0833L11.0422 14.889L11.0308 14.8757L10.8022 15.07L10.5737 15.2643L10.585 15.2776L10.8136 15.0833ZM10.8022 15.07L11.0362 14.8822C10.9829 14.8157 10.9315 14.7477 10.8821 14.6782L10.6376 14.852L10.393 15.0257C10.4491 15.1047 10.5076 15.1821 10.5682 15.2577L10.8022 15.07ZM10.6376 14.852L10.8812 14.6769C10.7422 14.4835 10.6109 14.2846 10.4876 14.0807L10.2309 14.236L9.9742 14.3912C10.1057 14.6086 10.2457 14.8207 10.3939 15.027L10.6376 14.852ZM10.2309 14.236L10.4877 14.0808C10.1834 13.5772 9.81893 12.8638 9.5864 12.0356L9.29757 12.1166L9.00873 12.1977C9.26021 13.0935 9.65169 13.8574 9.97412 14.3911L10.2309 14.236ZM9.29757 12.1166L9.58646 12.0358C9.35471 11.208 9.25249 10.2514 9.49042 9.27214L9.1989 9.20131L8.90738 9.13048C8.63864 10.2366 8.75776 11.3013 9.00868 12.1975L9.29757 12.1166ZM9.1989 9.20131L9.49041 9.27217C9.72113 8.32313 10.2667 7.3786 11.2754 6.52497L11.0816 6.29597L10.8878 6.06698C9.78843 6.99735 9.17001 8.05016 8.90739 9.13044L9.1989 9.20131ZM11.0816 6.29597L11.374 6.36289L11.392 6.28422L11.0996 6.21731L10.8071 6.15039L10.7891 6.22906L11.0816 6.29597ZM12.2196 14.6426L11.9362 14.7412C12.247 15.635 12.8439 16.4014 13.6343 16.9217L13.7993 16.6711L13.9642 16.4205C13.284 15.9728 12.7704 15.3133 12.5029 14.5441L12.2196 14.6426ZM13.7993 16.6711L13.6343 16.9217C14.4248 17.442 15.3648 17.6871 16.3086 17.6191L16.2871 17.3199L16.2655 17.0206C15.4533 17.0792 14.6444 16.8682 13.9642 16.4205L13.7993 16.6711ZM16.2871 17.3199L16.3086 17.6191C17.2525 17.5511 18.1476 17.1738 18.8554 16.5456L18.6562 16.3212L18.4571 16.0969C17.848 16.6374 17.0778 16.9621 16.2655 17.0206L16.2871 17.3199ZM18.6562 16.3212L18.8554 16.5456C19.5631 15.9174 20.044 15.0734 20.2235 14.1442L19.9289 14.0873L19.6343 14.0304C19.4799 14.83 19.0661 15.5563 18.4571 16.0969L18.6562 16.3212ZM19.9289 14.0873L19.8333 14.3717L19.9086 14.397L20.0042 14.1126L20.0999 13.8283L20.0245 13.803L19.9289 14.0873ZM20.0042 14.1126L20.3033 14.0893C20.301 14.0601 20.3 14.0308 20.3002 14.0015L20.0002 13.9993L19.7002 13.9971C19.6999 14.0435 19.7015 14.0898 19.7051 14.136L20.0042 14.1126ZM20.0002 13.9993H20.3002C20.3002 12.8677 20.1429 12.0688 19.9918 11.5605L19.7042 11.646L19.4167 11.7314C19.5509 12.1831 19.7002 12.9243 19.7002 13.9993H20.0002ZM19.7042 11.646L19.9916 11.5599C19.9618 11.4605 19.9289 11.362 19.893 11.2647L19.6116 11.3686L19.3301 11.4726C19.3618 11.5582 19.3907 11.6447 19.4169 11.7321L19.7042 11.646ZM19.6116 11.3686L19.5969 11.069L19.5696 11.0703L19.5842 11.37L19.5989 11.6696L19.6262 11.6683L19.6116 11.3686ZM19.5842 11.37V11.07H19.5576V11.37V11.67H19.5842V11.37ZM19.5576 11.37L19.5511 11.07C19.0721 11.0803 18.5933 11.0439 18.1214 10.9611L18.0696 11.2566L18.0178 11.5521C18.5281 11.6416 19.046 11.681 19.564 11.6699L19.5576 11.37ZM18.0696 11.2566L18.1195 10.9608C17.0128 10.7739 15.499 10.3049 13.7063 9.20681L13.5496 9.46264L13.3929 9.71847C15.2508 10.8564 16.837 11.3527 18.0196 11.5525L18.0696 11.2566ZM13.5496 9.46264L13.2758 9.34004C13.232 9.43781 13.1891 9.54589 13.147 9.66374L13.4296 9.76464L13.7121 9.86554C13.75 9.75939 13.7871 9.66614 13.8234 9.58524L13.5496 9.46264ZM13.4296 9.76464L13.1467 9.66474C13.0092 10.0541 12.8986 10.5092 12.8047 10.9792L13.0989 11.038L13.3931 11.0967C13.4846 10.6388 13.5886 10.2152 13.7124 9.86454L13.4296 9.76464ZM13.0989 11.038L12.8048 10.979C12.7216 11.3936 12.6534 11.8103 12.5896 12.1942L12.8856 12.2433L13.1815 12.2925C13.2458 11.9057 13.3122 11.4997 13.393 11.097L13.0989 11.038ZM12.8856 12.2433L12.5894 12.1953L12.5648 12.3473L12.8609 12.3953L13.157 12.4434L13.1817 12.2914L12.8856 12.2433ZM12.8609 12.3953L12.565 12.3461C12.4955 12.7643 12.4293 13.1536 12.3541 13.4299L12.6436 13.5086L12.933 13.5874C13.0179 13.2757 13.089 12.853 13.1568 12.4445L12.8609 12.3953ZM12.6436 13.5086L12.3542 13.4293C12.2179 13.9265 12.0827 14.2656 11.956 14.4987L12.2196 14.642L12.4831 14.7852C12.6391 14.4983 12.7892 14.1121 12.9329 13.588L12.6436 13.5086ZM11.2862 13.4L11.5455 13.2491C11.257 12.7532 11.0303 12.2239 10.8703 11.673L10.5822 11.7566L10.2941 11.8403C10.4677 12.4382 10.7138 13.0127 11.0269 13.5508L11.2862 13.4ZM10.5822 11.7566L10.8711 11.6756C10.6814 10.9992 10.6165 10.2841 10.7864 9.58699L10.4949 9.51597L10.2034 9.44496C10.0026 10.2692 10.0844 11.0927 10.2934 11.8377L10.5822 11.7566ZM10.4949 9.51597L10.7864 9.58688C10.9501 8.91403 11.3477 8.19107 12.1963 7.49222L12.0056 7.26064L11.8149 7.02906C10.8728 7.80488 10.3997 8.63792 10.2034 9.44507L10.4949 9.51597ZM12.0056 7.26064L12.1739 7.50899C12.4013 7.35485 12.503 7.14973 12.5276 7.10128L12.2602 6.96531L11.9928 6.82933C11.9775 6.85955 11.9325 6.94777 11.8373 7.0123L12.0056 7.26064ZM12.2602 6.96531H12.5602V6.96464H12.2602H11.9602V6.96531H12.2602ZM12.2602 6.96464L12.5306 7.09455C12.5731 7.00609 12.6076 6.91398 12.6335 6.81934L12.3442 6.73997L12.0549 6.66061C12.0385 6.72049 12.0167 6.77876 11.9898 6.83473L12.2602 6.96464ZM12.3442 6.73997L12.6331 6.82105C12.6567 6.73699 12.6824 6.62259 12.7029 6.53547L12.4109 6.46664L12.1189 6.39781C12.0954 6.49736 12.0745 6.59095 12.0554 6.6589L12.3442 6.73997ZM12.4109 6.46664L12.7037 6.53192L12.727 6.42725L12.4342 6.36197L12.1414 6.2967L12.1181 6.40136L12.4109 6.46664ZM12.4342 6.36197L12.7262 6.43081C12.7882 6.16804 12.8629 5.90799 12.9893 5.67761L12.7262 5.53331L12.4632 5.38901C12.2963 5.69329 12.207 6.01858 12.1422 6.29314L12.4342 6.36197ZM12.7262 5.53331L12.9889 5.6782C13.1095 5.45964 13.2646 5.28867 13.4886 5.17722L13.3549 4.90864L13.2212 4.64007C12.8638 4.81794 12.6283 5.08964 12.4635 5.38842L12.7262 5.53331ZM13.3549 4.90864L13.4891 5.17697C13.7152 5.06388 14.1038 4.96596 14.7671 5.05466L14.8069 4.75731L14.8467 4.45995C14.094 4.35932 13.5786 4.4614 13.2207 4.64031L13.3549 4.90864ZM14.8069 4.75731L14.7674 5.0547C15.729 5.18243 17.5089 5.48612 19.0255 6.25801L19.1616 5.99064L19.2976 5.72328C17.6863 4.90317 15.8221 4.58952 14.8464 4.45992L14.8069 4.75731ZM19.1616 5.99064L19.0256 6.25804C20.5259 7.02108 21.5896 8.13452 21.5896 9.87331H21.8896H22.1896C22.1896 7.81876 20.9039 6.5402 19.2976 5.72324L19.1616 5.99064ZM21.8896 9.87331H21.5896C21.5896 10.6891 21.3128 11.6388 20.9694 12.4L21.2429 12.5233L21.5164 12.6467C21.8797 11.8411 22.1896 10.8042 22.1896 9.87331H21.8896ZM21.2429 12.5233L21.5404 12.4845C21.4716 11.9578 21.3723 11.5248 21.269 11.1789L20.9816 11.2646L20.6941 11.3504C20.7882 11.6658 20.8808 12.0674 20.9454 12.5621L21.2429 12.5233ZM20.9816 11.2646L21.2694 11.1799C21.1959 10.9305 21.1054 10.6866 20.9983 10.4497L20.7249 10.5733L20.4516 10.6969C20.5472 10.9085 20.6282 11.1266 20.6938 11.3494L20.9816 11.2646ZM20.7249 10.5733L20.9965 10.4459C20.9541 10.3556 20.9081 10.2671 20.8584 10.1806L20.5982 10.33L20.3381 10.4793C20.3795 10.5515 20.418 10.6254 20.4533 10.7008L20.7249 10.5733ZM20.5982 10.33L20.8521 10.1701L20.8408 10.1521L20.5869 10.312L20.333 10.4718L20.3444 10.4898L20.5982 10.33ZM20.5869 10.312L20.8442 10.1577L20.8402 10.151L20.5829 10.3053L20.3256 10.4596L20.3296 10.4663L20.5869 10.312ZM20.5829 10.3053L20.8401 10.151L20.8381 10.1476L20.5809 10.302L20.3237 10.4563L20.3257 10.4597L20.5829 10.3053ZM20.5809 10.302L20.8305 10.1355L20.8292 10.1335L20.5796 10.3L20.33 10.4664L20.3313 10.4684L20.5809 10.302ZM20.5796 10.3L20.8317 10.1374L20.5851 9.75477L20.3329 9.91731L20.0807 10.0798L20.3274 10.4625L20.5796 10.3ZM20.3329 9.91731L20.2738 9.62318L19.8325 9.71185L19.8916 10.006L19.9507 10.3001L20.392 10.2114L20.3329 9.91731ZM19.8916 10.006L19.8287 9.71263L19.8194 9.71463L19.8822 10.008L19.9451 10.3013L19.9544 10.2993L19.8916 10.006ZM19.8822 10.008L19.8424 9.71063L19.7777 9.7193L19.8176 10.0166L19.8574 10.314L19.9221 10.3053L19.8822 10.008ZM19.8176 10.0166L19.7841 9.71851C19.6938 9.72865 19.6031 9.73472 19.5123 9.73671L19.5189 10.0366L19.5255 10.3366C19.6343 10.3342 19.7429 10.3269 19.851 10.3148L19.8176 10.0166ZM19.5189 10.0366L19.5131 9.7367C19.1216 9.74421 18.7302 9.71358 18.3446 9.64524L18.2922 9.94064L18.2399 10.236C18.6639 10.3112 19.0942 10.3448 19.5247 10.3366L19.5189 10.0366ZM18.2922 9.94064L18.3421 9.64482C17.3089 9.47058 15.7685 8.99249 13.8838 7.7376L13.7176 7.98731L13.5513 8.23702C15.5053 9.53812 17.1249 10.048 18.2423 10.2365L18.2922 9.94064ZM13.7176 7.98731L13.8841 7.73775L13.4174 7.42641L13.2509 7.67597L13.0844 7.92553L13.5511 8.23687L13.7176 7.98731ZM13.2509 7.67597L13.0333 7.46944L12.6473 7.87611L12.8649 8.08264L13.0825 8.28917L13.4685 7.8825L13.2509 7.67597ZM12.8649 8.08264L12.6474 7.87599C12.2863 8.256 12.0532 8.75947 11.8902 9.2182L12.1729 9.31864L12.4556 9.41909C12.6086 8.98847 12.8075 8.57861 13.0824 8.28929L12.8649 8.08264ZM12.1729 9.31864L11.89 9.21871C11.7219 9.69471 11.5966 10.2204 11.4974 10.7157L11.7916 10.7746L12.0857 10.8336C12.1825 10.3502 12.3013 9.85591 12.4558 9.41857L12.1729 9.31864ZM11.7916 10.7746L11.4971 10.7172C11.4151 11.1371 11.3407 11.5585 11.2739 11.9811L11.5702 12.028L11.8666 12.0748C11.9322 11.6593 12.0054 11.245 12.086 10.8321L11.7916 10.7746ZM11.5702 12.028L11.2745 11.9778L11.2491 12.1271L11.5449 12.1773L11.8407 12.2275L11.866 12.0781L11.5702 12.028ZM11.5449 12.1773L11.2489 12.1287C11.1768 12.5673 11.1212 12.8817 11.0675 13.0782L11.3569 13.1573L11.6463 13.2364C11.7099 13.0036 11.7704 12.6553 11.8409 12.226L11.5449 12.1773ZM11.3569 13.1573L11.0674 13.0787C11.0442 13.164 11.0218 13.241 11.0001 13.3098L11.2862 13.4L11.5724 13.4901C11.5969 13.4123 11.6216 13.3275 11.6464 13.2359L11.3569 13.1573Z" fill="#9EA1B0" mask="url(#path-1-outside-1_747_1709)"/>
<path d="M20.7002 18.5291C21.4397 18.6967 22.1833 18.9311 22.8994 19.2156L22.9951 19.1697L23.0508 19.2772C24.4143 19.8369 25.6762 20.587 26.6025 21.451C27.5382 22.3237 28.1503 23.329 28.1504 24.3797V28.1502H3.84961V24.3797C3.84973 23.0473 4.83322 21.7876 6.22754 20.7703C7.62899 19.7479 9.48128 18.9431 11.2998 18.5291C11.5243 18.4777 11.6933 18.5936 11.8086 18.7274C11.9206 18.8573 12.0079 19.0318 12.0762 19.1678L12.0918 19.199H19.7461C19.8275 19.0595 19.9418 18.8965 20.0771 18.7664C20.2326 18.6171 20.4544 18.4729 20.7002 18.5291ZM20.7705 20.7527L20.7285 20.8328H11.1045L11.0625 20.7527L10.8428 20.3367C10.8353 20.339 10.8278 20.3413 10.8203 20.3436C10.8196 20.3569 10.8189 20.3712 10.8184 20.3856C10.8139 20.5741 10.8217 20.7626 10.8408 20.95L10.8643 21.1385V21.1404C10.897 21.3882 10.9475 21.6334 11.0156 21.8738L11.0166 21.8797C11.4824 21.9566 11.9113 22.1833 12.2354 22.5291C12.5819 22.8989 12.7866 23.3795 12.8135 23.8856C12.8402 24.3917 12.6874 24.8914 12.3818 25.2957C12.0761 25.7001 11.637 25.9843 11.1426 26.0965C10.6483 26.2087 10.13 26.1426 9.67969 25.91C9.22929 25.6772 8.87512 25.2922 8.68066 24.824C8.48628 24.3559 8.46421 23.8337 8.61719 23.3504C8.75892 22.9029 9.04335 22.516 9.4248 22.2459C9.30928 21.82 9.23695 21.3841 9.2041 20.9442C8.46221 21.2751 7.77256 21.6641 7.18945 22.0897C5.92037 23.0154 5.48354 23.8512 5.4834 24.3797V26.5164H26.5166V24.3797C26.5165 23.8512 26.0796 23.0154 24.8105 22.0897C24.3476 21.7524 23.8181 21.4391 23.249 21.158C23.2238 21.3904 23.1875 21.6214 23.1406 21.8504H23.333C23.4846 21.8505 23.6337 21.8927 23.7627 21.9725C23.8915 22.0522 23.9957 22.166 24.0635 22.3016L24.7305 23.6346C24.7873 23.7479 24.8163 23.8731 24.8164 23.9998V25.3328C24.8164 25.5494 24.7303 25.7578 24.5771 25.9109C24.424 26.0639 24.2165 26.1502 24 26.1502H22.5166V24.5164H23.1836V24.1932L22.8281 23.4832H21.1719L20.8164 24.1932V24.5164H21.4834V26.1502H20C19.7835 26.1502 19.576 26.0639 19.4229 25.9109C19.2697 25.7578 19.1836 25.5494 19.1836 25.3328V23.9998L19.1885 23.9051C19.1995 23.8112 19.227 23.7195 19.2695 23.6346L19.9365 22.3016C20.0043 22.166 20.1085 22.0522 20.2373 21.9725C20.3663 21.8927 20.5154 21.8505 20.667 21.8504H21.4609C21.5259 21.6174 21.5756 21.3803 21.6074 21.1404V21.1395C21.6383 20.912 21.6536 20.6904 21.6533 20.4959C21.4405 20.4235 21.2263 20.3566 21.0107 20.2947L20.7705 20.7527ZM10.667 23.4744C10.3905 23.4744 10.1504 23.701 10.1504 24.0008C10.1505 24.3 10.3906 24.5272 10.667 24.5272C10.9433 24.527 11.1835 24.3004 11.1836 24.0008C11.1836 23.7017 10.9433 23.4746 10.667 23.4744Z" fill="#9EA1B0" stroke="#9EA1B0" stroke-width="0.3"/>
</svg>
