<svg width="32" height="32" viewBox="0 0 32 32" fill="none" xmlns="http://www.w3.org/2000/svg">
<path fill-rule="evenodd" clip-rule="evenodd" d="M22.5555 9.20666C22.5555 11.514 21.9822 14.5233 21.1002 14.0667C20.7395 15.2445 19.9824 16.2612 18.9572 16.9441C17.9321 17.627 16.7022 17.9341 15.4763 17.8131C14.2505 17.6922 13.1043 17.1507 12.2323 16.2807C11.3604 15.4106 10.8164 14.2656 10.6929 13.04C9.81754 11.5087 8.66954 8.44 11.6209 6.048C11.6742 6.03066 11.7062 5.88666 11.7542 5.67466C11.9369 4.87266 12.3415 3.09 14.8942 3.43066C16.8629 3.69266 22.5555 4.70866 22.5555 9.20666ZM20.0182 10.662C20.0182 10.662 19.7169 11.5433 19.9995 12.5253C19.9959 13.5724 19.5818 14.5763 18.8462 15.3214C18.1106 16.0666 17.1122 16.4936 16.0652 16.5108C15.0183 16.528 14.0064 16.134 13.2467 15.4134C12.4871 14.6928 12.0403 13.703 12.0022 12.6567C12.0989 12.29 12.0989 11.6693 12.0982 10.9793C12.0975 9.73466 12.0962 8.266 12.6662 7.66733C16.6589 10.3267 20.0182 10.662 20.0182 10.662Z" fill="white"/>
<path d="M8.66667 24C8.66667 23.2787 9.04867 22.6467 9.622 22.2947C9.60022 22.2117 9.57977 22.1283 9.56067 22.0447C9.4599 21.5891 9.38092 21.129 9.324 20.666C9.26714 20.2222 9.23265 19.7759 9.22067 19.3287C6.40667 20.4333 4 22.3586 4 24.38V28H28V24.38C28 22.444 25.7933 20.5966 23.1347 19.4733V19.492C23.1467 19.8987 23.124 20.3653 23.08 20.814C23.04 21.23 22.9807 21.6447 22.9093 22H23.3333C23.4571 22 23.5784 22.0346 23.6837 22.0997C23.7889 22.1648 23.874 22.2579 23.9293 22.3687L24.596 23.702C24.6427 23.7947 24.6667 23.8967 24.6667 24V25.3333C24.6667 25.5101 24.5964 25.6797 24.4714 25.8047C24.3464 25.9297 24.1768 26 24 26H22.6667V24.6667H23.3333V24.1573L22.9213 23.3333H21.0787L20.6667 24.1573V24.6667H21.3333V26H20C19.8232 26 19.6536 25.9297 19.5286 25.8047C19.4036 25.6797 19.3333 25.5101 19.3333 25.3333V24C19.3333 23.8967 19.3573 23.7947 19.404 23.702L20.0707 22.3687C20.126 22.2579 20.2111 22.1648 20.3163 22.0997C20.4216 22.0346 20.5429 22 20.6667 22H21.5433C21.558 21.9427 21.5727 21.8791 21.5873 21.8093C21.654 21.4953 21.7133 21.0973 21.7533 20.686C21.7933 20.274 21.812 19.8653 21.802 19.5293C21.7998 19.3901 21.7889 19.2512 21.7693 19.1133C21.7547 19.0187 21.74 18.9753 21.7373 18.966C21.7364 18.9638 21.7364 18.9633 21.7373 18.9647L21.7393 18.964C21.3856 18.8542 21.0277 18.758 20.6667 18.6753C20.3313 18.5987 19.9847 19.06 19.8333 19.3487H12L11.9427 19.2366C11.8013 18.9553 11.6273 18.608 11.3333 18.6753C11.0764 18.7335 10.8198 18.7995 10.5633 18.8733C10.5554 18.9903 10.5518 19.1074 10.5527 19.2247C10.5553 19.5933 10.5907 20.0446 10.6473 20.5006C10.704 20.9553 10.7807 21.398 10.8607 21.7473C10.8838 21.8482 10.906 21.938 10.9273 22.0167C11.3085 22.0668 11.6671 22.2256 11.9603 22.4743C12.2535 22.7229 12.4688 23.0508 12.5804 23.4186C12.6921 23.7865 12.6954 24.1787 12.5899 24.5484C12.4844 24.9181 12.2746 25.2495 11.9857 25.503C11.6967 25.7565 11.3408 25.9214 10.9605 25.9779C10.5803 26.0344 10.1918 25.9801 9.84161 25.8215C9.49142 25.6629 9.19436 25.4067 8.98598 25.0837C8.7776 24.7607 8.66674 24.3844 8.66667 24Z" fill="white"/>
<path d="M11.3333 24C11.3333 24.3827 11.0253 24.6767 10.6667 24.6767C10.308 24.6767 10 24.3833 10 24C10 23.6173 10.308 23.3233 10.6667 23.3233C11.0253 23.3233 11.3333 23.6167 11.3333 24Z" fill="white"/>
</svg>
