<svg width="16" height="16" viewBox="0 0 23 23" fill="none" xmlns="http://www.w3.org/2000/svg">
<path d="M4.24784 11.349L1.5094 12.4056L4.11487 19.1403L6.85331 18.0801L6.63049 17.5051L7.18752 17.2931L12.9375 18.6875C13.5118 18.8278 14.1154 18.7876 14.6661 18.5725L20.47 16.3264C20.8718 16.1686 21.1944 15.8578 21.3669 15.4622C21.5395 15.0665 21.5478 14.6186 21.39 14.2169C21.2323 13.8151 20.9214 13.4925 20.5258 13.32C20.1302 13.1474 19.6822 13.1391 19.2805 13.2969L16.1719 14.4936L16.1467 14.4181C16.041 14.1071 15.8685 13.8231 15.6412 13.5859C15.414 13.3488 15.1376 13.1642 14.8314 13.0453L9.08143 10.8495C8.51831 10.6321 7.8944 10.6321 7.33127 10.8495L4.47424 11.9564L4.24784 11.349ZM7.12284 16.4737L6.34299 16.7756L4.76174 12.6895L7.63674 11.5826C8.01864 11.437 8.44079 11.437 8.82268 11.5826L14.5727 13.782C14.7715 13.8577 14.951 13.9766 15.0983 14.1301C15.2456 14.2836 15.357 14.4679 15.4244 14.6697L15.4603 14.7775L15.3022 14.8386C14.8269 15.0247 14.301 15.0362 13.818 14.8709L10.0625 13.5951L9.81096 14.339L13.5592 15.6112C14.2169 15.8325 14.9313 15.8173 15.5789 15.5681L15.7011 15.5178L16.0856 15.3704L19.5644 14.0156C19.6681 13.9692 19.7801 13.9444 19.8937 13.9426C20.0073 13.9409 20.12 13.9623 20.2251 14.0055C20.3301 14.0487 20.4253 14.1129 20.5048 14.194C20.5842 14.2752 20.6464 14.3717 20.6874 14.4776C20.7284 14.5835 20.7474 14.6967 20.7433 14.8102C20.7392 14.9237 20.712 15.0352 20.6634 15.1379C20.6149 15.2406 20.5459 15.3323 20.4608 15.4075C20.3756 15.4827 20.2761 15.5398 20.1681 15.5753L14.375 17.8286C13.9726 17.9831 13.5328 18.0119 13.1136 17.9112L7.12284 16.4737Z" fill="white"/>
<path d="M15.1871 3.85936C14.4292 3.85865 13.6882 4.08273 13.0577 4.50324C12.4273 4.92376 11.9357 5.52182 11.6452 6.22177C11.3547 6.92172 11.2783 7.69211 11.4257 8.43547C11.5731 9.17884 11.9377 9.86178 12.4733 10.3979C13.0089 10.934 13.6915 11.2993 14.4348 11.4474C15.178 11.5955 15.9485 11.5198 16.6487 11.23C17.3489 10.9401 17.9474 10.4491 18.3685 9.81903C18.7896 9.18895 19.0144 8.44814 19.0144 7.6903C19.0135 6.67518 18.61 5.70187 17.8926 4.98374C17.1751 4.2656 16.2022 3.86126 15.1871 3.85936ZM15.1871 11.0253C14.5273 11.026 13.8822 10.831 13.3333 10.465C12.7844 10.099 12.3563 9.57837 12.1034 8.96904C11.8504 8.35971 11.7838 7.68904 11.9121 7.04188C12.0404 6.39472 12.3577 5.80014 12.824 5.33337C13.2903 4.8666 13.8845 4.54862 14.5315 4.41965C15.1786 4.29067 15.8493 4.35651 16.4589 4.60882C17.0685 4.86113 17.5896 5.28858 17.9562 5.8371C18.3228 6.38562 18.5185 7.03055 18.5185 7.6903C18.5175 8.57388 18.1664 9.42106 17.5419 10.0462C16.9175 10.6713 16.0707 11.0234 15.1871 11.0253Z" fill="white"/>
<path d="M15.3381 7.01831V5.5808C15.4861 5.61709 15.627 5.67782 15.755 5.76049C15.8913 5.85553 16.0063 5.97792 16.0928 6.11987C16.1924 6.28205 16.2686 6.45748 16.3192 6.64096H16.445V5.70659C16.1065 5.50783 15.7288 5.3852 15.3381 5.34721V5.19627H15.0578V5.34721C14.6985 5.36939 14.3569 5.51107 14.0875 5.74971C13.9857 5.84515 13.9046 5.96036 13.849 6.08828C13.7933 6.2162 13.7644 6.35413 13.764 6.49362C13.7552 6.74862 13.8453 6.99716 14.0156 7.18721C14.3268 7.49172 14.6759 7.75501 15.0542 7.97065V9.56987C14.8705 9.55864 14.691 9.511 14.5259 9.42971C14.378 9.35464 14.2536 9.24024 14.1665 9.09909C14.0621 8.92227 13.9926 8.72708 13.9617 8.52409H13.8251V9.56987C14.022 9.64721 14.2252 9.70733 14.4325 9.74955C14.634 9.78712 14.8384 9.80636 15.0434 9.80706V10.1664H15.3237V9.78909C15.6729 9.77526 16.005 9.63473 16.2581 9.39377C16.3687 9.28325 16.4557 9.15139 16.5137 9.00621C16.5718 8.86103 16.5998 8.70556 16.5959 8.54924C16.6014 8.25871 16.5005 7.9762 16.312 7.75502C16.018 7.47141 15.691 7.22407 15.3381 7.01831ZM15.0578 6.82784C14.8684 6.71885 14.6994 6.5778 14.5582 6.41096C14.5146 6.35761 14.4828 6.29558 14.465 6.22899C14.4472 6.1624 14.4438 6.09278 14.4551 6.02478C14.4663 5.95677 14.4919 5.89194 14.5301 5.83459C14.5683 5.77725 14.6184 5.72871 14.6768 5.69221C14.7893 5.61458 14.9212 5.56978 15.0578 5.56284V6.82784ZM15.7478 9.34346C15.6398 9.4612 15.4956 9.5396 15.3381 9.56627V8.16471C15.5005 8.27483 15.6437 8.41079 15.7621 8.56721C15.8362 8.68187 15.8761 8.81525 15.8771 8.95174C15.882 9.09355 15.8361 9.23243 15.7478 9.34346Z" fill="white"/>
</svg>
