<svg width="16" height="16" viewBox="0 0 16 16" fill="none" xmlns="http://www.w3.org/2000/svg">
<g id="Group 1000006129">
<path id="Vector" d="M12.875 3.50013C12.6278 3.50013 12.3861 3.57344 12.1805 3.71079C11.975 3.84814 11.8148 4.04337 11.7202 4.27178C11.6255 4.50018 11.6008 4.75152 11.649 4.99399C11.6972 5.23647 11.8163 5.4592 11.9911 5.63401C12.1659 5.80883 12.3887 5.92788 12.6311 5.97611C12.8736 6.02434 13.1249 5.99959 13.3534 5.90498C13.5818 5.81037 13.777 5.65015 13.9143 5.44459C14.0517 5.23903 14.125 4.99736 14.125 4.75013C14.1249 4.41864 13.9932 4.10075 13.7588 3.86636C13.5244 3.63196 13.2065 3.50023 12.875 3.50013ZM0.75 0.750122C0.601664 0.750122 0.456659 0.794109 0.333323 0.87652C0.209986 0.958931 0.113856 1.07606 0.0570907 1.21311C0.000324965 1.35015 -0.0145275 1.50095 0.0144114 1.64644C0.0433503 1.79193 0.114781 1.92556 0.21967 2.03045C0.32456 2.13534 0.458197 2.20677 0.603683 2.23571C0.749168 2.26465 0.899968 2.2498 1.03701 2.19303C1.17406 2.13627 1.29119 2.04014 1.3736 1.9168C1.45601 1.79346 1.5 1.64846 1.5 1.50012C1.49984 1.30126 1.42077 1.11058 1.28016 0.969966C1.13954 0.829348 0.948864 0.75028 0.75 0.750122ZM0.75 1.75012C0.700555 1.75012 0.65222 1.73546 0.611108 1.70799C0.569996 1.68052 0.537952 1.64147 0.51903 1.59579C0.500109 1.55011 0.495158 1.49984 0.504804 1.45135C0.51445 1.40285 0.538261 1.35831 0.573224 1.32335C0.608187 1.28838 0.652733 1.26457 0.701228 1.25493C0.749723 1.24528 0.79999 1.25023 0.845671 1.26915C0.891353 1.28807 0.930397 1.32012 0.957868 1.36123C0.985338 1.40234 1 1.45068 1 1.50012C0.999805 1.56637 0.973404 1.62984 0.926562 1.67668C0.87972 1.72353 0.816245 1.74993 0.75 1.75012ZM2.75 0.00012207C2.60166 0.00012207 2.45666 0.0441088 2.33332 0.12652C2.20999 0.208931 2.11386 0.326065 2.05709 0.463109C2.00032 0.600154 1.98547 0.750954 2.01441 0.89644C2.04335 1.04193 2.11478 1.17556 2.21967 1.28045C2.32456 1.38534 2.4582 1.45677 2.60368 1.48571C2.74917 1.51465 2.89997 1.4998 3.03701 1.44303C3.17406 1.38627 3.29119 1.29014 3.3736 1.1668C3.45601 1.04346 3.5 0.898458 3.5 0.750122C3.49984 0.551258 3.42077 0.360584 3.28016 0.219966C3.13954 0.0793479 2.94886 0.000279648 2.75 0.00012207ZM2.75 1.00012C2.70055 1.00012 2.65222 0.98546 2.61111 0.957989C2.57 0.930519 2.53795 0.891474 2.51903 0.845793C2.50011 0.800111 2.49516 0.749845 2.5048 0.701349C2.51445 0.652854 2.53826 0.608308 2.57322 0.573345C2.60819 0.538382 2.65273 0.514572 2.70123 0.504926C2.74972 0.495279 2.79999 0.50023 2.84567 0.519152C2.89135 0.538074 2.9304 0.570117 2.95787 0.61123C2.98534 0.652342 3 0.700677 3 0.750122C2.99981 0.816366 2.9734 0.879842 2.92656 0.926683C2.87972 0.973525 2.81624 0.999927 2.75 1.00012ZM10.375 12.2501C10.1278 12.2501 9.8861 12.3234 9.68054 12.4608C9.47498 12.5981 9.31476 12.7934 9.22015 13.0218C9.12554 13.2502 9.10079 13.5015 9.14902 13.744C9.19725 13.9865 9.3163 14.2092 9.49112 14.384C9.66593 14.5588 9.88866 14.6779 10.1311 14.7261C10.3736 14.7743 10.6249 14.7496 10.8534 14.655C11.0818 14.5604 11.277 14.4002 11.4143 14.1946C11.5517 13.989 11.625 13.7474 11.625 13.5001C11.6249 13.1686 11.4932 12.8508 11.2588 12.6164C11.0244 12.382 10.7065 12.2502 10.375 12.2501ZM2.875 2.00012C2.70194 2.00012 2.53277 2.05144 2.38888 2.14759C2.24498 2.24373 2.13283 2.38039 2.06661 2.54027C2.00038 2.70016 1.98305 2.87609 2.01681 3.04583C2.05058 3.21556 2.13391 3.37147 2.25628 3.49384C2.37865 3.61621 2.53456 3.69955 2.7043 3.73331C2.87403 3.76707 3.04996 3.74974 3.20985 3.68352C3.36973 3.61729 3.50639 3.50514 3.60254 3.36125C3.69868 3.21735 3.75 3.04818 3.75 2.87512C3.74975 2.64314 3.65748 2.42072 3.49344 2.25669C3.3294 2.09265 3.10699 2.00038 2.875 2.00012ZM2.875 3.25012C2.80083 3.25012 2.72833 3.22813 2.66666 3.18692C2.60499 3.14572 2.55693 3.08715 2.52855 3.01863C2.50016 2.95011 2.49274 2.87471 2.50721 2.80196C2.52168 2.72922 2.55739 2.6624 2.60984 2.60996C2.66228 2.55751 2.7291 2.5218 2.80184 2.50733C2.87458 2.49286 2.94998 2.50028 3.01851 2.52867C3.08703 2.55705 3.1456 2.60511 3.1868 2.66678C3.22801 2.72845 3.25 2.80095 3.25 2.87512C3.24971 2.97449 3.21011 3.0697 3.13984 3.13997C3.06958 3.21023 2.97437 3.24983 2.875 3.25012ZM11.7786 12.4594C11.879 12.5944 11.9594 12.7432 12.0172 12.9012C12.6252 12.6447 13.1655 12.2506 13.5954 11.7499C14.0254 11.2493 14.3333 10.6557 14.495 10.0159C14.6567 9.37602 14.6677 8.7074 14.5272 8.06258C14.3867 7.41777 14.0986 6.81434 13.6854 6.29976C13.526 6.38318 13.3547 6.44133 13.1776 6.47212C13.5769 6.92287 13.8623 7.46277 14.01 8.04658C14.1577 8.63039 14.1632 9.24108 14.0262 9.82748C13.8892 10.4139 13.6136 10.9589 13.2225 11.4168C12.8315 11.8748 12.3363 12.2323 11.7786 12.4594ZM4.5 4.25013H0.25C0.183696 4.25013 0.120108 4.27647 0.0732236 4.32335C0.0263395 4.37024 3.3753e-07 4.43383 3.3753e-07 4.50013C3.3753e-07 4.56643 0.0263395 4.63002 0.0732236 4.67691C0.120108 4.72379 0.183696 4.75013 0.25 4.75013H0.375V5.25012H1C1.0663 5.25012 1.12989 5.27646 1.17678 5.32335C1.22366 5.37023 1.25 5.43382 1.25 5.50012C1.25 5.56643 1.22366 5.63001 1.17678 5.6769C1.12989 5.72378 1.0663 5.75012 1 5.75012H0.375V6.00012H1C1.0663 6.00012 1.12989 6.02646 1.17678 6.07335C1.22366 6.12023 1.25 6.18382 1.25 6.25012C1.25 6.31643 1.22366 6.38001 1.17678 6.4269C1.12989 6.47378 1.0663 6.50012 1 6.50012H0.375V6.75012H1C1.0663 6.75012 1.12989 6.77646 1.17678 6.82335C1.22366 6.87023 1.25 6.93382 1.25 7.00012C1.25 7.06643 1.22366 7.13001 1.17678 7.1769C1.12989 7.22378 1.0663 7.25012 1 7.25012H0.375V7.50012H1C1.0663 7.50012 1.12989 7.52646 1.17678 7.57335C1.22366 7.62023 1.25 7.68382 1.25 7.75012C1.25 7.81643 1.22366 7.88001 1.17678 7.9269C1.12989 7.97378 1.0663 8.00012 1 8.00012H0.375V8.25012H1C1.0663 8.25012 1.12989 8.27646 1.17678 8.32335C1.22366 8.37023 1.25 8.43382 1.25 8.50012C1.25 8.56643 1.22366 8.63001 1.17678 8.6769C1.12989 8.72378 1.0663 8.75012 1 8.75012H0.375V9.00012H1C1.0663 9.00012 1.12989 9.02646 1.17678 9.07335C1.22366 9.12023 1.25 9.18382 1.25 9.25012C1.25 9.31643 1.22366 9.38001 1.17678 9.4269C1.12989 9.47378 1.0663 9.50012 1 9.50012H0.375V9.75012H1C1.0663 9.75012 1.12989 9.77646 1.17678 9.82335C1.22366 9.87023 1.25 9.93382 1.25 10.0001C1.25 10.0664 1.22366 10.13 1.17678 10.1769C1.12989 10.2238 1.0663 10.2501 1 10.2501H0.375V10.5001H1C1.0663 10.5001 1.12989 10.5265 1.17678 10.5733C1.22366 10.6202 1.25 10.6838 1.25 10.7501C1.25 10.8164 1.22366 10.88 1.17678 10.9269C1.12989 10.9738 1.0663 11.0001 1 11.0001H0.375V11.2501H1C1.0663 11.2501 1.12989 11.2765 1.17678 11.3233C1.22366 11.3702 1.25 11.4338 1.25 11.5001C1.25 11.5664 1.22366 11.63 1.17678 11.6769C1.12989 11.7238 1.0663 11.7501 1 11.7501H0.375V12.0001H1C1.0663 12.0001 1.12989 12.0265 1.17678 12.0733C1.22366 12.1202 1.25 12.1838 1.25 12.2501C1.25 12.3164 1.22366 12.38 1.17678 12.4269C1.12989 12.4738 1.0663 12.5001 1 12.5001H0.375V12.7501H1C1.0663 12.7501 1.12989 12.7765 1.17678 12.8233C1.22366 12.8702 1.25 12.9338 1.25 13.0001C1.25 13.0664 1.22366 13.13 1.17678 13.1769C1.12989 13.2238 1.0663 13.2501 1 13.2501H0.375V13.5001H1C1.0663 13.5001 1.12989 13.5265 1.17678 13.5733C1.22366 13.6202 1.25 13.6838 1.25 13.7501C1.25 13.8164 1.22366 13.88 1.17678 13.9269C1.12989 13.9738 1.0663 14.0001 1 14.0001H0.375V14.2501H1C1.0663 14.2501 1.12989 14.2765 1.17678 14.3233C1.22366 14.3702 1.25 14.4338 1.25 14.5001C1.25 14.5664 1.22366 14.63 1.17678 14.6769C1.12989 14.7238 1.0663 14.7501 1 14.7501H0.375V14.7571C0.377294 15.0886 0.510969 15.4056 0.746703 15.6386C0.982436 15.8716 1.30098 16.0017 1.63245 16.0001H3.11755C3.44902 16.0017 3.76757 15.8716 4.0033 15.6386C4.23903 15.4056 4.37271 15.0886 4.375 14.7571V14.7501H3.75C3.6837 14.7501 3.62011 14.7238 3.57322 14.6769C3.52634 14.63 3.5 14.5664 3.5 14.5001C3.5 14.4338 3.52634 14.3702 3.57322 14.3233C3.62011 14.2765 3.6837 14.2501 3.75 14.2501H4.375V14.0001H3.75C3.6837 14.0001 3.62011 13.9738 3.57322 13.9269C3.52634 13.88 3.5 13.8164 3.5 13.7501C3.5 13.6838 3.52634 13.6202 3.57322 13.5733C3.62011 13.5265 3.6837 13.5001 3.75 13.5001H4.375V13.2501H3.75C3.6837 13.2501 3.62011 13.2238 3.57322 13.1769C3.52634 13.13 3.5 13.0664 3.5 13.0001C3.5 12.9338 3.52634 12.8702 3.57322 12.8233C3.62011 12.7765 3.6837 12.7501 3.75 12.7501H4.375V12.5001H3.75C3.6837 12.5001 3.62011 12.4738 3.57322 12.4269C3.52634 12.38 3.5 12.3164 3.5 12.2501C3.5 12.1838 3.52634 12.1202 3.57322 12.0733C3.62011 12.0265 3.6837 12.0001 3.75 12.0001H4.375V11.7501H3.75C3.6837 11.7501 3.62011 11.7238 3.57322 11.6769C3.52634 11.63 3.5 11.5664 3.5 11.5001C3.5 11.4338 3.52634 11.3702 3.57322 11.3233C3.62011 11.2765 3.6837 11.2501 3.75 11.2501H4.375V11.0001H3.75C3.6837 11.0001 3.62011 10.9738 3.57322 10.9269C3.52634 10.88 3.5 10.8164 3.5 10.7501C3.5 10.6838 3.52634 10.6202 3.57322 10.5733C3.62011 10.5265 3.6837 10.5001 3.75 10.5001H4.375V10.2501H3.75C3.6837 10.2501 3.62011 10.2238 3.57322 10.1769C3.52634 10.13 3.5 10.0664 3.5 10.0001C3.5 9.93382 3.52634 9.87023 3.57322 9.82335C3.62011 9.77646 3.6837 9.75012 3.75 9.75012H4.375V9.50012H3.75C3.6837 9.50012 3.62011 9.47378 3.57322 9.4269C3.52634 9.38001 3.5 9.31643 3.5 9.25012C3.5 9.18382 3.52634 9.12023 3.57322 9.07335C3.62011 9.02646 3.6837 9.00012 3.75 9.00012H4.375V8.75012H3.75C3.6837 8.75012 3.62011 8.72378 3.57322 8.6769C3.52634 8.63001 3.5 8.56643 3.5 8.50012C3.5 8.43382 3.52634 8.37023 3.57322 8.32335C3.62011 8.27646 3.6837 8.25012 3.75 8.25012H4.375V8.00012H3.75C3.6837 8.00012 3.62011 7.97378 3.57322 7.9269C3.52634 7.88001 3.5 7.81643 3.5 7.75012C3.5 7.68382 3.52634 7.62023 3.57322 7.57335C3.62011 7.52646 3.6837 7.50012 3.75 7.50012H4.375V7.25012H3.75C3.6837 7.25012 3.62011 7.22378 3.57322 7.1769C3.52634 7.13001 3.5 7.06643 3.5 7.00012C3.5 6.93382 3.52634 6.87023 3.57322 6.82335C3.62011 6.77646 3.6837 6.75012 3.75 6.75012H4.375V6.50012H3.75C3.6837 6.50012 3.62011 6.47378 3.57322 6.4269C3.52634 6.38001 3.5 6.31643 3.5 6.25012C3.5 6.18382 3.52634 6.12023 3.57322 6.07335C3.62011 6.02646 3.6837 6.00012 3.75 6.00012H4.375V5.75012H3.75C3.6837 5.75012 3.62011 5.72378 3.57322 5.6769C3.52634 5.63001 3.5 5.56643 3.5 5.50012C3.5 5.43382 3.52634 5.37023 3.57322 5.32335C3.62011 5.27646 3.6837 5.25012 3.75 5.25012H4.375V4.75013H4.5C4.5663 4.75013 4.62989 4.72379 4.67678 4.67691C4.72366 4.63002 4.75 4.56643 4.75 4.50013C4.75 4.43383 4.72366 4.37024 4.67678 4.32335C4.62989 4.27647 4.5663 4.25013 4.5 4.25013ZM10.09 7.41262L7.57875 4.80137L7.2425 4.45137C7.22495 4.43248 7.20422 4.41683 7.18125 4.40512C7.15916 4.39366 7.13561 4.38525 7.11125 4.38012C7.09524 4.37661 7.07889 4.37493 7.0625 4.37512C6.99767 4.37489 6.93531 4.40001 6.88875 4.44512C6.84109 4.49125 6.81366 4.55439 6.81249 4.62071C6.81132 4.68702 6.8365 4.75109 6.8825 4.79887L7.8075 5.76012L6.42375 7.12887C6.37021 7.17975 6.32731 7.24075 6.29753 7.30834C6.26776 7.37593 6.25171 7.44877 6.25031 7.52261C6.24892 7.59646 6.2622 7.66984 6.2894 7.73851C6.3166 7.80718 6.35717 7.86976 6.40875 7.92262L6.925 8.45262C7.0307 8.55859 7.17334 8.61948 7.32298 8.62251C7.47261 8.62554 7.6176 8.57047 7.7275 8.46887L9.1025 7.10762L10.0075 8.04887C10.0195 8.06073 10.0325 8.0716 10.0463 8.08137C10.0818 8.10522 10.1228 8.11969 10.1654 8.1234C10.208 8.12712 10.2509 8.11997 10.29 8.10262C10.3012 8.09753 10.3121 8.09168 10.3225 8.08512C10.3365 8.07653 10.3494 8.06647 10.3612 8.05512C10.4089 8.00899 10.4363 7.94585 10.4375 7.87953C10.4387 7.81322 10.4135 7.74914 10.3675 7.70137L10.09 7.41262Z" fill="white"/>
<path id="Vector_2" d="M14.7762 0.358924L14.7037 0.271424L14.6925 0.257674C14.617 0.178328 14.5266 0.114721 14.4264 0.0705239C14.3262 0.0263271 14.2182 0.00241691 14.1088 0.000174024C13.9993 -0.00278052 13.8905 0.0164018 13.7886 0.0565695C13.6868 0.0967373 13.5942 0.157062 13.5162 0.233924L12.5463 1.17517C12.367 1.06093 12.1588 1.00022 11.9462 1.00017C11.6509 1.0002 11.3673 1.11598 11.1562 1.32267L7.9375 4.45267L10.4487 7.06392L11.6 5.94517C11.4522 5.78742 11.3344 5.604 11.2525 5.40392C11.168 5.19635 11.1246 4.9743 11.125 4.75017C11.1255 4.2862 11.31 3.84138 11.6381 3.5133C11.9662 3.18522 12.411 3.00068 12.875 3.00017C13.1944 3.00002 13.5077 3.08828 13.78 3.25517C13.7812 3.25517 13.7812 3.25642 13.7825 3.25642C13.8464 3.29603 13.9082 3.33901 13.9675 3.38517C14.0048 3.2268 14.0087 3.06238 13.9787 2.90244C13.9488 2.74251 13.8858 2.59059 13.7937 2.45642L14.745 1.53267C14.9022 1.37969 14.9934 1.17139 14.9992 0.952151C15.005 0.732908 14.925 0.52005 14.7762 0.358924ZM11.0513 3.42642L9.80125 4.67642C9.75451 4.72317 9.69111 4.74943 9.625 4.74943C9.55889 4.74943 9.49549 4.72317 9.44875 4.67642C9.40201 4.62968 9.37574 4.56628 9.37574 4.50017C9.37574 4.43407 9.40201 4.37067 9.44875 4.32392L10.6987 3.07392C10.7455 3.02718 10.8089 3.00092 10.875 3.00092C10.9411 3.00092 11.0045 3.02718 11.0513 3.07392C11.098 3.12067 11.1243 3.18407 11.1243 3.25017C11.1243 3.31628 11.098 3.37968 11.0513 3.42642ZM14.3975 1.17392L13.46 2.08392L12.9175 1.51142L13.8638 0.592674C13.8945 0.561948 13.9312 0.537878 13.9716 0.521964C14.0121 0.50605 14.0553 0.498632 14.0988 0.500174C14.1838 0.501908 14.2648 0.536388 14.325 0.596424L14.395 0.682674L14.4062 0.696424C14.4679 0.761183 14.5015 0.847601 14.4998 0.936969C14.4982 1.02634 14.4614 1.11147 14.3975 1.17392ZM13.75 14.2502H12.0454C12.9435 13.9703 13.7571 13.4699 14.4119 12.7946C15.0668 12.1193 15.542 11.2907 15.7941 10.3844C16.0462 9.47814 16.0672 8.52316 15.8551 7.6067C15.6431 6.69025 15.2047 5.84154 14.5802 5.13813C14.5381 5.32229 14.4662 5.49834 14.3674 5.65935C14.8794 6.29612 15.2319 7.04588 15.3957 7.84632C15.5596 8.64676 15.53 9.47474 15.3094 10.2614C15.0889 11.0481 14.6837 11.7708 14.1276 12.3694C13.5715 12.968 12.8806 13.4252 12.1123 13.703L12.1122 13.7032C12.0656 14.1046 11.8814 14.4776 11.5909 14.7585C11.3003 15.0395 10.9215 15.2111 10.5187 15.2443C10.1159 15.2774 9.71404 15.17 9.38149 14.9403C9.04895 14.7106 8.80624 14.3728 8.69463 13.9844C8.69156 13.974 8.68935 13.9632 8.68647 13.9527C8.67625 13.9147 8.66601 13.8767 8.65834 13.8376C8.64807 13.7864 8.63993 13.7344 8.63447 13.6816C7.44694 13.2406 6.46567 12.3741 5.88125 11.2502H6.66808C7.1538 12.0184 7.87084 12.6127 8.71591 12.9474C8.74023 12.8753 8.76926 12.8049 8.80281 12.7366C8.8078 12.7263 8.81248 12.7159 8.81767 12.7058C8.83279 12.6763 8.84887 12.6474 8.8656 12.6189C8.87305 12.6062 8.88077 12.5937 8.88853 12.5812C8.90609 12.5529 8.92376 12.5248 8.94285 12.4976C8.28219 12.2454 7.70531 11.8133 7.2775 11.2502H8.125C8.1913 11.2502 8.25489 11.2238 8.30178 11.177C8.34866 11.1301 8.375 11.0665 8.375 11.0002C8.375 10.9339 8.34866 10.8703 8.30178 10.8234C8.25489 10.7765 8.1913 10.7502 8.125 10.7502H4.875V11.2502H5.32489C5.65455 11.9624 6.13011 12.5975 6.72076 13.1143C7.31142 13.631 8.00402 14.018 8.75372 14.2502H6.5C6.30115 14.2504 6.11051 14.3295 5.96991 14.4701C5.8293 14.6107 5.75022 14.8013 5.75 15.0002V15.2502C5.75022 15.449 5.8293 15.6397 5.96991 15.7803C6.11051 15.9209 6.30115 16 6.5 16.0002H13.75C13.9488 16 14.1395 15.9209 14.2801 15.7803C14.4207 15.6397 14.4998 15.449 14.5 15.2502V15.0002C14.4998 14.8013 14.4207 14.6107 14.2801 14.4701C14.1395 14.3295 13.9488 14.2504 13.75 14.2502Z" fill="white"/>
</g>
</svg>
