<svg width="16" height="16" viewBox="0 0 16 16" fill="none" xmlns="http://www.w3.org/2000/svg">
<path d="M0.477954 10.8941C0.586858 11.7619 1.01085 12.5603 1.67023 13.1391C2.32961 13.718 3.17896 14.0374 4.05859 14.0374C4.93823 14.0374 5.78758 13.718 6.44696 13.1391C7.10633 12.5603 7.53033 11.7619 7.63923 10.8941L7.63923 4.12937C7.53033 3.26155 7.10633 2.46317 6.44696 1.88431C5.78758 1.30546 4.93823 0.986005 4.05859 0.986005C3.17896 0.986005 2.32961 1.30546 1.67023 1.88431C1.01085 2.46317 0.586858 3.26155 0.477954 4.12937L0.477954 10.8941ZM4.05859 1.77018C4.37034 1.76974 4.6791 1.83046 4.9672 1.94886C5.2553 2.06726 5.51706 2.24102 5.7375 2.46018C5.95793 2.67934 6.1327 2.93959 6.2518 3.22602C6.37089 3.51245 6.43196 3.81943 6.43151 4.12937L6.43151 6.91135H1.68568L1.68568 4.12937C1.69413 3.50629 1.94685 2.9111 2.39004 2.47047C2.83323 2.02985 3.43189 1.77859 4.05859 1.77018Z" fill="white"/>
<path d="M13.7583 10.9535C14.4597 10.4258 14.9432 9.66152 15.1177 8.80436C15.2923 7.9472 15.1458 7.05618 14.706 6.29879C14.2662 5.54141 13.5633 4.96984 12.7294 4.69154C11.8955 4.41323 10.988 4.44736 10.1776 4.7875L4.28514 8.16984C3.58366 8.69752 3.10021 9.46178 2.92568 10.3189C2.75115 11.1761 2.89756 12.0671 3.33738 12.8245C3.7772 13.5819 4.48014 14.1535 5.31404 14.4318C6.14795 14.7101 7.0554 14.6759 7.86578 14.3358L13.7583 10.9535ZM4.02045 12.4324C3.86419 12.1642 3.7627 11.868 3.72178 11.5608C3.68087 11.2535 3.70134 10.9412 3.78203 10.6419C3.86271 10.3425 4.00203 10.0619 4.19198 9.81612C4.38193 9.57036 4.6188 9.36429 4.889 9.20971L7.31229 7.81872L9.6852 11.9049L7.26192 13.2959C6.71494 13.6002 6.07013 13.6802 5.46472 13.5189C4.85932 13.3576 4.34113 12.9678 4.02045 12.4324Z" fill="white"/>
</svg>
