<svg width="16" height="16" viewBox="0 0 16 16" fill="none" xmlns="http://www.w3.org/2000/svg">
<g clip-path="url(#clip0_8520_1840)">
<path d="M12.875 3.50001C12.6278 3.50001 12.3861 3.57332 12.1805 3.71067C11.975 3.84802 11.8148 4.04325 11.7202 4.27165C11.6255 4.50006 11.6008 4.75139 11.649 4.99387C11.6972 5.23635 11.8163 5.45908 11.9911 5.63389C12.1659 5.80871 12.3887 5.92776 12.6311 5.97599C12.8736 6.02422 13.1249 5.99947 13.3534 5.90486C13.5818 5.81025 13.777 5.65003 13.9143 5.44447C14.0517 5.23891 14.125 4.99723 14.125 4.75001C14.1249 4.41852 13.9932 4.10063 13.7588 3.86623C13.5244 3.63183 13.2065 3.50011 12.875 3.50001ZM0.75 0.75C0.601664 0.75 0.456659 0.793987 0.333323 0.876398C0.209986 0.958809 0.113856 1.07594 0.0570907 1.21299C0.000324965 1.35003 -0.0145275 1.50083 0.0144114 1.64632C0.0433503 1.7918 0.114781 1.92544 0.21967 2.03033C0.32456 2.13522 0.458197 2.20665 0.603683 2.23559C0.749168 2.26453 0.899968 2.24968 1.03701 2.19291C1.17406 2.13614 1.29119 2.04001 1.3736 1.91668C1.45601 1.79334 1.5 1.64834 1.5 1.5C1.49984 1.30114 1.42077 1.11046 1.28016 0.969844C1.13954 0.829226 0.948864 0.750158 0.75 0.75ZM0.75 1.75C0.700555 1.75 0.65222 1.73534 0.611108 1.70787C0.569996 1.6804 0.537952 1.64135 0.51903 1.59567C0.500109 1.54999 0.495158 1.49972 0.504804 1.45123C0.51445 1.40273 0.538261 1.35819 0.573224 1.32322C0.608187 1.28826 0.652733 1.26445 0.701228 1.2548C0.749723 1.24516 0.79999 1.25011 0.845671 1.26903C0.891353 1.28795 0.930397 1.32 0.957868 1.36111C0.985338 1.40222 1 1.45055 1 1.5C0.999805 1.56624 0.973404 1.62972 0.926562 1.67656C0.87972 1.7234 0.816245 1.74981 0.75 1.75ZM2.75 0C2.60166 0 2.45666 0.0439867 2.33332 0.126398C2.20999 0.208809 2.11386 0.325943 2.05709 0.462987C2.00032 0.600032 1.98547 0.750832 2.01441 0.896318C2.04335 1.0418 2.11478 1.17544 2.21967 1.28033C2.32456 1.38522 2.4582 1.45665 2.60368 1.48559C2.74917 1.51453 2.89997 1.49968 3.03701 1.44291C3.17406 1.38614 3.29119 1.29001 3.3736 1.16668C3.45601 1.04334 3.5 0.898336 3.5 0.75C3.49984 0.551136 3.42077 0.360462 3.28016 0.219844C3.13954 0.0792258 2.94886 0.000157578 2.75 0ZM2.75 1C2.70055 1 2.65222 0.985338 2.61111 0.957867C2.57 0.930397 2.53795 0.891352 2.51903 0.845671C2.50011 0.799989 2.49516 0.749723 2.5048 0.701227C2.51445 0.652732 2.53826 0.608186 2.57322 0.573223C2.60819 0.53826 2.65273 0.51445 2.70123 0.504804C2.74972 0.495157 2.79999 0.500108 2.84567 0.51903C2.89135 0.537952 2.9304 0.569995 2.95787 0.611107C2.98534 0.65222 3 0.700555 3 0.75C2.99981 0.816244 2.9734 0.879719 2.92656 0.926561C2.87972 0.973403 2.81624 0.999805 2.75 1ZM10.375 12.25C10.1278 12.25 9.8861 12.3233 9.68054 12.4607C9.47498 12.598 9.31476 12.7932 9.22015 13.0217C9.12554 13.2501 9.10079 13.5014 9.14902 13.7439C9.19725 13.9863 9.3163 14.2091 9.49112 14.3839C9.66593 14.5587 9.88866 14.6778 10.1311 14.726C10.3736 14.7742 10.6249 14.7495 10.8534 14.6549C11.0818 14.5602 11.277 14.4 11.4143 14.1945C11.5517 13.9889 11.625 13.7472 11.625 13.5C11.6249 13.1685 11.4932 12.8506 11.2588 12.6162C11.0244 12.3818 10.7065 12.2501 10.375 12.25ZM2.875 2C2.70194 2 2.53277 2.05132 2.38888 2.14746C2.24498 2.24361 2.13283 2.38027 2.06661 2.54015C2.00038 2.70004 1.98305 2.87597 2.01681 3.0457C2.05058 3.21544 2.13391 3.37135 2.25628 3.49372C2.37865 3.61609 2.53456 3.69943 2.7043 3.73319C2.87403 3.76695 3.04996 3.74962 3.20985 3.68339C3.36973 3.61717 3.50639 3.50502 3.60254 3.36112C3.69868 3.21723 3.75 3.04806 3.75 2.875C3.74975 2.64301 3.65748 2.4206 3.49344 2.25656C3.3294 2.09252 3.10699 2.00026 2.875 2ZM2.875 3.25C2.80083 3.25 2.72833 3.22801 2.66666 3.1868C2.60499 3.1456 2.55693 3.08703 2.52855 3.01851C2.50016 2.94998 2.49274 2.87458 2.50721 2.80184C2.52168 2.7291 2.55739 2.66228 2.60984 2.60983C2.66228 2.55739 2.7291 2.52167 2.80184 2.50721C2.87458 2.49274 2.94998 2.50016 3.01851 2.52855C3.08703 2.55693 3.1456 2.60499 3.1868 2.66666C3.22801 2.72833 3.25 2.80083 3.25 2.875C3.24971 2.97437 3.21011 3.06958 3.13984 3.13984C3.06958 3.21011 2.97437 3.24971 2.875 3.25ZM11.7786 12.4593C11.879 12.5943 11.9594 12.7431 12.0172 12.9011C12.6252 12.6446 13.1655 12.2505 13.5954 11.7498C14.0254 11.2492 14.3333 10.6556 14.495 10.0157C14.6567 9.3759 14.6677 8.70728 14.5272 8.06246C14.3867 7.41765 14.0986 6.81422 13.6854 6.29964C13.526 6.38306 13.3547 6.4412 13.1776 6.472C13.5769 6.92275 13.8623 7.46265 14.01 8.04646C14.1577 8.63026 14.1632 9.24096 14.0262 9.82736C13.8892 10.4138 13.6136 10.9588 13.2225 11.4167C12.8315 11.8746 12.3363 12.2321 11.7786 12.4593ZM4.5 4.25001H0.25C0.183696 4.25001 0.120108 4.27635 0.0732236 4.32323C0.0263395 4.37011 3.3753e-07 4.4337 3.3753e-07 4.50001C3.3753e-07 4.56631 0.0263395 4.6299 0.0732236 4.67678C0.120108 4.72367 0.183696 4.75001 0.25 4.75001H0.375V5.25H1C1.0663 5.25 1.12989 5.27634 1.17678 5.32322C1.22366 5.37011 1.25 5.4337 1.25 5.5C1.25 5.5663 1.22366 5.62989 1.17678 5.67678C1.12989 5.72366 1.0663 5.75 1 5.75H0.375V6H1C1.0663 6 1.12989 6.02634 1.17678 6.07322C1.22366 6.12011 1.25 6.1837 1.25 6.25C1.25 6.3163 1.22366 6.37989 1.17678 6.42678C1.12989 6.47366 1.0663 6.5 1 6.5H0.375V6.75H1C1.0663 6.75 1.12989 6.77634 1.17678 6.82322C1.22366 6.87011 1.25 6.9337 1.25 7C1.25 7.0663 1.22366 7.12989 1.17678 7.17678C1.12989 7.22366 1.0663 7.25 1 7.25H0.375V7.5H1C1.0663 7.5 1.12989 7.52634 1.17678 7.57322C1.22366 7.62011 1.25 7.6837 1.25 7.75C1.25 7.8163 1.22366 7.87989 1.17678 7.92678C1.12989 7.97366 1.0663 8 1 8H0.375V8.25H1C1.0663 8.25 1.12989 8.27634 1.17678 8.32322C1.22366 8.37011 1.25 8.4337 1.25 8.5C1.25 8.5663 1.22366 8.62989 1.17678 8.67678C1.12989 8.72366 1.0663 8.75 1 8.75H0.375V9H1C1.0663 9 1.12989 9.02634 1.17678 9.07322C1.22366 9.12011 1.25 9.1837 1.25 9.25C1.25 9.3163 1.22366 9.37989 1.17678 9.42678C1.12989 9.47366 1.0663 9.5 1 9.5H0.375V9.75H1C1.0663 9.75 1.12989 9.77634 1.17678 9.82322C1.22366 9.87011 1.25 9.9337 1.25 10C1.25 10.0663 1.22366 10.1299 1.17678 10.1768C1.12989 10.2237 1.0663 10.25 1 10.25H0.375V10.5H1C1.0663 10.5 1.12989 10.5263 1.17678 10.5732C1.22366 10.6201 1.25 10.6837 1.25 10.75C1.25 10.8163 1.22366 10.8799 1.17678 10.9268C1.12989 10.9737 1.0663 11 1 11H0.375V11.25H1C1.0663 11.25 1.12989 11.2763 1.17678 11.3232C1.22366 11.3701 1.25 11.4337 1.25 11.5C1.25 11.5663 1.22366 11.6299 1.17678 11.6768C1.12989 11.7237 1.0663 11.75 1 11.75H0.375V12H1C1.0663 12 1.12989 12.0263 1.17678 12.0732C1.22366 12.1201 1.25 12.1837 1.25 12.25C1.25 12.3163 1.22366 12.3799 1.17678 12.4268C1.12989 12.4737 1.0663 12.5 1 12.5H0.375V12.75H1C1.0663 12.75 1.12989 12.7763 1.17678 12.8232C1.22366 12.8701 1.25 12.9337 1.25 13C1.25 13.0663 1.22366 13.1299 1.17678 13.1768C1.12989 13.2237 1.0663 13.25 1 13.25H0.375V13.5H1C1.0663 13.5 1.12989 13.5263 1.17678 13.5732C1.22366 13.6201 1.25 13.6837 1.25 13.75C1.25 13.8163 1.22366 13.8799 1.17678 13.9268C1.12989 13.9737 1.0663 14 1 14H0.375V14.25H1C1.0663 14.25 1.12989 14.2763 1.17678 14.3232C1.22366 14.3701 1.25 14.4337 1.25 14.5C1.25 14.5663 1.22366 14.6299 1.17678 14.6768C1.12989 14.7237 1.0663 14.75 1 14.75H0.375V14.757C0.377294 15.0884 0.510969 15.4055 0.746703 15.6385C0.982436 15.8715 1.30098 16.0015 1.63245 16H3.11755C3.44902 16.0015 3.76757 15.8715 4.0033 15.6385C4.23903 15.4055 4.37271 15.0884 4.375 14.757V14.75H3.75C3.6837 14.75 3.62011 14.7237 3.57322 14.6768C3.52634 14.6299 3.5 14.5663 3.5 14.5C3.5 14.4337 3.52634 14.3701 3.57322 14.3232C3.62011 14.2763 3.6837 14.25 3.75 14.25H4.375V14H3.75C3.6837 14 3.62011 13.9737 3.57322 13.9268C3.52634 13.8799 3.5 13.8163 3.5 13.75C3.5 13.6837 3.52634 13.6201 3.57322 13.5732C3.62011 13.5263 3.6837 13.5 3.75 13.5H4.375V13.25H3.75C3.6837 13.25 3.62011 13.2237 3.57322 13.1768C3.52634 13.1299 3.5 13.0663 3.5 13C3.5 12.9337 3.52634 12.8701 3.57322 12.8232C3.62011 12.7763 3.6837 12.75 3.75 12.75H4.375V12.5H3.75C3.6837 12.5 3.62011 12.4737 3.57322 12.4268C3.52634 12.3799 3.5 12.3163 3.5 12.25C3.5 12.1837 3.52634 12.1201 3.57322 12.0732C3.62011 12.0263 3.6837 12 3.75 12H4.375V11.75H3.75C3.6837 11.75 3.62011 11.7237 3.57322 11.6768C3.52634 11.6299 3.5 11.5663 3.5 11.5C3.5 11.4337 3.52634 11.3701 3.57322 11.3232C3.62011 11.2763 3.6837 11.25 3.75 11.25H4.375V11H3.75C3.6837 11 3.62011 10.9737 3.57322 10.9268C3.52634 10.8799 3.5 10.8163 3.5 10.75C3.5 10.6837 3.52634 10.6201 3.57322 10.5732C3.62011 10.5263 3.6837 10.5 3.75 10.5H4.375V10.25H3.75C3.6837 10.25 3.62011 10.2237 3.57322 10.1768C3.52634 10.1299 3.5 10.0663 3.5 10C3.5 9.9337 3.52634 9.87011 3.57322 9.82322C3.62011 9.77634 3.6837 9.75 3.75 9.75H4.375V9.5H3.75C3.6837 9.5 3.62011 9.47366 3.57322 9.42678C3.52634 9.37989 3.5 9.3163 3.5 9.25C3.5 9.1837 3.52634 9.12011 3.57322 9.07322C3.62011 9.02634 3.6837 9 3.75 9H4.375V8.75H3.75C3.6837 8.75 3.62011 8.72366 3.57322 8.67678C3.52634 8.62989 3.5 8.5663 3.5 8.5C3.5 8.4337 3.52634 8.37011 3.57322 8.32322C3.62011 8.27634 3.6837 8.25 3.75 8.25H4.375V8H3.75C3.6837 8 3.62011 7.97366 3.57322 7.92678C3.52634 7.87989 3.5 7.8163 3.5 7.75C3.5 7.6837 3.52634 7.62011 3.57322 7.57322C3.62011 7.52634 3.6837 7.5 3.75 7.5H4.375V7.25H3.75C3.6837 7.25 3.62011 7.22366 3.57322 7.17678C3.52634 7.12989 3.5 7.0663 3.5 7C3.5 6.9337 3.52634 6.87011 3.57322 6.82322C3.62011 6.77634 3.6837 6.75 3.75 6.75H4.375V6.5H3.75C3.6837 6.5 3.62011 6.47366 3.57322 6.42678C3.52634 6.37989 3.5 6.3163 3.5 6.25C3.5 6.1837 3.52634 6.12011 3.57322 6.07322C3.62011 6.02634 3.6837 6 3.75 6H4.375V5.75H3.75C3.6837 5.75 3.62011 5.72366 3.57322 5.67678C3.52634 5.62989 3.5 5.5663 3.5 5.5C3.5 5.4337 3.52634 5.37011 3.57322 5.32322C3.62011 5.27634 3.6837 5.25 3.75 5.25H4.375V4.75001H4.5C4.5663 4.75001 4.62989 4.72367 4.67678 4.67678C4.72366 4.6299 4.75 4.56631 4.75 4.50001C4.75 4.4337 4.72366 4.37011 4.67678 4.32323C4.62989 4.27635 4.5663 4.25001 4.5 4.25001ZM10.09 7.4125L7.57875 4.80125L7.2425 4.45125C7.22495 4.43236 7.20422 4.41671 7.18125 4.405C7.15916 4.39353 7.13561 4.38512 7.11125 4.38C7.09524 4.37649 7.07889 4.37481 7.0625 4.375C6.99767 4.37476 6.93531 4.39989 6.88875 4.445C6.84109 4.49112 6.81366 4.55427 6.81249 4.62058C6.81132 4.6869 6.8365 4.75097 6.8825 4.79875L7.8075 5.76L6.42375 7.12875C6.37021 7.17963 6.32731 7.24063 6.29753 7.30822C6.26776 7.37581 6.25171 7.44864 6.25031 7.52249C6.24892 7.59633 6.2622 7.66972 6.2894 7.73839C6.3166 7.80706 6.35717 7.86964 6.40875 7.9225L6.925 8.4525C7.0307 8.55846 7.17334 8.61935 7.32298 8.62238C7.47261 8.62541 7.6176 8.57035 7.7275 8.46875L9.1025 7.1075L10.0075 8.04875C10.0195 8.06061 10.0325 8.07147 10.0463 8.08124C10.0818 8.1051 10.1228 8.11956 10.1654 8.12328C10.208 8.127 10.2509 8.11984 10.29 8.10249C10.3012 8.09741 10.3121 8.09156 10.3225 8.08499C10.3365 8.07641 10.3494 8.06635 10.3612 8.05499C10.4089 8.00887 10.4363 7.94573 10.4375 7.87941C10.4387 7.8131 10.4135 7.74902 10.3675 7.70124L10.09 7.4125Z" fill="white"/>
<path d="M14.7762 0.359046L14.7037 0.271546L14.6925 0.257796C14.617 0.17845 14.5266 0.114843 14.4264 0.070646C14.3262 0.0264492 14.2182 0.00253898 14.1088 0.000296094C13.9993 -0.00265845 13.8905 0.0165238 13.7886 0.0566916C13.6868 0.0968594 13.5942 0.157184 13.5162 0.234046L12.5463 1.1753C12.367 1.06105 12.1588 1.00034 11.9462 1.0003C11.6509 1.00032 11.3673 1.1161 11.1562 1.3228L7.9375 4.4528L10.4487 7.06405L11.6 5.9453C11.4522 5.78755 11.3344 5.60412 11.2525 5.40405C11.168 5.19648 11.1246 4.97442 11.125 4.7503C11.1255 4.28632 11.31 3.8415 11.6381 3.51342C11.9662 3.18534 12.411 3.0008 12.875 3.0003C13.1944 3.00014 13.5077 3.0884 13.78 3.2553C13.7812 3.2553 13.7812 3.25655 13.7825 3.25655C13.8464 3.29615 13.9082 3.33913 13.9675 3.3853C14.0048 3.22693 14.0087 3.0625 13.9787 2.90257C13.9488 2.74263 13.8858 2.59071 13.7937 2.45655L14.745 1.5328C14.9022 1.37982 14.9934 1.17152 14.9992 0.952273C15.005 0.73303 14.925 0.520172 14.7762 0.359046ZM11.0513 3.42655L9.80125 4.67655C9.75451 4.72329 9.69111 4.74955 9.625 4.74955C9.55889 4.74955 9.49549 4.72329 9.44875 4.67655C9.40201 4.6298 9.37574 4.5664 9.37574 4.5003C9.37574 4.43419 9.40201 4.37079 9.44875 4.32405L10.6987 3.07405C10.7455 3.0273 10.8089 3.00104 10.875 3.00104C10.9411 3.00104 11.0045 3.0273 11.0513 3.07405C11.098 3.12079 11.1243 3.18419 11.1243 3.2503C11.1243 3.3164 11.098 3.3798 11.0513 3.42655ZM14.3975 1.17405L13.46 2.08405L12.9175 1.51155L13.8638 0.592796C13.8945 0.56207 13.9312 0.538 13.9716 0.522086C14.0121 0.506172 14.0553 0.498754 14.0988 0.500296C14.1838 0.502031 14.2648 0.536511 14.325 0.596546L14.395 0.682796L14.4062 0.696546C14.4679 0.761305 14.5015 0.847723 14.4998 0.937091C14.4982 1.02646 14.4614 1.11159 14.3975 1.17405ZM13.75 14.2503H12.0454C12.9435 13.9705 13.7571 13.47 14.4119 12.7947C15.0668 12.1194 15.542 11.2908 15.7941 10.3845C16.0462 9.47826 16.0672 8.52328 15.8551 7.60683C15.6431 6.69037 15.2047 5.84167 14.5802 5.13825C14.5381 5.32241 14.4662 5.49846 14.3674 5.65948C14.8794 6.29624 15.2319 7.04601 15.3957 7.84644C15.5596 8.64688 15.53 9.47486 15.3094 10.2616C15.0889 11.0483 14.6837 11.7709 14.1276 12.3695C13.5715 12.9681 12.8806 13.4253 12.1123 13.7032L12.1122 13.7033C12.0656 14.1048 11.8814 14.4777 11.5909 14.7586C11.3003 15.0396 10.9215 15.2113 10.5187 15.2444C10.1159 15.2775 9.71404 15.1701 9.38149 14.9404C9.04895 14.7108 8.80624 14.373 8.69463 13.9845C8.69156 13.9741 8.68935 13.9634 8.68647 13.9529C8.67625 13.9148 8.66601 13.8768 8.65834 13.8378C8.64807 13.7865 8.63993 13.7346 8.63447 13.6817C7.44694 13.2408 6.46567 12.3742 5.88125 11.2503H6.66808C7.1538 12.0186 7.87084 12.6128 8.71591 12.9475C8.74023 12.8754 8.76926 12.805 8.80281 12.7367C8.8078 12.7264 8.81248 12.716 8.81767 12.7059C8.83279 12.6764 8.84887 12.6475 8.8656 12.619C8.87305 12.6063 8.88077 12.5938 8.88853 12.5813C8.90609 12.553 8.92376 12.5249 8.94285 12.4977C8.28219 12.2455 7.70531 11.8134 7.2775 11.2503H8.125C8.1913 11.2503 8.25489 11.224 8.30178 11.1771C8.34866 11.1302 8.375 11.0666 8.375 11.0003C8.375 10.934 8.34866 10.8704 8.30178 10.8235C8.25489 10.7766 8.1913 10.7503 8.125 10.7503H4.875V11.2503H5.32489C5.65455 11.9625 6.13011 12.5976 6.72076 13.1144C7.31142 13.6312 8.00402 14.0182 8.75372 14.2503H6.5C6.30115 14.2505 6.11051 14.3296 5.96991 14.4702C5.8293 14.6108 5.75022 14.8015 5.75 15.0003V15.2503C5.75022 15.4491 5.8293 15.6398 5.96991 15.7804C6.11051 15.921 6.30115 16.0001 6.5 16.0003H13.75C13.9488 16.0001 14.1395 15.921 14.2801 15.7804C14.4207 15.6398 14.4998 15.4491 14.5 15.2503V15.0003C14.4998 14.8015 14.4207 14.6108 14.2801 14.4702C14.1395 14.3296 13.9488 14.2505 13.75 14.2503Z" fill="white"/>
</g>
<defs>
<clipPath id="clip0_8520_1840">
<rect width="16" height="16" fill="white"/>
</clipPath>
</defs>
</svg>
