<svg width="20" height="28" viewBox="0 0 20 28" fill="none" xmlns="http://www.w3.org/2000/svg">
<path d="M17.1684 4.0385L17.1694 4.03958H14.4984H14.4484V4.08958V5.4124V5.4624H14.4984H17.2903H17.2979C17.9799 5.4624 18.5328 6.01529 18.5328 6.6973V6.70596V24.3933V24.4009C18.5328 25.084 17.9788 25.6369 17.2968 25.6369H17.2968H17.2968H17.2967H17.2967H17.2967H17.2967H17.2966H17.2966H17.2966H17.2966H17.2965H17.2965H17.2965H17.2964H17.2964H17.2964H17.2964H17.2963H17.2963H17.2963H17.2963H17.2962H17.2962H17.2962H17.2962H17.2962H17.2961H17.2961H17.2961H17.296H17.296H17.296H17.296H17.296H17.2959H17.2959H17.2959H17.2959H17.2958H17.2958H17.2958H17.2958H17.2957H17.2957H17.2957H17.2957H17.2956H17.2956H17.2956H17.2956H17.2955H17.2955H17.2955H17.2955H17.2955H17.2954H17.2954H17.2954H17.2954H17.2953H17.2953H17.2953H17.2953H17.2953H17.2952H17.2952H17.2952H17.2952H17.2952H17.2952H17.2951H17.2951H17.2951H17.2951H17.2951H17.295H17.295H17.295H17.295H17.295H17.295H17.295H17.2949H17.2949H17.2949H17.2949H17.2949H17.2949H17.2948H17.2948H17.2948H17.2948H17.2948H17.2948H17.2947H17.2947H17.2947H17.2947H17.2947H17.2947H17.2947H17.2946H17.2946H17.2946H17.2946H17.2946H17.2946H17.2945H17.2945H17.2945H17.2945H17.2945H17.2945H17.2945H17.2944H17.2944H17.2944H17.2944H17.2944H17.2944H17.2943H17.2943H17.2943H17.2943H17.2943H17.2943H17.2943H17.2942H17.2942H17.2942H17.2942H17.2942H17.2942H17.2941H17.2941H17.2941H17.2941H17.2941H17.2941H17.294H17.294H17.294H17.294H17.294H17.294H17.294H17.2939H17.2939H17.2939H17.2939H17.2939H17.2939H17.2938H17.2938H17.2938H17.2938H17.2938H17.2938H17.2938H17.2937H17.2937H17.2937H17.2937H17.2937H17.2937H17.2936H17.2936H17.2936H17.2936H17.2936H17.2936H17.2935H17.2935H17.2935H17.2935H17.2935H17.2935H17.2934H17.2934H17.2934H17.2934H17.2934H17.2934H17.2934H17.2933H17.2933H17.2933H17.2933H17.2933H17.2933H17.2932H17.2932H17.2932H17.2932H17.2932H17.2932H17.2931H17.2931H17.2931H17.2931H17.2931H17.2931H17.2931H17.293H17.293H17.293H17.293H17.293H17.293H17.2929H17.2929H17.2929H17.2929H17.2929H17.2929H17.2928H17.2928H17.2928H17.2928H17.2928H17.2928H17.2928H17.2927H17.2927H17.2927H17.2927H17.2927H17.2927H17.2926H17.2926H17.2926H17.2926H17.2926H17.2926H17.2925H17.2925H17.2925H17.2925H17.2925H17.2925H17.2924H17.2924H17.2924H17.2924H17.2924H17.2924H17.2924H17.2923H17.2923H17.2923H17.2923H17.2923H17.2923H17.2922H17.2922H17.2922H17.2922H17.2922H17.2922H17.2922H17.2921H17.2921H17.2921H17.2921H17.2921H17.2921H17.292H17.292H17.292H17.292H17.292H17.292H17.2919H17.2919H17.2919H17.2919H17.2919H17.2919H17.2919H17.2918H17.2918H17.2918H17.2918H17.2918H17.2918H17.2917H17.2917H17.2917H17.2917H17.2917H17.2917H17.2917H17.2916H17.2916H17.2916H17.2916H17.2916H17.2916H17.2915H17.2915H17.2915H17.2915H17.2915H17.2915H17.2915H17.2914H17.2914H17.2914H17.2914H17.2914H17.2914H17.2913H17.2913H17.2913H17.2913H17.2913H17.2913H17.2913H17.2912H17.2912H17.2912H17.2912H17.2912H17.2912H17.2911H17.2911H17.2911H17.2911H17.2911H17.2911H17.291H17.291H17.291H17.291H17.291H17.291H17.2909H17.2909H17.2909H17.2909H17.2909H17.2909H17.2908H17.2908H17.2908H17.2908H17.2908H17.2907H17.2907H17.2907H17.2907H17.2907H17.2906H17.2906H17.2906H17.2906H17.2906H17.2905H17.2905H17.2905H17.2905H17.2904H17.2904H17.2904H17.2904H17.2904H17.2903H17.2903H17.2903H17.2902H17.2902H17.2902H17.2902H17.2901H17.2901H17.2901H17.2901H17.29H17.29H17.29H17.29H17.29H17.2899H17.2899H17.2899H17.2899H17.2898H17.2898H17.2898H17.2898H17.2897H17.2897H17.2897H17.2897H17.2896H17.2896H17.2896H17.2896H17.2895H17.2895H17.2895H17.2894H17.2894H17.2894H17.2894H17.2893H17.2893H17.2893H17.2893H17.2892H2.82494H2.82491H2.82488H2.82486H2.82483H2.82481H2.82478H2.82476H2.82473H2.8247H2.82468H2.82465H2.82462H2.8246H2.82457H2.82454H2.82452H2.82449H2.82446H2.82444H2.82441H2.82438H2.82435H2.82433H2.8243H2.82427H2.82424H2.82422H2.82419H2.82416H2.82413H2.8241H2.82408H2.82405H2.82402H2.82399H2.82396H2.82393H2.82391H2.82388H2.82385H2.82382H2.82379H2.82376H2.82375H2.82373H2.8237H2.82369H2.82368H2.82366H2.82365H2.82363H2.82362H2.8236H2.82359H2.82357H2.82356H2.82354H2.82353H2.82351H2.8235H2.82348H2.82347H2.82346H2.82344H2.82343H2.82341H2.8234H2.82338H2.82337H2.82335H2.82334H2.82332H2.82331H2.82329H2.82328H2.82326H2.82325H2.82323H2.82322H2.8232H2.82319H2.82317H2.82316H2.82314H2.82313H2.82311H2.8231H2.82308H2.82307H2.82305H2.82304H2.82302H2.82301H2.82299H2.82297H2.82296H2.82294H2.82293H2.82291H2.8229H2.82288H2.82287H2.82285H2.82284H2.82282H2.82281H2.82279H2.82278H2.82276H2.82275H2.82273H2.82271H2.8227H2.82268H2.82267H2.82265H2.82264H2.82262H2.82261H2.82259H2.82258H2.82256H2.82254H2.82253H2.82251H2.8225H2.82248H2.82247H2.82245H2.82244H2.82242H2.82241H2.82239H2.82237H2.82236H2.82234H2.82233H2.82231H2.8223H2.82228H2.82226H2.82225H2.82223H2.82222H2.8222H2.82219H2.82217H2.82216H2.82214H2.82212H2.82211H2.82209H2.82208H2.82206H2.82205H2.82203H2.82201H2.822H2.82198H2.82197H2.82195H2.82194H2.82192H2.8219H2.82189H2.82187H2.82186H2.82184H2.82183H2.82181H2.82179H2.82178H2.82176H2.82175H2.82173H2.82171H2.8217H2.82168H2.82167H2.82165H2.82164H2.82162H2.8216H2.82159H2.82157H2.82156H2.82154H2.82152H2.82151H2.82149H2.82148H2.82146H2.82145H2.82143H2.82141H2.8214H2.82138H2.82137H2.82135H2.82133H2.82132H2.8213H2.82129H2.82127H2.82125H2.82124H2.82122H2.82121H2.82119H2.82118H2.82116H2.82114H2.82113H2.82111H2.8211H2.82108H2.82106H2.82105H2.82103H2.82102H2.821H2.82099H2.82097H2.82095H2.82094H2.82092H2.82091H2.82089H2.82087H2.82086H2.82084H2.82083H2.82081H2.82079H2.82078H2.82076H2.82075H2.82073H2.82072H2.8207H2.82068H2.82067H2.82065H2.82064H2.82062H2.8206H2.82059H2.82057H2.82056H2.82054H2.82053H2.82051H2.82049H2.82048H2.82046H2.82045H2.82043H2.82042H2.8204H2.82038H2.82037H2.82035H2.82034H2.82032H2.82031H2.82029H2.82027H2.82026H2.82024H2.82023H2.82021H2.8202H2.82018H2.82016H2.82015H2.82013H2.82012H2.8201H2.82009H2.82007H2.82005H2.82004H2.82002H2.82001H2.81999H2.81998H2.81996H2.81994H2.81993H2.81991H2.8199H2.81988H2.81987H2.81985H2.81984H2.81982H2.8198H2.81979H2.81977H2.81976H2.81974H2.81973H2.81971H2.8197H2.81968H2.81967H2.81965H2.81963H2.81962H2.8196H2.81959H2.81957H2.81956H2.81954H2.81953H2.81951H2.8195H2.81948H2.81947H2.81945H2.81943H2.81942H2.8194H2.81939H2.81937H2.81936H2.81934H2.81933H2.81931H2.8193H2.81928H2.81927H2.81925H2.81924H2.81922H2.81921H2.81919H2.81918H2.81916H2.81915H2.81913H2.81912H2.8191H2.81909H2.81907H2.81906H2.81904H2.81903H2.81901H2.819H2.81898H2.81897H2.81895H2.81894H2.81892H2.81891H2.81889H2.81888H2.81886H2.81885H2.81883H2.81882H2.8188H2.81879H2.81877H2.81876H2.81874H2.81873H2.81871H2.8187H2.81869H2.81867H2.81866H2.81864H2.81863H2.81861H2.8186H2.81858H2.81857H2.81855H2.81854H2.81853H2.8185H2.81847H2.81844H2.81842H2.8184H2.81837H2.81834H2.81831H2.81828H2.81825H2.81823H2.8182H2.81817H2.81814H2.81811H2.81808H2.81806H2.81803H2.818H2.81797H2.81795H2.81792H2.81789H2.81786H2.81784H2.81781H2.81778H2.81776H2.81773H2.8177H2.81768H2.81765H2.81762H2.8176H2.81757H2.81754H2.81752H2.81749H2.81747H2.81744H2.81742H2.81739H2.81736C2.13429 25.6369 1.58137 25.083 1.58137 24.4009V24.4009V24.4009V24.4009V24.4008V24.4008V24.4008V24.4008V24.4008V24.4007V24.4007V24.4007V24.4007V24.4007V24.4007V24.4006V24.4006V24.4006V24.4006V24.4006V24.4005V24.4005V24.4005V24.4005V24.4005V24.4004V24.4004V24.4004V24.4004V24.4004V24.4004V24.4003V24.4003V24.4003V24.4003V24.4003V24.4002V24.4002V24.4002V24.4002V24.4002V24.4002V24.4001V24.4001V24.4001V24.4001V24.4001V24.4V24.4V24.4V24.4V24.4V24.4V24.3999V24.3999V24.3999V24.3999V24.3999V24.3999V24.3998V24.3998V24.3998V24.3998V24.3998V24.3997V24.3997V24.3997V24.3997V24.3997V24.3997V24.3996V24.3996V24.3996V24.3996V24.3996V24.3996V24.3995V24.3995V24.3995V24.3995V24.3995V24.3994V24.3994V24.3994V24.3994V24.3994V24.3994V24.3993V24.3993V24.3993V24.3993V24.3993V24.3993V24.3992V24.3992V24.3992V24.3992V24.3992V24.3992V24.3991V24.3991V24.3991V24.3991V24.3991V24.3991V24.399V24.399V24.399V24.399V24.399V24.399V24.3989V24.3989V24.3989V24.3989V24.3989V24.3989V24.3988V24.3988V24.3988V24.3988V24.3988V24.3988V24.3987V24.3987V24.3987V24.3987V24.3987V24.3987V24.3986V24.3986V24.3986V24.3986V24.3986V24.3986V24.3985V24.3985V24.3985V24.3985V24.3985V24.3985V24.3984V24.3984V24.3984V24.3984V24.3984V24.3984V24.3983V24.3983V24.3983V24.3983V24.3983V24.3983V24.3982V24.3982V24.3982V24.3982V24.3982V24.3982V24.3981V24.3981V24.3981V24.3981V24.3981V24.3981V24.398V24.398V24.398V24.398V24.398V24.398V24.3979V24.3979V24.3979V24.3979V24.3979V24.3979V24.3978V24.3978V24.3978V24.3978V24.3978V24.3978V24.3977V24.3977V24.3977V24.3977V24.3977V24.3977V24.3977V24.3976V24.3976V24.3976V24.3976V24.3976V24.3976V24.3975V24.3975V24.3975V24.3975V24.3975V24.3975V24.3974V24.3974V24.3974V24.3974V24.3974V24.3974V24.3973V24.3973V24.3973V24.3973V24.3973V24.3973V24.3973V24.3972V24.3972V24.3972V24.3972V24.3972V24.3972V24.3971V24.3971V24.3971V24.3971V24.3971V24.3971V24.397V24.397V24.397V24.397V24.397V24.397V24.3969V24.3969V24.3969V24.3969V24.3969V24.3969V24.3969V24.3968V24.3968V24.3968V24.3968V24.3968V24.3968V24.3967V24.3967V24.3967V24.3967V24.3967V24.3967V24.3966V24.3966V24.3966V24.3966V24.3966V24.3966V24.3966V24.3965V24.3965V24.3965V24.3965V24.3965V24.3965V24.3964V24.3964V24.3964V24.3964V24.3964V24.3964V24.3963V24.3963V24.3963V24.3963V24.3963V24.3963V24.3963V24.3962V24.3962V24.3962V24.3962V24.3962V24.3962V24.3961V24.3961V24.3961V24.3961V24.3961V24.3961V24.396V24.396V24.396V24.396V24.396V24.396V24.3959V24.3959V24.3959V24.3959V24.3959V24.3959V24.3959V24.3958V24.3958V24.3958V24.3958V24.3958V24.3958V24.3957V24.3957V24.3957V24.3957V24.3957V24.3957V24.3956V24.3956V24.3956V24.3956V24.3956V24.3956V24.3955V24.3955V24.3955V24.3955V24.3955V24.3955V24.3955V24.3954V24.3954V24.3954V24.3954V24.3954V24.3954V24.3953V24.3953V24.3953V24.3953V24.3953V24.3953V24.3952V24.3952V24.3952V24.3952V24.3952V24.3952V24.3951V24.3951V24.3951V24.3951V24.3951V24.3951V24.395V24.395V24.395V24.395V24.395V24.395V24.3949V24.3949V24.3949V24.3949V24.3949V24.3949V24.3948V24.3948V24.3948V24.3948V24.3948V24.3948V24.3948V24.3947V24.3947V24.3947V24.3947V24.3947V24.3947V24.3946V24.3946V24.3946V24.3946V24.3946V24.3946V24.3945V24.3945V24.3945V24.3945V24.3945V24.3945V24.3944V24.3944V24.3944V24.3944V24.3944V24.3944V24.3943V24.3943V24.3943V24.3943V24.3943V24.3943V24.3942V24.3942V24.3942V24.3942V24.3942V24.3941V24.3941V24.3941V24.3941V24.3941V24.3941V24.394V24.394V24.394V24.394V24.394V24.394V24.3939V24.3939V24.3939V24.3939V24.3939V24.3939V24.3938V24.3938V24.3938V24.3938V24.3938V24.3938V24.3937V24.3937V24.3937V24.3937V24.3937V24.3937V24.3936V24.3936V24.3936V24.3936V24.3936V24.3935V24.3935V24.3935V24.3935V24.3935V24.3935V24.3934V24.3934V24.3934V24.3934V24.3934V24.3934V24.3933V24.3933V24.3933V24.3933V24.3933V24.3932V24.3932V24.3932V24.3932V24.3932V24.3932V24.3931V24.3931V24.3931V24.3931V24.3931V24.393V24.393V24.393V24.393V24.393V24.393V24.3929V24.3929V24.3929V24.3929V24.3929V24.3928V24.3928V24.3928V24.3928V24.3928V24.3928V24.3927V24.3927V24.3927V24.3927V24.3927V24.3926V24.3926V24.3926V24.3926V24.3926V24.3926V24.3925V24.3925V24.3925V24.3925V24.3925V24.3924V24.3924V24.3924V24.3924V24.3924V24.3923V24.3923V24.3923V24.3923V24.3923V24.3923V6.70488V6.70487V6.70485V6.70484V6.70483V6.70482V6.7048V6.70479V6.70478V6.70476V6.70475V6.70474V6.70473V6.70471V6.7047V6.70469V6.70467V6.70466V6.70465V6.70463V6.70462V6.70461V6.70459V6.70458V6.70457V6.70455V6.70454V6.70453V6.70451V6.7045V6.70449V6.70447V6.70446V6.70445V6.70443V6.70442V6.70441V6.70439V6.70438V6.70437V6.70435V6.70434V6.70433V6.70431V6.7043V6.70428V6.70427V6.70426V6.70424V6.70423V6.70422V6.7042V6.70419V6.70417V6.70416V6.70415V6.70413V6.70412V6.7041V6.70409V6.70408V6.70406V6.70405V6.70403V6.70402V6.70401V6.70399V6.70398V6.70396V6.70395V6.70394V6.70392V6.70391V6.70389V6.70388V6.70386V6.70385V6.70384V6.70382V6.70381V6.70379V6.70378V6.70376V6.70375V6.70374V6.70372V6.70371V6.70369V6.70368V6.70366V6.70365V6.70363V6.70362V6.7036V6.70359V6.70358V6.70356V6.70355V6.70353V6.70352V6.7035V6.70349V6.70347V6.70346V6.70344V6.70343V6.70341V6.7034V6.70338V6.70337V6.70335V6.70334V6.70332V6.70331V6.70329V6.70328V6.70327V6.70325V6.70324V6.70322V6.70321V6.70319V6.70318V6.70316V6.70315V6.70313V6.70312V6.7031V6.70309V6.70307V6.70305V6.70304V6.70302V6.70301V6.70299V6.70298V6.70296V6.70295V6.70293V6.70292V6.7029V6.70289V6.70287V6.70286V6.70284V6.70283V6.70281V6.7028V6.70278V6.70277V6.70275V6.70274V6.70272V6.7027V6.70269V6.70267V6.70266V6.70264V6.70263V6.70261V6.7026V6.70258V6.70257V6.70255V6.70254V6.70252V6.7025V6.70249V6.70247V6.70246V6.70244V6.70243V6.70241V6.7024V6.70238V6.70236V6.70235V6.70233V6.70232V6.7023V6.70229V6.70227V6.70226V6.70224V6.70222V6.70221V6.70219V6.70218V6.70216V6.70215V6.70213V6.70211V6.7021V6.70208V6.70207V6.70205V6.70204V6.70202V6.702V6.70199V6.70197V6.70196V6.70194V6.70193V6.70191V6.70189V6.70188V6.70186V6.70185V6.70183V6.70182V6.7018V6.70178V6.70177V6.70175V6.70174V6.70172V6.70171V6.70169V6.70167V6.70166V6.70164V6.70163V6.70161V6.7016V6.70158V6.70156V6.70155V6.70153V6.70152V6.7015V6.70148V6.70147V6.70145V6.70144V6.70142V6.70141V6.70139V6.70137V6.70136V6.70134V6.70133V6.70131V6.70129V6.70128V6.70126V6.70125V6.70123V6.70121V6.7012V6.70118V6.70117V6.70115V6.70114V6.70112V6.7011V6.70109V6.70107V6.70106V6.70104V6.70102V6.70101V6.70099V6.70098V6.70096V6.70094V6.70093V6.70091V6.7009V6.70088V6.70087V6.70085V6.70083V6.70082V6.7008V6.70079V6.70077V6.70075V6.70074V6.70072V6.70071V6.70069V6.70068V6.70066V6.70064V6.70063V6.70061V6.7006V6.70058V6.70056V6.70055V6.70053V6.70052V6.7005V6.70049V6.70047V6.70045V6.70044V6.70042V6.70041V6.70039V6.70038V6.70036V6.70034V6.70033V6.70031V6.7003V6.70028V6.70026V6.70025V6.70023V6.70022V6.7002V6.70019V6.70017V6.70015V6.70014V6.70012V6.70011V6.70009V6.70008V6.70006V6.70004V6.70003V6.70001V6.7V6.69998V6.69997V6.69995V6.69994V6.69992V6.6999V6.69989V6.69987V6.69986V6.69984V6.69983V6.69981V6.6998V6.69978V6.69976V6.69975V6.69973V6.69972V6.6997V6.69969V6.69967V6.69966V6.69964V6.69962V6.69961V6.69959V6.69958V6.69956V6.69955V6.69953V6.69952V6.6995V6.69949V6.69947V6.69946V6.69944V6.69942V6.69941V6.69939V6.69938V6.69936V6.69935V6.69933V6.69932V6.6993V6.69929V6.69927V6.69926V6.69924V6.69923V6.69921V6.6992V6.69918V6.69917V6.69915V6.69914V6.69912V6.69911V6.69909V6.69908V6.69906V6.69905V6.69903V6.69901V6.699V6.69899V6.69897V6.69896V6.69894V6.69893V6.69891V6.6989V6.69888V6.69887V6.69885V6.69884V6.69882V6.69881V6.69879V6.69878V6.69876V6.69875V6.69873V6.69872V6.6987V6.69869V6.69867V6.69866V6.69864V6.69863V6.69861V6.6986V6.69859V6.69857V6.69856V6.69854V6.69853V6.69851V6.6985V6.69848V6.69847V6.69845V6.69844V6.69843V6.69841V6.6984V6.69838V6.69837V6.69835V6.69834V6.69833V6.69831V6.6983V6.69828V6.69827V6.69825V6.69824V6.69823V6.69821V6.6982V6.69818V6.69817V6.69815V6.69814V6.69813V6.69811V6.6981V6.69808V6.69807V6.69806V6.69804V6.69803V6.69801V6.698V6.69799V6.69797V6.69796V6.69795V6.69793V6.69792V6.6979V6.69789V6.69788V6.69786V6.69785V6.69784V6.69782V6.69781V6.6978V6.69778V6.69777V6.69775V6.69774V6.69773V6.69771V6.6977V6.69769V6.69767V6.69766V6.69765V6.69763V6.69762V6.69761V6.69759V6.69758V6.69757V6.69755V6.69754V6.69753V6.69752V6.6975V6.69749V6.69748V6.69746V6.69745V6.69744V6.69742V6.69741V6.6974V6.69739V6.69737V6.69736V6.69735V6.69733V6.69732V6.69731V6.6973C1.58137 6.01424 2.13532 5.46132 2.81735 5.46132H2.82494H5.61682H5.66682V5.41132V4.08958V4.03958H5.61682H2.82494C1.35533 4.03958 0.162891 5.23203 0.162891 6.70163L0.162891 24.389L0.162891 24.389C0.163995 25.8586 1.35533 27.05 2.82494 27.05H17.2892C18.7588 27.05 19.9513 25.8575 19.9513 24.3879V6.70055C19.9513 5.23094 18.7588 4.0385 17.2892 4.0385H17.1684Z" fill="white" stroke="white" stroke-width="0.1"/>
<path d="M7.57189 3.36053H6.20215H6.15215V3.41053V6.72245V6.77245H6.20215H13.8649H13.9149V6.72245V3.41053H13.8714V3.36053H13.8649H13.8149H12.492C12.4653 2.02453 11.3743 0.95 10.0319 0.95C8.68953 0.95 7.59851 2.02453 7.57189 3.36053ZM8.69094 3.36053C8.69917 2.626 9.29762 2.03263 10.0341 2.03263C10.7706 2.03263 11.369 2.626 11.3772 3.36053H8.69094ZM6.65826 10.1718H6.60826V10.2218V11.4893V11.5393H6.65826H16.9049H16.9549V11.4893V10.2218V10.1718H16.9049H6.65826ZM6.65826 15.4782H6.60826V15.5282V16.7958V16.8458H6.65826H16.9049H16.9549V16.7958V15.5282V15.4782H16.9049H6.65826ZM6.65826 20.7218H6.60826V20.7718V22.0459V22.0959H6.65826H16.9049H16.9549V22.0459V20.7718V20.7218H16.9049H6.65826ZM3.0625 9.35383H3.0125V9.40383V12.3073V12.3573H3.0625H5.96598H6.01598V12.3073V9.40383V9.35383H5.96598H3.0625ZM3.0625 14.6603H3.0125V14.7103V17.6137V17.6637H3.0625H5.96598H6.01598V17.6137V14.7103V14.6603H5.96598H3.0625ZM3.0625 19.906H3.0125V19.956V22.8595V22.9095H3.0625H5.96598H6.01598V22.8595V19.956V19.906H5.96598H3.0625Z" fill="white" stroke="white" stroke-width="0.1"/>
</svg>
