<svg width="32" height="32" viewBox="0 0 32 32" fill="none" xmlns="http://www.w3.org/2000/svg">
<path d="M29.3346 17.6671H24.8946C24.7032 16.4736 24.173 15.3604 23.3669 14.4597C22.5608 13.5591 21.5129 12.9091 20.348 12.5871C21.2704 11.7166 21.9102 10.5893 22.1846 9.35111C22.459 8.11289 22.3554 6.82081 21.8871 5.64219C21.4187 4.46356 20.6074 3.45268 19.558 2.74046C18.5086 2.02823 17.2696 1.64746 16.0013 1.64746C14.733 1.64746 13.494 2.02823 12.4446 2.74046C11.3952 3.45268 10.5839 4.46356 10.1156 5.64219C9.64725 6.82081 9.54358 8.11289 9.81799 9.35111C10.0924 10.5893 10.7322 11.7166 11.6546 12.5871C10.4897 12.9091 9.44179 13.5591 8.63572 14.4597C7.82965 15.3604 7.29936 16.4736 7.10797 17.6671H2.66797C2.40275 17.6671 2.1484 17.7724 1.96086 17.9599C1.77333 18.1475 1.66797 18.4018 1.66797 18.6671C1.66797 18.9323 1.77333 19.1866 1.96086 19.3742C2.1484 19.5617 2.40275 19.6671 2.66797 19.6671H3.0013V26.6671C3.0013 27.6395 3.38761 28.5721 4.07524 29.2598C4.76288 29.9474 5.69551 30.3337 6.66797 30.3337H25.3346C26.3071 30.3337 27.2397 29.9474 27.9274 29.2598C28.615 28.5721 29.0013 27.6395 29.0013 26.6671V19.6671H29.3346C29.5999 19.6671 29.8542 19.5617 30.0417 19.3742C30.2293 19.1866 30.3346 18.9323 30.3346 18.6671C30.3346 18.4018 30.2293 18.1475 30.0417 17.9599C29.8542 17.7724 29.5999 17.6671 29.3346 17.6671ZM16.0013 3.66705C16.8584 3.66705 17.6962 3.9212 18.4088 4.39735C19.1214 4.8735 19.6768 5.55028 20.0048 6.34209C20.3328 7.1339 20.4186 8.00519 20.2514 8.84578C20.0842 9.68636 19.6715 10.4585 19.0654 11.0645C18.4594 11.6705 17.6873 12.0833 16.8467 12.2505C16.0061 12.4177 15.1348 12.3318 14.343 12.0039C13.5512 11.6759 12.8744 11.1205 12.3983 10.4079C11.9221 9.69524 11.668 8.85744 11.668 8.00038C11.6715 6.85219 12.1292 5.75204 12.9411 4.94014C13.753 4.12824 14.8531 3.67057 16.0013 3.66705ZM13.3346 14.3337H18.668C19.6422 14.3368 20.5872 14.667 21.3513 15.2715C22.1153 15.876 22.6542 16.7196 22.8813 17.6671H9.1213C9.34843 16.7196 9.88726 15.876 10.6513 15.2715C11.4154 14.667 12.3604 14.3368 13.3346 14.3337ZM27.0013 26.6671C27.0013 27.1091 26.8257 27.533 26.5131 27.8456C26.2006 28.1581 25.7767 28.3337 25.3346 28.3337H6.66797C6.22594 28.3337 5.80202 28.1581 5.48946 27.8456C5.1769 27.533 5.0013 27.1091 5.0013 26.6671V19.6671H27.0013V26.6671Z" fill="#828282"/>
</svg>
