<svg width="32" height="32" viewBox="0 0 32 32" fill="none" xmlns="http://www.w3.org/2000/svg">
<path d="M16 12C18.7614 12 21 9.76142 21 7C21 4.23858 18.7614 2 16 2C13.2386 2 11 4.23858 11 7C11 9.76142 13.2386 12 16 12Z" fill="white"/>
<path d="M6 19V21H26V19C26 15.691 23.309 13 20 13H12C8.691 13 6 15.691 6 19ZM29 22H3C2.73478 22 2.48043 22.1054 2.29289 22.2929C2.10536 22.4804 2 22.7348 2 23C2 23.2652 2.10536 23.5196 2.29289 23.7071C2.48043 23.8946 2.73478 24 3 24H4V29.5C4 29.6326 4.05268 29.7598 4.14645 29.8536C4.24021 29.9473 4.36739 30 4.5 30H27.5C27.6326 30 27.7598 29.9473 27.8536 29.8536C27.9473 29.7598 28 29.6326 28 29.5V24H29C29.2652 24 29.5196 23.8946 29.7071 23.7071C29.8946 23.5196 30 23.2652 30 23C30 22.7348 29.8946 22.4804 29.7071 22.2929C29.5196 22.1054 29.2652 22 29 22Z" fill="white"/>
</svg>
