<svg width="32" height="32" viewBox="0 0 32 32" fill="none" xmlns="http://www.w3.org/2000/svg">
<path d="M2.66675 29.3337V5.33366C2.66675 4.60033 2.92808 3.97277 3.45075 3.45099C3.97341 2.92921 4.60097 2.66788 5.33341 2.66699H26.6667C27.4001 2.66699 28.0281 2.92833 28.5507 3.45099C29.0734 3.97366 29.3343 4.60121 29.3334 5.33366V21.3337C29.3334 22.067 29.0725 22.695 28.5507 23.2177C28.029 23.7403 27.401 24.0012 26.6667 24.0003H8.00008L2.66675 29.3337ZM12.1001 19.0003L16.0001 16.6337L19.9001 19.0003L18.8667 14.567L22.3334 11.567L17.7667 11.2003L16.0001 7.00033L14.2334 11.2003L9.66675 11.567L13.1334 14.567L12.1001 19.0003Z" fill="white"/>
</svg>
