<svg width="32" height="32" viewBox="0 0 32 32" fill="none" xmlns="http://www.w3.org/2000/svg">
<path d="M12.1 19.0003L16 16.6337L19.9 19.0003L18.8666 14.567L22.3333 11.567L17.7666 11.2003L16 7.00033L14.2333 11.2003L9.66663 11.567L13.1333 14.567L12.1 19.0003ZM2.66663 29.3337V5.33366C2.66663 4.60033 2.92796 3.97277 3.45063 3.45099C3.97329 2.92921 4.60085 2.66788 5.33329 2.66699H26.6666C27.4 2.66699 28.028 2.92833 28.5506 3.45099C29.0733 3.97366 29.3342 4.60121 29.3333 5.33366V21.3337C29.3333 22.067 29.0724 22.695 28.5506 23.2177C28.0288 23.7403 27.4008 24.0012 26.6666 24.0003H7.99996L2.66663 29.3337ZM6.86663 21.3337H26.6666V5.33366H5.33329V22.8337L6.86663 21.3337Z" fill="#9EA1B0"/>
</svg>
