<svg width="20" height="20" viewBox="0 0 20 20" fill="none" xmlns="http://www.w3.org/2000/svg">
<mask id="mask0_1193_1248" style="mask-type:alpha" maskUnits="userSpaceOnUse" x="-1" y="0" width="21" height="21">
<rect x="-0.000213623" y="20.0001" width="20" height="20" transform="rotate(-90 -0.000213623 20.0001)" fill="#D9D9D9"/>
</mask>
<g mask="url(#mask0_1193_1248)">
<path d="M12.4789 10.0001C12.4789 10.1112 12.4581 10.2187 12.4164 10.3226C12.3748 10.427 12.3192 10.514 12.2498 10.5834L8.41643 14.4167C8.26366 14.5695 8.06921 14.6459 7.8331 14.6459C7.59699 14.6459 7.40254 14.5695 7.24977 14.4167C7.09699 14.264 7.0206 14.0695 7.0206 13.8334C7.0206 13.5973 7.09699 13.4028 7.24977 13.2501L10.4998 10.0001L7.24977 6.75007C7.09699 6.59729 7.0206 6.40285 7.0206 6.16674C7.0206 5.93063 7.09699 5.73618 7.24977 5.58341C7.40254 5.43063 7.59699 5.35424 7.8331 5.35424C8.06921 5.35424 8.26365 5.43063 8.41643 5.58341L12.2498 9.41674C12.3331 9.50007 12.392 9.59035 12.4264 9.68757C12.4614 9.78479 12.4789 9.88896 12.4789 10.0001Z" fill="white"/>
</g>
</svg>
