<svg width="202" height="35" viewBox="0 0 202 35" fill="none" xmlns="http://www.w3.org/2000/svg">
<g clip-path="url(#clip0_1193_1225)">
<path d="M53.3477 20.5502C53.3362 21.1624 53.2018 21.7658 52.9524 22.3238C52.7031 22.8818 52.3442 23.3827 51.8975 23.7961C51.4507 24.2094 50.9255 24.5266 50.3538 24.7283C49.7821 24.93 49.1758 25.012 48.5717 24.9693H42.3152V9.78004H48.1658C48.7629 9.72354 49.3652 9.79194 49.935 9.98098C50.5049 10.17 51.0302 10.4757 51.4782 10.8789C51.9262 11.2821 52.2873 11.7742 52.5391 12.3247C52.7909 12.8751 52.928 13.4721 52.9418 14.0784C52.9544 14.6375 52.843 15.1924 52.6157 15.7022C52.3884 16.212 52.051 16.6639 51.6284 17.0245C52.1989 17.4047 52.659 17.9317 52.9612 18.5514C53.2634 19.1711 53.3968 19.861 53.3477 20.5502ZM45.6823 13.1366V15.7205H48.0702C48.2435 15.7276 48.4163 15.6978 48.5775 15.6332C48.7387 15.5687 48.8848 15.4707 49.0062 15.3455C49.1277 15.2204 49.2219 15.071 49.2828 14.9068C49.3437 14.7426 49.3699 14.5674 49.3598 14.3924C49.3699 14.2173 49.3437 14.0421 49.2828 13.8779C49.2219 13.7137 49.1277 13.5643 49.0062 13.4392C48.8848 13.314 48.7387 13.216 48.5775 13.1515C48.4163 13.0869 48.2435 13.0572 48.0702 13.0642L45.6823 13.1366ZM49.9329 20.3811C49.9468 20.1893 49.92 19.9967 49.8545 19.8162C49.7889 19.6357 49.686 19.4714 49.5527 19.3342C49.4193 19.1971 49.2586 19.0903 49.0812 19.021C48.9038 18.9517 48.7139 18.9214 48.524 18.9322H45.6823V21.8059H48.524C48.7299 21.8212 48.9366 21.7882 49.1278 21.7092C49.319 21.6303 49.4895 21.5077 49.626 21.3509C49.7625 21.1942 49.8612 21.0076 49.9145 20.8059C49.9677 20.6041 49.974 20.3926 49.9329 20.1879V20.3811Z" fill="#45BA8C"/>
<path d="M63.9981 21.5402V24.8485H55.2581V9.78004H58.6729V21.5402H63.9981Z" fill="#45BA8C"/>
<path d="M64.213 17.314C64.213 15.7607 64.6688 14.2424 65.5227 12.9513C66.3765 11.6601 67.59 10.6542 69.0095 10.0609C70.4291 9.46762 71.9908 9.31361 73.4969 9.6184C75.003 9.92319 76.3858 10.6731 77.4702 11.7731C78.5547 12.8731 79.292 14.2737 79.5887 15.7977C79.8855 17.3217 79.7284 18.9005 79.1373 20.3341C78.5462 21.7677 77.5478 22.9918 76.2683 23.8512C74.9889 24.7107 73.4861 25.1669 71.9501 25.1621C70.9294 25.1719 69.917 24.9753 68.9724 24.5841C68.0277 24.1928 67.1699 23.6147 66.4492 22.8836C65.7285 22.1526 65.1595 21.2834 64.7755 20.3269C64.3915 19.3705 64.2002 18.3461 64.213 17.314ZM76.2963 17.314C76.2775 16.4491 76.0066 15.6091 75.5178 14.8991C75.029 14.1892 74.3438 13.6409 73.5482 13.3231C72.7526 13.0052 71.8818 12.9318 71.0452 13.1121C70.2085 13.2925 69.4431 13.7185 68.8448 14.3368C68.2465 14.9551 67.8419 15.7382 67.6818 16.588C67.5217 17.4378 67.6132 18.3165 67.9447 19.114C68.2763 19.9115 68.8332 20.5922 69.5458 21.071C70.2583 21.5498 71.0946 21.8053 71.9501 21.8055C72.5337 21.823 73.1145 21.718 73.656 21.4972C74.1974 21.2763 74.6878 20.9445 75.0961 20.5225C75.5045 20.1005 75.8219 19.5975 76.0284 19.0453C76.235 18.4931 76.3262 17.9036 76.2963 17.314Z" fill="#45BA8C"/>
<path d="M81.1916 17.3143C81.1657 16.2858 81.3458 15.2627 81.7209 14.3063C82.0961 13.35 82.6586 12.4803 83.3746 11.7494C84.0907 11.0186 84.9455 10.4417 85.8876 10.0535C86.8298 9.66521 87.8398 9.47364 88.8571 9.49025C90.1254 9.46888 91.3779 9.77747 92.4944 10.3864C93.6109 10.9953 94.5539 11.8841 95.233 12.9676L92.2958 14.6821C91.9357 14.0948 91.4272 13.6151 90.8228 13.2925C90.2183 12.9699 89.5398 12.8161 88.8571 12.8469C87.7384 12.93 86.6923 13.438 85.9288 14.2689C85.1653 15.0998 84.7409 16.1921 84.7409 17.3264C84.7409 18.4606 85.1653 19.5529 85.9288 20.3838C86.6923 21.2147 87.7384 21.7227 88.8571 21.8059C89.5422 21.8341 90.2222 21.6767 90.8268 21.3497C91.4315 21.0228 91.9386 20.5383 92.2958 19.9464L95.233 21.661C94.5585 22.7505 93.6171 23.6454 92.5 24.2589C91.383 24.8724 90.1281 25.1836 88.8571 25.1625C87.8378 25.1792 86.8257 24.9869 85.8819 24.5972C84.9381 24.2075 84.0822 23.6284 83.3658 22.8949C82.6494 22.1615 82.0874 21.2888 81.7137 20.3297C81.3401 19.3705 81.1625 18.3448 81.1916 17.3143Z" fill="#45BA8C"/>
<path d="M105.31 24.8485L100.534 17.8697V24.8485H97.1434V9.78004H100.534V16.3242L105.095 9.78004H108.964L103.949 17.0245L109.179 24.7519L105.31 24.8485Z" fill="#45BA8C"/>
<path d="M125.584 24.8485H122.289V16.0827L118.444 22.482H118.062L114.194 16.0827V24.8485H110.803V9.78004H114.194L118.253 16.4691L122.289 9.78004H125.704L125.584 24.8485Z" fill="#45BA8C"/>
<path d="M137.715 21.5402V24.8485H128.354V9.78004H137.62V13.0883H131.841V15.5032H137.166V18.8598H131.841V21.5402H137.715Z" fill="#45BA8C"/>
<path d="M153.046 17.3143C153.085 18.2897 152.928 19.263 152.585 20.1757C152.243 21.0884 151.721 21.9216 151.052 22.6253C150.383 23.329 149.58 23.8887 148.692 24.2707C147.803 24.6528 146.848 24.8493 145.882 24.8485H139.912V9.78004H145.882C146.848 9.77926 147.803 9.9758 148.692 10.3579C149.58 10.7399 150.383 11.2996 151.052 12.0033C151.721 12.707 152.243 13.5402 152.585 14.4529C152.928 15.3655 153.085 16.3388 153.046 17.3143ZM149.775 17.3143C149.822 16.7657 149.754 16.2131 149.575 15.6932C149.395 15.1732 149.109 14.6977 148.734 14.2982C148.359 13.8987 147.905 13.5842 147.401 13.3756C146.897 13.167 146.355 13.0691 145.811 13.0883H143.255V21.5402H145.811C146.355 21.5594 146.897 21.4615 147.401 21.253C147.905 21.0444 148.359 20.7299 148.734 20.3304C149.109 19.9308 149.395 19.4554 149.575 18.9354C149.754 18.4154 149.822 17.8629 149.775 17.3143Z" fill="#45BA8C"/>
<path d="M171.243 14.4645C171.256 15.0832 171.144 15.6982 170.914 16.2717C170.684 16.8451 170.34 17.365 169.904 17.7992C169.468 18.2334 168.949 18.5729 168.378 18.7967C167.808 19.0206 167.198 19.1241 166.586 19.1009H162.646V24.8482H161.524V9.7797H166.586C167.201 9.75972 167.813 9.86705 168.386 10.0951C168.958 10.3231 169.478 10.6671 169.914 11.1058C170.35 11.5445 170.693 12.0688 170.922 12.6464C171.15 13.2239 171.259 13.8426 171.243 14.4645ZM170.097 14.4645C170.117 13.9918 170.04 13.52 169.871 13.0788C169.702 12.6376 169.444 12.2365 169.115 11.9009C168.785 11.5652 168.39 11.3021 167.955 11.1282C167.52 10.9544 167.054 10.8734 166.586 10.8905H162.646V18.135H166.586C167.058 18.1463 167.528 18.0577 167.964 17.875C168.4 17.6922 168.794 17.4193 169.12 17.0738C169.446 16.7282 169.697 16.3176 169.857 15.8683C170.017 15.419 170.082 14.9408 170.049 14.4645H170.097Z" fill="white"/>
<path d="M180.078 18.667H175.302V24.8489H174.156V9.78041H180.03C181.102 9.77207 182.139 10.1597 182.947 10.8703C183.755 11.581 184.279 12.5657 184.42 13.6395C184.561 14.7133 184.309 15.802 183.712 16.7012C183.114 17.6003 182.213 18.2478 181.177 18.5221L184.878 24.8489H183.565L180.078 18.667ZM175.302 17.6044H180.078C180.913 17.5329 181.691 17.147 182.258 16.5232C182.825 15.8993 183.139 15.083 183.139 14.2357C183.139 13.3885 182.825 12.5722 182.258 11.9484C181.691 11.3245 180.913 10.9386 180.078 10.8671H175.302V17.6044Z" fill="white"/>
<path d="M186.765 17.3138C186.765 15.7759 187.216 14.2726 188.061 12.9939C188.905 11.7151 190.106 10.7185 191.511 10.13C192.916 9.54145 194.463 9.38747 195.954 9.6875C197.446 9.98753 198.816 10.7281 199.891 11.8155C200.967 12.903 201.699 14.2885 201.996 15.7969C202.292 17.3052 202.14 18.8686 201.558 20.2895C200.976 21.7103 199.99 22.9247 198.726 23.7791C197.461 24.6335 195.975 25.0896 194.454 25.0896C193.443 25.0927 192.442 24.8938 191.508 24.5042C190.573 24.1145 189.724 23.5419 189.01 22.8192C188.295 22.0965 187.729 21.2381 187.344 20.2932C186.958 19.3484 186.762 18.3358 186.765 17.3138ZM201.093 17.3138C201.088 16.0004 200.698 14.7179 199.973 13.6285C199.247 12.5391 198.218 11.6917 197.017 11.1935C195.815 10.6953 194.494 10.5687 193.221 10.8296C191.948 11.0905 190.78 11.7273 189.865 12.6594C188.95 13.5915 188.329 14.777 188.08 16.0661C187.832 17.3552 187.966 18.69 188.468 19.9016C188.969 21.1132 189.815 22.1472 190.897 22.873C191.98 23.5987 193.251 23.9835 194.55 23.9787C196.258 23.9282 197.878 23.2015 199.061 21.9549C200.245 20.7084 200.897 19.0418 200.878 17.3138H201.093Z" fill="white"/>
<path d="M22.9247 14.7063L22.877 17.1694L20.8472 16.0344V13.6438L22.9247 14.7063Z" fill="#C1C1C1"/>
<path d="M33.8617 23.4962L25.2649 28.4949L22.2083 30.306V26.7804L25.2649 24.9934L32.3573 20.8641L33.8617 23.4962Z" fill="white"/>
<path d="M32.7632 11.2531L22.877 17.1694L22.9247 14.7063L31.3543 9.75589L32.7632 11.2531Z" fill="white"/>
<path d="M31.3543 9.75544L22.9247 14.7058L20.8472 13.6675L29.3245 8.74121L31.3543 9.75544Z" fill="#D8D8D8"/>
<path d="M20.6322 2.72875L13.6115 6.8098L10.3877 8.69337L7.33112 7.02714L10.531 5.09528L19.1278 0.0724449L20.6322 2.72875Z" fill="#D8D8D8"/>
<path d="M30.8767 10.0698L15.9995 1.93186L19.1994 0L33.9333 8.2104L30.8767 10.0698Z" fill="#D8D8D8"/>
<path d="M30.8767 25.2345L33.9333 23.4716V8.20996L30.8767 10.0694V25.2345Z" fill="white"/>
<path d="M14.8772 19.4635L0 11.3255L3.22379 9.41781L17.9577 17.6282L14.8772 19.4635Z" fill="#D8D8D8"/>
<path d="M14.8772 34.6283L17.9577 32.8896V17.6279L14.8772 19.4632V34.6283Z" fill="white"/>
</g>
<defs>
<clipPath id="clip0_1193_1225">
<rect width="202" height="34.6286" fill="white"/>
</clipPath>
</defs>
</svg>
