<svg width="77" height="12" viewBox="0 0 77 12" fill="none" xmlns="http://www.w3.org/2000/svg">
<path d="M7.08978 0.8674L8.15444 2.99672C8.29791 3.2912 8.683 3.57058 9.00768 3.63099L10.9331 3.94812C12.1639 4.15199 12.4508 5.04299 11.5674 5.93398L10.0648 7.43659C9.81562 7.68577 9.67215 8.17657 9.75521 8.53146L10.1856 10.3889C10.5254 11.8538 9.74011 12.4277 8.44893 11.6575L6.64429 10.5853C6.3196 10.389 5.77594 10.389 5.45126 10.5853L3.64662 11.6575C2.35544 12.4201 1.57015 11.8538 1.90994 10.3889L2.34033 8.53146C2.40829 8.16902 2.26483 7.67822 2.01565 7.42904L0.513041 5.92643C-0.370401 5.04299 -0.0834712 4.15199 1.14731 3.94057L3.07276 3.62344C3.39744 3.57058 3.78254 3.28365 3.926 2.98917L4.99066 0.859849C5.57207 -0.287872 6.50837 -0.287872 7.08978 0.8674Z" fill="#FD8939"/>
<path d="M23.1699 0.8674L24.2345 2.99672C24.378 3.2912 24.7631 3.57058 25.0878 3.63099L27.0132 3.94812C28.244 4.15199 28.5309 5.04299 27.6475 5.93398L26.1449 7.43659C25.8957 7.68577 25.7522 8.17657 25.8353 8.53146L26.2657 10.389C26.6055 11.8538 25.8202 12.4277 24.529 11.6575L22.7244 10.5853C22.3997 10.3889 21.856 10.3889 21.5313 10.5853L19.7267 11.6575C18.4355 12.4201 17.6502 11.8538 17.99 10.389L18.4204 8.53146C18.4884 8.16902 18.3449 7.67822 18.0957 7.42904L16.5931 5.92643C15.7097 5.04299 15.9966 4.15199 17.2274 3.94057L19.1528 3.62344C19.4775 3.57058 19.8626 3.28365 20.0061 2.98917L21.0707 0.859849C21.6522 -0.287872 22.5884 -0.287872 23.1699 0.8674Z" fill="#FD8939"/>
<path d="M39.2509 0.8674L40.3156 2.99672C40.459 3.2912 40.8441 3.57058 41.1688 3.63099L43.0943 3.94812C44.325 4.15199 44.612 5.04299 43.7285 5.93398L42.2259 7.43659C41.9768 7.68577 41.8333 8.17657 41.9163 8.53146L42.3467 10.3889C42.6865 11.8538 41.9012 12.4277 40.6101 11.6575L38.8054 10.5853C38.4807 10.389 37.9371 10.389 37.6124 10.5853L35.8078 11.6575C34.5166 12.4201 33.7313 11.8538 34.0711 10.3889L34.5015 8.53146C34.5694 8.16902 34.426 7.67822 34.1768 7.42904L32.6742 5.92643C31.7907 5.04299 32.0777 4.15199 33.3084 3.94057L35.2339 3.62344C35.5586 3.57058 35.9437 3.28365 36.0871 2.98917L37.1518 0.859849C37.7332 -0.287872 38.6695 -0.287872 39.2509 0.8674Z" fill="#FD8939"/>
<path d="M55.331 0.8674L56.3957 2.99672C56.5391 3.2912 56.9242 3.57058 57.2489 3.63099L59.1743 3.94812C60.4051 4.15199 60.6921 5.04299 59.8086 5.93398L58.306 7.43659C58.0568 7.68577 57.9134 8.17657 57.9964 8.53146L58.4268 10.3889C58.7666 11.8538 57.9813 12.4277 56.6901 11.6575L54.8855 10.5853C54.5608 10.389 54.0172 10.389 53.6925 10.5853L51.8878 11.6575C50.5966 12.4201 49.8114 11.8538 50.1511 10.3889L50.5815 8.53146C50.6495 8.16902 50.506 7.67822 50.2569 7.42904L48.7543 5.92643C47.8708 5.04299 48.1577 4.15199 49.3885 3.94057L51.314 3.62344C51.6387 3.57058 52.0237 3.28365 52.1672 2.98917L53.2319 0.859849C53.8133 -0.287872 54.7496 -0.287872 55.331 0.8674Z" fill="#FD8939"/>
<path d="M71.412 0.8674L72.4767 2.99672C72.6202 3.2912 73.0053 3.57058 73.3299 3.63099L75.2554 3.94812C76.4862 4.15199 76.7731 5.04299 75.8897 5.93398L74.3871 7.43659C74.1379 7.68577 73.9944 8.17657 74.0775 8.53146L74.5079 10.3889C74.8477 11.8538 74.0624 12.4277 72.7712 11.6575L70.9666 10.5853C70.6419 10.389 70.0982 10.389 69.7735 10.5853L67.9689 11.6575C66.6777 12.4201 65.8924 11.8538 66.2322 10.3889L66.6626 8.53146C66.7306 8.16902 66.5871 7.67822 66.3379 7.42904L64.8353 5.92643C63.9519 5.04299 64.2388 4.15199 65.4696 3.94057L67.395 3.62344C67.7197 3.57058 68.1048 3.28365 68.2483 2.98917L69.3129 0.859849C69.8943 -0.287872 70.8306 -0.287872 71.412 0.8674Z" fill="#FD8939"/>
</svg>
