<svg width="32" height="32" viewBox="0 0 32 32" fill="none" xmlns="http://www.w3.org/2000/svg">
<path d="M6.5 20H4.5C4.22386 20 4 20.2239 4 20.5V29.5C4 29.7761 4.22386 30 4.5 30H6.5C6.77614 30 7 29.7761 7 29.5V20.5C7 20.2239 6.77614 20 6.5 20Z" stroke="#828282" stroke-width="2" stroke-linecap="round" stroke-linejoin="round"/>
<path d="M20.5 14H18.5C18.2239 14 18 14.2239 18 14.5V29.5C18 29.7761 18.2239 30 18.5 30H20.5C20.7761 30 21 29.7761 21 29.5V14.5C21 14.2239 20.7761 14 20.5 14Z" stroke="#828282" stroke-width="2" stroke-linecap="round" stroke-linejoin="round"/>
<path d="M27.5 7H25.5C25.2239 7 25 7.22386 25 7.5V29.5C25 29.7761 25.2239 30 25.5 30H27.5C27.7761 30 28 29.7761 28 29.5V7.5C28 7.22386 27.7761 7 27.5 7Z" stroke="#828282" stroke-width="2" stroke-linecap="round" stroke-linejoin="round"/>
<path d="M13.5 2H11.5C11.2239 2 11 2.22386 11 2.5V29.5C11 29.7761 11.2239 30 11.5 30H13.5C13.7761 30 14 29.7761 14 29.5V2.5C14 2.22386 13.7761 2 13.5 2Z" stroke="#828282" stroke-width="2" stroke-linecap="round" stroke-linejoin="round"/>
</svg>
