<svg width="20" height="18" viewBox="0 0 20 18" fill="none" xmlns="http://www.w3.org/2000/svg">
<g clip-path="url(#clip0_1784_25266)">
<path d="M4.40994 0.365363C4.51758 0.65716 4.37174 0.980597 4.08355 1.08958L2.58355 1.65911C2.3648 1.73997 2.22244 1.95091 2.22244 2.18646V6.74974C2.22244 9.23528 4.21202 11.2497 6.66688 11.2497C9.12175 11.2497 11.1113 9.23528 11.1113 6.74974V2.18646C11.1113 1.95091 10.969 1.74349 10.7502 1.65911L9.25022 1.08958C8.96202 0.980597 8.81619 0.65716 8.92383 0.365363C9.03147 0.073566 9.35091 -0.0740902 9.63911 0.0348942L11.1391 0.604425C11.7884 0.850519 12.219 1.47982 12.219 2.18294V6.74974C12.219 9.66771 10.028 12.0654 7.21897 12.3466V12.3747C7.21897 14.8603 9.20855 16.8747 11.6634 16.8747C14.1183 16.8747 16.1079 14.8603 16.1079 12.3747V8.92943C15.1495 8.67982 14.4412 7.79739 14.4412 6.74974C14.4412 5.50872 15.4377 4.49974 16.6634 4.49974C17.8891 4.49974 18.8856 5.50872 18.8856 6.74974C18.8856 7.79739 18.1773 8.67982 17.219 8.92943V12.3747C17.219 15.4826 14.7329 17.9997 11.6634 17.9997C8.59397 17.9997 6.10786 15.4826 6.10786 12.3747V12.3466C3.3023 12.0654 1.11133 9.66771 1.11133 6.74974V2.18646C1.11133 1.48333 1.54188 0.854035 2.19119 0.607941L3.69466 0.0348942C3.98286 -0.0740902 4.3023 0.073566 4.40994 0.365363ZM16.6669 7.87474C16.9616 7.87474 17.2442 7.75621 17.4526 7.54523C17.6609 7.33425 17.778 7.04811 17.778 6.74974C17.778 6.45137 17.6609 6.16522 17.4526 5.95424C17.2442 5.74326 16.9616 5.62474 16.6669 5.62474C16.3722 5.62474 16.0896 5.74326 15.8812 5.95424C15.6728 6.16522 15.5558 6.45137 15.5558 6.74974C15.5558 7.04811 15.6728 7.33425 15.8812 7.54523C16.0896 7.75621 16.3722 7.87474 16.6669 7.87474Z" fill="#64BAA9"/>
</g>
<defs>
<clipPath id="clip0_1784_25266">
<rect width="20" height="18" fill="white"/>
</clipPath>
</defs>
</svg>
