<svg width="120" height="120" viewBox="0 0 120 120" fill="none" xmlns="http://www.w3.org/2000/svg">
<path fill-rule="evenodd" clip-rule="evenodd" d="M45.1899 0C22.9631 5.46798 5.46727 22.9643 0 45.1914H8.27834C13.3648 27.3922 27.391 13.3656 45.1899 8.27842V0ZM45.1899 111.721C27.7328 106.732 13.9049 93.1426 8.58123 75.8292H0.260517C6.00605 97.5699 23.3046 114.615 45.1899 119.999V111.721ZM75.8277 119.74V111.419C92.8037 106.2 106.199 92.8049 111.419 75.8292H119.74C114.084 97.232 97.2308 114.084 75.8277 119.74ZM75.8277 8.58014V0.259507C97.57 6.00469 114.617 23.3045 120 45.1915H111.722C106.733 27.7327 93.1427 13.9036 75.8277 8.58014Z" fill="url(#paint0_linear_11997_59131)"/>
<path d="M53.1251 83.1199L33.6469 60.4992C31.8008 58.3553 34.3764 55.2767 36.8125 56.7153L53.4999 66.5693C54.435 67.1215 55.6197 67.0068 56.4315 66.2855L85.0497 40.8589C87.3509 38.8143 90.5941 41.927 88.6456 44.3102L56.955 83.071C55.9711 84.2744 54.1393 84.2977 53.1251 83.1199Z" fill="url(#paint1_linear_11997_59131)"/>
<defs>
<linearGradient id="paint0_linear_11997_59131" x1="-35.7501" y1="-24.8484" x2="166.644" y2="101.96" gradientUnits="userSpaceOnUse">
<stop stop-color="#45BA8C"/>
<stop offset="1" stop-color="#2C535B"/>
</linearGradient>
<linearGradient id="paint1_linear_11997_59131" x1="-1.50955" y1="6.48285" x2="118.406" y2="103.919" gradientUnits="userSpaceOnUse">
<stop offset="0.11" stop-color="#2C535B"/>
<stop offset="1" stop-color="#45BA8C"/>
</linearGradient>
</defs>
</svg>
