<svg width="16" height="16" viewBox="0 0 16 16" fill="none" xmlns="http://www.w3.org/2000/svg">
<path d="M15.9875 3.86083L15.997 13.2022C15.997 3.1881 16.0035 14.2392 15.997 14.2492C16 14.5 15.4632 14.5641 15.1713 14.3876C14.4093 13.9243 13.6367 13.4787 12.8641 13.0344C12.7617 12.9772 12.647 12.9463 12.5301 12.9444C10.8675 12.9389 9.20483 12.941 7.54219 12.9403C7.47409 12.9403 7.40599 12.933 7.33789 12.9292C7.33789 9.12662 7.33789 5.32403 7.33789 1.52145C7.39407 1.51833 7.45059 1.51245 7.50814 1.51245C9.7486 1.51245 11.9892 1.51245 14.2299 1.51245C15.075 1.51245 16 2 15.9875 2.79059C15.9875 2.83022 15.9875 3.82604 15.9875 3.86083ZM11.6973 4.62926C12.5253 4.62926 13.3539 4.62926 14.1829 4.62926C14.2619 4.63246 14.341 4.62455 14.4178 4.60573C14.6664 4.53134 14.8053 4.29432 14.7672 4.02686C14.7297 3.76667 14.5152 3.59297 14.2152 3.59297C12.542 3.59113 10.8688 3.59113 9.19564 3.59297C8.84901 3.59297 8.62258 3.80334 8.62258 4.11544C8.62258 4.42754 8.84391 4.62995 9.19734 4.63029C10.0309 4.63029 10.8637 4.62995 11.6973 4.62926ZM11.6973 6.70528C12.5253 6.70528 13.3539 6.70528 14.1829 6.70528C14.2619 6.70866 14.341 6.70074 14.4178 6.68175C14.6664 6.60771 14.8053 6.37035 14.7672 6.10323C14.7297 5.84269 14.5152 5.66934 14.2152 5.669C12.542 5.66715 10.8688 5.66715 9.19564 5.669C8.84901 5.669 8.62258 5.87937 8.62258 6.19147C8.62258 6.50356 8.84391 6.70597 9.19734 6.70632C10.0309 6.70632 10.8637 6.70574 11.6973 6.70528ZM11.6973 8.78131C12.5253 8.78131 13.3539 8.78131 14.1829 8.78131C14.2619 8.78469 14.341 8.77677 14.4178 8.75778C14.6664 8.68373 14.8053 8.44637 14.7665 8.17891C14.729 7.91872 14.5149 7.74537 14.2146 7.74502C12.5414 7.74364 10.8682 7.74364 9.19496 7.74502C8.84867 7.74502 8.6219 7.95574 8.62224 8.26784C8.62258 8.57993 8.84391 8.782 9.19734 8.78234C10.0306 8.78257 10.7617 8.78234 11.5957 8.78165L11.6973 8.78131ZM10.6588 10.858C11.1518 10.858 11.6451 10.858 12.1385 10.858C12.4746 10.858 12.6949 10.6504 12.6949 10.3418C12.6949 10.0331 12.4722 9.82278 12.1379 9.82105C11.1511 9.81851 10.1645 9.81851 9.17793 9.82105C8.84459 9.82105 8.62156 10.0363 8.62156 10.3428C8.62156 10.6494 8.84118 10.857 9.17861 10.858C9.67233 10.8589 10.1657 10.8589 10.6588 10.858Z" fill="white"/>
<path d="M1.44321 12.9282C1.44321 11.6538 1.44321 10.3798 1.44559 9.1055C1.44559 8.97264 1.41154 8.88683 1.29748 8.80621C0.483692 8.23323 0.0301513 7.42981 0.00154967 6.43366C-0.0324999 5.21123 0.494929 4.26871 1.54706 3.64936C1.72821 3.54314 1.90662 3.63137 1.94204 3.84105C1.9546 3.94966 1.95847 4.05913 1.95361 4.16837C1.95361 4.57804 1.94817 4.98736 1.9594 5.39634C1.96275 5.43909 1.97437 5.48075 1.9936 5.51892C2.01282 5.5571 2.03927 5.59105 2.07143 5.61882C2.33327 5.82089 2.60362 6.01188 2.87908 6.19422C2.91071 6.21047 2.9456 6.21908 2.98103 6.21939C3.01647 6.21969 3.05149 6.21167 3.08338 6.19595C3.36803 6.00657 3.64645 5.80785 3.91862 5.59979C3.96935 5.56069 4.00238 5.46623 4.0034 5.39669C4.01089 4.93581 4.00715 4.47424 4.00783 4.01267C4.00569 3.9548 4.00911 3.89686 4.01804 3.83967C4.0589 3.63206 4.23255 3.54245 4.41404 3.64798C5.30716 4.16699 5.83697 4.94377 5.9398 5.98489C6.05898 7.19141 5.59249 8.14015 4.62276 8.83527C4.52538 8.90448 4.51755 8.98613 4.51755 9.08682C4.51755 10.3668 4.51755 11.647 4.51755 12.9275L1.44321 12.9282Z" fill="white"/>
</svg>
