<svg width="32" height="32" viewBox="0 0 32 32" fill="none" xmlns="http://www.w3.org/2000/svg">
<path d="M16 3.2002C17.933 3.20132 19.8406 3.64021 21.5797 4.48394C23.3188 5.32768 24.8443 6.55433 26.0416 8.07186C27.2389 9.58939 28.0769 11.3584 28.4928 13.2461C28.9087 15.1338 28.8917 17.0912 28.443 18.9714C27.9943 20.8515 27.1256 22.6057 25.9021 24.1022C24.6786 25.5986 23.1321 26.7986 21.3785 27.6119C19.625 28.4253 17.71 28.8309 15.7773 28.7984C13.8446 28.7659 11.9444 28.2961 10.2192 27.4242L10.0256 27.3202L4.19361 28.7762C4.08137 28.8044 3.96435 28.808 3.85061 28.7866C3.73687 28.7652 3.62913 28.7193 3.53483 28.6523C3.44052 28.5852 3.36189 28.4984 3.30436 28.398C3.24683 28.2976 3.21177 28.1859 3.20161 28.0706V27.9394L3.22401 27.8066L4.68001 21.9762L4.57921 21.7842C3.84884 20.3421 3.39824 18.7748 3.25121 17.165L3.21121 16.5538L3.20001 16.0002C3.20108 15.1223 3.28641 14.2695 3.45601 13.4418V13.4402C3.47714 13.3331 3.5197 13.2314 3.58115 13.1412C3.6426 13.0509 3.72166 12.9741 3.81358 12.9152C3.9055 12.8563 4.00838 12.8166 4.11603 12.7985C4.22368 12.7804 4.33389 12.7842 4.44001 12.8098C4.93121 12.9378 5.10081 13.4402 5.00481 13.8834L4.98561 13.9618C4.51404 16.537 4.95419 19.196 6.23041 21.4818C6.30466 21.6144 6.33962 21.7653 6.33121 21.917L6.30881 22.0674L5.09921 26.901L9.93761 25.6946C10.036 25.6703 10.138 25.6648 10.2384 25.6786L10.384 25.7122L10.5232 25.7746C12.415 26.8344 14.5738 27.3223 16.7376 27.1789C18.9013 27.0355 20.9768 26.2671 22.7123 24.967C24.4478 23.6668 25.7685 21.8909 26.5141 19.8546C27.2598 17.8184 27.3983 15.6095 26.9128 13.4961C26.4274 11.3827 25.3389 9.45561 23.7794 7.94886C22.22 6.4421 20.2566 5.42045 18.1278 5.00793C15.9989 4.5954 13.7961 4.80974 11.7867 5.62493C9.77729 6.44011 8.04775 7.82109 6.80801 9.6002H10.4C10.6122 9.6002 10.8157 9.68449 10.9657 9.83452C11.1157 9.98455 11.2 10.188 11.2 10.4002C11.2 10.6124 11.1157 10.8159 10.9657 10.9659C10.8157 11.1159 10.6122 11.2002 10.4 11.2002H5.60001C5.38784 11.2002 5.18436 11.1159 5.03433 10.9659C4.8843 10.8159 4.80001 10.6124 4.80001 10.4002V5.6002C4.80001 5.38803 4.8843 5.18455 5.03433 5.03452C5.18436 4.88449 5.38784 4.8002 5.60001 4.8002C5.81219 4.8002 6.01567 4.88449 6.1657 5.03452C6.31573 5.18455 6.40001 5.38803 6.40001 5.6002V7.533C7.59994 6.16954 9.07695 5.07777 10.7324 4.3306C12.3879 3.58342 14.1837 3.19805 16 3.2002ZM6.94561 12.8002C6.58698 13.818 6.40252 14.889 6.40001 15.9682L6.40961 16.4146L6.44161 16.9122C6.55434 18.097 6.88639 19.2504 7.42081 20.3138L8.08161 21.5618L7.29761 24.7026L10.4448 23.9186L11.6928 24.5826C13.2013 25.339 14.8826 25.6844 16.5671 25.584C18.2516 25.4836 19.8799 24.9409 21.2879 24.0106C22.6959 23.0804 23.8337 21.7954 24.5868 20.2853C25.34 18.7751 25.6817 17.0931 25.5776 15.4088C25.4735 13.7245 24.9272 12.0974 23.9939 10.6914C23.0606 9.28552 21.7731 8.15046 20.2613 7.40066C18.7495 6.65086 17.0668 6.31282 15.3827 6.42061C13.6986 6.52839 12.0727 7.0782 10.6688 8.0146C11.2794 8.08178 11.8411 8.38055 12.238 8.8494C12.635 9.31824 12.8371 9.92145 12.8026 10.5348C12.7681 11.1482 12.4998 11.7249 12.0528 12.1464C11.6059 12.5678 11.0143 12.8018 10.4 12.8002H6.94561ZM16 12.0002V17.6002H20C20.2122 17.6002 20.4157 17.6845 20.5657 17.8345C20.7157 17.9845 20.8 18.188 20.8 18.4002C20.8 18.6124 20.7157 18.8159 20.5657 18.9659C20.4157 19.1159 20.2122 19.2002 20 19.2002H15.2C14.9878 19.2002 14.7844 19.1159 14.6343 18.9659C14.4843 18.8159 14.4 18.6124 14.4 18.4002V12.0002C14.4 11.788 14.4843 11.5845 14.6343 11.4345C14.7844 11.2845 14.9878 11.2002 15.2 11.2002C15.4122 11.2002 15.6157 11.2845 15.7657 11.4345C15.9157 11.5845 16 11.788 16 12.0002Z" fill="white"/>
</svg>
