<svg width="32" height="32" viewBox="0 0 32 32" fill="none" xmlns="http://www.w3.org/2000/svg">
<path d="M16 2.95093C17.9707 2.95207 19.9164 3.39833 21.6895 4.25854C23.4624 5.11875 25.0177 6.36965 26.2383 7.91675C27.4589 9.46389 28.3133 11.2676 28.7373 13.1921C29.1613 15.1166 29.1439 17.1122 28.6865 19.0291C28.2291 20.946 27.3431 22.7348 26.0957 24.2605C24.8484 25.786 23.2719 27.0094 21.4844 27.8386C19.6966 28.6678 17.7438 29.0817 15.7734 29.0486C13.803 29.0154 11.8653 28.5361 10.1064 27.6472L10.1006 27.6443V27.6433L9.99219 27.5847L4.25391 29.0173L4.25488 29.0183C4.10761 29.0553 3.95393 29.06 3.80469 29.032C3.65541 29.0039 3.51343 28.9442 3.38965 28.8562C3.26598 28.7682 3.16337 28.6539 3.08789 28.5222C3.01243 28.3905 2.96649 28.2438 2.95312 28.0925L2.95215 28.0818V27.9187L2.95508 27.8972L2.97754 27.7644L2.97949 27.7556L2.98145 27.7458L4.41406 22.0076L4.3584 21.9001L4.35645 21.8972C3.61181 20.427 3.15185 18.8285 3.00195 17.1873V17.1814L2.96191 16.5701L2.96094 16.5583L2.96191 16.5574L2.9502 16.0046V15.9998C2.95115 15.2177 3.01783 14.4542 3.15039 13.7097L3.21094 13.3914C3.2386 13.2513 3.29462 13.1178 3.375 12.9998C3.45531 12.882 3.55869 12.7818 3.67871 12.7048C3.79902 12.6278 3.9343 12.5752 4.0752 12.5515C4.18065 12.5338 4.288 12.5323 4.39355 12.5466L4.49902 12.5662L4.50293 12.5671V12.5681C5.17212 12.7425 5.36148 13.4171 5.24902 13.9363L5.24805 13.9431L5.22949 14.0144C4.77074 16.5299 5.20263 19.1274 6.44922 21.3601H6.44824C6.54553 21.5339 6.59204 21.7315 6.58105 21.9304L6.5791 21.9539L6.55664 22.1042L6.55469 22.116L6.55176 22.1277L5.44238 26.5564L9.87695 25.4519H9.87793C10.0069 25.42 10.1408 25.4124 10.2725 25.4304L10.2842 25.4324L10.2949 25.4343L10.4404 25.4685L10.4639 25.4734L10.4863 25.4841L10.626 25.5466L10.6357 25.5505L10.6455 25.5564C12.4951 26.5925 14.6063 27.0696 16.7217 26.9294C18.8369 26.7892 20.8659 26.0374 22.5625 24.7664C24.2592 23.4952 25.5503 21.7591 26.2793 19.7683C27.0083 17.7775 27.1436 15.6178 26.6689 13.5515C26.1943 11.4854 25.13 9.60169 23.6055 8.12866C22.0808 6.65559 20.1614 5.656 18.0801 5.25269C15.9989 4.84947 13.8453 5.05928 11.8809 5.8562C10.067 6.59204 8.48756 7.80042 7.30176 9.35034H10.4004C10.6788 9.35039 10.9457 9.46109 11.1426 9.65796C11.3394 9.85485 11.4502 10.1218 11.4502 10.4001C11.4501 10.6786 11.3394 10.9455 11.1426 11.1423C10.9457 11.3392 10.6788 11.4499 10.4004 11.45H5.60059C5.32211 11.45 5.05433 11.3392 4.85742 11.1423C4.66068 10.9455 4.54985 10.6785 4.5498 10.4001V5.60034C4.5498 5.32186 4.66051 5.05409 4.85742 4.85718C5.05433 4.66027 5.32211 4.54956 5.60059 4.54956C5.87887 4.54966 6.14596 4.66042 6.34277 4.85718C6.53969 5.05409 6.65039 5.32186 6.65039 5.60034V6.89429C7.78846 5.72348 9.13816 4.77556 10.6299 4.10229C12.3176 3.34061 14.1484 2.9488 16 2.95093ZM15.2002 10.95C15.4786 10.95 15.7455 11.0607 15.9424 11.2576C16.1392 11.4544 16.2499 11.7214 16.25 11.9998V17.3503H20C20.2785 17.3503 20.5453 17.461 20.7422 17.658C20.9391 17.8549 21.0498 18.1217 21.0498 18.4001C21.0498 18.6786 20.9391 18.9455 20.7422 19.1423C20.5453 19.3391 20.2784 19.45 20 19.45H15.2002C14.9218 19.45 14.6549 19.3392 14.458 19.1423C14.2611 18.9455 14.1504 18.6786 14.1504 18.4001V11.9998C14.1504 11.7214 14.2611 11.4544 14.458 11.2576C14.6549 11.0607 14.9218 10.95 15.2002 10.95Z" fill="#9EA1B0" stroke="#9EA1B0" stroke-width="0.5"/>
</svg>
