<svg width="32" height="32" viewBox="0 0 32 32" fill="none" xmlns="http://www.w3.org/2000/svg">
<g clip-path="url(#clip0_747_1023)">
<path d="M6.47168 5.08337V7.36072H3.80566V26.4164H28.1943V7.36072H25.5273V5.08337H28.6709L28.8506 5.09509C29.0291 5.11574 29.2037 5.16298 29.3691 5.23474C29.5899 5.33055 29.7898 5.46897 29.957 5.64197C30.1242 5.81492 30.2564 6.01879 30.3447 6.24255C30.4326 6.46525 30.4753 6.7034 30.4717 6.94275V26.8314L30.4658 27.0111C30.4512 27.1903 30.4109 27.3667 30.3447 27.5345C30.2564 27.7584 30.1243 27.9631 29.957 28.1361C29.7898 28.3091 29.5898 28.4475 29.3691 28.5433C29.1486 28.639 28.9113 28.6907 28.6709 28.6947H3.3291C3.08848 28.6907 2.85064 28.6391 2.62988 28.5433C2.40918 28.4475 2.20923 28.3091 2.04199 28.1361C1.87478 27.9631 1.74357 27.7583 1.65527 27.5345C1.56704 27.3108 1.52327 27.0719 1.52734 26.8314V6.94275C1.52377 6.7034 1.56742 6.46525 1.65527 6.24255C1.74355 6.01895 1.87493 5.81483 2.04199 5.64197C2.20921 5.46901 2.40921 5.33055 2.62988 5.23474C2.85064 5.13893 3.08848 5.0874 3.3291 5.08337H6.47168Z" fill="#9EA1B0" stroke="#9EA1B0" stroke-width="0.5"/>
<path d="M9.13867 12.1945V14.4718H6.86133V12.1945H9.13867Z" fill="#9EA1B0" stroke="#9EA1B0" stroke-width="0.5"/>
<path d="M14.4707 12.1945V14.4718H12.1934V12.1945H14.4707Z" fill="#9EA1B0" stroke="#9EA1B0" stroke-width="0.5"/>
<path d="M19.8047 12.1945V14.4718H17.5273V12.1945H19.8047Z" fill="#9EA1B0" stroke="#9EA1B0" stroke-width="0.5"/>
<path d="M25.1387 12.1945V14.4718H22.8613V12.1945H25.1387Z" fill="#9EA1B0" stroke="#9EA1B0" stroke-width="0.5"/>
<path d="M9.13867 16.6387V18.916H6.86133V16.6387H9.13867Z" fill="#9EA1B0" stroke="#9EA1B0" stroke-width="0.5"/>
<path d="M14.4707 16.6387V18.916H12.1934V16.6387H14.4707Z" fill="#9EA1B0" stroke="#9EA1B0" stroke-width="0.5"/>
<path d="M19.8047 16.6387V18.916H17.5273V16.6387H19.8047Z" fill="#9EA1B0" stroke="#9EA1B0" stroke-width="0.5"/>
<path d="M25.1387 16.6387V18.916H22.8613V16.6387H25.1387Z" fill="#9EA1B0" stroke="#9EA1B0" stroke-width="0.5"/>
<path d="M9.13867 21.0834V23.3607H6.86133V21.0834H9.13867Z" fill="#9EA1B0" stroke="#9EA1B0" stroke-width="0.5"/>
<path d="M14.4707 21.0834V23.3607H12.1934V21.0834H14.4707Z" fill="#9EA1B0" stroke="#9EA1B0" stroke-width="0.5"/>
<path d="M19.8047 21.0834V23.3607H17.5273V21.0834H19.8047Z" fill="#9EA1B0" stroke="#9EA1B0" stroke-width="0.5"/>
<path d="M25.1387 21.0834V23.3607H22.8613V21.0834H25.1387Z" fill="#9EA1B0" stroke="#9EA1B0" stroke-width="0.5"/>
<path d="M8.88867 1.52783C9.19072 1.52783 9.48075 1.64823 9.69434 1.86182C9.9077 2.07532 10.0273 2.36466 10.0273 2.6665V8.00049C10.0272 8.30231 9.90771 8.59171 9.69434 8.80518C9.48075 9.01876 9.19072 9.13916 8.88867 9.13916C8.58675 9.1391 8.29751 9.01864 8.08398 8.80518C7.8705 8.5917 7.75011 8.30238 7.75 8.00049V2.6665C7.75006 2.36453 7.87045 2.07535 8.08398 1.86182C8.29752 1.64828 8.5867 1.52789 8.88867 1.52783Z" fill="#9EA1B0" stroke="#9EA1B0" stroke-width="0.5"/>
<path d="M23.1113 1.52783C23.4134 1.52783 23.7034 1.64823 23.917 1.86182C24.1304 2.07532 24.2499 2.36466 24.25 2.6665V8.00049C24.2499 8.30231 24.1304 8.59171 23.917 8.80518C23.7034 9.01876 23.4134 9.13916 23.1113 9.13916C22.8094 9.1391 22.5202 9.01864 22.3066 8.80518C22.0932 8.59169 21.9728 8.30238 21.9727 8.00049V2.6665C21.9727 2.36453 22.0931 2.07535 22.3066 1.86182C22.5202 1.64828 22.8094 1.52789 23.1113 1.52783Z" fill="#9EA1B0" stroke="#9EA1B0" stroke-width="0.5"/>
<path d="M20.6934 5.08337V7.36072H11.3047V5.08337H20.6934Z" fill="#9EA1B0" stroke="#9EA1B0" stroke-width="0.5"/>
</g>
<defs>
<clipPath id="clip0_747_1023">
<rect width="32" height="32" fill="white"/>
</clipPath>
</defs>
</svg>
