<svg width="16" height="16" viewBox="0 0 16 16" fill="none" xmlns="http://www.w3.org/2000/svg">
<g clip-path="url(#clip0_11631_44123)">
<path d="M8 0C3.58859 0 0 3.58859 0 8C0 12.4114 3.58859 16 8 16C12.4114 16 16 12.4114 16 8C16 3.58859 12.4114 0 8 0ZM10.5133 10.4438C10.2717 10.7959 9.95509 11.0601 9.54012 11.2574C9.23402 11.393 8.91536 11.4764 8.58624 11.5074V12.5827C8.58624 12.7468 8.4535 12.8791 8.28977 12.8791H7.40246C7.23831 12.8791 7.10599 12.7464 7.10599 12.5827V11.4144C6.93892 11.3734 6.77435 11.316 6.60937 11.2406C6.16593 11.0597 5.80832 10.7649 5.5575 10.3684C5.30584 10.0003 5.17058 9.57027 5.14965 9.06234C5.14295 8.90154 5.26564 8.76503 5.42601 8.75415L6.22287 8.69971C6.38325 8.6905 6.51892 8.80398 6.53777 8.96059C6.56959 9.22732 6.64454 9.448 6.75509 9.59874C6.87946 9.7855 7.039 9.90819 7.28019 10.007C7.79105 10.2319 8.44093 10.2323 8.89066 10.0594C9.08998 9.97393 9.23109 9.87595 9.32447 9.75535C9.40445 9.64062 9.44381 9.52002 9.44381 9.37597C9.44381 9.24072 9.40906 9.14106 9.32489 9.03303C9.28092 8.9744 9.16744 8.86469 8.86888 8.74535C8.72316 8.6972 8.34462 8.58958 7.76844 8.45014C7.09553 8.28223 6.7061 8.15493 6.46449 8.02387C6.10479 7.83376 5.8347 7.59676 5.66511 7.32081C5.49134 7.03983 5.4034 6.71908 5.4034 6.36818C5.4034 5.98629 5.51018 5.6224 5.72039 5.28657C5.93813 4.95912 6.2593 4.70202 6.65376 4.5362C6.78566 4.47632 6.93557 4.42607 7.10641 4.38587V3.39723C7.10641 3.23308 7.23915 3.10076 7.40288 3.10076H8.29019C8.45433 3.10076 8.58665 3.2335 8.58665 3.39723V4.33353C8.85339 4.37791 9.10044 4.44533 9.32447 4.53452C9.75786 4.72923 10.0723 4.99011 10.2968 5.33724C10.5216 5.6647 10.6485 6.05789 10.6707 6.49882C10.6787 6.66046 10.5556 6.79864 10.3939 6.80953L9.57823 6.86438C9.42078 6.87527 9.28553 6.76305 9.26417 6.60853C9.21853 6.27396 9.10673 6.0403 8.92206 5.895C8.71227 5.7162 8.40785 5.63287 7.98241 5.63287C7.56577 5.63287 7.2312 5.71369 7.03983 5.86108C6.88448 5.98084 6.81162 6.12489 6.81162 6.31416C6.81162 6.45988 6.85726 6.5742 6.94729 6.65459C6.99503 6.69228 7.25548 6.86187 8.09757 7.039C8.79309 7.20314 9.30437 7.35263 9.58451 7.47323C10.0309 7.67422 10.35 7.93342 10.5371 8.24496C10.7461 8.55776 10.8512 8.90783 10.8512 9.30311C10.8512 9.71432 10.7377 10.0979 10.5133 10.4438Z" fill="white"/>
</g>
<defs>
<clipPath id="clip0_11631_44123">
<rect width="16" height="16" fill="white"/>
</clipPath>
</defs>
</svg>
