<svg width="18" height="18" viewBox="0 0 18 18" fill="none" xmlns="http://www.w3.org/2000/svg">
<g clip-path="url(#clip0_1784_25274)">
<path d="M10.2902 0.16543C10.5082 -0.0525391 10.8668 -0.0525391 11.0848 0.16543L12.2098 1.29043L16.7098 5.79043L17.8348 6.91543C18.0527 7.1334 18.0527 7.49199 17.8348 7.70996C17.6168 7.92793 17.2582 7.92793 17.0402 7.70996L16.3125 6.98223L13.3348 9.95996L6.39141 16.9033C5.68828 17.6064 4.73555 18.0002 3.74414 18.0002C1.67695 18.0002 0 16.3232 0 14.2561C0 13.2646 0.39375 12.3119 1.09688 11.6088L3.54023 9.16543L11.018 1.6877L10.2902 0.959961C10.0723 0.741992 10.0723 0.383398 10.2902 0.16543ZM11.8125 2.48223L5.29453 9.0002H12.7055L15.518 6.1877L11.8125 2.48223ZM11.5805 10.1252H4.16953L1.89141 12.4033C1.39922 12.8955 1.125 13.56 1.125 14.2561C1.125 15.701 2.29922 16.8752 3.74414 16.8752C4.44023 16.8752 5.10469 16.601 5.59687 16.1088L11.5805 10.1252Z" fill="#374EA2"/>
</g>
<defs>
<clipPath id="clip0_1784_25274">
<rect width="18" height="18" fill="white"/>
</clipPath>
</defs>
</svg>
