<svg width="32" height="32" viewBox="0 0 32 32" fill="none" xmlns="http://www.w3.org/2000/svg">
<path d="M10.6673 26.6665V18.6665H21.334V26.6665H25.334V5.33317H6.66732V26.6665H10.6673ZM13.334 26.6665H18.6673V21.3332H13.334V26.6665ZM28.0007 26.6665H30.6673V29.3332H1.33398V26.6665H4.00065V3.99984C4.00065 3.64622 4.14113 3.30708 4.39118 3.05703C4.64122 2.80698 4.98036 2.6665 5.33398 2.6665H26.6673C27.0209 2.6665 27.3601 2.80698 27.6101 3.05703C27.8602 3.30708 28.0007 3.64622 28.0007 3.99984V26.6665ZM14.6673 10.6665V7.99984H17.334V10.6665H20.0007V13.3332H17.334V15.9998H14.6673V13.3332H12.0007V10.6665H14.6673Z" fill="#828282"/>
</svg>
