<svg width="16" height="16" viewBox="0 0 16 16" fill="none" xmlns="http://www.w3.org/2000/svg">
<path d="M7.9475 7.58812C9.76676 7.58812 11.2416 6.11332 11.2416 4.29406C11.2416 2.47481 9.76676 1 7.9475 1C6.12823 1 4.65344 2.47481 4.65344 4.29406C4.65344 6.11332 6.12823 7.58812 7.9475 7.58812Z" stroke="white" stroke-width="1.5" stroke-linecap="round" stroke-linejoin="round"/>
<path d="M11.4704 15C12.8259 15 13.7637 13.6488 12.8627 12.6361C12.553 12.2881 12.2055 11.972 11.825 11.6944C10.6992 10.8732 9.34179 10.4307 7.94834 10.4307C6.5549 10.4307 5.19746 10.8732 4.07171 11.6944C3.69109 11.972 3.34361 12.2881 3.03392 12.6362C2.13292 13.6489 3.07069 15 4.42618 15H11.4704Z" stroke="white" stroke-width="1.5" stroke-linecap="round" stroke-linejoin="round"/>
</svg>
