<svg width="16" height="16" viewBox="0 0 16 16" fill="none" xmlns="http://www.w3.org/2000/svg">
<path d="M6.38635 10.6624C7.4661 10.5754 8.55082 10.5754 9.63057 10.6624C10.2186 10.6966 10.8037 10.7702 11.3824 10.8826C12.6347 11.1361 13.4523 11.5498 13.8026 12.2171C14.0658 12.7378 14.0658 13.3578 13.8026 13.8786C13.4523 14.5458 12.6672 14.9862 11.3695 15.2131C10.7912 15.3297 10.2059 15.4055 9.61759 15.4399C9.07256 15.5 8.52753 15.5 7.97602 15.5H6.98328C6.77565 15.4733 6.57451 15.46 6.37986 15.46C5.79153 15.4297 5.20607 15.3561 4.62798 15.2398C3.37571 14.9996 2.55817 14.5725 2.20779 13.9052C2.07253 13.6468 2.00123 13.358 2.00008 13.0645C1.99734 12.7692 2.06649 12.4778 2.2013 12.2171C2.54519 11.5498 3.36273 11.1161 4.62798 10.8826C5.20862 10.7686 5.79608 10.695 6.38635 10.6624ZM8.00197 0.5C10.1771 0.5 11.9405 2.31337 11.9405 4.55027C11.9405 6.78717 10.1771 8.60053 8.00197 8.60053C5.8268 8.60053 4.06349 6.78717 4.06349 4.55027C4.06349 2.31337 5.8268 0.5 8.00197 0.5Z" fill="white"/>
</svg>
