<svg width="32" height="32" viewBox="0 0 32 32" fill="none" xmlns="http://www.w3.org/2000/svg">
<g clip-path="url(#clip0_747_1806)">
<path fill-rule="evenodd" clip-rule="evenodd" d="M10.2857 2.28571C10.2857 1.67951 10.0449 1.09812 9.61624 0.66947C9.18759 0.240816 8.60621 0 8 0C7.39379 0 6.81241 0.240816 6.38376 0.66947C5.9551 1.09812 5.71429 1.67951 5.71429 2.28571V4.57143H3.42857C2.51926 4.57143 1.64719 4.93265 1.00421 5.57563C0.361223 6.21862 0 7.09069 0 8L0 28.5714C0 29.4807 0.361223 30.3528 1.00421 30.9958C1.64719 31.6388 2.51926 32 3.42857 32H28.5714C29.4807 32 30.3528 31.6388 30.9958 30.9958C31.6388 30.3528 32 29.4807 32 28.5714V8C32 7.09069 31.6388 6.21862 30.9958 5.57563C30.3528 4.93265 29.4807 4.57143 28.5714 4.57143H26.2857V2.28571C26.2857 1.67951 26.0449 1.09812 25.6162 0.66947C25.1876 0.240816 24.6062 0 24 0C23.3938 0 22.8124 0.240816 22.3838 0.66947C21.9551 1.09812 21.7143 1.67951 21.7143 2.28571V4.57143H10.2857V2.28571ZM13.6457 12.4069C13.6457 11.9109 14.048 11.5109 14.544 11.5109H17.4583C17.952 11.5109 18.3543 11.9109 18.3543 12.4069V15.9726H21.92C22.416 15.9726 22.816 16.3749 22.816 16.8686V19.7829C22.8169 19.9009 22.7944 20.0179 22.7497 20.1272C22.705 20.2364 22.6391 20.3357 22.5557 20.4193C22.4724 20.5028 22.3733 20.569 22.2641 20.614C22.155 20.6589 22.038 20.6818 21.92 20.6811H18.3543V24.2469C18.3549 24.3647 18.3321 24.4815 18.2873 24.5905C18.2425 24.6994 18.1765 24.7985 18.0932 24.8818C18.0099 24.9651 17.9109 25.0311 17.8019 25.0759C17.6929 25.1207 17.5761 25.1435 17.4583 25.1429H14.5417C14.4239 25.1435 14.3071 25.1207 14.1981 25.0759C14.0891 25.0311 13.9901 24.9651 13.9068 24.8818C13.8235 24.7985 13.7575 24.6994 13.7127 24.5905C13.6679 24.4815 13.6451 24.3647 13.6457 24.2469V20.6811H10.08C9.96197 20.6818 9.845 20.6589 9.73587 20.614C9.62674 20.569 9.52762 20.5028 9.44426 20.4193C9.36091 20.3357 9.29498 20.2364 9.25031 20.1272C9.20563 20.0179 9.18309 19.9009 9.184 19.7829V16.8686C9.184 16.3749 9.584 15.9726 10.08 15.9726H13.6457V12.4069Z" fill="white"/>
</g>
<defs>
<clipPath id="clip0_747_1806">
<rect width="32" height="32" fill="white"/>
</clipPath>
</defs>
</svg>
