<svg width="32" height="32" viewBox="0 0 32 32" fill="none" xmlns="http://www.w3.org/2000/svg">
<path d="M28 26.6666H30.6667V29.3333H1.33334V26.6666H4.00001V3.99996C4.00001 3.64634 4.14049 3.3072 4.39053 3.05715C4.64058 2.8071 4.97972 2.66663 5.33334 2.66663H26.6667C27.0203 2.66663 27.3594 2.8071 27.6095 3.05715C27.8595 3.3072 28 3.64634 28 3.99996V26.6666ZM14.6667 10.6666H12V13.3333H14.6667V16H17.3333V13.3333H20V10.6666H17.3333V7.99996H14.6667V10.6666ZM18.6667 26.6666H21.3333V18.6666H10.6667V26.6666H13.3333V21.3333H18.6667V26.6666Z" fill="white"/>
</svg>
