<svg width="32" height="32" viewBox="0 0 32 32" fill="none" xmlns="http://www.w3.org/2000/svg">
<path fill-rule="evenodd" clip-rule="evenodd" d="M9.42855 2.0001C9.42855 1.62122 9.27804 1.25786 9.01013 0.989952C8.74222 0.722043 8.37885 0.571533 7.99997 0.571533C7.62109 0.571533 7.25773 0.722043 6.98982 0.989952C6.72191 1.25786 6.5714 1.62122 6.5714 2.0001V4.57153H4.5714C3.58631 4.57153 2.64157 4.96286 1.94501 5.65942C1.24844 6.35599 0.857117 7.30073 0.857117 8.28582V27.143C0.857117 28.1281 1.24844 29.0728 1.94501 29.7694C2.64157 30.4659 3.58631 30.8572 4.5714 30.8572H27.4285C28.4136 30.8572 29.3584 30.4659 30.0549 29.7694C30.7515 29.0728 31.1428 28.1281 31.1428 27.143V8.28582C31.1428 7.30073 30.7515 6.35599 30.0549 5.65942C29.3584 4.96286 28.4136 4.57153 27.4285 4.57153H25.4285V2.0001C25.4285 1.62122 25.278 1.25786 25.0101 0.989952C24.7422 0.722043 24.3789 0.571533 24 0.571533C23.6211 0.571533 23.2577 0.722043 22.9898 0.989952C22.7219 1.25786 22.5714 1.62122 22.5714 2.0001V4.57153H9.42855V2.0001ZM22.5714 8.85725V7.42868H9.42855V8.85725C9.42855 9.23613 9.27804 9.59949 9.01013 9.8674C8.74222 10.1353 8.37885 10.2858 7.99997 10.2858C7.62109 10.2858 7.25773 10.1353 6.98982 9.8674C6.72191 9.59949 6.5714 9.23613 6.5714 8.85725V7.42868H4.5714C4.34407 7.42868 4.12606 7.51898 3.96531 7.67973C3.80457 7.84047 3.71426 8.05849 3.71426 8.28582V27.143C3.71426 27.3703 3.80457 27.5883 3.96531 27.7491C4.12606 27.9098 4.34407 28.0001 4.5714 28.0001H27.4285C27.6559 28.0001 27.8739 27.9098 28.0346 27.7491C28.1954 27.5883 28.2857 27.3703 28.2857 27.143V8.28582C28.2857 8.05849 28.1954 7.84047 28.0346 7.67973C27.8739 7.51898 27.6559 7.42868 27.4285 7.42868H25.4285V8.85725C25.4285 9.23613 25.278 9.59949 25.0101 9.8674C24.7422 10.1353 24.3789 10.2858 24 10.2858C23.6211 10.2858 23.2577 10.1353 22.9898 9.8674C22.7219 9.59949 22.5714 9.23613 22.5714 8.85725ZM13.3303 12.8321C13.3303 12.3727 13.7028 12.0001 14.1623 12.0001H17.8377C18.2971 12.0001 18.6697 12.3727 18.6697 12.8321V15.9018H21.7394C22.1988 15.9018 22.5714 16.2744 22.5714 16.7338V20.4092C22.5714 20.6299 22.4837 20.8415 22.3277 20.9976C22.1717 21.1536 21.9601 21.2412 21.7394 21.2412H18.6697V24.311C18.6697 24.4202 18.6482 24.5284 18.6064 24.6294C18.5645 24.7303 18.5033 24.822 18.426 24.8993C18.3487 24.9765 18.257 25.0378 18.1561 25.0796C18.0551 25.1214 17.9469 25.143 17.8377 25.143H14.1623C14.053 25.143 13.9448 25.1214 13.8439 25.0796C13.7429 25.0378 13.6512 24.9765 13.5739 24.8993C13.4967 24.822 13.4354 24.7303 13.3936 24.6294C13.3518 24.5284 13.3303 24.4202 13.3303 24.311V21.2412H10.2605C10.0399 21.2412 9.82826 21.1536 9.67223 20.9976C9.5162 20.8415 9.42855 20.6299 9.42855 20.4092V16.7338C9.42855 16.2744 9.80112 15.9018 10.2605 15.9018H13.3303V12.8321Z" fill="#9EA1B0"/>
</svg>
