<svg width="32" height="32" viewBox="0 0 32 32" fill="none" xmlns="http://www.w3.org/2000/svg">
<path d="M12.0001 17.333V19.9997C12.0001 20.3775 12.1281 20.6943 12.3841 20.9503C12.6401 21.2063 12.9565 21.3339 13.3334 21.333C13.7103 21.3321 14.0272 21.2041 14.2841 20.949C14.541 20.6939 14.6685 20.3775 14.6667 19.9997V17.333H17.3334C17.7112 17.333 18.0281 17.205 18.2841 16.949C18.5401 16.693 18.6676 16.3766 18.6667 15.9997C18.6659 15.6228 18.5379 15.3063 18.2827 15.0503C18.0276 14.7943 17.7112 14.6663 17.3334 14.6663H14.6667V11.9997C14.6667 11.6219 14.5387 11.3055 14.2827 11.0503C14.0267 10.7952 13.7103 10.6672 13.3334 10.6663C12.9565 10.6655 12.6401 10.7935 12.3841 11.0503C12.1281 11.3072 12.0001 11.6237 12.0001 11.9997V14.6663H9.33341C8.95564 14.6663 8.63919 14.7943 8.38408 15.0503C8.12897 15.3063 8.00097 15.6228 8.00008 15.9997C7.99919 16.3766 8.12719 16.6935 8.38408 16.9503C8.64097 17.2072 8.95741 17.3348 9.33341 17.333H12.0001ZM5.33341 26.6663C4.60008 26.6663 3.97253 26.4055 3.45075 25.8837C2.92897 25.3619 2.66764 24.7339 2.66675 23.9997V7.99967C2.66675 7.26634 2.92808 6.63879 3.45075 6.11701C3.97341 5.59523 4.60097 5.3339 5.33341 5.33301H21.3334C22.0667 5.33301 22.6947 5.59434 23.2174 6.11701C23.7401 6.63967 24.001 7.26723 24.0001 7.99967V13.9997L28.2001 9.79967C28.4223 9.57745 28.6667 9.5219 28.9334 9.63301C29.2001 9.74412 29.3334 9.95523 29.3334 10.2663V21.733C29.3334 22.0441 29.2001 22.2552 28.9334 22.3663C28.6667 22.4775 28.4223 22.4219 28.2001 22.1997L24.0001 17.9997V23.9997C24.0001 24.733 23.7392 25.361 23.2174 25.8837C22.6956 26.4063 22.0676 26.6672 21.3334 26.6663H5.33341Z" fill="white"/>
</svg>
