<svg width="13" height="12" viewBox="0 0 13 12" fill="none" xmlns="http://www.w3.org/2000/svg">
<g clip-path="url(#clip0_293_22329)">
<path d="M4.25032 9.86518C4.28394 9.82926 4.32457 9.80062 4.36969 9.78101C4.41481 9.76141 4.46347 9.75126 4.51267 9.7512C4.56187 9.75113 4.61056 9.76115 4.65573 9.78064C4.7009 9.80012 4.74161 9.82866 4.77532 9.86449L5.63895 10.7184L5.63025 4.12586C5.63012 4.0264 5.6695 3.93096 5.73973 3.86055C5.80997 3.79013 5.9053 3.75049 6.00475 3.75036C6.10421 3.75023 6.19964 3.78961 6.27006 3.85985C6.34048 3.93008 6.38012 4.02541 6.38025 4.12487L6.38895 10.7174L7.25032 9.86122C7.31985 9.79151 7.41422 9.75227 7.51267 9.75215C7.61113 9.75202 7.70561 9.791 7.77532 9.86053C7.84503 9.93006 7.88427 10.0244 7.8844 10.1229C7.88453 10.2213 7.84554 10.3158 7.77601 10.3855L6.27799 11.8875C6.24437 11.9234 6.20375 11.9521 6.15862 11.9717C6.1135 11.9913 6.06484 12.0014 6.01564 12.0015C5.96644 12.0016 5.91776 11.9915 5.87258 11.9721C5.82741 11.9526 5.78671 11.924 5.75299 11.8882L4.25101 10.3902C4.2151 10.3566 4.18645 10.3159 4.16685 10.2708C4.14724 10.2257 4.13709 10.177 4.13703 10.1278C4.13696 10.0786 4.14698 10.0299 4.16647 9.98477C4.18595 9.9396 4.21449 9.8989 4.25032 9.86518Z" fill="#9EA1B0"/>
<path d="M0.00971761 7.509L0.00179888 1.50901C0.00127383 1.11118 0.158805 0.729445 0.439739 0.447769C0.720672 0.166093 1.10199 0.0075544 1.49982 0.00702935L10.4998 -0.00484874C10.8976 -0.00537379 11.2794 0.152158 11.5611 0.433092C11.8427 0.714024 12.0013 1.09535 12.0018 1.49317L12.0097 7.49317C12.0102 7.89099 11.8527 8.27273 11.5718 8.5544C11.2908 8.83608 10.9095 8.99462 10.5117 8.99514L7.88669 8.99861C7.78724 8.99874 7.6918 8.95936 7.62138 8.88912C7.55096 8.81889 7.51133 8.72356 7.5112 8.6241C7.51107 8.52465 7.55045 8.42921 7.62068 8.35879C7.69092 8.28837 7.78625 8.24874 7.8857 8.24861L10.5107 8.24514C10.7096 8.24488 10.9003 8.16561 11.0407 8.02477C11.1812 7.88394 11.26 7.69307 11.2597 7.49416L11.2518 1.49416C11.2515 1.29525 11.1723 1.10459 11.0314 0.964121C10.8906 0.823654 10.6997 0.744888 10.5008 0.745151L1.50081 0.757029C1.3019 0.757291 1.11123 0.836561 0.970768 0.977399C0.830302 1.11824 0.751536 1.30911 0.751798 1.50802L0.759717 7.50801C0.75998 7.70693 0.839249 7.89759 0.980087 8.03805C1.12092 8.17852 1.31179 8.25728 1.51071 8.25702L4.1357 8.25356C4.23516 8.25343 4.3306 8.29281 4.40101 8.36304C4.47143 8.43328 4.51107 8.52861 4.5112 8.62806C4.51133 8.72752 4.47195 8.82295 4.40171 8.89337C4.33148 8.96379 4.23615 9.00343 4.13669 9.00356L1.5117 9.00702C1.11387 9.00755 0.732133 8.85002 0.450458 8.56908C0.168781 8.28815 0.0102427 7.90683 0.00971761 7.509Z" fill="#9EA1B0"/>
</g>
<defs>
<clipPath id="clip0_293_22329">
<rect width="12" height="12" fill="white" transform="translate(12.0157 11.9932) rotate(179.924)"/>
</clipPath>
</defs>
</svg>
